# SSTK version 0.8.0
# 8
mtllib original-8.mtl
o Group8/mesh4/mesh4-geometry#mesh4-geometry
v -0.000272 -0.515552 -0.010373
v 0.003543 -0.515552 -0.010373
v 0.001636 -0.515552 -0.010624
v -0.002050 -0.515552 -0.009637
v 0.001636 -0.532064 -0.010624
v -0.000272 -0.532064 -0.010373
v -0.002050 -0.532064 -0.009637
v 0.005321 -0.515552 -0.009637
v 0.003543 -0.532064 -0.010373
v -0.003576 -0.532064 -0.008465
v -0.003576 -0.515552 -0.008465
v 0.001636 -0.533732 -0.008421
v 0.005321 -0.532064 -0.009637
v 0.000298 -0.533732 -0.008245
v -0.000948 -0.533732 -0.007729
v 0.006847 -0.515552 -0.008465
v 0.002973 -0.533732 -0.008245
v -0.004748 -0.515552 -0.006939
v 0.006847 -0.532064 -0.008465
v -0.002018 -0.533732 -0.006907
v 0.008019 -0.515552 -0.006939
v 0.004219 -0.533732 -0.007729
v -0.004748 -0.532064 -0.006939
v 0.008019 -0.532064 -0.006939
v -0.005484 -0.515552 -0.005161
v 0.008755 -0.515552 -0.005161
v 0.005289 -0.533732 -0.006907
v -0.002839 -0.533732 -0.005837
v 0.008755 -0.532064 -0.005161
v -0.005484 -0.532064 -0.005161
v 0.006110 -0.533732 -0.005837
v -0.005735 -0.515552 -0.003254
v 0.009006 -0.515552 -0.003254
v 0.009006 -0.532064 -0.003254
v 0.006627 -0.533732 -0.004591
v -0.003356 -0.533732 -0.004591
v -0.005735 -0.532064 -0.003254
v -0.005484 -0.515552 -0.001346
v 0.008755 -0.532064 -0.001346
v 0.006803 -0.533732 -0.003254
v -0.003532 -0.533732 -0.003254
v -0.005484 -0.532064 -0.001346
v 0.008755 -0.515552 -0.001346
v 0.006627 -0.533732 -0.001916
v -0.003356 -0.533732 -0.001916
v -0.004748 -0.515552 0.000432
v 0.008019 -0.532064 0.000432
v 0.006110 -0.533732 -0.000670
v -0.002839 -0.533732 -0.000670
v -0.004748 -0.532064 0.000432
v 0.008019 -0.515552 0.000432
v -0.003576 -0.515552 0.001958
v 0.006847 -0.532064 0.001958
v 0.005289 -0.533732 0.000400
v -0.002018 -0.533732 0.000400
v -0.003576 -0.532064 0.001958
v 0.006847 -0.515552 0.001958
v -0.002050 -0.532064 0.003129
v -0.002050 -0.515552 0.003129
v 0.005321 -0.515552 0.003129
v 0.004219 -0.533732 0.001221
v 0.005321 -0.532064 0.003129
v -0.000948 -0.533732 0.001221
v -0.000272 -0.532064 0.003866
v 0.003543 -0.532064 0.003866
v 0.000298 -0.533732 0.001737
v -0.000272 -0.515552 0.003866
v 0.003543 -0.515552 0.003866
v 0.002973 -0.533732 0.001737
v 0.001636 -0.532064 0.004117
v 0.001636 -0.533732 0.001914
v 0.001636 -0.515552 0.004117
vn 0 1 0
vn 0 -1 0
vn 0.25881895959357537 0 -0.9659258492011171
vn 0 0 -1
vn 0 0 1
vn -0.25881895959357537 0 0.9659258492011171
vn -0.25881895959357537 0 -0.9659258492011171
vn 0.25881895959357537 0 0.9659258492011171
vn -0.5000001748438415 0 -0.8660253028382761
vn 0.5000001748438415 0 0.8660253028382761
vn -0.7071067811865474 0 -0.7071067811865476
vn 0.7071067811865474 0 0.7071067811865476
vn 0.5000001748438415 0 -0.8660253028382761
vn -0.5000001748438415 0 0.8660253028382761
vn 0.1561990224955503 -0.7973591148344723 -0.5829410839543062
vn 0 -0.7973591355885408 -0.6035051026242405
vn 0 0.7973591355885408 0.6035051026242405
vn -0.1561990224955503 0.7973591148344723 0.5829410839543062
vn -0.15619902249555065 -0.7973591148344721 -0.5829410839543062
vn 0.15619902249555065 0.7973591148344721 0.5829410839543062
vn -0.3017522011352599 -0.7973595314861532 -0.5226503483766253
vn 0.3017522011352599 0.7973595314861532 0.5226503483766253
vn -0.4267422466551695 -0.7973594608703136 -0.4267422466551692
vn 0.4267422466551695 0.7973594608703136 0.4267422466551692
vn -0.8660253028382761 0 -0.5000001748438418
vn 0.8660253028382761 0 0.5000001748438418
vn 0.7071067811865474 0 -0.7071067811865476
vn -0.7071067811865474 0 0.7071067811865476
vn 0.3017522011352596 -0.7973595314861534 -0.5226503483766253
vn -0.3017522011352596 0.7973595314861534 0.5226503483766253
vn 0.4267422466551692 -0.7973594608703138 -0.4267422466551692
vn -0.4267422466551692 0.7973594608703138 0.4267422466551692
vn -0.5226503483766257 -0.7973595314861532 -0.3017522011352596
vn 0.5226503483766257 0.7973595314861532 0.3017522011352596
vn 0.8660253028382761 0 -0.5000001748438418
vn -0.8660253028382761 0 0.5000001748438418
vn -0.965925849201117 0 -0.25881895959357554
vn 0.965925849201117 0 0.25881895959357554
vn 0.5226503483766254 -0.7973595314861535 -0.3017522011352596
vn -0.5226503483766254 0.7973595314861535 0.3017522011352596
vn 0.965925849201117 0 -0.25881895959357554
vn -0.965925849201117 0 0.25881895959357554
vn -0.5829410839543065 -0.797359114834472 -0.15619902249555018
vn 0.5829410839543065 0.797359114834472 0.15619902249555018
vn 0.5829410839543062 -0.7973591148344722 -0.1561990224955502
vn -0.5829410839543062 0.7973591148344722 0.1561990224955502
vn -1 0 0
vn 1 0 0
vn 0.6035051026242405 -0.7973591355885408 0
vn -0.6035051026242405 0.7973591355885408 0
vn -0.603505102624241 -0.7973591355885403 0
vn 0.603505102624241 0.7973591355885403 0
vn 0.5829410839543062 -0.7973591148344721 0.15619902249555093
vn -0.5829410839543062 0.7973591148344721 -0.15619902249555093
vn -0.5829410839543065 -0.7973591148344719 0.15619902249555093
vn 0.5829410839543065 0.7973591148344719 -0.15619902249555093
vn 0.5226503483766254 -0.7973595314861532 0.3017522011352603
vn -0.5226503483766254 0.7973595314861532 -0.3017522011352603
vn -0.5226503483766256 -0.7973595314861529 0.3017522011352602
vn 0.5226503483766256 0.7973595314861529 -0.3017522011352602
vn 0.42674224665516924 -0.7973594608703134 0.4267422466551699
vn -0.42674224665516924 0.7973594608703134 -0.4267422466551699
vn -0.4267422466551695 -0.7973594608703131 0.42674224665516985
vn 0.4267422466551695 0.7973594608703131 -0.42674224665516985
vn 0.3017522011352596 -0.7973595314861529 0.5226503483766259
vn -0.3017522011352596 0.7973595314861529 -0.5226503483766259
vn -0.3017522011352599 -0.7973595314861527 0.5226503483766259
vn 0.3017522011352599 0.7973595314861527 -0.5226503483766259
vn -0.15619902249555065 -0.7973591148344715 0.582941083954307
vn 0.15619902249555065 0.7973591148344715 -0.582941083954307
vn 0.1561990224955503 -0.7973591148344717 0.582941083954307
vn -0.1561990224955503 0.7973591148344717 -0.582941083954307
vn 0 -0.7973591355885402 0.6035051026242413
vn 0 0.7973591355885402 -0.6035051026242413
usemtl material_0_0
f 1//1 2//1 3//1
f 2//1 1//1 4//1
f 3//2 2//2 1//2
f 4//2 1//2 2//2
f 2//3 5//4 3//4
f 3//5 5//5 2//6
f 3//4 6//7 1//7
f 1//8 6//8 3//5
f 1//7 7//9 4//9
f 4//10 7//10 1//8
f 2//1 4//1 8//1
f 8//2 4//2 2//2
f 5//4 2//3 9//3
f 9//6 2//6 5//5
f 6//7 3//4 5//4
f 5//5 3//5 6//8
f 7//9 1//7 6//7
f 6//8 1//8 7//10
f 10//11 4//9 7//9
f 7//10 4//10 10//12
f 8//1 4//1 11//1
f 11//2 4//2 8//2
f 8//13 9//3 2//3
f 2//6 9//6 8//14
f 9//2 6//2 5//2
f 5//1 6//1 9//1
f 9//15 12//16 5//16
f 5//17 12//17 9//18
f 12//16 6//19 5//16
f 5//17 6//20 12//17
f 6//2 13//2 7//2
f 7//1 13//1 6//1
f 14//19 7//21 6//19
f 6//20 7//22 14//20
f 4//9 10//11 11//11
f 11//12 10//12 4//10
f 7//2 13//2 10//2
f 10//1 13//1 7//1
f 15//21 10//23 7//21
f 7//22 10//24 15//22
f 8//1 11//1 16//1
f 16//2 11//2 8//2
f 9//3 8//13 13//13
f 13//14 8//14 9//6
f 6//2 9//2 13//2
f 13//1 9//1 6//1
f 12//16 9//15 17//15
f 17//18 9//18 12//17
f 6//19 12//16 14//19
f 14//20 12//17 6//20
f 7//21 14//19 15//21
f 15//22 14//20 7//22
f 10//11 18//25 11//11
f 11//12 18//26 10//12
f 10//2 13//2 19//2
f 19//1 13//1 10//1
f 10//23 15//21 20//23
f 20//24 15//22 10//24
f 16//1 11//1 21//1
f 21//2 11//2 16//2
f 16//27 13//13 8//13
f 8//14 13//14 16//28
f 13//29 17//15 9//15
f 9//18 17//18 13//30
f 17//2 14//2 12//2
f 12//1 14//1 17//1
f 14//2 22//2 15//2
f 15//1 22//1 14//1
f 18//25 10//11 23//25
f 23//26 10//12 18//26
f 21//1 11//1 18//1
f 18//2 11//2 21//2
f 13//13 16//27 19//27
f 19//28 16//28 13//14
f 19//31 22//29 13//29
f 13//30 22//30 19//32
f 10//2 19//2 24//2
f 24//1 19//1 10//1
f 15//2 22//2 20//2
f 20//1 22//1 15//1
f 20//23 23//33 10//23
f 10//24 23//34 20//24
f 24//35 16//27 21//35
f 21//36 16//28 24//36
f 17//15 13//29 22//29
f 22//30 13//30 17//18
f 14//2 17//2 22//2
f 22//1 17//1 14//1
f 10//2 24//2 23//2
f 23//1 24//1 10//1
f 23//25 25//37 18//25
f 18//26 25//38 23//26
f 21//1 18//1 26//1
f 26//2 18//2 21//2
f 16//27 24//35 19//27
f 19//28 24//36 16//28
f 22//29 19//31 27//31
f 27//32 19//32 22//30
f 24//39 27//31 19//31
f 19//32 27//32 24//40
f 20//2 22//2 27//2
f 27//1 22//1 20//1
f 23//33 20//23 28//33
f 28//34 20//24 23//34
f 21//35 29//41 24//35
f 24//36 29//42 21//36
f 23//2 24//2 29//2
f 29//1 24//1 23//1
f 25//37 23//25 30//37
f 30//38 23//26 25//38
f 26//1 18//1 25//1
f 25//2 18//2 26//2
f 29//41 21//35 26//41
f 26//42 21//36 29//42
f 27//31 24//39 31//39
f 31//40 24//40 27//32
f 20//2 27//2 31//2
f 31//1 27//1 20//1
f 20//2 31//2 28//2
f 28//1 31//1 20//1
f 28//33 30//43 23//33
f 23//34 30//44 28//34
f 29//45 31//39 24//39
f 24//40 31//40 29//46
f 23//2 29//2 30//2
f 30//1 29//1 23//1
f 30//37 32//47 25//37
f 25//38 32//48 30//38
f 26//1 25//1 33//1
f 33//2 25//2 26//2
f 26//41 34//48 29//41
f 29//42 34//47 26//42
f 28//2 31//2 35//2
f 35//1 31//1 28//1
f 30//43 28//33 36//43
f 36//44 28//34 30//44
f 31//39 29//45 35//45
f 35//46 29//46 31//40
f 30//2 29//2 34//2
f 34//1 29//1 30//1
f 32//47 30//37 37//47
f 37//48 30//38 32//48
f 33//1 25//1 32//1
f 32//2 25//2 33//2
f 34//48 26//41 33//48
f 33//47 26//42 34//47
f 34//49 35//45 29//45
f 29//46 35//46 34//50
f 28//2 35//2 36//2
f 36//1 35//1 28//1
f 36//43 37//51 30//43
f 30//44 37//52 36//44
f 30//2 34//2 37//2
f 37//1 34//1 30//1
f 37//47 38//42 32//47
f 32//48 38//41 37//48
f 33//1 32//1 38//1
f 38//2 32//2 33//2
f 33//48 39//38 34//48
f 34//47 39//37 33//47
f 35//45 34//49 40//49
f 40//50 34//50 35//46
f 36//2 35//2 40//2
f 40//1 35//1 36//1
f 37//51 36//43 41//51
f 41//52 36//44 37//52
f 37//2 34//2 39//2
f 39//1 34//1 37//1
f 38//42 37//47 42//42
f 42//41 37//48 38//41
f 33//1 38//1 43//1
f 43//2 38//2 33//2
f 39//38 33//48 43//38
f 43//37 33//47 39//37
f 44//53 34//49 39//53
f 39//54 34//50 44//54
f 34//49 44//53 40//49
f 40//50 44//54 34//50
f 36//2 40//2 41//2
f 41//1 40//1 36//1
f 45//55 37//51 41//51
f 41//52 37//52 45//56
f 37//2 39//2 42//2
f 42//1 39//1 37//1
f 37//51 45//55 42//55
f 42//56 45//56 37//52
f 42//42 46//36 38//42
f 38//41 46//35 42//41
f 43//1 38//1 46//1
f 46//2 38//2 43//2
f 43//38 47//26 39//38
f 39//37 47//25 43//37
f 39//53 48//57 44//53
f 44//54 48//58 39//54
f 41//2 40//2 44//2
f 44//1 40//1 41//1
f 41//2 44//2 45//2
f 45//1 44//1 41//1
f 42//2 39//2 47//2
f 47//1 39//1 42//1
f 49//59 42//55 45//55
f 45//56 42//56 49//60
f 46//36 42//42 50//36
f 50//35 42//41 46//35
f 43//1 46//1 51//1
f 51//2 46//2 43//2
f 47//26 43//38 51//26
f 51//25 43//37 47//25
f 48//57 39//53 47//57
f 47//58 39//54 48//58
f 45//2 44//2 48//2
f 48//1 44//1 45//1
f 42//2 47//2 50//2
f 50//1 47//1 42//1
f 42//55 49//59 50//59
f 50//60 49//60 42//56
f 45//2 48//2 49//2
f 49//1 48//1 45//1
f 50//36 52//28 46//36
f 46//35 52//27 50//35
f 51//1 46//1 52//1
f 52//2 46//2 51//2
f 51//26 53//12 47//26
f 47//25 53//11 51//25
f 47//57 54//61 48//57
f 48//58 54//62 47//58
f 50//2 47//2 53//2
f 53//1 47//1 50//1
f 55//63 50//59 49//59
f 49//60 50//60 55//64
f 49//2 48//2 54//2
f 54//1 48//1 49//1
f 52//28 50//36 56//28
f 56//27 50//35 52//27
f 51//1 52//1 57//1
f 57//2 52//2 51//2
f 53//12 51//26 57//12
f 57//11 51//25 53//11
f 54//61 47//57 53//61
f 53//62 47//58 54//62
f 50//2 53//2 56//2
f 56//1 53//1 50//1
f 50//59 55//63 56//63
f 56//64 55//64 50//60
f 49//2 54//2 55//2
f 55//1 54//1 49//1
f 58//14 52//28 56//28
f 56//27 52//27 58//13
f 57//1 52//1 59//1
f 59//2 52//2 57//2
f 60//10 53//12 57//12
f 57//11 53//11 60//9
f 53//61 61//65 54//61
f 54//62 61//66 53//62
f 56//2 53//2 62//2
f 62//1 53//1 56//1
f 63//67 56//63 55//63
f 55//64 56//64 63//68
f 55//2 54//2 61//2
f 61//1 54//1 55//1
f 52//28 58//14 59//14
f 59//13 58//13 52//27
f 56//2 62//2 58//2
f 58//1 62//1 56//1
f 56//63 63//67 58//67
f 58//68 63//68 56//64
f 57//1 59//1 60//1
f 60//2 59//2 57//2
f 53//12 60//10 62//10
f 62//9 60//9 53//11
f 61//65 53//61 62//65
f 62//66 53//62 61//66
f 55//2 61//2 63//2
f 63//1 61//1 55//1
f 64//6 59//14 58//14
f 58//13 59//13 64//3
f 58//2 62//2 65//2
f 65//1 62//1 58//1
f 66//69 58//67 63//67
f 63//68 58//68 66//70
f 60//1 59//1 67//1
f 67//2 59//2 60//2
f 68//8 62//10 60//10
f 60//9 62//9 68//7
f 62//65 69//71 61//65
f 61//66 69//72 62//66
f 63//2 61//2 69//2
f 69//1 61//1 63//1
f 59//14 64//6 67//6
f 67//3 64//3 59//13
f 58//2 65//2 64//2
f 64//1 65//1 58//1
f 58//67 66//69 64//69
f 64//70 66//70 58//68
f 62//10 68//8 65//8
f 65//7 68//7 62//9
f 69//71 62//65 65//71
f 65//72 62//66 69//72
f 63//2 69//2 66//2
f 66//1 69//1 63//1
f 60//1 67//1 68//1
f 68//2 67//2 60//2
f 70//5 67//6 64//6
f 64//3 67//3 70//4
f 64//2 65//2 70//2
f 70//1 65//1 64//1
f 71//73 64//69 66//69
f 66//70 64//70 71//74
f 72//5 65//8 68//8
f 68//7 65//7 72//4
f 65//71 71//73 69//71
f 69//72 71//74 65//72
f 66//2 69//2 71//2
f 71//1 69//1 66//1
f 68//1 67//1 72//1
f 72//2 67//2 68//2
f 67//6 70//5 72//5
f 72//4 70//4 67//3
f 64//69 71//73 70//73
f 70//74 71//74 64//70
f 65//8 72//5 70//5
f 70//4 72//4 65//7
f 71//73 65//71 70//73
f 70//74 65//72 71//74
