# SSTK version 0.8.0
# 12
mtllib original-12.mtl
o Group11/mesh7/mesh7-geometry#mesh7-geometry
v 0.040702 0.944086 0.019302
v 0.045209 0.989196 0.008422
v 0.040702 0.989196 0.019302
v 0.045209 0.944086 0.008422
v 0.031455 0.984221 0.013963
v 0.033533 0.944086 0.028644
v 0.046746 0.989196 -0.003254
v 0.034895 0.984221 0.005658
v 0.025983 0.984221 0.021094
v 0.033533 0.989196 0.028644
v 0.046746 0.944086 -0.003254
v -0.028184 0.984221 0.013963
v 0.024191 0.989196 0.035813
v 0.045209 0.989196 -0.014929
v 0.036068 0.984221 -0.003254
v -0.031624 0.984221 0.005658
v 0.018852 0.984221 0.026566
v -0.022712 0.984221 0.021094
v 0.024191 0.944086 0.035813
v 0.045209 0.944086 -0.014929
v 0.034895 0.984221 -0.012166
v -0.041938 0.989196 0.008422
v -0.037431 0.989196 0.019302
v 0.013311 0.989196 0.040320
v 0.010547 0.984221 0.030006
v 0.040702 0.989196 -0.025809
v 0.031455 0.984221 -0.020470
v -0.032797 0.984221 -0.003254
v -0.043475 0.989196 -0.003254
v -0.015581 0.984221 0.026566
v -0.030262 0.989196 0.028644
v 0.013311 0.944086 0.040320
v 0.040702 0.944086 -0.025809
v -0.031624 0.984221 -0.012166
v -0.041938 0.944086 0.008422
v -0.043475 0.944086 -0.003254
v -0.037431 0.944086 0.019302
v 0.001636 0.989196 0.041857
v 0.001636 0.984221 0.031179
v -0.007276 0.984221 0.030006
v 0.033533 0.989196 -0.035152
v 0.025983 0.984221 -0.027601
v -0.028184 0.984221 -0.020470
v -0.041938 0.944086 -0.014929
v -0.020920 0.989196 0.035813
v -0.030262 0.944086 0.028644
v 0.001636 0.944086 0.041857
v 0.033533 0.944086 -0.035152
v -0.041938 0.989196 -0.014929
v -0.020920 0.944086 0.035813
v -0.010040 0.989196 0.040320
v 0.024191 0.944086 -0.042320
v 0.018852 0.984221 -0.033073
v -0.022712 0.984221 -0.027601
v -0.037431 0.989196 -0.025809
v -0.037431 0.944086 -0.025809
v -0.010040 0.944086 0.040320
v 0.024191 0.989196 -0.042320
v 0.013311 0.944086 -0.046827
v 0.010547 0.984221 -0.036513
v -0.015581 0.984221 -0.033073
v -0.030262 0.989196 -0.035152
v -0.030262 0.944086 -0.035152
v 0.013311 0.989196 -0.046827
v -0.007276 0.984221 -0.036513
v 0.001636 0.944086 -0.048364
v 0.001636 0.984221 -0.037686
v -0.020920 0.989196 -0.042320
v 0.001636 0.989196 -0.048364
v -0.010040 0.989196 -0.046827
v -0.020920 0.944086 -0.042320
v -0.010040 0.944086 -0.046827
vn 0.8660253028382761 0 0.5000001748438418
vn 0.965925849201117 0 0.25881895959357554
vn -0.8660253028382761 0 -0.5000001748438418
vn -0.965925849201117 0 -0.25881895959357554
vn -0.4079758156582089 0.9064245904366736 -0.109316950605694
vn -0.36578087153009875 0.9064246816446728 -0.21118392582778384
vn 0.36578087153009875 -0.9064246816446728 0.21118392582778384
vn 0.4079758156582089 -0.9064245904366736 0.109316950605694
vn 0.7071067811865474 0 0.7071067811865476
vn -0.7071067811865474 0 -0.7071067811865476
vn 1 0 0
vn -1 0 0
vn -0.2986588988760549 0.9064246930905426 -0.2986588988760556
vn 0.2986588988760549 -0.9064246930905426 0.2986588988760556
vn -0.42236696551078173 0.906424925984063 0
vn 0.42236696551078173 -0.906424925984063 0
vn 0 1 0
vn 0 -1 0
vn 0.5000001748438415 0 0.8660253028382761
vn -0.5000001748438415 0 -0.8660253028382761
vn 0.965925849201117 0 -0.25881895959357554
vn -0.965925849201117 0 0.25881895959357554
vn -0.21118392582778317 0.9064246816446728 -0.3657808715300995
vn 0.21118392582778317 -0.9064246816446728 0.3657808715300995
vn -0.40797581565820884 0.9064245904366736 0.1093169506056932
vn 0.40797581565820884 -0.9064245904366736 -0.1093169506056932
vn 0.40797581565820923 0.9064245904366733 -0.109316950605694
vn 0.3657808715300992 0.9064246816446727 -0.21118392582778384
vn -0.40797581565820923 -0.9064245904366733 0.109316950605694
vn -0.3657808715300992 -0.9064246816446727 0.21118392582778384
vn 0.29865889887605535 0.9064246930905425 -0.2986588988760556
vn -0.29865889887605535 -0.9064246930905425 0.2986588988760556
vn 0.25881895959357537 0 0.9659258492011171
vn -0.25881895959357537 0 -0.9659258492011171
vn -0.10931695060569337 0.9064245904366733 -0.4079758156582097
vn 0.10931695060569337 -0.9064245904366733 0.4079758156582097
vn 0.8660253028382761 0 -0.5000001748438418
vn -0.8660253028382761 0 0.5000001748438418
vn -0.36578087153009875 0.906424681644673 0.21118392582778306
vn 0.36578087153009875 -0.906424681644673 -0.21118392582778306
vn 0.4223669655107821 0.9064249259840628 0
vn -0.4223669655107821 -0.9064249259840628 0
vn 0.2111839258277836 0.9064246816446727 -0.36578087153009947
vn -0.2111839258277836 -0.9064246816446727 0.36578087153009947
vn -0.7071067811865474 0 0.7071067811865476
vn 0.7071067811865474 0 -0.7071067811865476
vn 0 0 1
vn 0 0 -1
vn 0 0.9064249259840627 -0.4223669655107825
vn 0 -0.9064249259840627 0.4223669655107825
vn -0.2986588988760549 0.9064246930905429 0.29865889887605485
vn 0.2986588988760549 -0.9064246930905429 -0.29865889887605485
vn 0.40797581565820923 0.9064245904366736 0.10931695060569321
vn -0.40797581565820923 -0.9064245904366736 -0.10931695060569321
vn 0.10931695060569376 0.9064245904366732 -0.4079758156582096
vn -0.10931695060569376 -0.9064245904366732 0.4079758156582096
vn 0.3657808715300992 0.9064246816446728 0.21118392582778306
vn -0.3657808715300992 -0.9064246816446728 -0.21118392582778306
vn -0.5000001748438415 0 0.8660253028382761
vn 0.5000001748438415 0 -0.8660253028382761
vn -0.25881895959357537 0 0.9659258492011171
vn 0.25881895959357537 0 -0.9659258492011171
vn -0.21118392582778314 0.906424681644673 0.3657808715300987
vn 0.21118392582778314 -0.906424681644673 -0.3657808715300987
vn 0.29865889887605535 0.9064246930905426 0.29865889887605485
vn -0.29865889887605535 -0.9064246930905426 -0.29865889887605485
vn -0.10931695060569337 0.9064245904366737 0.4079758156582088
vn 0.10931695060569337 -0.9064245904366737 -0.4079758156582088
vn 0.2111839258277836 0.906424681644673 0.3657808715300987
vn -0.2111839258277836 -0.906424681644673 -0.3657808715300987
vn 0 0.906424925984063 0.4223669655107816
vn 0 -0.906424925984063 -0.4223669655107816
vn 0.10931695060569376 0.9064245904366736 0.40797581565820873
vn -0.10931695060569376 -0.9064245904366736 -0.40797581565820873
usemtl material_0_0
f 1//1 2//2 3//1
f 2//2 1//1 4//2
f 3//3 2//4 1//3
f 4//4 1//3 2//4
f 2//5 5//6 3//6
f 3//7 5//7 2//8
f 3//1 6//9 1//1
f 1//3 6//10 3//3
f 4//2 7//11 2//2
f 2//4 7//12 4//4
f 5//6 2//5 8//5
f 8//8 2//8 5//7
f 9//13 3//6 5//6
f 5//7 3//7 9//14
f 6//9 3//1 10//9
f 10//10 3//3 6//10
f 7//11 4//2 11//11
f 11//12 4//4 7//12
f 7//15 8//5 2//5
f 2//8 8//8 7//16
f 8//17 12//17 5//17
f 5//18 12//18 8//18
f 3//6 9//13 10//13
f 10//14 9//14 3//7
f 5//17 12//17 9//17
f 9//18 12//18 5//18
f 13//19 6//9 10//9
f 10//10 6//10 13//20
f 11//11 14//21 7//11
f 7//12 14//22 11//12
f 8//5 7//15 15//15
f 15//16 7//16 8//8
f 8//17 16//17 12//17
f 12//18 16//18 8//18
f 17//23 10//13 9//13
f 9//14 10//14 17//24
f 9//17 12//17 18//17
f 18//18 12//18 9//18
f 6//9 13//19 19//19
f 19//20 13//20 6//10
f 10//13 17//23 13//23
f 13//24 17//24 10//14
f 14//21 11//11 20//21
f 20//22 11//12 14//22
f 21//25 7//15 14//25
f 14//26 7//16 21//26
f 7//15 21//25 15//15
f 15//16 21//26 7//16
f 15//17 16//17 8//17
f 8//18 16//18 15//18
f 22//27 12//28 16//27
f 16//29 12//30 22//29
f 9//17 18//17 17//17
f 17//18 18//18 9//18
f 23//28 18//31 12//28
f 12//30 18//32 23//30
f 24//33 19//19 13//19
f 13//20 19//20 24//34
f 25//35 13//23 17//23
f 17//24 13//24 25//36
f 20//21 26//37 14//21
f 14//22 26//38 20//22
f 14//25 27//39 21//25
f 21//26 27//40 14//26
f 21//17 28//17 15//17
f 15//18 28//18 21//18
f 15//17 28//17 16//17
f 16//18 28//18 15//18
f 12//28 22//27 23//28
f 23//30 22//29 12//30
f 16//27 29//41 22//27
f 22//29 29//42 16//29
f 17//17 18//17 30//17
f 30//18 18//18 17//18
f 18//31 23//28 31//31
f 31//32 23//30 18//32
f 19//19 24//33 32//33
f 32//34 24//34 19//20
f 13//23 25//35 24//35
f 24//36 25//36 13//24
f 17//17 30//17 25//17
f 25//18 30//18 17//18
f 26//37 20//21 33//37
f 33//38 20//22 26//38
f 27//39 14//25 26//39
f 26//40 14//26 27//40
f 27//17 34//17 21//17
f 21//18 34//18 27//18
f 21//17 34//17 28//17
f 28//18 34//18 21//18
f 29//41 16//27 28//41
f 28//42 16//29 29//42
f 35//22 23//38 22//22
f 22//21 23//37 35//21
f 36//12 22//22 29//12
f 29//11 22//21 36//11
f 31//31 30//43 18//31
f 18//32 30//44 31//32
f 37//38 31//45 23//38
f 23//37 31//46 37//37
f 38//47 32//33 24//33
f 24//34 32//34 38//48
f 39//49 24//35 25//35
f 25//36 24//36 39//50
f 25//17 30//17 40//17
f 40//18 30//18 25//18
f 33//37 41//46 26//37
f 26//38 41//45 33//38
f 26//39 42//51 27//39
f 27//40 42//52 26//40
f 27//17 43//17 34//17
f 34//18 43//18 27//18
f 34//53 29//41 28//41
f 28//42 29//42 34//54
f 23//38 35//22 37//38
f 37//37 35//21 23//37
f 22//22 36//12 35//22
f 35//21 36//11 22//21
f 29//12 44//4 36//12
f 36//11 44//2 29//11
f 30//43 31//31 45//43
f 45//44 31//32 30//44
f 31//45 37//38 46//45
f 46//46 37//37 31//46
f 32//33 38//47 47//47
f 47//48 38//48 32//34
f 24//35 39//49 38//49
f 38//50 39//50 24//36
f 25//17 40//17 39//17
f 39//18 40//18 25//18
f 45//43 40//55 30//43
f 30//44 40//56 45//44
f 41//46 33//37 48//46
f 48//45 33//38 41//45
f 42//51 26//39 41//51
f 41//52 26//40 42//52
f 42//17 43//17 27//17
f 27//18 43//18 42//18
f 43//57 49//53 34//53
f 34//54 49//54 43//58
f 29//41 34//53 49//53
f 49//54 34//54 29//42
f 44//4 29//12 49//4
f 49//2 29//11 44//2
f 31//45 50//59 45//59
f 45//60 50//60 31//46
f 50//59 31//45 46//45
f 46//46 31//46 50//60
f 51//61 47//47 38//47
f 38//48 47//48 51//62
f 39//49 51//55 38//49
f 38//50 51//56 39//50
f 51//55 39//49 40//55
f 40//56 39//50 51//56
f 40//55 45//43 51//55
f 51//56 45//44 40//56
f 52//60 41//46 48//46
f 48//45 41//45 52//59
f 41//51 53//63 42//51
f 42//52 53//64 41//52
f 42//17 54//17 43//17
f 43//18 54//18 42//18
f 49//53 43//57 55//57
f 55//58 43//58 49//54
f 49//4 56//3 44//4
f 44//2 56//1 49//2
f 57//61 45//59 50//59
f 50//60 45//60 57//62
f 47//47 51//61 57//61
f 57//62 51//62 47//48
f 45//59 57//61 51//61
f 51//62 57//62 45//60
f 41//46 52//60 58//60
f 58//59 52//59 41//45
f 53//63 41//51 58//63
f 58//64 41//52 53//64
f 53//17 54//17 42//17
f 42//18 54//18 53//18
f 54//65 55//57 43//57
f 43//58 55//58 54//66
f 56//3 49//4 55//3
f 55//1 49//2 56//1
f 59//62 58//60 52//60
f 52//59 58//59 59//61
f 58//63 60//67 53//63
f 53//64 60//68 58//64
f 53//17 61//17 54//17
f 54//18 61//18 53//18
f 55//57 54//65 62//65
f 62//66 54//66 55//58
f 55//3 63//10 56//3
f 56//1 63//9 55//1
f 58//60 59//62 64//62
f 64//61 59//61 58//59
f 60//67 58//63 64//67
f 64//68 58//64 60//68
f 60//17 65//17 53//17
f 53//18 65//18 60//18
f 53//17 65//17 61//17
f 61//18 65//18 53//18
f 61//69 62//65 54//65
f 54//66 62//66 61//70
f 63//10 55//3 62//10
f 62//9 55//1 63//9
f 66//48 64//62 59//62
f 59//61 64//61 66//47
f 64//67 67//71 60//67
f 60//68 67//72 64//68
f 65//17 60//17 67//17
f 67//18 60//18 65//18
f 65//73 68//69 61//69
f 61//70 68//70 65//74
f 62//65 61//69 68//69
f 68//70 61//70 62//66
f 68//20 63//10 62//10
f 62//9 63//9 68//19
f 64//62 66//48 69//48
f 69//47 66//47 64//61
f 67//71 64//67 69//71
f 69//72 64//68 67//72
f 67//71 70//73 65//73
f 65//74 70//74 67//72
f 68//69 65//73 70//73
f 70//74 65//74 68//70
f 63//10 68//20 71//20
f 71//19 68//19 63//9
f 72//34 69//48 66//48
f 66//47 69//47 72//33
f 70//73 67//71 69//71
f 69//72 67//72 70//74
f 70//34 71//20 68//20
f 68//19 71//19 70//33
f 69//48 72//34 70//34
f 70//33 72//33 69//47
f 71//20 70//34 72//34
f 72//33 70//33 71//19
