# SSTK version 0.8.0
# 5
mtllib original-5.mtl
o Group5/mesh3/mesh3-geometry#mesh3-geometry
v -0.020321 -0.565231 0.058911
v -0.014682 -0.556557 0.075686
v -0.014682 -0.565231 0.058911
v -0.020321 -0.556557 0.075686
v -0.014682 -0.605080 0.075686
v -0.020321 -0.565844 0.057891
v -0.020321 -0.605080 0.075686
v -0.014682 -0.556557 0.081325
v -0.014682 -0.593938 0.075686
v -0.014682 -0.576750 0.055750
v -0.014682 -0.565844 0.057891
v -0.020321 -0.576750 0.055750
v -0.020321 -0.939996 0.075686
v -0.020321 -0.556557 0.086963
v -0.014682 -0.939996 0.075686
v -0.020321 -0.566574 0.056972
v -0.020321 -0.951274 0.086963
v 0.019151 -0.556557 0.081325
v -0.014682 -0.593938 0.081325
v -0.020321 -0.575780 0.055164
v -0.014682 -0.566574 0.056972
v -0.020321 -0.567409 0.056170
v -0.020321 -0.939996 0.041853
v -0.020321 -0.951274 0.041853
v 0.024790 -0.556557 0.086963
v 0.019151 -0.945635 0.081325
v -0.014682 -0.945635 0.081325
v -0.014682 -0.575780 0.055164
v -0.020321 -0.568334 0.055499
v -0.014682 -0.567409 0.056170
v -0.014682 -0.939996 0.041853
v -0.006536 -0.951274 0.049998
v 0.019151 -0.556557 0.075686
v 0.024790 -0.951274 0.086963
v -0.014682 -0.945635 0.041853
v -0.020321 -0.574748 0.054729
v -0.014682 -0.568334 0.055499
v -0.020321 -0.569331 0.054973
v 0.011006 -0.951274 0.049998
v -0.006536 -0.951274 0.081325
v 0.024790 -0.556557 0.075686
v 0.019151 -0.605080 0.075686
v 0.011006 -0.951274 0.081325
v 0.024790 -0.939996 0.075686
v 0.011006 -0.945635 0.081325
v -0.006536 -0.945635 0.081325
v -0.014682 -0.574748 0.054729
v -0.014682 -0.569331 0.054973
v 0.021818 -0.951274 0.041853
v 0.011006 -0.945635 0.049998
v 0.024790 -0.605080 0.075686
v 0.019151 -0.565231 0.058911
v 0.019151 -0.576750 0.055750
v 0.019151 -0.939996 0.075686
v 0.024790 -0.951274 0.041853
v -0.006536 -0.945635 0.049998
v -0.020321 -0.573672 0.054451
v -0.020321 -0.570382 0.054599
v -0.014682 -0.570382 0.054599
v 0.024790 -0.948302 0.041853
v 0.022206 -0.951249 0.041853
v 0.024790 -0.576750 0.055750
v 0.024790 -0.565231 0.058911
v 0.019151 -0.945635 0.041853
v 0.024790 -0.939996 0.041853
v -0.014682 -0.573672 0.054451
v 0.024764 -0.948690 0.041853
v 0.022587 -0.951173 0.041853
v 0.019151 -0.565844 0.057891
v 0.019151 -0.939996 0.041853
v -0.020321 -0.572573 0.054336
v -0.020321 -0.571470 0.054386
v -0.014682 -0.571470 0.054386
v 0.024689 -0.949071 0.041853
v 0.022955 -0.951048 0.041853
v 0.024790 -0.565844 0.057891
v 0.019151 -0.575780 0.055164
v 0.019151 -0.566574 0.056972
v -0.014682 -0.572573 0.054336
v 0.024564 -0.949439 0.041853
v 0.023304 -0.950876 0.041853
v 0.024790 -0.566574 0.056972
v 0.024790 -0.575780 0.055164
v 0.019151 -0.568334 0.055499
v 0.019151 -0.567409 0.056170
v 0.024392 -0.949788 0.041853
v 0.023627 -0.950660 0.041853
v 0.024790 -0.567409 0.056170
v 0.019151 -0.574748 0.054729
v 0.024790 -0.568334 0.055499
v 0.019151 -0.569331 0.054973
v 0.024176 -0.950111 0.041853
v 0.023919 -0.950403 0.041853
v 0.024790 -0.574748 0.054729
v 0.024790 -0.569331 0.054973
v 0.019151 -0.573672 0.054451
v 0.019151 -0.570382 0.054599
v 0.024790 -0.570382 0.054599
v 0.024790 -0.573672 0.054451
v 0.019151 -0.572573 0.054336
v 0.019151 -0.571470 0.054386
v 0.024790 -0.571470 0.054386
v 0.024790 -0.572573 0.054336
vn -0.44739689328623433 0.7808848137422051 -0.435952896015874
vn 0.7071070362908554 0.6281120322365944 -0.3247690166681209
vn 0.44739689328623466 0.7808848137422049 -0.435952896015874
vn -0.7071070362908551 0.6281120322365948 -0.32476901666812097
vn -0.44739689328623466 -0.7808848137422049 0.435952896015874
vn -0.7071070362908554 -0.6281120322365944 0.3247690166681209
vn 0.44739689328623433 -0.7808848137422051 0.435952896015874
vn 0.7071070362908551 -0.6281120322365948 0.32476901666812097
vn 0.7071069975099226 -0.4069369985669719 -0.5782749979636045
vn -0.7071069975099226 0.4069369985669719 0.5782749979636045
vn -0.44797485426349987 0.7346697609950682 -0.5094888342515912
vn 0.44797485426349987 -0.7346697609950682 0.5094888342515912
vn -0.7071069975099228 -0.4069369985669715 -0.5782749979636045
vn 0.7071069975099228 0.4069369985669715 0.5782749979636045
vn -0.7071067811865471 0.7071067811865478 0
vn 0.5773502691896257 0.5773502691896256 -0.5773502691896262
vn 0.7071067811865476 0.7071067811865475 0
vn -0.7071067811865476 -0.7071067811865475 0
vn -0.5773502691896257 -0.5773502691896256 0.5773502691896262
vn 0.7071067811865471 -0.7071067811865478 0
vn 0 0 -1
vn 0 0 1
vn 1 0 0
vn -1 0 0
vn 0.44743596764411636 -0.48858596466839627 -0.7490559458327702
vn -0.44743596764411636 0.48858596466839627 0.7490559458327702
vn 0.4479748542635002 0.734669760995068 -0.5094888342515912
vn -0.4479748542635002 -0.734669760995068 0.5094888342515912
vn -0.44743596764411653 -0.4885859646683961 -0.7490559458327702
vn 0.44743596764411653 0.4885859646683961 0.7490559458327702
vn -0.7071067811865474 0 -0.7071067811865476
vn -0.5773502691896255 0.5773502691896257 -0.5773502691896261
vn 0.5773502691896255 -0.5773502691896257 0.5773502691896261
vn 0.7071067811865474 0 0.7071067811865476
vn -0.5773502691896256 0.5773502691896263 0.5773502691896256
vn 0.5773502691896256 -0.5773502691896263 -0.5773502691896256
vn 0.7071067811865474 0 -0.7071067811865476
vn -0.7071067811865474 0 0.7071067811865476
vn -0.44801684776278067 0.6610997753566816 -0.6018537954886106
vn 0.44801684776278067 -0.6610997753566816 0.6018537954886106
vn -0.5773322683735446 -0.5773932684019004 0.577325268370291
vn 0.5773322683735446 0.5773932684019004 -0.577325268370291
vn 0.8944269909998284 0 -0.4472139954999093
vn -0.8944269909998284 0 0.4472139954999093
vn -0.44813599589305764 -0.4056279962826225 -0.7966429926991652
vn 0.44813599589305764 0.4056279962826225 0.7966429926991652
vn 0.44801684776278106 0.6610997753566815 -0.6018537954886106
vn -0.44801684776278106 -0.6610997753566815 0.6018537954886106
vn -0.4480637520299383 0.5734656826292688 -0.6858396204386276
vn 0.4480637520299383 -0.5734656826292688 0.6858396204386276
vn -0.5772869334593141 -0.5773479334522832 -0.5774159334444449
vn 0.5772869334593141 0.5773479334522832 0.5774159334444449
vn 0.5773792677960724 0.5773782677956087 0.5772932677561843
vn -0.5773792677960724 -0.5773782677956087 -0.5772932677561843
vn 0.44813599589305747 -0.4056279962826227 -0.7966429926991652
vn -0.44813599589305747 0.4056279962826227 0.7966429926991652
vn -0.448110022138876 0.47242102333996094 -0.7589570374962736
vn 0.448110022138876 -0.47242102333996094 0.7589570374962736
vn 0.4480637520299385 0.5734656826292686 -0.6858396204386276
vn -0.4480637520299385 -0.5734656826292686 0.6858396204386276
vn 0.5774136000748176 -0.5773526001170673 0.5772846001641655
vn -0.5774136000748176 0.5773526001170673 -0.5772846001641655
vn 0.5774419287387619 -0.5773819287461666 0.5772269287652952
vn -0.5774419287387619 0.5773819287461666 -0.5772269287652952
vn -0.448174051789876 -0.2862650330800738 -0.846872097862428
vn 0.448174051789876 0.2862650330800738 0.846872097862428
vn 0.4481100221388762 0.4724210233399608 -0.7589570374962736
vn -0.4481100221388762 -0.4724210233399608 0.7589570374962736
vn -0.44815205899272403 0.35932004729927697 -0.8185651077522347
vn 0.44815205899272403 -0.35932004729927697 0.8185651077522347
vn 0.5773682683902791 -0.5773072683619238 -0.577375268393533
vn -0.5773682683902791 0.5773072683619238 0.577375268393533
vn 0.7071072772140378 0.7071062772136456 -0.00010600004155652547
vn -0.7071072772140378 -0.7071062772136456 0.00010600004155652547
vn 0.5773219344194072 0.5773209344195205 -0.5774079344096384
vn -0.5773219344194072 -0.5773209344195205 0.5774079344096384
vn 0.4481740517898758 -0.286265033080074 -0.846872097862428
vn -0.4481740517898758 0.286265033080074 0.846872097862428
vn 0.4481520589927242 0.35932004729927675 -0.8185651077522347
vn -0.4481520589927242 -0.35932004729927675 0.8185651077522347
vn 0.00007500002948408535 -0.7070652779636784 -0.7071482779963068
vn -0.00007500002948408535 0.7070652779636784 0.7071482779963068
vn 0.7070537792164819 -9.99999688212686e-7 -0.7071597791833828
vn -0.7070537792164819 9.99999688212686e-7 0.7071597791833828
vn 0.5773392657533664 -0.5772792657257486 -0.5774322657961749
vn -0.5773392657533664 0.5772792657257486 0.5774322657961749
vn 0.5773502691896257 0.5773502691896261 0.5773502691896256
vn -0.5773502691896257 -0.5773502691896261 -0.5773502691896256
vn -0.4482001975048388 -0.15875006995513904 -0.8797243876611937
vn 0.4482001975048388 0.15875006995513904 0.8797243876611937
vn -0.4481858977764273 0.23634694609328535 -0.8621308033626426
vn 0.4481858977764273 -0.23634694609328535 0.8621308033626426
vn 0.4481858977764275 0.23634694609328513 -0.8621308033626426
vn -0.4481858977764275 -0.23634694609328513 0.8621308033626426
vn 0.00004699997844331852 -0.4471927948946249 -0.8944375897653989
vn -0.00004699997844331852 0.4471927948946249 0.8944375897653989
vn 0.4482001975048388 -0.15875006995513924 -0.8797243876611937
vn -0.4482001975048388 0.15875006995513924 0.8797243876611937
vn 0.44718679531124716 -9.99999542771321e-7 -0.8944405905918272
vn -0.44718679531124716 9.99999542771321e-7 0.8944405905918272
vn -0.44821191718366743 -0.026520995099703227 -0.8935338349013219
vn 0.44821191718366743 0.026520995099703227 0.8935338349013219
vn -0.4482069077110696 0.10651097806864601 -0.8875618172448277
vn 0.4482069077110696 -0.10651097806864601 0.8875618172448277
vn 0.4482069077110696 0.10651097806864582 -0.8875618172448277
vn -0.4482069077110696 -0.10651097806864582 0.8875618172448277
vn 0.44821191718366743 -0.026520995099703425 -0.8935338349013219
vn -0.44821191718366743 0.026520995099703425 0.8935338349013219
usemtl material_0_0
f 1//1 2//2 3//3
f 2//2 1//1 4//4
f 3//5 2//6 1//7
f 4//8 1//7 2//6
f 2//2 5//9 3//3
f 3//5 5//10 2//6
f 3//3 6//11 1//1
f 1//7 6//12 3//5
f 1//1 7//13 4//4
f 4//8 7//14 1//7
f 4//15 8//16 2//17
f 2//18 8//19 4//20
f 9//21 4//21 2//21
f 2//22 4//22 9//22
f 5//9 2//2 9//23
f 9//24 2//6 5//10
f 3//3 5//9 10//25
f 10//26 5//10 3//5
f 6//11 3//3 11//27
f 11//28 3//5 6//12
f 12//29 1//1 6//11
f 6//12 1//7 12//30
f 7//13 1//1 12//29
f 12//30 1//7 7//14
f 7//31 13//32 4//15
f 4//20 13//33 7//34
f 4//21 9//21 7//21
f 7//22 9//22 4//22
f 14//35 8//16 4//15
f 4//20 8//19 14//36
f 8//16 9//23 2//17
f 2//18 9//24 8//19
f 7//21 9//21 5//21
f 5//22 9//22 7//22
f 9//23 15//16 5//37
f 5//38 15//19 9//24
f 5//9 12//29 10//25
f 10//26 12//30 5//10
f 3//3 10//25 11//27
f 11//28 10//26 3//5
f 11//27 16//39 6//11
f 6//12 16//40 11//28
f 12//29 6//11 16//39
f 16//40 6//12 12//30
f 12//29 5//9 7//13
f 7//14 5//10 12//30
f 7//31 15//16 13//32
f 13//33 15//19 7//34
f 17//41 4//15 13//32
f 13//33 4//20 17//42
f 14//35 18//32 8//16
f 8//19 18//33 14//36
f 4//15 17//41 14//35
f 14//36 17//42 4//20
f 9//23 8//16 19//43
f 19//44 8//19 9//24
f 15//16 7//31 5//37
f 5//38 7//34 15//19
f 15//16 9//23 19//43
f 19//44 9//24 15//19
f 20//45 10//25 12//29
f 12//30 10//26 20//46
f 11//27 10//25 21//47
f 21//48 10//26 11//28
f 16//39 11//27 21//47
f 21//48 11//28 16//40
f 12//29 16//39 22//49
f 22//50 16//40 12//30
f 15//16 23//32 13//32
f 13//33 23//33 15//19
f 17//41 13//32 24//51
f 24//52 13//33 17//42
f 25//53 18//32 14//35
f 14//36 18//33 25//54
f 26//32 8//16 18//32
f 18//33 8//19 26//33
f 17//41 25//53 14//35
f 14//36 25//54 17//42
f 8//16 26//32 19//43
f 19//44 26//33 8//19
f 27//16 15//16 19//43
f 19//44 15//19 27//19
f 10//25 20//45 28//55
f 28//56 20//46 10//26
f 12//29 29//57 20//45
f 20//46 29//58 12//30
f 21//47 10//25 30//59
f 30//60 10//26 21//48
f 30//59 16//39 21//47
f 21//48 16//40 30//60
f 16//39 30//59 22//49
f 22//50 30//60 16//40
f 12//29 22//49 29//57
f 29//58 22//50 12//30
f 23//32 15//16 31//16
f 31//19 15//19 23//33
f 24//51 13//32 23//32
f 23//33 13//33 24//52
f 24//51 32//61 17//41
f 17//42 32//62 24//52
f 25//53 33//15 18//32
f 18//33 33//20 25//54
f 33//15 26//32 18//32
f 18//33 26//33 33//20
f 25//53 17//41 34//63
f 34//64 17//42 25//54
f 19//43 26//32 27//16
f 27//19 26//33 19//44
f 15//16 27//16 35//16
f 35//19 27//19 15//19
f 36//65 28//55 20//45
f 20//46 28//56 36//66
f 37//67 10//25 28//55
f 28//56 10//26 37//68
f 20//45 29//57 38//69
f 38//70 29//58 20//46
f 30//59 10//25 37//67
f 37//68 10//26 30//60
f 37//67 22//49 30//59
f 30//60 22//50 37//68
f 22//49 37//67 29//57
f 29//58 37//68 22//50
f 15//16 35//16 31//16
f 31//19 35//19 15//19
f 31//16 24//51 23//32
f 23//33 24//52 31//19
f 24//51 39//41 32//61
f 32//62 39//42 24//52
f 40//71 17//41 32//61
f 32//62 17//42 40//72
f 33//15 25//53 41//73
f 41//74 25//54 33//20
f 26//32 33//15 42//31
f 42//34 33//20 26//33
f 43//51 34//63 17//41
f 17//42 34//64 43//52
f 34//63 44//75 25//53
f 25//54 44//76 34//64
f 27//16 26//32 45//32
f 45//33 26//33 27//19
f 46//16 35//16 27//16
f 27//19 35//19 46//19
f 28//55 36//65 47//77
f 47//78 36//66 28//56
f 20//45 38//69 36//65
f 36//66 38//70 20//46
f 37//67 28//55 48//79
f 48//80 28//56 37//68
f 29//57 48//79 38//69
f 38//70 48//80 29//58
f 48//79 29//57 37//67
f 37//68 29//58 48//80
f 24//51 31//16 35//16
f 35//19 31//19 24//52
f 49//81 39//41 24//51
f 24//52 39//42 49//82
f 50//35 32//61 39//41
f 39//42 32//62 50//36
f 43//51 17//41 40//71
f 40//72 17//42 43//52
f 32//61 46//16 40//71
f 40//72 46//19 32//62
f 25//53 51//83 41//73
f 41//74 51//84 25//54
f 51//21 33//21 41//21
f 41//22 33//22 51//22
f 41//2 52//1 33//4
f 33//8 52//7 41//6
f 33//4 53//29 42//13
f 42//14 53//30 33//8
f 33//21 51//21 42//21
f 42//22 51//22 33//22
f 26//32 42//31 54//32
f 54//33 42//34 26//33
f 34//63 43//51 55//85
f 55//86 43//52 34//64
f 44//75 34//63 55//85
f 55//86 34//64 44//76
f 51//83 25//53 44//75
f 44//76 25//54 51//84
f 45//32 26//32 50//35
f 50//36 26//33 45//33
f 27//16 45//32 46//16
f 46//19 45//33 27//19
f 56//87 35//16 46//16
f 46//19 35//19 56//88
f 57//89 47//77 36//65
f 36//66 47//78 57//90
f 48//79 28//55 47//77
f 47//78 28//56 48//80
f 36//65 38//69 58//91
f 58//92 38//70 36//66
f 59//93 38//69 48//79
f 48//80 38//70 59//94
f 24//51 35//16 60//83
f 60//84 35//19 24//52
f 39//41 49//81 43//51
f 43//52 49//82 39//42
f 24//51 61//95 49//81
f 49//82 61//96 24//52
f 32//61 50//35 56//87
f 56//88 50//36 32//62
f 43//51 50//35 39//41
f 39//42 50//36 43//52
f 46//16 43//51 40//71
f 40//72 43//52 46//19
f 46//16 32//61 56//87
f 56//88 32//62 46//19
f 62//25 41//2 51//9
f 51//10 41//6 62//26
f 52//1 41//2 63//3
f 63//5 41//6 52//7
f 53//29 33//4 52//1
f 52//7 33//8 53//30
f 53//29 51//9 42//13
f 42//14 51//10 53//30
f 44//75 42//31 51//83
f 51//84 42//34 44//76
f 42//31 44//75 54//32
f 54//33 44//76 42//34
f 54//32 64//32 26//32
f 26//33 64//33 54//33
f 55//85 43//51 61//95
f 61//96 43//52 55//86
f 44//75 55//85 65//75
f 65//76 55//86 44//76
f 64//32 50//35 26//32
f 26//33 50//36 64//33
f 50//35 43//51 45//32
f 45//33 43//52 50//36
f 43//51 46//16 45//32
f 45//33 46//19 43//52
f 50//35 35//16 56//87
f 56//88 35//19 50//36
f 47//77 57//89 66//97
f 66//98 57//90 47//78
f 36//65 58//91 57//89
f 57//90 58//92 36//66
f 48//79 47//77 59//93
f 59//94 47//78 48//80
f 38//69 59//93 58//91
f 58//92 59//94 38//70
f 64//32 60//83 35//16
f 35//19 60//84 64//33
f 24//51 60//83 67//99
f 67//100 60//84 24//52
f 61//95 43//51 49//81
f 49//82 43//52 61//96
f 24//51 68//21 61//95
f 61//96 68//22 24//52
f 41//2 62//25 63//3
f 63//5 62//26 41//6
f 51//9 53//29 62//25
f 62//26 53//30 51//10
f 63//3 69//11 52//1
f 52//7 69//12 63//5
f 53//29 52//1 69//11
f 69//12 52//7 53//30
f 44//75 70//32 54//32
f 54//33 70//33 44//76
f 64//32 54//32 70//32
f 70//33 54//33 64//33
f 68//21 55//85 61//95
f 61//96 55//86 68//22
f 65//75 55//85 67//99
f 67//100 55//86 65//76
f 70//32 44//75 65//75
f 65//76 44//76 70//33
f 50//35 64//32 35//16
f 35//19 64//33 50//36
f 71//101 66//97 57//89
f 57//90 66//98 71//102
f 59//93 47//77 66//97
f 66//98 47//78 59//94
f 57//89 58//91 72//103
f 72//104 58//92 57//90
f 73//105 58//91 59//93
f 59//94 58//92 73//106
f 70//32 60//83 64//32
f 64//33 60//84 70//33
f 65//75 67//99 60//83
f 60//84 67//100 65//76
f 24//51 67//99 74//21
f 74//22 67//100 24//52
f 24//51 75//21 68//21
f 68//22 75//22 24//52
f 63//3 62//25 76//27
f 76//28 62//26 63//5
f 77//45 62//25 53//29
f 53//30 62//26 77//46
f 69//11 63//3 76//27
f 76//28 63//5 69//12
f 53//29 69//11 78//39
f 78//40 69//12 53//30
f 75//21 55//85 68//21
f 68//22 55//86 75//22
f 55//85 74//21 67//99
f 67//100 74//22 55//86
f 60//83 70//32 65//75
f 65//76 70//33 60//84
f 66//97 71//101 79//107
f 79//108 71//102 66//98
f 57//89 72//103 71//101
f 71//102 72//104 57//90
f 59//93 66//97 73//105
f 73//106 66//98 59//94
f 58//91 73//105 72//103
f 72//104 73//106 58//92
f 24//51 74//21 80//21
f 80//22 74//22 24//52
f 24//51 81//21 75//21
f 75//22 81//22 24//52
f 76//27 62//25 82//47
f 82//48 62//26 76//28
f 62//25 77//45 83//55
f 83//56 77//46 62//26
f 53//29 84//57 77//45
f 77//46 84//58 53//30
f 76//27 78//39 69//11
f 69//12 78//40 76//28
f 53//29 78//39 85//49
f 85//50 78//40 53//30
f 81//21 55//85 75//21
f 75//22 55//86 81//22
f 74//21 55//85 80//21
f 80//22 55//86 74//22
f 72//103 79//107 71//101
f 71//102 79//108 72//104
f 73//105 66//97 79//107
f 79//108 66//98 73//106
f 79//107 72//103 73//105
f 73//106 72//104 79//108
f 24//51 80//21 86//21
f 86//22 80//22 24//52
f 24//51 87//21 81//21
f 81//22 87//22 24//52
f 82//47 62//25 88//59
f 88//60 62//26 82//48
f 78//39 76//27 82//47
f 82//48 76//28 78//40
f 89//65 83//55 77//45
f 77//46 83//56 89//66
f 90//67 62//25 83//55
f 83//56 62//26 90//68
f 53//29 85//49 84//57
f 84//58 85//50 53//30
f 77//45 84//57 91//69
f 91//70 84//58 77//46
f 78//39 88//59 85//49
f 85//50 88//60 78//40
f 87//21 55//85 81//21
f 81//22 55//86 87//22
f 80//21 55//85 86//21
f 86//22 55//86 80//22
f 24//51 86//21 92//21
f 92//22 86//22 24//52
f 24//51 93//21 87//21
f 87//22 93//22 24//52
f 88//59 62//25 90//67
f 90//68 62//26 88//60
f 88//59 78//39 82//47
f 82//48 78//40 88//60
f 83//55 89//65 94//77
f 94//78 89//66 83//56
f 77//45 91//69 89//65
f 89//66 91//70 77//46
f 90//67 83//55 95//79
f 95//80 83//56 90//68
f 85//49 90//67 84//57
f 84//58 90//68 85//50
f 84//57 95//79 91//69
f 91//70 95//80 84//58
f 90//67 85//49 88//59
f 88//60 85//50 90//68
f 93//21 55//85 87//21
f 87//22 55//86 93//22
f 86//21 55//85 92//21
f 92//22 55//86 86//22
f 24//51 92//21 93//21
f 93//22 92//22 24//52
f 96//89 94//77 89//65
f 89//66 94//78 96//90
f 95//79 83//55 94//77
f 94//78 83//56 95//80
f 89//65 91//69 97//91
f 97//92 91//70 89//66
f 95//79 84//57 90//67
f 90//68 84//58 95//80
f 98//93 91//69 95//79
f 95//80 91//70 98//94
f 92//21 55//85 93//21
f 93//22 55//86 92//22
f 94//77 96//89 99//97
f 99//98 96//90 94//78
f 89//65 97//91 96//89
f 96//90 97//92 89//66
f 95//79 94//77 98//93
f 98//94 94//78 95//80
f 91//69 98//93 97//91
f 97//92 98//94 91//70
f 100//101 99//97 96//89
f 96//90 99//98 100//102
f 98//93 94//77 99//97
f 99//98 94//78 98//94
f 96//89 97//91 101//103
f 101//104 97//92 96//90
f 102//105 97//91 98//93
f 98//94 97//92 102//106
f 99//97 100//101 103//107
f 103//108 100//102 99//98
f 96//89 101//103 100//101
f 100//102 101//104 96//90
f 98//93 99//97 102//105
f 102//106 99//98 98//94
f 97//91 102//105 101//103
f 101//104 102//106 97//92
f 101//103 103//107 100//101
f 100//102 103//108 101//104
f 102//105 99//97 103//107
f 103//108 99//98 102//106
f 103//107 101//103 102//105
f 102//106 101//104 103//108
