# SSTK version 0.8.0
# 13
mtllib original-13.mtl
o mesh8/mesh8-geometry#mesh8-geometry
v 0.013311 0.944086 -0.046827
v -0.010040 0.944086 -0.046827
v 0.001636 0.944086 -0.048364
v 0.024191 0.944086 -0.042320
v 0.001636 -0.127288 -0.048364
v -0.012984 0.929143 -0.057814
v 0.013311 -0.127288 -0.046827
v 0.001636 0.929143 -0.059739
v 0.024191 -0.127288 -0.042320
v 0.016255 0.929143 -0.057814
v -0.020920 0.944086 -0.042320
v -0.010040 -0.127288 -0.046827
v 0.033533 -0.127288 -0.035152
v 0.029878 0.929143 -0.052171
v 0.033533 0.944086 -0.035152
v -0.024913 -0.127288 -0.049236
v 0.028184 -0.127288 -0.049236
v -0.012107 -0.127288 -0.054541
v -0.026607 0.929143 -0.052171
v 0.039180 -0.127288 -0.040798
v 0.015378 -0.127288 -0.054541
v -0.030262 0.944086 -0.035152
v -0.020920 -0.127288 -0.042320
v -0.035909 -0.127288 -0.040798
v 0.001636 -0.127288 -0.056350
v 0.040702 0.944086 -0.025809
v 0.047618 -0.127288 -0.029802
v 0.041577 0.929143 -0.043195
v -0.038306 0.929143 -0.043195
v 0.040702 -0.127288 -0.025809
v -0.037431 0.944086 -0.025809
v -0.030262 -0.127288 -0.035152
v 0.045209 0.944086 -0.014929
v 0.050553 0.929143 -0.031496
v 0.052923 -0.127288 -0.016996
v -0.044347 -0.127288 -0.029802
v -0.047282 0.929143 -0.031496
v 0.045209 -0.127288 -0.014929
v 0.056196 0.929143 -0.017873
v -0.041938 0.944086 -0.014929
v -0.037431 -0.127288 -0.025809
v 0.046746 -0.127288 -0.003254
v 0.058121 0.929143 -0.003254
v 0.054732 -0.127288 -0.003254
v 0.046746 0.944086 -0.003254
v -0.041938 -0.127288 -0.014929
v -0.049652 -0.127288 -0.016996
v -0.052925 0.929143 -0.017873
v -0.043475 0.944086 -0.003254
v -0.043475 -0.127288 -0.003254
v -0.054850 0.929143 -0.003254
v 0.045209 0.944086 0.008422
v 0.045209 -0.127288 0.008422
v 0.056196 0.929143 0.011366
v -0.051461 -0.127288 -0.003254
v 0.052923 -0.127288 0.010489
v -0.041938 0.944086 0.008422
v -0.049652 -0.127288 0.010489
v 0.040702 0.944086 0.019302
v 0.040702 -0.127288 0.019302
v 0.050553 0.929143 0.024989
v -0.041938 -0.127288 0.008422
v -0.052925 0.929143 0.011366
v 0.047618 -0.127288 0.023295
v -0.037431 0.944086 0.019302
v -0.037431 -0.127288 0.019302
v -0.047282 0.929143 0.024989
v 0.033533 -0.127288 0.028644
v 0.041577 0.929143 0.036688
v 0.039180 -0.127288 0.034291
v 0.033533 0.944086 0.028644
v -0.044347 -0.127288 0.023295
v -0.030262 0.944086 0.028644
v -0.030262 -0.127288 0.028644
v -0.038306 0.929143 0.036688
v -0.035909 -0.127288 0.034291
v 0.024191 -0.127288 0.035813
v 0.029878 0.929143 0.045664
v 0.024191 0.944086 0.035813
v 0.028184 -0.127288 0.042729
v -0.020920 0.944086 0.035813
v -0.026607 0.929143 0.045664
v -0.020920 -0.127288 0.035813
v 0.013311 -0.127288 0.040320
v 0.016255 0.929143 0.051307
v 0.013311 0.944086 0.040320
v -0.024913 -0.127288 0.042729
v 0.015378 -0.127288 0.048033
v 0.001636 -0.127288 0.041857
v -0.010040 0.944086 0.040320
v -0.012984 0.929143 0.051307
v -0.010040 -0.127288 0.040320
v 0.001636 0.929143 0.053232
v 0.001636 0.944086 0.041857
v -0.012107 -0.127288 0.048033
v 0.001636 -0.127288 0.049843
vn 0 -1 0
vn 0 1 0
vn 0.25881895959357537 0 0.9659258492011171
vn 0 0 1
vn 0 0 -1
vn -0.25881895959357537 0 -0.9659258492011171
vn 0 0.6057029116612649 -0.7956908839524718
vn -0.20594004634753324 0.6057031363156259 -0.7685781729712275
vn 0.20594004634753324 -0.6057031363156259 0.7685781729712275
vn 0 -0.6057029116612649 0.7956908839524718
vn -0.25881895959357537 0 0.9659258492011171
vn 0.25881895959357537 0 -0.9659258492011171
vn 0.20594004634753352 0.6057031363156258 -0.7685781729712275
vn -0.20594004634753352 -0.6057031363156258 0.7685781729712275
vn -0.5000001748438415 0 0.8660253028382761
vn 0.5000001748438415 0 -0.8660253028382761
vn 0.39784519097011384 0.6057032907443117 -0.6890883307700584
vn -0.39784519097011384 -0.6057032907443117 0.6890883307700584
vn -0.39784519097011345 0.605703290744312 -0.6890883307700584
vn 0.39784519097011345 -0.605703290744312 0.6890883307700584
vn -0.7071067811865474 0 0.7071067811865476
vn 0.7071067811865474 0 -0.7071067811865476
vn 0.5000001748438415 0 0.8660253028382761
vn -0.5000001748438415 0 -0.8660253028382761
vn 0 -0.00320799953277299 -0.99999485435626
vn -0.2588179447903853 -0.0032079993156876744 -0.9659207939551108
vn 0.2588179447903853 0.0032079993156876744 0.9659207939551108
vn 0 0.00320799953277299 0.99999485435626
vn 0.2588179447903853 -0.0032079993156877893 -0.9659207939551108
vn -0.2588179447903853 0.0032079993156877893 0.9659207939551108
vn 0.5626382356619184 0.6057032536997693 -0.5626382356619186
vn -0.5626382356619184 -0.6057032536997693 0.5626382356619186
vn 0.4999970840710167 -0.003208000539403376 -0.8660211456154058
vn -0.4999970840710167 0.003208000539403376 0.8660211456154058
vn -0.4999970840710167 -0.0032080005394031536 -0.8660211456154058
vn 0.4999970840710167 0.0032080005394031536 0.8660211456154058
vn -0.562638235661918 0.6057032536997695 -0.5626382356619186
vn 0.562638235661918 -0.6057032536997695 0.5626382356619186
vn -0.8660253028382761 0 0.5000001748438418
vn 0.8660253028382761 0 -0.5000001748438418
vn 0.7071031426644372 -0.003208000647243539 -0.7071031426644375
vn -0.7071031426644372 0.003208000647243539 0.7071031426644375
vn 0.7071067811865474 0 0.7071067811865476
vn -0.7071067811865474 0 -0.7071067811865476
vn -0.7071031426644372 -0.003208000647243225 -0.7071031426644375
vn 0.7071031426644372 0.003208000647243225 0.7071031426644375
vn 0.689088330770058 0.6057032907443117 -0.39784519097011406
vn -0.689088330770058 -0.6057032907443117 0.39784519097011406
vn 0.8660211456154057 -0.003208000539403295 -0.49999708407101684
vn -0.8660211456154057 0.003208000539403295 0.49999708407101684
vn -0.6890883307700579 0.6057032907443123 -0.39784519097011417
vn 0.6890883307700579 -0.6057032907443123 0.39784519097011417
vn -0.965925849201117 0 0.25881895959357554
vn 0.965925849201117 0 -0.25881895959357554
vn 0.8660253028382761 0 0.5000001748438418
vn -0.8660253028382761 0 -0.5000001748438418
vn -0.8660211456154057 -0.00320800053940291 -0.49999708407101684
vn 0.8660211456154057 0.00320800053940291 0.49999708407101684
vn 0.7685781729712273 0.6057031363156259 -0.2059400463475337
vn -0.7685781729712273 -0.6057031363156259 0.2059400463475337
vn 0.9659207939551108 -0.0032079993156876327 -0.25881794479038545
vn -0.9659207939551108 0.0032079993156876327 0.25881794479038545
vn -0.7685781729712271 0.6057031363156263 -0.20594004634753374
vn 0.7685781729712271 -0.6057031363156263 0.20594004634753374
vn -1 0 0
vn 1 0 0
vn 0.7956908839524716 0.6057029116612652 0
vn -0.7956908839524716 -0.6057029116612652 0
vn 0.965925849201117 0 0.25881895959357554
vn -0.965925849201117 0 -0.25881895959357554
vn -0.9659207939551108 -0.003207999315687204 -0.25881794479038545
vn 0.9659207939551108 0.003207999315687204 0.25881794479038545
vn 0.99999485435626 -0.0032079995327727695 0
vn -0.99999485435626 0.0032079995327727695 0
vn -0.7956908839524712 0.6057029116612656 0
vn 0.7956908839524712 -0.6057029116612656 0
vn 0.7685781729712274 0.6057031363156262 0.2059400463475332
vn -0.7685781729712274 -0.6057031363156262 -0.2059400463475332
vn 0.9659207939551108 -0.0032079993156874033 0.25881794479038545
vn -0.9659207939551108 0.0032079993156874033 -0.25881794479038545
vn -0.99999485435626 -0.003207999532772325 0
vn 0.99999485435626 0.003207999532772325 0
vn -0.7685781729712271 0.6057031363156266 0.2059400463475332
vn 0.7685781729712271 -0.6057031363156266 -0.2059400463475332
vn 0.6890883307700583 0.6057032907443123 0.39784519097011367
vn -0.6890883307700583 -0.6057032907443123 -0.39784519097011367
vn 0.8660211456154057 -0.003208000539402851 0.49999708407101684
vn -0.8660211456154057 0.003208000539402851 -0.49999708407101684
vn -0.9659207939551108 -0.0032079993156869744 0.25881794479038545
vn 0.9659207939551108 0.0032079993156869744 -0.25881794479038545
vn -0.6890883307700579 0.6057032907443126 0.39784519097011367
vn 0.6890883307700579 -0.6057032907443126 -0.39784519097011367
vn -0.8660211456154057 -0.0032080005394024657 0.49999708407101684
vn 0.8660211456154057 0.0032080005394024657 -0.49999708407101684
vn 0.5626382356619184 0.6057032536997697 0.5626382356619181
vn -0.5626382356619184 -0.6057032536997697 -0.5626382356619181
vn 0.7071031426644372 -0.003208000647242911 0.7071031426644375
vn -0.7071031426644372 0.003208000647242911 -0.7071031426644375
vn -0.562638235661918 0.60570325369977 0.5626382356619181
vn 0.562638235661918 -0.60570325369977 -0.5626382356619181
vn -0.7071031426644372 -0.0032080006472425975 0.7071031426644375
vn 0.7071031426644372 0.0032080006472425975 -0.7071031426644375
vn 0.39784519097011384 0.6057032907443123 0.6890883307700579
vn -0.39784519097011384 -0.6057032907443123 -0.6890883307700579
vn 0.4999970840710167 -0.003208000539402607 0.8660211456154058
vn -0.4999970840710167 0.003208000539402607 -0.8660211456154058
vn -0.39784519097011345 0.6057032907443124 0.6890883307700579
vn 0.39784519097011345 -0.6057032907443124 -0.6890883307700579
vn -0.4999970840710167 -0.0032080005394023847 0.8660211456154058
vn 0.4999970840710167 0.0032080005394023847 -0.8660211456154058
vn 0.20594004634753355 0.6057031363156264 0.7685781729712271
vn -0.20594004634753355 -0.6057031363156264 -0.7685781729712271
vn 0.2588179447903853 -0.003207999315686931 0.9659207939551108
vn -0.2588179447903853 0.003207999315686931 -0.9659207939551108
vn -0.20594004634753327 0.6057031363156266 0.7685781729712271
vn 0.20594004634753327 -0.6057031363156266 -0.7685781729712271
vn -0.2588179447903853 -0.003207999315686816 0.9659207939551108
vn 0.2588179447903853 0.003207999315686816 -0.9659207939551108
vn 0 0.6057029116612657 0.7956908839524712
vn 0 -0.6057029116612657 -0.7956908839524712
vn 0 -0.0032079995327721016 0.99999485435626
vn 0 0.0032079995327721016 -0.99999485435626
usemtl material_0_0
f 1//1 2//1 3//1
f 2//1 1//1 4//1
f 3//2 2//2 1//2
f 4//2 1//2 2//2
f 2//3 5//4 3//4
f 3//5 5//5 2//6
f 3//7 6//8 2//8
f 2//9 6//9 3//10
f 3//4 7//11 1//11
f 1//12 7//12 3//5
f 1//13 8//7 3//7
f 3//10 8//10 1//14
f 1//11 9//15 4//15
f 4//16 9//16 1//12
f 4//17 10//13 1//13
f 1//14 10//14 4//18
f 2//1 4//1 11//1
f 11//2 4//2 2//2
f 5//4 2//3 12//3
f 12//6 2//6 5//5
f 7//11 3//4 5//4
f 5//5 3//5 7//12
f 6//8 3//7 8//7
f 8//10 3//10 6//9
f 6//8 11//19 2//8
f 2//9 11//20 6//9
f 9//15 1//11 7//11
f 7//12 1//12 9//16
f 8//7 1//13 10//13
f 10//14 1//14 8//10
f 13//21 4//15 9//15
f 9//16 4//16 13//22
f 10//13 4//17 14//17
f 14//18 4//18 10//14
f 11//1 4//1 15//1
f 15//2 4//2 11//2
f 11//23 12//3 2//3
f 2//6 12//6 11//24
f 12//1 16//1 5//1
f 5//2 16//2 12//2
f 5//1 17//1 7//1
f 7//2 17//2 5//2
f 8//25 18//26 6//26
f 6//27 18//27 8//28
f 11//19 6//8 19//19
f 19//20 6//9 11//20
f 7//1 20//1 9//1
f 9//2 20//2 7//2
f 21//29 8//25 10//29
f 10//30 8//28 21//30
f 4//15 13//21 15//21
f 15//22 13//22 4//16
f 9//1 20//1 13//1
f 13//2 20//2 9//2
f 15//31 14//17 4//17
f 4//18 14//18 15//32
f 17//33 10//29 14//33
f 14//34 10//30 17//34
f 11//1 15//1 22//1
f 22//2 15//2 11//2
f 12//3 11//23 23//23
f 23//24 11//24 12//6
f 16//1 12//1 24//1
f 24//2 12//2 16//2
f 16//1 17//1 5//1
f 5//2 17//2 16//2
f 7//1 17//1 20//1
f 20//2 17//2 7//2
f 18//26 8//25 25//25
f 25//28 8//28 18//27
f 16//35 6//26 18//26
f 18//27 6//27 16//36
f 6//26 16//35 19//35
f 19//36 16//36 6//27
f 19//19 22//37 11//19
f 11//20 22//38 19//20
f 8//25 21//29 25//25
f 25//28 21//30 8//28
f 10//29 17//33 21//29
f 21//30 17//34 10//30
f 13//21 26//39 15//21
f 15//22 26//40 13//22
f 13//1 20//1 27//1
f 27//2 20//2 13//2
f 14//17 15//31 28//31
f 28//32 15//32 14//18
f 14//33 20//41 17//33
f 17//34 20//42 14//34
f 22//1 15//1 26//1
f 26//2 15//2 22//2
f 22//43 23//23 11//23
f 11//24 23//24 22//44
f 24//1 12//1 23//1
f 23//2 12//2 24//2
f 24//45 19//35 16//35
f 16//36 19//36 24//46
f 18//1 17//1 16//1
f 16//2 17//2 18//2
f 21//1 18//1 25//1
f 25//2 18//2 21//2
f 22//37 19//19 29//37
f 29//38 19//20 22//38
f 18//1 21//1 17//1
f 17//2 21//2 18//2
f 26//39 13//21 30//39
f 30//40 13//22 26//40
f 26//47 28//31 15//31
f 15//32 28//32 26//48
f 28//41 27//49 20//41
f 20//42 27//50 28//42
f 13//1 27//1 30//1
f 30//2 27//2 13//2
f 20//41 14//33 28//41
f 28//42 14//34 20//42
f 22//1 26//1 31//1
f 31//2 26//2 22//2
f 23//23 22//43 32//43
f 32//44 22//44 23//24
f 24//1 23//1 32//1
f 32//2 23//2 24//2
f 19//35 24//45 29//45
f 29//46 24//46 19//36
f 29//37 31//51 22//37
f 22//38 31//52 29//38
f 30//39 33//53 26//39
f 26//40 33//54 30//40
f 28//31 26//47 34//47
f 34//48 26//48 28//32
f 27//49 28//41 34//49
f 34//50 28//42 27//50
f 30//1 27//1 35//1
f 35//2 27//2 30//2
f 31//1 26//1 33//1
f 33//2 26//2 31//2
f 31//55 32//43 22//43
f 22//44 32//44 31//56
f 24//1 32//1 36//1
f 36//2 32//2 24//2
f 36//57 29//45 24//45
f 24//46 29//46 36//58
f 31//51 29//37 37//51
f 37//52 29//38 31//52
f 33//53 30//39 38//53
f 38//54 30//40 33//54
f 39//59 26//47 33//59
f 33//60 26//48 39//60
f 26//47 39//59 34//47
f 34//48 39//60 26//48
f 34//49 35//61 27//49
f 27//50 35//62 34//50
f 30//1 35//1 38//1
f 38//2 35//2 30//2
f 31//1 33//1 40//1
f 40//2 33//2 31//2
f 32//43 31//55 41//55
f 41//56 31//56 32//44
f 36//1 32//1 41//1
f 41//2 32//2 36//2
f 29//45 36//57 37//57
f 37//58 36//58 29//46
f 37//51 40//63 31//51
f 31//52 40//64 37//52
f 42//65 33//53 38//53
f 38//54 33//54 42//66
f 33//59 43//67 39//59
f 39//60 43//68 33//60
f 35//61 34//49 39//61
f 39//62 34//50 35//62
f 38//1 35//1 44//1
f 44//2 35//2 38//2
f 40//1 33//1 45//1
f 45//2 33//2 40//2
f 46//69 31//55 40//69
f 40//70 31//56 46//70
f 31//55 46//69 41//55
f 41//56 46//70 31//56
f 36//1 41//1 47//1
f 47//2 41//2 36//2
f 47//71 37//57 36//57
f 36//58 37//58 47//72
f 40//63 37//51 48//63
f 48//64 37//52 40//64
f 33//53 42//65 45//65
f 45//66 42//66 33//54
f 38//1 44//1 42//1
f 42//2 44//2 38//2
f 43//67 33//59 45//67
f 45//68 33//60 43//68
f 43//73 35//61 39//61
f 39//62 35//62 43//74
f 35//61 43//73 44//73
f 44//74 43//74 35//62
f 40//1 45//1 49//1
f 49//2 45//2 40//2
f 40//69 50//66 46//69
f 46//70 50//65 40//70
f 47//1 41//1 46//1
f 46//2 41//2 47//2
f 37//57 47//71 48//71
f 48//72 47//72 37//58
f 51//75 40//63 48//63
f 48//64 40//64 51//76
f 42//65 52//70 45//65
f 45//66 52//69 42//66
f 42//1 44//1 53//1
f 53//2 44//2 42//2
f 52//77 43//67 45//67
f 45//68 43//68 52//78
f 54//79 44//73 43//73
f 43//74 44//74 54//80
f 49//1 45//1 52//1
f 52//2 45//2 49//2
f 50//66 40//69 49//66
f 49//65 40//70 50//65
f 40//63 51//75 49//75
f 49//76 51//76 40//64
f 55//1 46//1 50//1
f 50//2 46//2 55//2
f 47//1 46//1 55//1
f 55//2 46//2 47//2
f 47//71 51//81 48//71
f 48//72 51//82 47//72
f 52//70 42//65 53//70
f 53//69 42//66 52//69
f 53//1 44//1 56//1
f 56//2 44//2 53//2
f 43//67 52//77 54//77
f 54//78 52//78 43//68
f 44//73 54//79 56//79
f 56//80 54//80 44//74
f 49//1 52//1 57//1
f 57//2 52//2 49//2
f 57//54 50//66 49//66
f 49//65 50//65 57//53
f 51//75 57//83 49//75
f 49//76 57//84 51//76
f 55//1 50//1 58//1
f 58//2 50//2 55//2
f 51//81 47//71 55//81
f 55//82 47//72 51//82
f 53//70 59//56 52//70
f 52//69 59//55 53//69
f 53//1 56//1 60//1
f 60//2 56//2 53//2
f 52//77 61//85 54//77
f 54//78 61//86 52//78
f 61//87 56//79 54//79
f 54//80 56//80 61//88
f 57//1 52//1 59//1
f 59//2 52//2 57//2
f 50//66 57//54 62//54
f 62//53 57//53 50//65
f 57//83 51//75 63//83
f 63//84 51//76 57//84
f 58//1 50//1 62//1
f 62//2 50//2 58//2
f 63//89 55//81 58//89
f 58//90 55//82 63//90
f 55//81 63//89 51//81
f 51//82 63//90 55//82
f 59//56 53//70 60//56
f 60//55 53//69 59//55
f 61//85 52//77 59//85
f 59//86 52//78 61//86
f 60//1 56//1 64//1
f 64//2 56//2 60//2
f 56//79 61//87 64//87
f 64//88 61//88 56//80
f 57//1 59//1 65//1
f 65//2 59//2 57//2
f 57//54 66//40 62//54
f 62//53 66//39 57//53
f 63//83 65//91 57//83
f 57//84 65//92 63//84
f 58//1 62//1 66//1
f 66//2 62//2 58//2
f 58//89 67//93 63//89
f 63//90 67//94 58//90
f 68//44 59//56 60//56
f 60//55 59//55 68//43
f 59//85 69//95 61//85
f 61//86 69//96 59//86
f 60//1 64//1 68//1
f 68//2 64//2 60//2
f 61//87 70//97 64//87
f 64//88 70//98 61//88
f 65//1 59//1 71//1
f 71//2 59//2 65//2
f 66//40 57//54 65//40
f 65//39 57//53 66//39
f 65//91 63//83 67//91
f 67//92 63//84 65//92
f 58//1 66//1 72//1
f 72//2 66//2 58//2
f 67//93 58//89 72//93
f 72//94 58//90 67//94
f 59//56 68//44 71//44
f 71//43 68//43 59//55
f 69//95 59//85 71//95
f 71//96 59//86 69//96
f 70//97 61//87 69//97
f 69//98 61//88 70//98
f 68//1 64//1 70//1
f 70//2 64//2 68//2
f 65//1 71//1 73//1
f 73//2 71//2 65//2
f 65//40 74//22 66//40
f 66//39 74//21 65//39
f 75//99 65//91 67//91
f 67//92 65//92 75//100
f 72//1 66//1 74//1
f 74//2 66//2 72//2
f 76//101 67//93 72//93
f 72//94 67//94 76//102
f 77//24 71//44 68//44
f 68//43 71//43 77//23
f 71//95 78//103 69//95
f 69//96 78//104 71//96
f 78//105 70//97 69//97
f 69//98 70//98 78//106
f 68//1 70//1 77//1
f 77//2 70//2 68//2
f 73//1 71//1 79//1
f 79//2 71//2 73//2
f 74//22 65//40 73//22
f 73//21 65//39 74//21
f 65//91 75//99 73//99
f 73//100 75//100 65//92
f 67//93 76//101 75//101
f 75//102 76//102 67//94
f 72//1 74//1 76//1
f 76//2 74//2 72//2
f 71//44 77//24 79//24
f 79//23 77//23 71//43
f 78//103 71//95 79//103
f 79//104 71//96 78//104
f 70//97 78//105 80//105
f 80//106 78//106 70//98
f 77//1 70//1 80//1
f 80//2 70//2 77//2
f 73//1 79//1 81//1
f 81//2 79//2 73//2
f 81//16 74//22 73//22
f 73//21 74//21 81//15
f 82//107 73//99 75//99
f 75//100 73//100 82//108
f 76//101 82//109 75//101
f 75//102 82//110 76//102
f 76//1 74//1 83//1
f 83//2 74//2 76//2
f 84//6 79//24 77//24
f 77//23 79//23 84//3
f 79//103 85//111 78//103
f 78//104 85//112 79//104
f 85//113 80//105 78//105
f 78//106 80//106 85//114
f 77//1 80//1 84//1
f 84//2 80//2 77//2
f 81//1 79//1 86//1
f 86//2 79//2 81//2
f 73//99 82//107 81//107
f 81//108 82//108 73//100
f 74//22 81//16 83//16
f 83//15 81//15 74//21
f 82//109 76//101 87//109
f 87//110 76//102 82//110
f 76//1 83//1 87//1
f 87//2 83//2 76//2
f 79//24 84//6 86//6
f 86//3 84//3 79//23
f 85//111 79//103 86//111
f 86//112 79//104 85//112
f 80//105 85//113 88//113
f 88//114 85//114 80//106
f 84//1 80//1 89//1
f 89//2 80//2 84//2
f 81//1 86//1 90//1
f 90//2 86//2 81//2
f 91//115 81//107 82//107
f 82//108 81//108 91//116
f 90//12 83//16 81//16
f 81//15 83//15 90//11
f 87//109 91//117 82//109
f 82//110 91//118 87//110
f 87//1 83//1 92//1
f 92//2 83//2 87//2
f 89//5 86//6 84//6
f 84//3 86//3 89//4
f 86//111 93//119 85//111
f 85//112 93//120 86//112
f 93//121 88//113 85//113
f 85//114 88//114 93//122
f 87//1 80//1 88//1
f 88//2 80//2 87//2
f 87//1 89//1 80//1
f 80//2 89//2 87//2
f 90//1 86//1 94//1
f 94//2 86//2 90//2
f 81//107 91//115 90//115
f 90//116 91//116 81//108
f 83//16 90//12 92//12
f 92//11 90//11 83//15
f 91//117 87//109 95//117
f 95//118 87//110 91//118
f 87//1 92//1 89//1
f 89//2 92//2 87//2
f 86//6 89//5 94//5
f 94//4 89//4 86//3
f 93//119 86//111 94//119
f 94//120 86//112 93//120
f 88//113 93//121 96//121
f 96//122 93//122 88//114
f 87//1 88//1 95//1
f 95//2 88//2 87//2
f 94//5 92//12 90//12
f 90//11 92//11 94//4
f 90//115 93//119 94//119
f 94//120 93//120 90//116
f 93//119 90//115 91//115
f 91//116 90//116 93//120
f 96//121 91//117 95//117
f 95//118 91//118 96//122
f 92//12 94//5 89//5
f 89//4 94//4 92//11
f 91//117 96//121 93//121
f 93//122 96//122 91//118
f 95//1 88//1 96//1
f 96//2 88//2 95//2
