# SSTK version 0.8.0
# 11
mtllib original-11.mtl
o Group10/mesh6/mesh6-geometry#mesh6-geometry
v 0.046501 -0.127288 -0.003254
v 0.044972 -0.352840 -0.014866
v 0.044972 -0.127288 -0.014866
v 0.046501 -0.352840 -0.003254
v 0.040490 -0.352840 -0.025686
v 0.044972 -0.352840 0.008358
v 0.039086 -0.352840 -0.013288
v 0.040490 -0.127288 -0.025686
v 0.035212 -0.352840 -0.022639
v 0.044972 -0.127288 0.008358
v 0.039086 -0.352840 0.006781
v 0.040407 -0.352840 -0.003254
v 0.033360 -0.127288 -0.034978
v 0.029051 -0.352840 -0.030669
v 0.040490 -0.352840 0.019179
v 0.035212 -0.352840 0.016132
v 0.033360 -0.352840 -0.034978
v 0.040490 -0.127288 0.019179
v 0.024068 -0.352840 -0.042108
v 0.021021 -0.352840 -0.036830
v 0.033360 -0.352840 0.028471
v 0.029051 -0.352840 0.024162
v 0.024068 -0.127288 -0.042108
v 0.033360 -0.127288 0.028471
v 0.013248 -0.352840 -0.046590
v 0.011670 -0.352840 -0.040704
v 0.024068 -0.127288 0.035601
v 0.021021 -0.352840 0.030323
v 0.013248 -0.127288 -0.046590
v 0.024068 -0.352840 0.035601
v 0.001636 -0.352840 -0.048119
v 0.001636 -0.352840 -0.042025
v 0.013248 -0.127288 0.040083
v 0.011670 -0.352840 0.034196
v 0.001636 -0.127288 -0.048119
v 0.013248 -0.352840 0.040083
v -0.009977 -0.352840 -0.046590
v 0.001636 -0.127288 0.041612
v 0.001636 -0.352840 0.035518
v -0.009977 -0.127288 -0.046590
v -0.008399 -0.352840 -0.040704
v 0.001636 -0.352840 0.041612
v -0.020797 -0.352840 -0.042108
v -0.009977 -0.127288 0.040083
v -0.009977 -0.352840 0.040083
v -0.020797 -0.127288 -0.042108
v -0.017750 -0.352840 -0.036830
v -0.008399 -0.352840 0.034196
v -0.030089 -0.352840 -0.034978
v -0.020797 -0.127288 0.035601
v -0.020797 -0.352840 0.035601
v -0.030089 -0.127288 -0.034978
v -0.025780 -0.352840 -0.030669
v -0.017750 -0.352840 0.030323
v -0.037219 -0.127288 -0.025686
v -0.037219 -0.352840 -0.025686
v -0.030089 -0.127288 0.028471
v -0.030089 -0.352840 0.028471
v -0.031941 -0.352840 -0.022639
v -0.025780 -0.352840 0.024162
v -0.041701 -0.127288 -0.014866
v -0.041701 -0.352840 -0.014866
v -0.037219 -0.127288 0.019179
v -0.037219 -0.352840 0.019179
v -0.035815 -0.352840 -0.013288
v -0.031941 -0.352840 0.016132
v -0.043230 -0.127288 -0.003254
v -0.043230 -0.352840 -0.003254
v -0.041701 -0.127288 0.008358
v -0.041701 -0.352840 0.008358
v -0.037136 -0.352840 -0.003254
v -0.035815 -0.352840 0.006781
vn 1 0 0
vn 0.6800720493552104 -0.7101380515372062 -0.1822250132247072
vn 0.965925849201117 0 -0.25881895959357554
vn 0.7040627581499075 -0.7101377560631073 0
vn -0.965925849201117 0 0.25881895959357554
vn -0.6800720493552104 0.7101380515372062 0.1822250132247072
vn -1 0 0
vn -0.7040627581499075 0.7101377560631073 0
vn 0.6097360628939729 -0.7101380732503914 -0.352031036311827
vn -0.6097360628939729 0.7101380732503914 0.352031036311827
vn 0.6800720493552104 -0.710138051537206 0.18222501322470783
vn -0.6800720493552104 0.710138051537206 -0.18222501322470783
vn 0 -1 0
vn 0 1 0
vn 0.8660253028382761 0 -0.5000001748438418
vn -0.8660253028382761 0 0.5000001748438418
vn 0.965925849201117 0 0.25881895959357554
vn -0.965925849201117 0 -0.25881895959357554
vn 0.7071067811865474 0 -0.7071067811865476
vn -0.7071067811865474 0 0.7071067811865476
vn 0.6097360628939729 -0.710138073250391 0.35203103631182764
vn -0.6097360628939729 0.710138073250391 -0.35203103631182764
vn 0.4978471867270812 -0.7101382663508998 -0.4978471867270812
vn -0.4978471867270812 0.7101382663508998 0.4978471867270812
vn 0.8660253028382761 0 0.5000001748438418
vn -0.8660253028382761 0 -0.5000001748438418
vn 0.352031036311827 -0.7101380732503915 -0.609736062893973
vn -0.352031036311827 0.7101380732503915 0.609736062893973
vn 0.4978471867270812 -0.7101382663508994 0.49784718672708195
vn -0.4978471867270812 0.7101382663508994 -0.49784718672708195
vn 0.5000001748438415 0 -0.8660253028382761
vn -0.5000001748438415 0 0.8660253028382761
vn 0.7071067811865474 0 0.7071067811865476
vn -0.7071067811865474 0 -0.7071067811865476
vn 0.1822250132247073 -0.7101380515372062 -0.6800720493552104
vn -0.1822250132247073 0.7101380515372062 0.6800720493552104
vn 0.5000001748438415 0 0.8660253028382761
vn -0.5000001748438415 0 -0.8660253028382761
vn 0.25881895959357537 0 -0.9659258492011171
vn -0.25881895959357537 0 0.9659258492011171
vn 0.352031036311827 -0.7101380732503909 0.6097360628939736
vn -0.352031036311827 0.7101380732503909 -0.6097360628939736
vn 0 -0.7101377560631071 -0.7040627581499073
vn 0 0.7101377560631071 0.7040627581499073
vn 0.25881895959357537 0 0.9659258492011171
vn -0.25881895959357537 0 -0.9659258492011171
vn 0 0 -1
vn 0 0 1
vn 0.18222501322470727 -0.7101380515372056 0.680072049355211
vn -0.18222501322470727 0.7101380515372056 -0.680072049355211
vn -0.1822250132247076 -0.7101380515372062 -0.6800720493552104
vn 0.1822250132247076 0.7101380515372062 0.6800720493552104
vn 0 -0.7101377560631064 0.7040627581499079
vn 0 0.7101377560631064 -0.7040627581499079
vn -0.35203103631182736 -0.7101380732503912 -0.609736062893973
vn 0.35203103631182736 0.7101380732503912 0.609736062893973
vn -0.18222501322470758 -0.7101380515372054 0.680072049355211
vn 0.18222501322470758 0.7101380515372054 -0.680072049355211
vn -0.4978471867270816 -0.7101382663508996 -0.4978471867270812
vn 0.4978471867270816 0.7101382663508996 0.4978471867270812
vn -0.3520310363118273 -0.7101380732503906 0.6097360628939735
vn 0.3520310363118273 0.7101380732503906 -0.6097360628939735
vn -0.6097360628939732 -0.710138073250391 -0.352031036311827
vn 0.6097360628939732 0.710138073250391 0.352031036311827
vn -0.4978471867270816 -0.7101382663508992 0.49784718672708195
vn 0.4978471867270816 0.7101382663508992 -0.49784718672708195
vn -0.6800720493552107 -0.7101380515372058 -0.1822250132247072
vn 0.6800720493552107 0.7101380515372058 0.1822250132247072
vn -0.6097360628939732 -0.7101380732503908 0.35203103631182764
vn 0.6097360628939732 0.7101380732503908 -0.35203103631182764
vn -0.7040627581499077 -0.7101377560631068 0
vn 0.7040627581499077 0.7101377560631068 0
vn -0.6800720493552107 -0.7101380515372057 0.18222501322470783
vn 0.6800720493552107 0.7101380515372057 -0.18222501322470783
usemtl material_0_0
f 1//1 2//2 3//3
f 2//2 1//1 4//4
f 3//5 2//6 1//7
f 4//8 1//7 2//6
f 5//9 3//3 2//2
f 2//6 3//5 5//10
f 1//1 6//11 4//4
f 4//8 6//12 1//7
f 4//4 7//13 2//2
f 2//6 7//14 4//8
f 3//3 5//9 8//15
f 8//16 5//10 3//5
f 2//2 9//13 5//9
f 5//10 9//14 2//6
f 6//11 1//1 10//17
f 10//18 1//7 6//12
f 11//13 4//4 6//11
f 6//12 4//8 11//14
f 7//13 4//4 12//13
f 12//14 4//8 7//14
f 9//13 2//2 7//13
f 7//14 2//6 9//14
f 5//9 13//19 8//15
f 8//16 13//20 5//10
f 14//13 5//9 9//13
f 9//14 5//10 14//14
f 10//17 15//21 6//11
f 6//12 15//22 10//18
f 4//4 11//13 12//13
f 12//14 11//14 4//8
f 6//11 16//13 11//13
f 11//14 16//14 6//12
f 13//19 5//9 17//23
f 17//24 5//10 13//20
f 5//9 14//13 17//23
f 17//24 14//14 5//10
f 15//21 10//17 18//25
f 18//26 10//18 15//22
f 16//13 6//11 15//21
f 15//22 6//12 16//14
f 19//27 13//19 17//23
f 17//24 13//20 19//28
f 20//13 17//23 14//13
f 14//14 17//24 20//14
f 18//25 21//29 15//21
f 15//22 21//30 18//26
f 15//21 22//13 16//13
f 16//14 22//14 15//22
f 13//19 19//27 23//31
f 23//32 19//28 13//20
f 17//23 20//13 19//27
f 19//28 20//14 17//24
f 21//29 18//25 24//33
f 24//34 18//26 21//30
f 22//13 15//21 21//29
f 21//30 15//22 22//14
f 25//35 23//31 19//27
f 19//28 23//32 25//36
f 26//13 19//27 20//13
f 20//14 19//28 26//14
f 27//37 21//29 24//33
f 24//34 21//30 27//38
f 21//29 28//13 22//13
f 22//14 28//14 21//30
f 23//31 25//35 29//39
f 29//40 25//36 23//32
f 19//27 26//13 25//35
f 25//36 26//14 19//28
f 21//29 27//37 30//41
f 30//42 27//38 21//30
f 28//13 21//29 30//41
f 30//42 21//30 28//14
f 31//43 29//39 25//35
f 25//36 29//40 31//44
f 32//13 25//35 26//13
f 26//14 25//36 32//14
f 33//45 30//41 27//37
f 27//38 30//42 33//46
f 30//41 34//13 28//13
f 28//14 34//14 30//42
f 29//39 31//43 35//47
f 35//48 31//44 29//40
f 25//35 32//13 31//43
f 31//44 32//14 25//36
f 30//41 33//45 36//49
f 36//50 33//46 30//42
f 34//13 30//41 36//49
f 36//50 30//42 34//14
f 37//51 35//47 31//43
f 31//44 35//48 37//52
f 32//13 37//51 31//43
f 31//44 37//52 32//14
f 38//48 36//49 33//45
f 33//46 36//50 38//47
f 36//49 39//13 34//13
f 34//14 39//14 36//50
f 35//47 37//51 40//46
f 40//45 37//52 35//48
f 37//51 32//13 41//13
f 41//14 32//14 37//52
f 36//49 38//48 42//53
f 42//54 38//47 36//50
f 39//13 36//49 42//53
f 42//54 36//50 39//14
f 43//55 40//46 37//51
f 37//52 40//45 43//56
f 41//13 43//55 37//51
f 37//52 43//56 41//14
f 44//40 42//53 38//48
f 38//47 42//54 44//39
f 45//57 39//13 42//53
f 42//54 39//14 45//58
f 40//46 43//55 46//38
f 46//37 43//56 40//45
f 43//55 41//13 47//13
f 47//14 41//14 43//56
f 42//53 44//40 45//57
f 45//58 44//39 42//54
f 39//13 45//57 48//13
f 48//14 45//58 39//14
f 49//59 46//38 43//55
f 43//56 46//37 49//60
f 47//13 49//59 43//55
f 43//56 49//60 47//14
f 50//32 45//57 44//40
f 44//39 45//58 50//31
f 51//61 48//13 45//57
f 45//58 48//14 51//62
f 46//38 49//59 52//34
f 52//33 49//60 46//37
f 49//59 47//13 53//13
f 53//14 47//14 49//60
f 45//57 50//32 51//61
f 51//62 50//31 45//58
f 48//13 51//61 54//13
f 54//14 51//62 48//14
f 49//59 55//26 52//34
f 52//33 55//25 49//60
f 53//13 56//63 49//59
f 49//60 56//64 53//14
f 57//20 51//61 50//32
f 50//31 51//62 57//19
f 58//65 54//13 51//61
f 51//62 54//14 58//66
f 55//26 49//59 56//63
f 56//64 49//60 55//25
f 56//63 53//13 59//13
f 59//14 53//14 56//64
f 51//61 57//20 58//65
f 58//66 57//19 51//62
f 54//13 58//65 60//13
f 60//14 58//66 54//14
f 56//63 61//18 55//26
f 55//25 61//17 56//64
f 59//13 62//67 56//63
f 56//64 62//68 59//14
f 63//16 58//65 57//20
f 57//19 58//66 63//15
f 64//69 60//13 58//65
f 58//66 60//14 64//70
f 61//18 56//63 62//67
f 62//68 56//64 61//17
f 62//67 59//13 65//13
f 65//14 59//14 62//68
f 58//65 63//16 64//69
f 64//70 63//15 58//66
f 60//13 64//69 66//13
f 66//14 64//70 60//14
f 62//67 67//7 61//18
f 61//17 67//1 62//68
f 65//13 68//71 62//67
f 62//68 68//72 65//14
f 69//5 64//69 63//16
f 63//15 64//70 69//3
f 70//73 66//13 64//69
f 64//70 66//14 70//74
f 67//7 62//67 68//71
f 68//72 62//68 67//1
f 68//71 65//13 71//13
f 71//14 65//14 68//72
f 64//69 69//5 70//73
f 70//74 69//3 64//70
f 66//13 70//73 72//13
f 72//14 70//74 66//14
f 70//73 67//7 68//71
f 68//72 67//1 70//74
f 72//13 68//71 71//13
f 71//14 68//72 72//14
f 67//7 70//73 69//5
f 69//3 70//74 67//1
f 68//71 72//13 70//73
f 70//74 72//14 68//72
