# SSTK version 0.8.0
# 22
mtllib original-22.mtl
o #ID86
v 0.144770 0.572119 0.119113
v 0.099689 0.512877 0.128997
v 0.126745 0.512877 0.104071
v 0.113205 0.572119 0.148192
v 0.113205 0.572119 0.148192
v 0.144770 0.572119 0.119113
v 0.099689 0.512877 0.128997
v 0.126745 0.512877 0.104071
v 0.167732 0.572119 0.082856
v 0.146429 0.512877 0.072992
v 0.167732 0.572119 0.082856
v 0.146429 0.512877 0.072992
v 0.172885 0.572119 -0.042863
v 0.180528 0.572119 0.041892
v 0.182286 0.572119 -0.000989
v 0.167732 0.572119 0.082856
v 0.152967 0.572119 -0.080878
v 0.144770 0.572119 0.119113
v 0.123888 0.572119 -0.112442
v 0.113205 0.572119 0.148192
v 0.087631 0.572119 -0.135405
v 0.075191 0.572119 0.168110
v 0.046667 0.572119 -0.148201
v 0.033316 0.572119 0.177511
v 0.003786 0.572119 -0.149958
v -0.009564 0.572119 0.175753
v -0.038088 0.572119 -0.140558
v -0.050529 0.572119 0.162957
v -0.076103 0.572119 -0.120640
v -0.086786 0.572119 0.139994
v -0.107667 0.572119 -0.091561
v -0.115864 0.572119 0.108430
v -0.130629 0.572119 -0.055304
v -0.135782 0.572119 0.070416
v -0.143426 0.572119 -0.014339
v -0.145183 0.572119 0.028541
v -0.145183 0.572119 0.028541
v -0.143426 0.572119 -0.014339
v -0.135782 0.572119 0.070416
v -0.130629 0.572119 -0.055304
v -0.115864 0.572119 0.108430
v -0.107667 0.572119 -0.091561
v -0.086786 0.572119 0.139994
v -0.076103 0.572119 -0.120640
v -0.050529 0.572119 0.162957
v -0.038088 0.572119 -0.140558
v -0.009564 0.572119 0.175753
v 0.003786 0.572119 -0.149958
v 0.033316 0.572119 0.177511
v 0.046667 0.572119 -0.148201
v 0.075191 0.572119 0.168110
v 0.087631 0.572119 -0.135405
v 0.113205 0.572119 0.148192
v 0.123888 0.572119 -0.112442
v 0.144770 0.572119 0.119113
v 0.152967 0.572119 -0.080878
v 0.167732 0.572119 0.082856
v 0.172885 0.572119 -0.042863
v 0.180528 0.572119 0.041892
v 0.182286 0.572119 -0.000989
v 0.067103 0.512877 0.146071
v 0.075191 0.572119 0.168110
v 0.075191 0.572119 0.168110
v 0.067103 0.512877 0.146071
v 0.180528 0.572119 0.041892
v 0.157398 0.512877 0.037877
v 0.180528 0.572119 0.041892
v 0.157398 0.512877 0.037877
v 0.182286 0.572119 -0.000989
v 0.150846 0.512877 -0.034775
v 0.172885 0.572119 -0.042863
v 0.158904 0.512877 0.001120
v 0.158904 0.512877 0.001120
v 0.182286 0.572119 -0.000989
v 0.150846 0.512877 -0.034775
v 0.172885 0.572119 -0.042863
v 0.133772 0.512877 -0.067361
v 0.152967 0.572119 -0.080878
v 0.133772 0.512877 -0.067361
v 0.152967 0.572119 -0.080878
v 0.108846 0.512877 -0.094418
v 0.123888 0.572119 -0.112442
v 0.108846 0.512877 -0.094418
v 0.123888 0.572119 -0.112442
v 0.087631 0.572119 -0.135405
v 0.077767 0.512877 -0.114101
v 0.087631 0.572119 -0.135405
v 0.077767 0.512877 -0.114101
v 0.046667 0.572119 -0.148201
v 0.042652 0.512877 -0.125070
v 0.046667 0.572119 -0.148201
v 0.042652 0.512877 -0.125070
v 0.003786 0.572119 -0.149958
v 0.005895 0.512877 -0.126577
v 0.003786 0.572119 -0.149958
v 0.005895 0.512877 -0.126577
v -0.038088 0.572119 -0.140558
v -0.030000 0.512877 -0.118519
v -0.038088 0.572119 -0.140558
v -0.030000 0.512877 -0.118519
v -0.076103 0.572119 -0.120640
v -0.062586 0.512877 -0.101445
v -0.076103 0.572119 -0.120640
v -0.062586 0.512877 -0.101445
v -0.107667 0.572119 -0.091561
v -0.089643 0.512877 -0.076519
v -0.107667 0.572119 -0.091561
v -0.089643 0.512877 -0.076519
v -0.130629 0.572119 -0.055304
v -0.109326 0.512877 -0.045439
v -0.109326 0.512877 -0.045439
v -0.130629 0.572119 -0.055304
v -0.143426 0.572119 -0.014339
v -0.120295 0.512877 -0.010324
v -0.120295 0.512877 -0.010324
v -0.143426 0.572119 -0.014339
v -0.145183 0.572119 0.028541
v -0.121802 0.512877 0.026433
v -0.121802 0.512877 0.026433
v -0.145183 0.572119 0.028541
v -0.113743 0.512877 0.062328
v -0.135782 0.572119 0.070416
v -0.135782 0.572119 0.070416
v -0.113743 0.512877 0.062328
v -0.096670 0.512877 0.094914
v -0.115864 0.572119 0.108430
v -0.115864 0.572119 0.108430
v -0.096670 0.512877 0.094914
v -0.071744 0.512877 0.121970
v -0.086786 0.572119 0.139994
v -0.086786 0.572119 0.139994
v -0.071744 0.512877 0.121970
v -0.050529 0.572119 0.162957
v -0.040664 0.512877 0.141654
v -0.050529 0.572119 0.162957
v -0.040664 0.512877 0.141654
v -0.009564 0.572119 0.175753
v -0.005549 0.512877 0.152623
v -0.009564 0.572119 0.175753
v -0.005549 0.512877 0.152623
v 0.033316 0.572119 0.177511
v 0.031208 0.512877 0.154129
v 0.033316 0.572119 0.177511
v 0.031208 0.512877 0.154129
vn 0.7137563916284034 -0.36840552660512743 0.5956753993379281
vn 0.5352636490186902 -0.3684055364619301 0.760111956716505
vn 0.843607882237227 -0.3684055427377244 0.3906444638124847
vn 0 1 0
vn 0.32029353231347685 -0.36840553375013235 0.8727481972828336
vn 0.9159688827155413 -0.3684055094214193 0.15899178131207692
vn 0.9259080926578508 -0.36840553104831836 -0.08349591992251758
vn 0.8727481972828337 -0.36840553375013463 -0.32029353231347374
vn 0.7601119567165052 -0.36840553646193425 -0.5352636490186871
vn 0.5956753993379281 -0.3684055266051331 -0.7137563916284002
vn 0.39064446381248485 -0.3684055427377314 -0.843607882237224
vn 0.15899178131207706 -0.3684055094214269 -0.9159688827155383
vn -0.08349591992251741 -0.36840553104832613 -0.9259080926578477
vn -0.3202935323134736 -0.3684055337501421 -0.8727481972828306
vn -0.5352636490186868 -0.36840553646194085 -0.7601119567165021
vn -0.7137563916284001 -0.3684055266051385 -0.5956753993379251
vn -0.8436078822372237 -0.36840554273773496 -0.3906444638124817
vn -0.9159688827155382 -0.3684055094214287 -0.15899178131207398
vn -0.9259080926578473 -0.36840553104832585 0.08349591992252049
vn -0.8727481972828305 -0.3684055337501398 0.3202935323134767
vn -0.760111956716502 -0.3684055364619367 0.5352636490186901
vn -0.5956753993379249 -0.3684055266051327 0.7137563916284031
vn -0.3906444638124816 -0.3684055427377281 0.8436078822372269
vn -0.1589917813120738 -0.3684055094214211 0.9159688827155412
vn 0.08349591992252067 -0.3684055310483181 0.9259080926578506
vn -0.5352636490186902 0.3684055364619301 -0.760111956716505
vn -0.7137563916284034 0.36840552660512743 -0.5956753993379281
vn -0.843607882237227 0.3684055427377244 -0.3906444638124847
vn 0 -1 0
vn -0.32029353231347685 0.36840553375013235 -0.8727481972828336
vn -0.9159688827155413 0.3684055094214193 -0.15899178131207692
vn -0.9259080926578508 0.36840553104831836 0.08349591992251758
vn -0.8727481972828337 0.36840553375013463 0.32029353231347374
vn -0.7601119567165052 0.36840553646193425 0.5352636490186871
vn -0.5956753993379281 0.3684055266051331 0.7137563916284002
vn -0.39064446381248485 0.3684055427377314 0.843607882237224
vn -0.15899178131207706 0.3684055094214269 0.9159688827155383
vn 0.08349591992251741 0.36840553104832613 0.9259080926578477
vn 0.3202935323134736 0.3684055337501421 0.8727481972828306
vn 0.5352636490186868 0.36840553646194085 0.7601119567165021
vn 0.7137563916284001 0.3684055266051385 0.5956753993379251
vn 0.8436078822372237 0.36840554273773496 0.3906444638124817
vn 0.9159688827155382 0.3684055094214287 0.15899178131207398
vn 0.9259080926578473 0.36840553104832585 -0.08349591992252049
vn 0.8727481972828305 0.3684055337501398 -0.3202935323134767
vn 0.760111956716502 0.3684055364619367 -0.5352636490186901
vn 0.5956753993379249 0.3684055266051327 -0.7137563916284031
vn 0.3906444638124816 0.3684055427377281 -0.8436078822372269
vn 0.1589917813120738 0.3684055094214211 -0.9159688827155412
vn -0.08349591992252067 0.3684055310483181 -0.9259080926578506
usemtl material_0_0
f 1//1 2//2 3//1
f 2//2 1//1 4//2
f 9//3 3//1 10//3
f 3//1 9//3 1//1
f 13//4 14//4 15//4
f 14//4 13//4 16//4
f 16//4 13//4 17//4
f 16//4 17//4 18//4
f 18//4 17//4 19//4
f 18//4 19//4 20//4
f 20//4 19//4 21//4
f 20//4 21//4 22//4
f 22//4 21//4 23//4
f 22//4 23//4 24//4
f 24//4 23//4 25//4
f 24//4 25//4 26//4
f 26//4 25//4 27//4
f 26//4 27//4 28//4
f 28//4 27//4 29//4
f 28//4 29//4 30//4
f 30//4 29//4 31//4
f 30//4 31//4 32//4
f 32//4 31//4 33//4
f 32//4 33//4 34//4
f 34//4 33//4 35//4
f 34//4 35//4 36//4
f 4//2 61//5 2//2
f 61//5 4//2 62//5
f 65//6 10//3 66//6
f 10//3 65//6 9//3
f 69//7 70//8 71//8
f 70//8 69//7 72//7
f 71//8 77//9 78//9
f 77//9 71//8 70//8
f 78//9 81//10 82//10
f 81//10 78//9 77//9
f 85//11 81//10 86//11
f 81//10 85//11 82//10
f 89//12 86//11 90//12
f 86//11 89//12 85//11
f 93//13 90//12 94//13
f 90//12 93//13 89//12
f 97//14 94//13 98//14
f 94//13 97//14 93//13
f 101//15 98//14 102//15
f 98//14 101//15 97//14
f 105//16 102//15 106//16
f 102//15 105//16 101//15
f 106//16 109//17 105//16
f 109//17 106//16 110//17
f 110//17 113//18 109//17
f 113//18 110//17 114//18
f 114//18 117//19 113//18
f 117//19 114//18 118//19
f 121//20 117//19 118//19
f 117//19 121//20 122//20
f 125//21 122//20 121//20
f 122//20 125//21 126//21
f 129//22 126//21 125//21
f 126//21 129//22 130//22
f 133//23 129//22 134//23
f 129//22 133//23 130//22
f 137//24 134//23 138//24
f 134//23 137//24 133//23
f 141//25 138//24 142//25
f 138//24 141//25 137//24
f 62//5 142//25 61//5
f 142//25 62//5 141//25
f 65//6 72//7 69//7
f 72//7 65//6 66//6
usemtl material_1_0
f 5//26 6//27 7//26
f 8//27 7//26 6//27
f 6//27 11//28 8//27
f 12//28 8//27 11//28
f 37//29 38//29 39//29
f 38//29 40//29 39//29
f 39//29 40//29 41//29
f 40//29 42//29 41//29
f 41//29 42//29 43//29
f 42//29 44//29 43//29
f 43//29 44//29 45//29
f 44//29 46//29 45//29
f 45//29 46//29 47//29
f 46//29 48//29 47//29
f 47//29 48//29 49//29
f 48//29 50//29 49//29
f 49//29 50//29 51//29
f 50//29 52//29 51//29
f 51//29 52//29 53//29
f 52//29 54//29 53//29
f 53//29 54//29 55//29
f 54//29 56//29 55//29
f 55//29 56//29 57//29
f 56//29 58//29 57//29
f 57//29 58//29 59//29
f 60//29 59//29 58//29
f 63//30 5//26 64//30
f 7//26 64//30 5//26
f 11//28 67//31 12//28
f 68//31 12//28 67//31
f 73//32 74//32 75//33
f 76//33 75//33 74//32
f 75//33 76//33 79//34
f 80//34 79//34 76//33
f 79//34 80//34 83//35
f 84//35 83//35 80//34
f 84//35 87//36 83//35
f 88//36 83//35 87//36
f 87//36 91//37 88//36
f 92//37 88//36 91//37
f 91//37 95//38 92//37
f 96//38 92//37 95//38
f 95//38 99//39 96//38
f 100//39 96//38 99//39
f 99//39 103//40 100//39
f 104//40 100//39 103//40
f 103//40 107//41 104//40
f 108//41 104//40 107//41
f 111//42 108//41 112//42
f 107//41 112//42 108//41
f 115//43 111//42 116//43
f 112//42 116//43 111//42
f 119//44 115//43 120//44
f 116//43 120//44 115//43
f 123//45 124//45 120//44
f 119//44 120//44 124//45
f 127//46 128//46 123//45
f 124//45 123//45 128//46
f 131//47 132//47 127//46
f 128//46 127//46 132//47
f 131//47 135//48 132//47
f 136//48 132//47 135//48
f 135//48 139//49 136//48
f 140//49 136//48 139//49
f 139//49 143//50 140//49
f 144//50 140//49 143//50
f 143//50 63//30 144//50
f 64//30 144//50 63//30
f 68//31 67//31 73//32
f 74//32 73//32 67//31
