# SSTK version 0.8.0
# 20
mtllib original-20.mtl
o #ID70
v 0.464750 0.453634 0.386158
v 0.378353 0.414139 0.524720
v 0.498335 0.414139 0.414186
v 0.353167 0.453634 0.488954
v 0.353167 0.453634 0.488954
v 0.464750 0.453634 0.386158
v 0.378353 0.414139 0.524720
v 0.498335 0.414139 0.414186
v 0.545926 0.453634 0.257984
v 0.585621 0.414139 0.276366
v 0.545926 0.453634 0.257984
v 0.585621 0.414139 0.276366
v 0.233851 0.414139 0.600434
v 0.218780 0.453634 0.559368
v 0.218780 0.453634 0.559368
v 0.233851 0.414139 0.600434
v 0.591162 0.453634 0.113169
v 0.634261 0.414139 0.120650
v 0.591162 0.453634 0.113169
v 0.634261 0.414139 0.120650
v 0.074677 0.414139 0.636167
v 0.070748 0.453634 0.592600
v 0.070748 0.453634 0.592600
v 0.074677 0.414139 0.636167
v 0.597375 0.453634 -0.038421
v 0.640943 0.414139 -0.042349
v 0.597375 0.453634 -0.038421
v 0.640943 0.414139 -0.042349
v -0.088322 0.414139 0.629486
v -0.080841 0.453634 0.586387
v -0.080841 0.453634 0.586387
v -0.088322 0.414139 0.629486
v 0.605209 0.414139 -0.201524
v 0.564143 0.453634 -0.186453
v 0.564143 0.453634 -0.186453
v 0.605209 0.414139 -0.201524
v -0.225657 0.453634 0.541151
v -0.244038 0.414139 0.580846
v -0.244038 0.414139 0.580846
v -0.225657 0.453634 0.541151
v 0.529495 0.414139 -0.346026
v 0.493729 0.453634 -0.320839
v 0.493729 0.453634 -0.320839
v 0.529495 0.414139 -0.346026
v -0.353830 0.453634 0.459975
v -0.381859 0.414139 0.493560
v -0.381859 0.414139 0.493560
v -0.353830 0.453634 0.459975
v 0.418962 0.414139 -0.466008
v 0.390933 0.453634 -0.432423
v 0.390933 0.453634 -0.432423
v 0.418962 0.414139 -0.466008
v -0.456626 0.453634 0.348392
v -0.492393 0.414139 0.373578
v -0.492393 0.414139 0.373578
v -0.456626 0.453634 0.348392
v 0.281141 0.414139 -0.553293
v 0.262760 0.453634 -0.513598
v 0.262760 0.453634 -0.513598
v 0.281141 0.414139 -0.553293
v -0.527040 0.453634 0.214005
v -0.568106 0.414139 0.229076
v -0.568106 0.414139 0.229076
v -0.527040 0.453634 0.214005
v 0.125425 0.414139 -0.601934
v 0.117944 0.453634 -0.558834
v 0.117944 0.453634 -0.558834
v 0.125425 0.414139 -0.601934
v -0.560272 0.453634 0.065973
v -0.603840 0.414139 0.069902
v -0.603840 0.414139 0.069902
v -0.560272 0.453634 0.065973
v -0.037574 0.414139 -0.608615
v -0.033645 0.453634 -0.565048
v -0.033645 0.453634 -0.565048
v -0.037574 0.414139 -0.608615
v -0.597159 0.414139 -0.093097
v -0.554059 0.453634 -0.085616
v -0.597159 0.414139 -0.093097
v -0.554059 0.453634 -0.085616
v -0.181678 0.453634 -0.531815
v -0.196748 0.414139 -0.572881
v -0.196748 0.414139 -0.572881
v -0.181678 0.453634 -0.531815
v -0.548518 0.414139 -0.248813
v -0.508823 0.453634 -0.230432
v -0.548518 0.414139 -0.248813
v -0.508823 0.453634 -0.230432
v -0.316064 0.453634 -0.461402
v -0.341251 0.414139 -0.497168
v -0.341251 0.414139 -0.497168
v -0.316064 0.453634 -0.461402
v -0.461232 0.414139 -0.386634
v -0.427648 0.453634 -0.358605
v -0.461232 0.414139 -0.386634
v -0.427648 0.453634 -0.358605
vn 0.5145016273883241 0.7422378231886596 0.42938454704719664
vn 0.38583754941274895 0.742237800727403 0.5479164467640231
vn 0.6081033225509985 0.7422378322512193 0.2815907482099635
vn 0.23087924444392205 0.7422378347991915 0.6291087116529321
vn 0.6602637755772452 0.742237809358959 0.11460707228829715
vn 0.06018690197916502 0.7422378256513951 0.6674283085114383
vn 0.667428308511438 0.7422378256513948 -0.060186901979171266
vn -0.1146070722883034 0.7422378093589577 0.6602637755772456
vn 0.6291087116529317 0.7422378347991898 -0.23087924444392832
vn -0.28159074820996977 0.7422378322512168 0.6081033225509989
vn 0.5479164467640227 0.7422378007274 -0.3858375494127552
vn -0.4293845470472029 0.7422378231886558 0.5145016273883245
vn 0.42938454704719625 0.7422378231886554 -0.5145016273883303
vn -0.5479164467640292 0.7422378007273981 0.3858375494127493
vn 0.28159074820996316 0.7422378322512143 -0.6081033225510047
vn -0.6291087116529384 0.7422378347991861 0.23087924444392238
vn 0.11460707228829681 0.7422378093589533 -0.6602637755772514
vn -0.6674283085114445 0.7422378256513895 0.060186901979165354
vn -0.0601869019791716 0.7422378256513893 -0.6674283085114442
vn -0.6602637755772518 0.7422378093589521 -0.11460707228830308
vn -0.23087924444392866 0.7422378347991844 -0.6291087116529379
vn -0.6081033225510051 0.7422378322512118 -0.2815907482099694
vn -0.38583754941275555 0.7422378007273952 -0.547916446764029
vn -0.5145016273883306 0.7422378231886515 -0.42938454704720247
vn -0.38583754941274895 -0.742237800727403 -0.5479164467640231
vn -0.5145016273883241 -0.7422378231886596 -0.42938454704719664
vn -0.6081033225509985 -0.7422378322512193 -0.2815907482099635
vn -0.23087924444392205 -0.7422378347991915 -0.6291087116529321
vn -0.6602637755772452 -0.742237809358959 -0.11460707228829715
vn -0.06018690197916502 -0.7422378256513951 -0.6674283085114383
vn -0.667428308511438 -0.7422378256513948 0.060186901979171266
vn 0.1146070722883034 -0.7422378093589577 -0.6602637755772456
vn -0.6291087116529317 -0.7422378347991898 0.23087924444392832
vn 0.28159074820996977 -0.7422378322512168 -0.6081033225509989
vn -0.5479164467640227 -0.7422378007274 0.3858375494127552
vn 0.4293845470472029 -0.7422378231886558 -0.5145016273883245
vn -0.42938454704719625 -0.7422378231886554 0.5145016273883303
vn 0.5479164467640292 -0.7422378007273981 -0.3858375494127493
vn -0.28159074820996316 -0.7422378322512143 0.6081033225510047
vn 0.6291087116529384 -0.7422378347991861 -0.23087924444392238
vn -0.11460707228829681 -0.7422378093589533 0.6602637755772514
vn 0.6674283085114445 -0.7422378256513895 -0.060186901979165354
vn 0.0601869019791716 -0.7422378256513893 0.6674283085114442
vn 0.6602637755772518 -0.7422378093589521 0.11460707228830308
vn 0.23087924444392866 -0.7422378347991844 0.6291087116529379
vn 0.6081033225510051 -0.7422378322512118 0.2815907482099694
vn 0.38583754941275555 -0.7422378007273952 0.547916446764029
vn 0.5145016273883306 -0.7422378231886515 0.42938454704720247
usemtl material_0_0
f 1//1 2//2 3//1
f 2//2 1//1 4//2
f 9//3 3//1 10//3
f 3//1 9//3 1//1
f 4//2 13//4 2//2
f 13//4 4//2 14//4
f 17//5 10//3 18//5
f 10//3 17//5 9//3
f 14//4 21//6 13//4
f 21//6 14//4 22//6
f 25//7 18//5 26//7
f 18//5 25//7 17//5
f 22//6 29//8 21//6
f 29//8 22//6 30//8
f 33//9 25//7 26//7
f 25//7 33//9 34//9
f 37//10 29//8 30//8
f 29//8 37//10 38//10
f 41//11 34//9 33//9
f 34//9 41//11 42//11
f 45//12 38//10 37//10
f 38//10 45//12 46//12
f 49//13 42//11 41//11
f 42//11 49//13 50//13
f 53//14 46//12 45//12
f 46//12 53//14 54//14
f 57//15 50//13 49//13
f 50//13 57//15 58//15
f 61//16 54//14 53//14
f 54//14 61//16 62//16
f 65//17 58//15 57//15
f 58//15 65//17 66//17
f 69//18 62//16 61//16
f 62//16 69//18 70//18
f 73//19 66//17 65//17
f 66//17 73//19 74//19
f 77//20 69//18 78//20
f 69//18 77//20 70//18
f 73//19 81//21 74//19
f 81//21 73//19 82//21
f 85//22 78//20 86//22
f 78//20 85//22 77//20
f 82//21 89//23 81//21
f 89//23 82//21 90//23
f 93//24 86//22 94//24
f 86//22 93//24 85//22
f 90//23 94//24 89//23
f 94//24 90//23 93//24
usemtl material_1_0
f 5//25 6//26 7//25
f 8//26 7//25 6//26
f 6//26 11//27 8//26
f 12//27 8//26 11//27
f 15//28 5//25 16//28
f 7//25 16//28 5//25
f 11//27 19//29 12//27
f 20//29 12//27 19//29
f 23//30 15//28 24//30
f 16//28 24//30 15//28
f 19//29 27//31 20//29
f 28//31 20//29 27//31
f 31//32 23//30 32//32
f 24//30 32//32 23//30
f 35//33 36//33 27//31
f 28//31 27//31 36//33
f 39//34 40//34 32//32
f 31//32 32//32 40//34
f 43//35 44//35 35//33
f 36//33 35//33 44//35
f 47//36 48//36 39//34
f 40//34 39//34 48//36
f 51//37 52//37 43//35
f 44//35 43//35 52//37
f 55//38 56//38 47//36
f 48//36 47//36 56//38
f 59//39 60//39 51//37
f 52//37 51//37 60//39
f 63//40 64//40 55//38
f 56//38 55//38 64//40
f 67//41 68//41 59//39
f 60//39 59//39 68//41
f 71//42 72//42 63//40
f 64//40 63//40 72//42
f 75//43 76//43 67//41
f 68//41 67//41 76//43
f 71//42 79//44 72//42
f 80//44 72//42 79//44
f 83//45 76//43 84//45
f 75//43 84//45 76//43
f 79//44 87//46 80//44
f 88//46 80//44 87//46
f 91//47 83//45 92//47
f 84//45 92//47 83//45
f 87//46 95//48 88//46
f 96//48 88//46 95//48
f 95//48 91//47 96//48
f 92//47 96//48 91//47
