# SSTK version 0.8.0
# 10
mtllib original-10.mtl
o #ID14
v -0.858809 0.283755 0.212371
v -0.832798 0.284679 -0.142869
v -0.835900 0.284679 0.212571
v -0.855707 0.283755 -0.143069
v -0.855707 0.283755 -0.143069
v -0.858809 0.283755 0.212371
v -0.832798 0.284679 -0.142869
v -0.835900 0.284679 0.212571
v -0.900700 0.315893 -0.143462
v -0.878414 0.280583 -0.143267
v -0.900700 0.275193 -0.143462
v -0.855707 0.283755 -0.143069
v -0.832798 0.284679 -0.142869
v -0.653128 0.197409 -0.141301
v -0.624246 0.059177 -0.141049
v -0.653128 0.059177 -0.141301
v -0.624246 0.315893 -0.141049
v -0.668327 0.214576 -0.141434
v -0.685140 0.230165 -0.141581
v -0.703405 0.244025 -0.141740
v -0.722943 0.256022 -0.141910
v -0.743567 0.266039 -0.142090
v -0.765076 0.273980 -0.142278
v -0.787262 0.279767 -0.142472
v -0.809909 0.283345 -0.142669
v -0.900700 0.315893 -0.143462
v -0.832798 0.284679 -0.142869
v -0.624246 0.315893 -0.141049
v -0.809909 0.283345 -0.142669
v -0.787262 0.279767 -0.142472
v -0.765076 0.273980 -0.142278
v -0.743567 0.266039 -0.142090
v -0.722943 0.256022 -0.141910
v -0.703405 0.244025 -0.141740
v -0.685140 0.230165 -0.141581
v -0.668327 0.214576 -0.141434
v -0.653128 0.197409 -0.141301
v -0.624246 0.059177 -0.141049
v -0.653128 0.059177 -0.141301
v -0.855707 0.283755 -0.143069
v -0.878414 0.280583 -0.143267
v -0.900700 0.275193 -0.143462
v -0.809909 0.283345 -0.142669
v -0.813010 0.283345 0.212771
v -0.809909 0.283345 -0.142669
v -0.813010 0.283345 0.212771
v -0.627348 0.315893 0.214391
v -0.656230 0.059177 0.214139
v -0.627348 0.059177 0.214391
v -0.656230 0.197409 0.214139
v -0.671429 0.214576 0.214006
v -0.688242 0.230165 0.213860
v -0.706506 0.244025 0.213700
v -0.726045 0.256022 0.213530
v -0.746669 0.266039 0.213350
v -0.768178 0.273980 0.213162
v -0.790364 0.279767 0.212968
v -0.813010 0.283345 0.212771
v -0.835900 0.284679 0.212571
v -0.881516 0.280583 0.212173
v -0.903801 0.315893 0.211978
v -0.903801 0.275193 0.211978
v -0.858809 0.283755 0.212371
v -0.627348 0.315893 0.214391
v -0.835900 0.284679 0.212571
v -0.903801 0.315893 0.211978
v -0.858809 0.283755 0.212371
v -0.881516 0.280583 0.212173
v -0.903801 0.275193 0.211978
v -0.813010 0.283345 0.212771
v -0.790364 0.279767 0.212968
v -0.768178 0.273980 0.213162
v -0.746669 0.266039 0.213350
v -0.726045 0.256022 0.213530
v -0.706506 0.244025 0.213700
v -0.688242 0.230165 0.213860
v -0.671429 0.214576 0.214006
v -0.656230 0.197409 0.214139
v -0.656230 0.059177 0.214139
v -0.627348 0.059177 0.214391
v -0.881516 0.280583 0.212173
v -0.878414 0.280583 -0.143267
v -0.878414 0.280583 -0.143267
v -0.881516 0.280583 0.212173
v -0.656230 0.059177 0.214139
v -0.653128 0.197409 -0.141301
v -0.653128 0.059177 -0.141301
v -0.656230 0.197409 0.214139
v -0.656230 0.197409 0.214139
v -0.656230 0.059177 0.214139
v -0.653128 0.197409 -0.141301
v -0.653128 0.059177 -0.141301
v -0.656230 0.197409 0.214139
v -0.668327 0.214576 -0.141434
v -0.653128 0.197409 -0.141301
v -0.671429 0.214576 0.214006
v -0.671429 0.214576 0.214006
v -0.656230 0.197409 0.214139
v -0.668327 0.214576 -0.141434
v -0.653128 0.197409 -0.141301
v -0.688242 0.230165 0.213860
v -0.685140 0.230165 -0.141581
v -0.685140 0.230165 -0.141581
v -0.688242 0.230165 0.213860
v -0.706506 0.244025 0.213700
v -0.703405 0.244025 -0.141740
v -0.703405 0.244025 -0.141740
v -0.706506 0.244025 0.213700
v -0.726045 0.256022 0.213530
v -0.722943 0.256022 -0.141910
v -0.722943 0.256022 -0.141910
v -0.726045 0.256022 0.213530
v -0.746669 0.266039 0.213350
v -0.743567 0.266039 -0.142090
v -0.743567 0.266039 -0.142090
v -0.746669 0.266039 0.213350
v -0.768178 0.273980 0.213162
v -0.765076 0.273980 -0.142278
v -0.765076 0.273980 -0.142278
v -0.768178 0.273980 0.213162
v -0.790364 0.279767 0.212968
v -0.787262 0.279767 -0.142472
v -0.787262 0.279767 -0.142472
v -0.790364 0.279767 0.212968
v -0.903801 0.275193 0.211978
v -0.900700 0.275193 -0.143462
v -0.900700 0.275193 -0.143462
v -0.903801 0.275193 0.211978
v -0.903801 0.275193 0.211978
v -0.900700 0.315893 -0.143462
v -0.900700 0.275193 -0.143462
v -0.903801 0.315893 0.211978
v -0.903801 0.315893 0.211978
v -0.903801 0.275193 0.211978
v -0.900700 0.315893 -0.143462
v -0.900700 0.275193 -0.143462
v -0.900700 0.315893 -0.143462
v -0.627348 0.315893 0.214391
v -0.624246 0.315893 -0.141049
v -0.903801 0.315893 0.211978
v -0.903801 0.315893 0.211978
v -0.900700 0.315893 -0.143462
v -0.627348 0.315893 0.214391
v -0.624246 0.315893 -0.141049
vn 0.08942166384167857 -0.9959935527184912 0.0007803710553153049
vn -0.008943954731416463 -0.9999599989907278 -0.00007805271219754275
vn -0.08942166384167857 0.9959935527184912 -0.0007803710553153049
vn 0.008943954731416463 0.9999599989907278 0.00007805271219754275
vn 0.008726535692212775 0 -0.9999619230624797
vn -0.008726535692212775 0 0.9999619230624797
vn -0.10722290525046954 -0.9942345663964165 -0.0009357201390443207
vn 0.10722290525046954 0.9942345663964165 0.0009357201390443207
vn 0.18692056367518464 -0.9823736773552646 0.0016312310828079256
vn -0.18692056367518464 0.9823736773552646 -0.0016312310828079256
vn -0.9999619230624797 0 -0.008726535692212775
vn 0.9999619230624797 0 0.008726535692212775
vn -0.7486734747516145 -0.6629067359791878 -0.006533574577741292
vn -0.7151357479957224 -0.6989577334609757 -0.006240895263838227
vn 0.7151357479957224 0.6989577334609757 0.006240895263838227
vn 0.7486734747516145 0.6629067359791878 0.006533574577741292
vn -0.6429442738631075 -0.7658924066879758 -0.00561088979946754
vn 0.6429442738631075 0.7658924066879758 0.00561088979946754
vn -0.5645211579072354 -0.8254038961968052 -0.004926501619577882
vn 0.5645211579072354 0.8254038961968052 0.004926501619577882
vn -0.480626578904243 -0.8769153316914545 -0.00419436470399331
vn 0.480626578904243 0.8769153316914545 0.00419436470399331
vn -0.3920736301361248 -0.919927476151081 -0.003421574810444974
vn 0.3920736301361248 0.919927476151081 0.003421574810444974
vn -0.2997205781875039 -0.9540234449597819 -0.002615621918112493
vn 0.2997205781875039 0.9540234449597819 0.002615621918112493
vn -0.20446260879834668 -0.9788727485286093 -0.001784318194770268
vn 0.20446260879834668 0.9788727485286093 0.001784318194770268
vn 0.23504913756666806 -0.9719813245799365 0.0020512427934468785
vn -0.23504913756666806 0.9719813245799365 -0.0020512427934468785
vn 0 1 0
vn 0 -1 0
usemtl material_0_0
f 1//1 2//2 3//2
f 2//2 1//1 4//1
f 5//3 6//3 7//4
f 8//4 7//4 6//3
f 9//5 10//5 11//5
f 10//5 9//5 12//5
f 12//5 9//5 13//5
f 14//5 15//5 16//5
f 15//5 14//5 17//5
f 17//5 14//5 18//5
f 17//5 18//5 19//5
f 17//5 19//5 20//5
f 17//5 20//5 21//5
f 17//5 21//5 22//5
f 17//5 22//5 23//5
f 17//5 23//5 24//5
f 17//5 24//5 25//5
f 17//5 25//5 13//5
f 17//5 13//5 9//5
f 26//6 27//6 28//6
f 27//6 29//6 28//6
f 29//6 30//6 28//6
f 30//6 31//6 28//6
f 31//6 32//6 28//6
f 32//6 33//6 28//6
f 33//6 34//6 28//6
f 34//6 35//6 28//6
f 35//6 36//6 28//6
f 36//6 37//6 28//6
f 28//6 37//6 38//6
f 39//6 38//6 37//6
f 27//6 26//6 40//6
f 40//6 26//6 41//6
f 42//6 41//6 26//6
f 3//2 43//7 44//7
f 43//7 3//2 2//2
f 7//4 8//4 45//8
f 46//8 45//8 8//4
f 47//6 48//6 49//6
f 48//6 47//6 50//6
f 50//6 47//6 51//6
f 51//6 47//6 52//6
f 52//6 47//6 53//6
f 53//6 47//6 54//6
f 54//6 47//6 55//6
f 55//6 47//6 56//6
f 56//6 47//6 57//6
f 57//6 47//6 58//6
f 58//6 47//6 59//6
f 60//6 61//6 62//6
f 61//6 60//6 63//6
f 61//6 63//6 59//6
f 61//6 59//6 47//6
f 64//5 65//5 66//5
f 65//5 67//5 66//5
f 67//5 68//5 66//5
f 69//5 66//5 68//5
f 65//5 64//5 70//5
f 70//5 64//5 71//5
f 71//5 64//5 72//5
f 72//5 64//5 73//5
f 73//5 64//5 74//5
f 74//5 64//5 75//5
f 75//5 64//5 76//5
f 76//5 64//5 77//5
f 77//5 64//5 78//5
f 78//5 64//5 79//5
f 80//5 79//5 64//5
f 81//9 4//1 1//1
f 4//1 81//9 82//9
f 83//10 84//10 5//3
f 6//3 5//3 84//10
f 85//11 86//11 87//11
f 86//11 85//11 88//11
f 89//12 90//12 91//12
f 92//12 91//12 90//12
f 93//13 94//14 95//13
f 94//14 93//13 96//14
f 97//15 98//16 99//15
f 100//16 99//15 98//16
f 101//17 94//14 96//14
f 94//14 101//17 102//17
f 103//18 104//18 99//15
f 97//15 99//15 104//18
f 105//19 102//17 101//17
f 102//17 105//19 106//19
f 107//20 108//20 103//18
f 104//18 103//18 108//20
f 109//21 106//19 105//19
f 106//19 109//21 110//21
f 111//22 112//22 107//20
f 108//20 107//20 112//22
f 113//23 110//21 109//21
f 110//21 113//23 114//23
f 115//24 116//24 111//22
f 112//22 111//22 116//24
f 117//25 114//23 113//23
f 114//23 117//25 118//25
f 119//26 120//26 115//24
f 116//24 115//24 120//26
f 121//27 118//25 117//25
f 118//25 121//27 122//27
f 123//28 124//28 119//26
f 120//26 119//26 124//28
f 44//7 122//27 121//27
f 122//27 44//7 43//7
f 45//8 46//8 123//28
f 124//28 123//28 46//8
f 125//29 82//9 81//9
f 82//9 125//29 126//29
f 127//30 128//30 83//10
f 84//10 83//10 128//30
f 129//11 130//11 131//11
f 130//11 129//11 132//11
f 133//12 134//12 135//12
f 136//12 135//12 134//12
f 137//31 138//31 139//31
f 138//31 137//31 140//31
f 141//32 142//32 143//32
f 144//32 143//32 142//32
