# SSTK version 0.8.0
# 3
mtllib original-3.mtl
o #ID124
v 0.482147 -0.513989 -0.256651
v 0.472452 -0.573232 -0.272069
v 0.484300 -0.513989 -0.271966
v 0.470730 -0.573232 -0.259818
v 0.470730 -0.573232 -0.259818
v 0.482147 -0.513989 -0.256651
v 0.472452 -0.573232 -0.272069
v 0.484300 -0.513989 -0.271966
v 0.465895 -0.573232 -0.248429
v 0.476104 -0.513989 -0.242415
v 0.476104 -0.513989 -0.242415
v 0.465895 -0.573232 -0.248429
v 0.470730 -0.573232 -0.259818
v 0.470944 -0.573232 -0.284349
v 0.472452 -0.573232 -0.272069
v 0.465895 -0.573232 -0.248429
v 0.466309 -0.573232 -0.295821
v 0.458278 -0.573232 -0.238679
v 0.458863 -0.573232 -0.305702
v 0.448397 -0.573232 -0.231234
v 0.449114 -0.573232 -0.313319
v 0.436926 -0.573232 -0.226599
v 0.437725 -0.573232 -0.318153
v 0.424646 -0.573232 -0.225091
v 0.425473 -0.573232 -0.319875
v 0.412394 -0.573232 -0.226813
v 0.413193 -0.573232 -0.318367
v 0.401005 -0.573232 -0.231647
v 0.401722 -0.573232 -0.313732
v 0.391256 -0.573232 -0.239264
v 0.391841 -0.573232 -0.306287
v 0.383810 -0.573232 -0.249145
v 0.384224 -0.573232 -0.296537
v 0.379175 -0.573232 -0.260617
v 0.379389 -0.573232 -0.285148
v 0.377667 -0.573232 -0.272897
v 0.377667 -0.573232 -0.272897
v 0.379175 -0.573232 -0.260617
v 0.379389 -0.573232 -0.285148
v 0.384224 -0.573232 -0.296537
v 0.383810 -0.573232 -0.249145
v 0.391841 -0.573232 -0.306287
v 0.391256 -0.573232 -0.239264
v 0.401722 -0.573232 -0.313732
v 0.401005 -0.573232 -0.231647
v 0.413193 -0.573232 -0.318367
v 0.412394 -0.573232 -0.226813
v 0.425473 -0.573232 -0.319875
v 0.424646 -0.573232 -0.225091
v 0.437725 -0.573232 -0.318153
v 0.436926 -0.573232 -0.226599
v 0.449114 -0.573232 -0.313319
v 0.448397 -0.573232 -0.231234
v 0.458863 -0.573232 -0.305702
v 0.458278 -0.573232 -0.238679
v 0.466309 -0.573232 -0.295821
v 0.465895 -0.573232 -0.248429
v 0.470944 -0.573232 -0.284349
v 0.470730 -0.573232 -0.259818
v 0.472452 -0.573232 -0.272069
v 0.470944 -0.573232 -0.284349
v 0.482415 -0.513989 -0.287316
v 0.470944 -0.573232 -0.284349
v 0.482415 -0.513989 -0.287316
v 0.458278 -0.573232 -0.238679
v 0.466583 -0.513989 -0.230228
v 0.466583 -0.513989 -0.230228
v 0.458278 -0.573232 -0.238679
v 0.391256 -0.573232 -0.239264
v 0.373498 -0.513989 -0.243311
v 0.383810 -0.573232 -0.249145
v 0.382805 -0.513989 -0.230960
v 0.382805 -0.513989 -0.230960
v 0.391256 -0.573232 -0.239264
v 0.373498 -0.513989 -0.243311
v 0.383810 -0.573232 -0.249145
v 0.367704 -0.513989 -0.257650
v 0.379175 -0.573232 -0.260617
v 0.367704 -0.513989 -0.257650
v 0.379175 -0.573232 -0.260617
v 0.365819 -0.513989 -0.273000
v 0.377667 -0.573232 -0.272897
v 0.365819 -0.513989 -0.273000
v 0.377667 -0.573232 -0.272897
v 0.379389 -0.573232 -0.285148
v 0.367972 -0.513989 -0.288315
v 0.379389 -0.573232 -0.285148
v 0.367972 -0.513989 -0.288315
v 0.384224 -0.573232 -0.296537
v 0.374015 -0.513989 -0.302551
v 0.384224 -0.573232 -0.296537
v 0.374015 -0.513989 -0.302551
v 0.391841 -0.573232 -0.306287
v 0.383536 -0.513989 -0.314738
v 0.391841 -0.573232 -0.306287
v 0.383536 -0.513989 -0.314738
v 0.401722 -0.573232 -0.313732
v 0.395887 -0.513989 -0.324045
v 0.395887 -0.513989 -0.324045
v 0.401722 -0.573232 -0.313732
v 0.413193 -0.573232 -0.318367
v 0.410226 -0.513989 -0.329838
v 0.410226 -0.513989 -0.329838
v 0.413193 -0.573232 -0.318367
v 0.425473 -0.573232 -0.319875
v 0.425576 -0.513989 -0.331723
v 0.425576 -0.513989 -0.331723
v 0.425473 -0.573232 -0.319875
v 0.437725 -0.573232 -0.318153
v 0.440891 -0.513989 -0.329571
v 0.440891 -0.513989 -0.329571
v 0.437725 -0.573232 -0.318153
v 0.449114 -0.573232 -0.313319
v 0.455127 -0.513989 -0.323528
v 0.455127 -0.513989 -0.323528
v 0.449114 -0.573232 -0.313319
v 0.458863 -0.573232 -0.305702
v 0.467314 -0.513989 -0.314006
v 0.467314 -0.513989 -0.314006
v 0.458863 -0.573232 -0.305702
v 0.476621 -0.513989 -0.301655
v 0.466309 -0.573232 -0.295821
v 0.466309 -0.573232 -0.295821
v 0.476621 -0.513989 -0.301655
v 0.448397 -0.573232 -0.231234
v 0.454232 -0.513989 -0.220921
v 0.454232 -0.513989 -0.220921
v 0.448397 -0.573232 -0.231234
v 0.436926 -0.573232 -0.226599
v 0.439893 -0.513989 -0.215128
v 0.439893 -0.513989 -0.215128
v 0.436926 -0.573232 -0.226599
v 0.424646 -0.573232 -0.225091
v 0.424543 -0.513989 -0.213243
v 0.424543 -0.513989 -0.213243
v 0.424646 -0.573232 -0.225091
v 0.412394 -0.573232 -0.226813
v 0.409228 -0.513989 -0.215395
v 0.409228 -0.513989 -0.215395
v 0.412394 -0.573232 -0.226813
v 0.401005 -0.573232 -0.231647
v 0.394992 -0.513989 -0.221438
v 0.394992 -0.513989 -0.221438
v 0.401005 -0.573232 -0.231647
vn 0.9449173932491989 -0.19611611346757715 0.2620488312767511
vn 0.9805433429721431 -0.19611611118554653 0.008557072307316433
vn 0.9805433429721431 -0.19611611118554653 0.008557072307316426
vn -0.9449173932491989 0.19611611346757715 -0.2620488312767511
vn -0.9805433429721431 0.19611611118554653 -0.008557072307316433
vn -0.9805433429721431 0.19611611118554653 -0.008557072307316426
vn 0.8448969304637421 -0.19611611543710317 0.497682274306417
vn -0.8448969304637421 0.19611611543710317 -0.497682274306417
vn 0 -1 0
vn 0 1 0
vn 0.9493468605584393 -0.19611611346757918 -0.24551783720578604
vn -0.9493468605584393 0.19611611346757918 0.24551783720578604
vn 0.6872980808256645 -0.19611612817532162 0.6993996084949426
vn -0.6872980808256645 0.19611612817532162 -0.6993996084949426
vn -0.6993996084949411 -0.1961161281753278 0.6872980808256643
vn -0.8534540020839091 -0.1961161154371107 0.4828609899265176
vn 0.6993996084949411 0.1961161281753278 -0.6872980808256643
vn 0.8534540020839091 0.1961161154371107 -0.4828609899265176
vn -0.9493468605584376 -0.19611611346758565 0.24551783720578763
vn 0.9493468605584376 0.19611611346758565 -0.24551783720578763
vn -0.9805433429721414 -0.19611611118555525 -0.008557072307315308
vn -0.9805433429721414 -0.19611611118555525 -0.008557072307315302
vn 0.9805433429721414 0.19611611118555525 0.008557072307315308
vn 0.9805433429721414 0.19611611118555525 0.008557072307315302
vn -0.9449173932491971 -0.1961161134675876 -0.26204883127674955
vn 0.9449173932491971 0.1961161134675876 0.26204883127674955
vn -0.8448969304637403 -0.1961161154371146 -0.49768227430641526
vn 0.8448969304637403 0.1961161154371146 0.49768227430641526
vn -0.6872980808256627 -0.19611612817533325 -0.6993996084949411
vn 0.6872980808256627 0.19611612817533325 0.6993996084949411
vn -0.48286098992651594 -0.19611611543711435 -0.8534540020839092
vn 0.48286098992651594 0.19611611543711435 0.8534540020839092
vn -0.24551783720578593 -0.19611611346758723 -0.9493468605584375
vn 0.24551783720578593 0.19611611346758723 0.9493468605584375
vn 0.008557072307313375 -0.19611611118555478 -0.9805433429721415
vn 0.008557072307314983 -0.19611611118555478 -0.9805433429721415
vn -0.008557072307314983 0.19611611118555478 0.9805433429721415
vn -0.008557072307313375 0.19611611118555478 0.9805433429721415
vn 0.26204883127675116 -0.19611611346758498 -0.9449173932491972
vn -0.26204883127675116 0.19611611346758498 0.9449173932491972
vn 0.49768227430641704 -0.19611611543711008 -0.8448969304637405
vn -0.49768227430641704 0.19611611543711008 0.8448969304637405
vn 0.6993996084949428 -0.1961161281753271 -0.6872980808256629
vn -0.6993996084949428 0.1961161281753271 0.6872980808256629
vn 0.853454002083911 -0.196116115437107 -0.4828609899265161
vn -0.853454002083911 0.196116115437107 0.4828609899265161
vn 0.48286098992651766 -0.1961161154371033 0.8534540020839106
vn -0.48286098992651766 0.1961161154371033 -0.8534540020839106
vn 0.2455178372057877 -0.19611611346757757 0.9493468605584392
vn -0.2455178372057877 0.19611611346757757 -0.9493468605584392
vn -0.00855707230731787 -0.196116111185547 0.980543342972143
vn -0.00855707230731627 -0.196116111185547 0.980543342972143
vn 0.00855707230731627 0.196116111185547 -0.980543342972143
vn 0.00855707230731787 0.196116111185547 -0.980543342972143
vn -0.2620488312767495 -0.1961161134675798 0.9449173932491988
vn 0.2620488312767495 0.1961161134675798 -0.9449173932491988
vn -0.4976822743064153 -0.19611611543710775 0.8448969304637419
vn 0.4976822743064153 0.19611611543710775 -0.8448969304637419
usemtl material_0_0
f 1//1 2//2 3//3
f 2//2 1//1 4//1
f 5//4 6//4 7//5
f 8//6 7//5 6//4
f 1//1 9//7 4//1
f 9//7 1//1 10//7
f 11//8 6//4 12//8
f 5//4 12//8 6//4
f 13//9 14//9 15//9
f 14//9 13//9 16//9
f 14//9 16//9 17//9
f 17//9 16//9 18//9
f 17//9 18//9 19//9
f 19//9 18//9 20//9
f 19//9 20//9 21//9
f 21//9 20//9 22//9
f 21//9 22//9 23//9
f 23//9 22//9 24//9
f 23//9 24//9 25//9
f 25//9 24//9 26//9
f 25//9 26//9 27//9
f 27//9 26//9 28//9
f 27//9 28//9 29//9
f 29//9 28//9 30//9
f 29//9 30//9 31//9
f 31//9 30//9 32//9
f 31//9 32//9 33//9
f 33//9 32//9 34//9
f 33//9 34//9 35//9
f 35//9 34//9 36//9
f 37//10 38//10 39//10
f 39//10 38//10 40//10
f 38//10 41//10 40//10
f 40//10 41//10 42//10
f 41//10 43//10 42//10
f 42//10 43//10 44//10
f 43//10 45//10 44//10
f 44//10 45//10 46//10
f 45//10 47//10 46//10
f 46//10 47//10 48//10
f 47//10 49//10 48//10
f 48//10 49//10 50//10
f 49//10 51//10 50//10
f 50//10 51//10 52//10
f 51//10 53//10 52//10
f 52//10 53//10 54//10
f 53//10 55//10 54//10
f 54//10 55//10 56//10
f 55//10 57//10 56//10
f 56//10 57//10 58//10
f 57//10 59//10 58//10
f 60//10 58//10 59//10
f 3//3 61//11 62//11
f 61//11 3//3 2//2
f 7//5 8//6 63//12
f 64//12 63//12 8//6
f 10//7 65//13 9//7
f 65//13 10//7 66//13
f 67//14 11//8 68//14
f 12//8 68//14 11//8
f 69//15 70//16 71//16
f 70//16 69//15 72//15
f 73//17 74//17 75//18
f 76//18 75//18 74//17
f 71//16 77//19 78//19
f 77//19 71//16 70//16
f 75//18 76//18 79//20
f 80//20 79//20 76//18
f 78//19 81//21 82//22
f 81//21 78//19 77//19
f 79//20 80//20 83//23
f 84//24 83//23 80//20
f 85//25 81//21 86//25
f 81//21 85//25 82//22
f 84//24 87//26 83//23
f 88//26 83//23 87//26
f 89//27 86//25 90//27
f 86//25 89//27 85//25
f 87//26 91//28 88//26
f 92//28 88//26 91//28
f 93//29 90//27 94//29
f 90//27 93//29 89//27
f 91//28 95//30 92//28
f 96//30 92//28 95//30
f 94//29 97//31 93//29
f 97//31 94//29 98//31
f 99//32 96//30 100//32
f 95//30 100//32 96//30
f 98//31 101//33 97//31
f 101//33 98//31 102//33
f 103//34 99//32 104//34
f 100//32 104//34 99//32
f 102//33 105//35 101//33
f 105//35 102//33 106//36
f 107//37 103//34 108//38
f 104//34 108//38 103//34
f 106//36 109//39 105//35
f 109//39 106//36 110//39
f 111//40 107//37 112//40
f 108//38 112//40 107//37
f 110//39 113//41 109//39
f 113//41 110//39 114//41
f 115//42 111//40 116//42
f 112//40 116//42 111//40
f 114//41 117//43 113//41
f 117//43 114//41 118//43
f 119//44 115//42 120//44
f 116//42 120//44 115//42
f 121//45 117//43 118//43
f 117//43 121//45 122//45
f 123//46 124//46 120//44
f 119//44 120//44 124//46
f 62//11 122//45 121//45
f 122//45 62//11 61//11
f 63//12 64//12 123//46
f 124//46 123//46 64//12
f 66//13 125//47 65//13
f 125//47 66//13 126//47
f 127//48 67//14 128//48
f 68//14 128//48 67//14
f 126//47 129//49 125//47
f 129//49 126//47 130//49
f 131//50 127//48 132//50
f 128//48 132//50 127//48
f 130//49 133//51 129//49
f 133//51 130//49 134//52
f 135//53 131//50 136//54
f 132//50 136//54 131//50
f 134//52 137//55 133//51
f 137//55 134//52 138//55
f 139//56 135//53 140//56
f 136//54 140//56 135//53
f 138//55 141//57 137//55
f 141//57 138//55 142//57
f 143//58 139//56 144//58
f 140//56 144//58 139//56
f 142//57 69//15 141//57
f 69//15 142//57 72//15
f 73//17 143//58 74//17
f 144//58 74//17 143//58
