# SSTK version 0.8.0
# 5
mtllib original-5.mtl
o #ID136
v 0.228755 -0.513989 0.524737
v 0.213765 -0.573232 0.516063
v 0.226549 -0.573232 0.514911
v 0.213352 -0.513989 0.526126
v 0.213352 -0.513989 0.526126
v 0.228755 -0.513989 0.524737
v 0.213765 -0.573232 0.516063
v 0.226549 -0.573232 0.514911
v 0.243274 -0.513989 0.519409
v 0.238599 -0.573232 0.510488
v 0.243274 -0.513989 0.519409
v 0.238599 -0.573232 0.510488
v 0.201118 -0.573232 0.513868
v 0.198115 -0.513989 0.523482
v 0.198115 -0.513989 0.523482
v 0.201118 -0.573232 0.513868
v 0.262713 -0.573232 0.481595
v 0.263755 -0.573232 0.456163
v 0.264908 -0.573232 0.468947
v 0.259333 -0.573232 0.444113
v 0.257319 -0.573232 0.493242
v 0.251942 -0.573232 0.433618
v 0.249095 -0.573232 0.503098
v 0.242087 -0.573232 0.425393
v 0.238599 -0.573232 0.510488
v 0.230439 -0.573232 0.420000
v 0.226549 -0.573232 0.514911
v 0.217792 -0.573232 0.417804
v 0.213765 -0.573232 0.516063
v 0.205008 -0.573232 0.418957
v 0.201118 -0.573232 0.513868
v 0.192958 -0.573232 0.423380
v 0.189470 -0.573232 0.508475
v 0.182462 -0.573232 0.430769
v 0.179614 -0.573232 0.500250
v 0.174238 -0.573232 0.440625
v 0.172224 -0.573232 0.489755
v 0.168844 -0.573232 0.452273
v 0.167801 -0.573232 0.477705
v 0.166649 -0.573232 0.464920
v 0.166649 -0.573232 0.464920
v 0.167801 -0.573232 0.477705
v 0.168844 -0.573232 0.452273
v 0.172224 -0.573232 0.489755
v 0.174238 -0.573232 0.440625
v 0.179614 -0.573232 0.500250
v 0.182462 -0.573232 0.430769
v 0.189470 -0.573232 0.508475
v 0.192958 -0.573232 0.423380
v 0.201118 -0.573232 0.513868
v 0.205008 -0.573232 0.418957
v 0.213765 -0.573232 0.516063
v 0.217792 -0.573232 0.417804
v 0.226549 -0.573232 0.514911
v 0.230439 -0.573232 0.420000
v 0.238599 -0.573232 0.510488
v 0.242087 -0.573232 0.425393
v 0.249095 -0.573232 0.503098
v 0.251942 -0.573232 0.433618
v 0.257319 -0.573232 0.493242
v 0.259333 -0.573232 0.444113
v 0.262713 -0.573232 0.481595
v 0.263755 -0.573232 0.456163
v 0.264908 -0.573232 0.468947
v 0.255918 -0.513989 0.510505
v 0.249095 -0.573232 0.503098
v 0.255918 -0.513989 0.510505
v 0.249095 -0.573232 0.503098
v 0.189470 -0.573232 0.508475
v 0.184081 -0.513989 0.516983
v 0.184081 -0.513989 0.516983
v 0.189470 -0.573232 0.508475
v 0.265828 -0.513989 0.498631
v 0.257319 -0.573232 0.493242
v 0.265828 -0.513989 0.498631
v 0.257319 -0.573232 0.493242
v 0.179614 -0.573232 0.500250
v 0.172207 -0.513989 0.507074
v 0.172207 -0.513989 0.507074
v 0.179614 -0.573232 0.500250
v 0.163303 -0.513989 0.494429
v 0.172224 -0.573232 0.489755
v 0.163303 -0.513989 0.494429
v 0.172224 -0.573232 0.489755
v 0.157975 -0.513989 0.479910
v 0.167801 -0.573232 0.477705
v 0.157975 -0.513989 0.479910
v 0.167801 -0.573232 0.477705
v 0.166649 -0.573232 0.464920
v 0.156586 -0.513989 0.464507
v 0.166649 -0.573232 0.464920
v 0.156586 -0.513989 0.464507
v 0.168844 -0.573232 0.452273
v 0.159231 -0.513989 0.449270
v 0.168844 -0.573232 0.452273
v 0.159231 -0.513989 0.449270
v 0.174238 -0.573232 0.440625
v 0.165729 -0.513989 0.435237
v 0.174238 -0.573232 0.440625
v 0.165729 -0.513989 0.435237
v 0.182462 -0.573232 0.430769
v 0.175639 -0.513989 0.423363
v 0.182462 -0.573232 0.430769
v 0.175639 -0.513989 0.423363
v 0.192958 -0.573232 0.423380
v 0.188283 -0.513989 0.414458
v 0.188283 -0.513989 0.414458
v 0.192958 -0.573232 0.423380
v 0.205008 -0.573232 0.418957
v 0.202802 -0.513989 0.409130
v 0.202802 -0.513989 0.409130
v 0.205008 -0.573232 0.418957
v 0.217792 -0.573232 0.417804
v 0.218205 -0.513989 0.407741
v 0.218205 -0.513989 0.407741
v 0.217792 -0.573232 0.417804
v 0.230439 -0.573232 0.420000
v 0.233442 -0.513989 0.410386
v 0.233442 -0.513989 0.410386
v 0.230439 -0.573232 0.420000
v 0.242087 -0.573232 0.425393
v 0.247476 -0.513989 0.416884
v 0.247476 -0.513989 0.416884
v 0.242087 -0.573232 0.425393
v 0.251942 -0.573232 0.433618
v 0.259350 -0.513989 0.426794
v 0.259350 -0.513989 0.426794
v 0.251942 -0.573232 0.433618
v 0.268254 -0.513989 0.439439
v 0.259333 -0.573232 0.444113
v 0.259333 -0.573232 0.444113
v 0.268254 -0.513989 0.439439
v 0.273582 -0.513989 0.453957
v 0.263755 -0.573232 0.456163
v 0.263755 -0.573232 0.456163
v 0.273582 -0.513989 0.453957
v 0.274971 -0.513989 0.469360
v 0.264908 -0.573232 0.468947
v 0.264908 -0.573232 0.468947
v 0.274971 -0.513989 0.469360
v 0.262713 -0.573232 0.481595
v 0.272326 -0.513989 0.484597
v 0.272326 -0.513989 0.484597
v 0.262713 -0.573232 0.481595
vn 0.2159450434855521 -0.16759551444118387 0.961914487744736
vn -0.04037490460668388 -0.16759550667384124 0.9850287372562992
vn 0.04037490460668388 0.16759550667384124 -0.9850287372562992
vn -0.2159450434855521 0.16759551444118387 -0.961914487744736
vn 0.45754869126793507 -0.16759551052095484 0.8732473532580675
vn -0.45754869126793507 0.16759551052095484 -0.8732473532580675
vn -0.29394338392233943 -0.16759550784418792 0.9410148950992928
vn 0.29394338392233943 0.16759550784418792 -0.9410148950992928
vn 0 -1 0
vn 0 1 0
vn 0.667971098938846 -0.16759551611892456 0.7250698959129813
vn -0.667971098938846 0.16759551611892456 -0.7250698959129813
vn -0.5274800793444401 -0.16759551399039846 0.8328724449668611
vn 0.5274800793444401 0.16759551399039846 -0.8328724449668611
vn 0.8328724449668612 -0.16759551399039363 0.5274800793444414
vn -0.8328724449668612 0.16759551399039363 -0.5274800793444414
vn -0.72506989591298 -0.16759551611893098 0.6679710989388459
vn 0.72506989591298 0.16759551611893098 -0.6679710989388459
vn -0.8732473532580661 -0.1675955105209624 0.457548691267935
vn 0.8732473532580661 0.1675955105209624 -0.457548691267935
vn -0.9619144877447346 -0.16759551444119206 0.21594504348555205
vn 0.9619144877447346 0.16759551444119206 -0.21594504348555205
vn -0.9850287372562979 -0.1675955066738495 -0.040374904606683956
vn 0.9850287372562979 0.1675955066738495 0.040374904606683956
vn -0.9410148950992914 -0.16759550784419572 -0.2939433839223395
vn 0.9410148950992914 0.16759550784419572 0.2939433839223395
vn -0.8328724449668597 -0.16759551399040523 -0.5274800793444401
vn 0.8328724449668597 0.16759551399040523 0.5274800793444401
vn -0.6679710989388445 -0.16759551611893628 -0.7250698959129801
vn 0.6679710989388445 0.16759551611893628 0.7250698959129801
vn -0.45754869126793357 -0.16759551052096583 -0.8732473532580662
vn 0.45754869126793357 0.16759551052096583 0.8732473532580662
vn -0.2159450434855506 -0.16759551444119342 -0.9619144877447346
vn 0.2159450434855506 0.16759551444119342 0.9619144877447346
vn 0.040374904606685365 -0.16759550667384876 -0.985028737256298
vn -0.040374904606685365 0.16759550667384876 0.985028737256298
vn 0.2939433839223409 -0.16759550784419278 -0.9410148950992914
vn -0.2939433839223409 0.16759550784419278 0.9410148950992914
vn 0.5274800793444415 -0.1675955139904004 -0.8328724449668599
vn -0.5274800793444415 0.1675955139904004 0.8328724449668599
vn 0.7250698959129814 -0.16759551611892987 -0.6679710989388447
vn -0.7250698959129814 0.16759551611892987 0.6679710989388447
vn 0.8732473532580676 -0.1675955105209583 -0.4575486912679336
vn -0.8732473532580676 0.1675955105209583 0.4575486912679336
vn 0.9619144877447361 -0.16759551444118526 -0.21594504348555071
vn -0.9619144877447361 0.16759551444118526 0.21594504348555071
vn 0.9850287372562995 -0.1675955066738405 0.04037490460668529
vn -0.9850287372562995 0.1675955066738405 -0.04037490460668529
vn 0.9410148950992929 -0.16759550784418503 0.2939433839223409
vn -0.9410148950992929 0.16759550784418503 -0.2939433839223409
usemtl material_0_0
f 1//1 2//2 3//1
f 2//2 1//1 4//2
f 5//3 6//4 7//3
f 8//4 7//3 6//4
f 9//5 3//1 10//5
f 3//1 9//5 1//1
f 6//4 11//6 8//4
f 12//6 8//4 11//6
f 4//2 13//7 2//2
f 13//7 4//2 14//7
f 15//8 5//3 16//8
f 7//3 16//8 5//3
f 17//9 18//9 19//9
f 18//9 17//9 20//9
f 20//9 17//9 21//9
f 20//9 21//9 22//9
f 22//9 21//9 23//9
f 22//9 23//9 24//9
f 24//9 23//9 25//9
f 24//9 25//9 26//9
f 26//9 25//9 27//9
f 26//9 27//9 28//9
f 28//9 27//9 29//9
f 28//9 29//9 30//9
f 30//9 29//9 31//9
f 30//9 31//9 32//9
f 32//9 31//9 33//9
f 32//9 33//9 34//9
f 34//9 33//9 35//9
f 34//9 35//9 36//9
f 36//9 35//9 37//9
f 36//9 37//9 38//9
f 38//9 37//9 39//9
f 38//9 39//9 40//9
f 41//10 42//10 43//10
f 42//10 44//10 43//10
f 43//10 44//10 45//10
f 44//10 46//10 45//10
f 45//10 46//10 47//10
f 46//10 48//10 47//10
f 47//10 48//10 49//10
f 48//10 50//10 49//10
f 49//10 50//10 51//10
f 50//10 52//10 51//10
f 51//10 52//10 53//10
f 52//10 54//10 53//10
f 53//10 54//10 55//10
f 54//10 56//10 55//10
f 55//10 56//10 57//10
f 56//10 58//10 57//10
f 57//10 58//10 59//10
f 58//10 60//10 59//10
f 59//10 60//10 61//10
f 60//10 62//10 61//10
f 61//10 62//10 63//10
f 64//10 63//10 62//10
f 65//11 10//5 66//11
f 10//5 65//11 9//5
f 11//6 67//12 12//6
f 68//12 12//6 67//12
f 14//7 69//13 13//7
f 69//13 14//7 70//13
f 71//14 15//8 72//14
f 16//8 72//14 15//8
f 73//15 66//11 74//15
f 66//11 73//15 65//11
f 67//12 75//16 68//12
f 76//16 68//12 75//16
f 70//13 77//17 69//13
f 77//17 70//13 78//17
f 79//18 71//14 80//18
f 72//14 80//18 71//14
f 77//17 81//19 82//19
f 81//19 77//17 78//17
f 79//18 80//18 83//20
f 84//20 83//20 80//18
f 82//19 85//21 86//21
f 85//21 82//19 81//19
f 83//20 84//20 87//22
f 88//22 87//22 84//20
f 89//23 85//21 90//23
f 85//21 89//23 86//21
f 88//22 91//24 87//22
f 92//24 87//22 91//24
f 93//25 90//23 94//25
f 90//23 93//25 89//23
f 91//24 95//26 92//24
f 96//26 92//24 95//26
f 97//27 94//25 98//27
f 94//25 97//27 93//25
f 95//26 99//28 96//26
f 100//28 96//26 99//28
f 101//29 98//27 102//29
f 98//27 101//29 97//27
f 99//28 103//30 100//28
f 104//30 100//28 103//30
f 102//29 105//31 101//29
f 105//31 102//29 106//31
f 107//32 104//30 108//32
f 103//30 108//32 104//30
f 106//31 109//33 105//31
f 109//33 106//31 110//33
f 111//34 107//32 112//34
f 108//32 112//34 107//32
f 110//33 113//35 109//33
f 113//35 110//33 114//35
f 115//36 111//34 116//36
f 112//34 116//36 111//34
f 114//35 117//37 113//35
f 117//37 114//35 118//37
f 119//38 115//36 120//38
f 116//36 120//38 115//36
f 118//37 121//39 117//37
f 121//39 118//37 122//39
f 123//40 119//38 124//40
f 120//38 124//40 119//38
f 122//39 125//41 121//39
f 125//41 122//39 126//41
f 127//42 123//40 128//42
f 124//40 128//42 123//40
f 129//43 125//41 126//41
f 125//41 129//43 130//43
f 131//44 132//44 128//42
f 127//42 128//42 132//44
f 133//45 130//43 129//43
f 130//43 133//45 134//45
f 135//46 136//46 131//44
f 132//44 131//44 136//46
f 137//47 134//45 133//45
f 134//45 137//47 138//47
f 139//48 140//48 135//46
f 136//46 135//46 140//48
f 137//47 141//49 138//47
f 141//49 137//47 142//49
f 143//50 140//48 144//50
f 139//48 144//50 140//48
f 142//49 74//15 141//49
f 74//15 142//49 73//15
f 75//16 143//50 76//16
f 144//50 76//16 143//50
