# SSTK version 0.8.0
# 2
mtllib original-2.mtl
o #ID118
v -0.429607 -0.513989 0.310804
v -0.437618 -0.573232 0.294796
v -0.426251 -0.573232 0.300059
v -0.443641 -0.513989 0.304305
v -0.443641 -0.513989 0.304305
v -0.429607 -0.513989 0.310804
v -0.437618 -0.573232 0.294796
v -0.426251 -0.573232 0.300059
v -0.414370 -0.513989 0.313449
v -0.413908 -0.573232 0.302202
v -0.414370 -0.513989 0.313449
v -0.413908 -0.573232 0.302202
v -0.447236 -0.573232 0.286770
v -0.455514 -0.513989 0.294396
v -0.455514 -0.513989 0.294396
v -0.447236 -0.573232 0.286770
v -0.366140 -0.573232 0.268564
v -0.365123 -0.573232 0.243745
v -0.363998 -0.573232 0.256222
v -0.369438 -0.573232 0.231985
v -0.371404 -0.573232 0.279931
v -0.376651 -0.573232 0.221743
v -0.379430 -0.573232 0.289549
v -0.386268 -0.573232 0.213716
v -0.389672 -0.573232 0.296762
v -0.397636 -0.573232 0.208453
v -0.401433 -0.573232 0.301077
v -0.409978 -0.573232 0.206310
v -0.413908 -0.573232 0.302202
v -0.422455 -0.573232 0.207435
v -0.426251 -0.573232 0.300059
v -0.434215 -0.573232 0.211751
v -0.437618 -0.573232 0.294796
v -0.444457 -0.573232 0.218964
v -0.447236 -0.573232 0.286770
v -0.452483 -0.573232 0.228582
v -0.454448 -0.573232 0.276527
v -0.457747 -0.573232 0.239948
v -0.458765 -0.573232 0.264767
v -0.459890 -0.573232 0.252291
v -0.459890 -0.573232 0.252291
v -0.458765 -0.573232 0.264767
v -0.457747 -0.573232 0.239948
v -0.454448 -0.573232 0.276527
v -0.452483 -0.573232 0.228582
v -0.447236 -0.573232 0.286770
v -0.444457 -0.573232 0.218964
v -0.437618 -0.573232 0.294796
v -0.434215 -0.573232 0.211751
v -0.426251 -0.573232 0.300059
v -0.422455 -0.573232 0.207435
v -0.413908 -0.573232 0.302202
v -0.409978 -0.573232 0.206310
v -0.401433 -0.573232 0.301077
v -0.397636 -0.573232 0.208453
v -0.389672 -0.573232 0.296762
v -0.386268 -0.573232 0.213716
v -0.379430 -0.573232 0.289549
v -0.376651 -0.573232 0.221743
v -0.371404 -0.573232 0.279931
v -0.369438 -0.573232 0.231985
v -0.366140 -0.573232 0.268564
v -0.365123 -0.573232 0.243745
v -0.363998 -0.573232 0.256222
v -0.398967 -0.513989 0.312060
v -0.401433 -0.573232 0.301077
v -0.398967 -0.513989 0.312060
v -0.401433 -0.573232 0.301077
v -0.464419 -0.513989 0.281752
v -0.454448 -0.573232 0.276527
v -0.464419 -0.513989 0.281752
v -0.454448 -0.573232 0.276527
v -0.371803 -0.513989 0.297828
v -0.389672 -0.573232 0.296762
v -0.379430 -0.573232 0.289549
v -0.384448 -0.513989 0.306732
v -0.384448 -0.513989 0.306732
v -0.371803 -0.513989 0.297828
v -0.389672 -0.573232 0.296762
v -0.379430 -0.573232 0.289549
v -0.469747 -0.513989 0.267233
v -0.458765 -0.573232 0.264767
v -0.469747 -0.513989 0.267233
v -0.458765 -0.573232 0.264767
v -0.459890 -0.573232 0.252291
v -0.471136 -0.513989 0.251830
v -0.459890 -0.573232 0.252291
v -0.471136 -0.513989 0.251830
v -0.457747 -0.573232 0.239948
v -0.468491 -0.513989 0.236592
v -0.457747 -0.573232 0.239948
v -0.468491 -0.513989 0.236592
v -0.452483 -0.573232 0.228582
v -0.461993 -0.513989 0.222559
v -0.452483 -0.573232 0.228582
v -0.461993 -0.513989 0.222559
v -0.444457 -0.573232 0.218964
v -0.452083 -0.513989 0.210685
v -0.444457 -0.573232 0.218964
v -0.452083 -0.513989 0.210685
v -0.434215 -0.573232 0.211751
v -0.439438 -0.513989 0.201781
v -0.439438 -0.513989 0.201781
v -0.434215 -0.573232 0.211751
v -0.422455 -0.573232 0.207435
v -0.424920 -0.513989 0.196452
v -0.424920 -0.513989 0.196452
v -0.422455 -0.573232 0.207435
v -0.409978 -0.573232 0.206310
v -0.409517 -0.513989 0.195064
v -0.409517 -0.513989 0.195064
v -0.409978 -0.573232 0.206310
v -0.397636 -0.573232 0.208453
v -0.394280 -0.513989 0.197709
v -0.394280 -0.513989 0.197709
v -0.397636 -0.573232 0.208453
v -0.386268 -0.573232 0.213716
v -0.380246 -0.513989 0.204207
v -0.380246 -0.513989 0.204207
v -0.386268 -0.573232 0.213716
v -0.376651 -0.573232 0.221743
v -0.368372 -0.513989 0.214117
v -0.368372 -0.513989 0.214117
v -0.376651 -0.573232 0.221743
v -0.359468 -0.513989 0.226761
v -0.369438 -0.573232 0.231985
v -0.369438 -0.573232 0.231985
v -0.359468 -0.513989 0.226761
v -0.354140 -0.513989 0.241280
v -0.365123 -0.573232 0.243745
v -0.365123 -0.573232 0.243745
v -0.354140 -0.513989 0.241280
v -0.352751 -0.513989 0.256682
v -0.363998 -0.573232 0.256222
v -0.363998 -0.573232 0.256222
v -0.352751 -0.513989 0.256682
v -0.366140 -0.573232 0.268564
v -0.355396 -0.513989 0.271920
v -0.355396 -0.513989 0.271920
v -0.366140 -0.573232 0.268564
v -0.371404 -0.573232 0.279931
v -0.361894 -0.513989 0.285954
v -0.361894 -0.513989 0.285954
v -0.371404 -0.573232 0.279931
vn -0.292920260300517 -0.18666060701322582 0.937739590128801
vn -0.525644106370964 -0.1866606135232146 0.8299735470462946
vn 0.525644106370964 0.1866606135232146 -0.8299735470462946
vn 0.292920260300517 0.18666060701322582 -0.937739590128801
vn -0.04023437020088385 -0.18666060698813955 0.9816002308747476
vn 0.04023437020088385 0.18666060698813955 -0.9816002308747476
vn -0.7225461675168559 -0.18666060652589253 0.6656461926414734
vn 0.7225461675168559 0.18666060652589253 -0.6656461926414734
vn 0 -1 0
vn 0 1 0
vn 0.21519343803450633 -0.18666062127024735 0.958566427898398
vn -0.21519343803450633 0.18666062127024735 -0.958566427898398
vn -0.8702079151014397 -0.18666060632601322 0.45595614102763304
vn 0.8702079151014397 0.18666060632601322 -0.45595614102763304
vn 0.6656461926414735 -0.18666060652588615 0.7225461675168575
vn 0.45595614102763316 -0.18666060632600567 0.8702079151014412
vn -0.45595614102763316 0.18666060632600567 -0.8702079151014412
vn -0.6656461926414735 0.18666060652588615 -0.7225461675168575
vn -0.9585664278983963 -0.18666062127025548 0.21519343803450625
vn 0.9585664278983963 0.18666062127025548 -0.21519343803450625
vn -0.981600230874746 -0.1866606069881478 -0.04023437020088393
vn 0.981600230874746 0.1866606069881478 0.04023437020088393
vn -0.9377395901287995 -0.1866606070132336 -0.2929202603005171
vn 0.9377395901287995 0.1866606070132336 0.2929202603005171
vn -0.829973547046293 -0.18666061352322136 -0.5256441063709641
vn 0.829973547046293 0.18666061352322136 0.5256441063709641
vn -0.6656461926414717 -0.1866606065258978 -0.722546167516856
vn 0.6656461926414717 0.1866606065258978 0.722546167516856
vn -0.45595614102763143 -0.18666060632601666 -0.8702079151014398
vn 0.45595614102763143 0.18666060632601666 0.8702079151014398
vn -0.2151934380345047 -0.18666062127025687 -0.9585664278983965
vn 0.2151934380345047 0.18666062127025687 0.9585664278983965
vn 0.040234370200885494 -0.18666060698814702 -0.9816002308747461
vn -0.040234370200885494 0.18666060698814702 0.9816002308747461
vn 0.29292026030051865 -0.18666060701323067 -0.9377395901287994
vn -0.29292026030051865 0.18666060701323067 0.9377395901287994
vn 0.5256441063709658 -0.18666061352321656 -0.8299735470462931
vn -0.5256441063709658 0.18666061352321656 0.8299735470462931
vn 0.7225461675168576 -0.18666060652589142 -0.6656461926414718
vn -0.7225461675168576 0.18666060652589142 0.6656461926414718
vn 0.8702079151014414 -0.18666060632600912 -0.45595614102763155
vn -0.8702079151014414 0.18666060632600912 0.45595614102763155
vn 0.9585664278983981 -0.1866606212702487 -0.21519343803450477
vn -0.9585664278983981 0.1866606212702487 0.21519343803450477
vn 0.9816002308747475 -0.18666060698813872 0.040234370200885404
vn -0.9816002308747475 0.18666060698813872 -0.040234370200885404
vn 0.9377395901288009 -0.18666060701322293 0.29292026030051854
vn -0.9377395901288009 0.18666060701322293 -0.29292026030051854
vn 0.8299735470462947 -0.1866606135232098 0.5256441063709657
vn -0.8299735470462947 0.1866606135232098 -0.5256441063709657
usemtl material_0_0
f 1//1 2//2 3//1
f 2//2 1//1 4//2
f 5//3 6//4 7//3
f 8//4 7//3 6//4
f 9//5 3//1 10//5
f 3//1 9//5 1//1
f 6//4 11//6 8//4
f 12//6 8//4 11//6
f 4//2 13//7 2//2
f 13//7 4//2 14//7
f 15//8 5//3 16//8
f 7//3 16//8 5//3
f 17//9 18//9 19//9
f 18//9 17//9 20//9
f 20//9 17//9 21//9
f 20//9 21//9 22//9
f 22//9 21//9 23//9
f 22//9 23//9 24//9
f 24//9 23//9 25//9
f 24//9 25//9 26//9
f 26//9 25//9 27//9
f 26//9 27//9 28//9
f 28//9 27//9 29//9
f 28//9 29//9 30//9
f 30//9 29//9 31//9
f 30//9 31//9 32//9
f 32//9 31//9 33//9
f 32//9 33//9 34//9
f 34//9 33//9 35//9
f 34//9 35//9 36//9
f 36//9 35//9 37//9
f 36//9 37//9 38//9
f 38//9 37//9 39//9
f 38//9 39//9 40//9
f 41//10 42//10 43//10
f 42//10 44//10 43//10
f 43//10 44//10 45//10
f 44//10 46//10 45//10
f 45//10 46//10 47//10
f 46//10 48//10 47//10
f 47//10 48//10 49//10
f 48//10 50//10 49//10
f 49//10 50//10 51//10
f 50//10 52//10 51//10
f 51//10 52//10 53//10
f 52//10 54//10 53//10
f 53//10 54//10 55//10
f 54//10 56//10 55//10
f 55//10 56//10 57//10
f 56//10 58//10 57//10
f 57//10 58//10 59//10
f 58//10 60//10 59//10
f 59//10 60//10 61//10
f 60//10 62//10 61//10
f 61//10 62//10 63//10
f 64//10 63//10 62//10
f 65//11 10//5 66//11
f 10//5 65//11 9//5
f 11//6 67//12 12//6
f 68//12 12//6 67//12
f 13//7 69//13 70//13
f 69//13 13//7 14//7
f 15//8 16//8 71//14
f 72//14 71//14 16//8
f 73//15 74//16 75//15
f 74//16 73//15 76//16
f 77//17 78//18 79//17
f 80//18 79//17 78//18
f 76//16 66//11 74//16
f 66//11 76//16 65//11
f 67//12 77//17 68//12
f 79//17 68//12 77//17
f 70//13 81//19 82//19
f 81//19 70//13 69//13
f 71//14 72//14 83//20
f 84//20 83//20 72//14
f 85//21 81//19 86//21
f 81//19 85//21 82//19
f 84//20 87//22 83//20
f 88//22 83//20 87//22
f 89//23 86//21 90//23
f 86//21 89//23 85//21
f 87//22 91//24 88//22
f 92//24 88//22 91//24
f 93//25 90//23 94//25
f 90//23 93//25 89//23
f 91//24 95//26 92//24
f 96//26 92//24 95//26
f 97//27 94//25 98//27
f 94//25 97//27 93//25
f 95//26 99//28 96//26
f 100//28 96//26 99//28
f 98//27 101//29 97//27
f 101//29 98//27 102//29
f 103//30 100//28 104//30
f 99//28 104//30 100//28
f 102//29 105//31 101//29
f 105//31 102//29 106//31
f 107//32 103//30 108//32
f 104//30 108//32 103//30
f 106//31 109//33 105//31
f 109//33 106//31 110//33
f 111//34 107//32 112//34
f 108//32 112//34 107//32
f 110//33 113//35 109//33
f 113//35 110//33 114//35
f 115//36 111//34 116//36
f 112//34 116//36 111//34
f 114//35 117//37 113//35
f 117//37 114//35 118//37
f 119//38 115//36 120//38
f 116//36 120//38 115//36
f 118//37 121//39 117//37
f 121//39 118//37 122//39
f 123//40 119//38 124//40
f 120//38 124//40 119//38
f 125//41 121//39 122//39
f 121//39 125//41 126//41
f 127//42 128//42 124//40
f 123//40 124//40 128//42
f 129//43 126//41 125//41
f 126//41 129//43 130//43
f 131//44 132//44 127//42
f 128//42 127//42 132//44
f 133//45 130//43 129//43
f 130//43 133//45 134//45
f 135//46 136//46 131//44
f 132//44 131//44 136//46
f 133//45 137//47 134//45
f 137//47 133//45 138//47
f 139//48 136//46 140//48
f 135//46 140//48 136//46
f 138//47 141//49 137//47
f 141//49 138//47 142//49
f 143//50 139//48 144//50
f 140//48 144//50 139//48
f 142//49 75//15 141//49
f 75//15 142//49 73//15
f 78//18 143//50 80//18
f 144//50 80//18 143//50
