# SSTK version 0.8.0
# 17
mtllib original-17.mtl
o #ID57
v -0.030867 -0.384719 -0.671820
v 0.103884 -0.379510 -0.670644
v 0.128511 -0.384719 -0.670429
v -0.014596 -0.379510 -0.671678
v -0.014596 -0.359762 -0.671678
v 0.103884 -0.359762 -0.670644
v 0.099887 -0.216970 -0.670679
v -0.005864 -0.216970 -0.671602
v -0.005174 -0.216970 -0.750589
v -0.030867 -0.384719 -0.671820
v -0.030178 -0.384719 -0.750807
v -0.005864 -0.216970 -0.671602
v -0.005174 -0.216970 -0.750589
v 0.099887 -0.216970 -0.670679
v -0.005864 -0.216970 -0.671602
v 0.100576 -0.216970 -0.749666
v 0.099887 -0.216970 -0.670679
v 0.129200 -0.384719 -0.749416
v 0.128511 -0.384719 -0.670429
v 0.100576 -0.216970 -0.749666
v 0.129200 -0.384719 -0.749416
v -0.030867 -0.384719 -0.671820
v 0.128511 -0.384719 -0.670429
v -0.030178 -0.384719 -0.750807
vn 0.008726535692212775 0 -0.9999619230624797
vn 0.9890347111746391 -0.14743080717292922 0.008631175356628093
vn 0 -1 0
vn -0.9857131856688168 -0.16821271636163201 -0.008602188842030232
vn 0 1 0
usemtl material_0_0
f 1//1 2//1 3//1
f 2//1 1//1 4//1
f 4//1 1//1 5//1
f 3//1 6//1 7//1
f 6//1 3//1 2//1
f 7//1 6//1 5//1
f 7//1 5//1 8//1
f 8//1 5//1 1//1
f 9//2 10//2 11//2
f 10//2 9//2 12//2
f 13//3 14//3 15//3
f 14//3 13//3 16//3
f 17//4 18//4 19//4
f 18//4 17//4 20//4
f 21//5 22//5 23//5
f 22//5 21//5 24//5
