# SSTK version 0.8.0
# 4
mtllib original-4.mtl
o #ID130
v -0.293487 -0.513989 -0.441932
v -0.277806 -0.573232 -0.437714
v -0.289104 -0.573232 -0.433568
v -0.279874 -0.513989 -0.446928
v -0.279874 -0.513989 -0.446928
v -0.293487 -0.513989 -0.441932
v -0.277806 -0.573232 -0.437714
v -0.289104 -0.573232 -0.433568
v -0.305343 -0.513989 -0.433583
v -0.298945 -0.573232 -0.426639
v -0.305343 -0.513989 -0.433583
v -0.298945 -0.573232 -0.426639
v -0.265820 -0.573232 -0.438795
v -0.265433 -0.513989 -0.448230
v -0.265433 -0.513989 -0.448230
v -0.265820 -0.573232 -0.438795
v -0.223703 -0.573232 -0.378986
v -0.222725 -0.573232 -0.402830
v -0.221644 -0.573232 -0.390844
v -0.226872 -0.573232 -0.414128
v -0.228760 -0.573232 -0.368065
v -0.233801 -0.573232 -0.423969
v -0.236471 -0.573232 -0.358825
v -0.243041 -0.573232 -0.431680
v -0.246312 -0.573232 -0.351896
v -0.253962 -0.573232 -0.436737
v -0.257610 -0.573232 -0.347750
v -0.265820 -0.573232 -0.438795
v -0.269596 -0.573232 -0.346669
v -0.277806 -0.573232 -0.437714
v -0.281454 -0.573232 -0.348727
v -0.289104 -0.573232 -0.433568
v -0.292375 -0.573232 -0.353784
v -0.298945 -0.573232 -0.426639
v -0.301614 -0.573232 -0.361495
v -0.306656 -0.573232 -0.417399
v -0.308544 -0.573232 -0.371335
v -0.311713 -0.573232 -0.406478
v -0.312690 -0.573232 -0.382634
v -0.313771 -0.573232 -0.394620
v -0.313771 -0.573232 -0.394620
v -0.312690 -0.573232 -0.382634
v -0.311713 -0.573232 -0.406478
v -0.308544 -0.573232 -0.371335
v -0.306656 -0.573232 -0.417399
v -0.301614 -0.573232 -0.361495
v -0.298945 -0.573232 -0.426639
v -0.292375 -0.573232 -0.353784
v -0.289104 -0.573232 -0.433568
v -0.281454 -0.573232 -0.348727
v -0.277806 -0.573232 -0.437714
v -0.269596 -0.573232 -0.346669
v -0.265820 -0.573232 -0.438795
v -0.257610 -0.573232 -0.347750
v -0.253962 -0.573232 -0.436737
v -0.246312 -0.573232 -0.351896
v -0.243041 -0.573232 -0.431680
v -0.236471 -0.573232 -0.358825
v -0.233801 -0.573232 -0.423969
v -0.228760 -0.573232 -0.368065
v -0.226872 -0.573232 -0.414128
v -0.223703 -0.573232 -0.378986
v -0.222725 -0.573232 -0.402830
v -0.221644 -0.573232 -0.390844
v -0.314633 -0.513989 -0.422451
v -0.306656 -0.573232 -0.417399
v -0.306656 -0.573232 -0.417399
v -0.314633 -0.513989 -0.422451
v -0.253962 -0.573232 -0.436737
v -0.251147 -0.513989 -0.445750
v -0.251147 -0.513989 -0.445750
v -0.253962 -0.573232 -0.436737
v -0.301614 -0.573232 -0.361495
v -0.316908 -0.513989 -0.366953
v -0.308544 -0.573232 -0.371335
v -0.308559 -0.513989 -0.355098
v -0.308559 -0.513989 -0.355098
v -0.301614 -0.573232 -0.361495
v -0.316908 -0.513989 -0.366953
v -0.308544 -0.573232 -0.371335
v -0.321903 -0.513989 -0.380565
v -0.312690 -0.573232 -0.382634
v -0.321903 -0.513989 -0.380565
v -0.312690 -0.573232 -0.382634
v -0.313771 -0.573232 -0.394620
v -0.323206 -0.513989 -0.395007
v -0.313771 -0.573232 -0.394620
v -0.323206 -0.513989 -0.395007
v -0.311713 -0.573232 -0.406478
v -0.320726 -0.513989 -0.409293
v -0.311713 -0.573232 -0.406478
v -0.320726 -0.513989 -0.409293
v -0.243041 -0.573232 -0.431680
v -0.237989 -0.513989 -0.439657
v -0.237989 -0.513989 -0.439657
v -0.243041 -0.573232 -0.431680
v -0.233801 -0.573232 -0.423969
v -0.226857 -0.513989 -0.430366
v -0.226857 -0.513989 -0.430366
v -0.233801 -0.573232 -0.423969
v -0.218508 -0.513989 -0.418511
v -0.226872 -0.573232 -0.414128
v -0.226872 -0.573232 -0.414128
v -0.218508 -0.513989 -0.418511
v -0.213513 -0.513989 -0.404899
v -0.222725 -0.573232 -0.402830
v -0.222725 -0.573232 -0.402830
v -0.213513 -0.513989 -0.404899
v -0.212210 -0.513989 -0.390457
v -0.221644 -0.573232 -0.390844
v -0.221644 -0.573232 -0.390844
v -0.212210 -0.513989 -0.390457
v -0.223703 -0.573232 -0.378986
v -0.214690 -0.513989 -0.376171
v -0.214690 -0.513989 -0.376171
v -0.223703 -0.573232 -0.378986
v -0.228760 -0.573232 -0.368065
v -0.220783 -0.513989 -0.363013
v -0.220783 -0.513989 -0.363013
v -0.228760 -0.573232 -0.368065
v -0.236471 -0.573232 -0.358825
v -0.230073 -0.513989 -0.351881
v -0.230073 -0.513989 -0.351881
v -0.236471 -0.573232 -0.358825
v -0.246312 -0.573232 -0.351896
v -0.241929 -0.513989 -0.343532
v -0.241929 -0.513989 -0.343532
v -0.246312 -0.573232 -0.351896
v -0.257610 -0.573232 -0.347750
v -0.255542 -0.513989 -0.338536
v -0.255542 -0.513989 -0.338536
v -0.257610 -0.573232 -0.347750
v -0.269596 -0.573232 -0.346669
v -0.269983 -0.513989 -0.337234
v -0.269983 -0.513989 -0.337234
v -0.269596 -0.573232 -0.346669
v -0.281454 -0.573232 -0.348727
v -0.284269 -0.513989 -0.339714
v -0.284269 -0.513989 -0.339714
v -0.281454 -0.573232 -0.348727
v -0.292375 -0.573232 -0.353784
v -0.297426 -0.513989 -0.345807
v -0.297426 -0.513989 -0.345807
v -0.292375 -0.573232 -0.353784
vn -0.4583278637861684 -0.15740201634966983 -0.8747343451164278
vn -0.21631276941356845 -0.1574020177380958 -0.9635524846112994
vn 0.21631276941356845 0.1574020177380958 0.9635524846112994
vn 0.4583278637861684 0.15740201634966983 0.8747343451164278
vn -0.6691085688372602 -0.15740201537020065 -0.7263045701811001
vn 0.6691085688372602 0.15740201537020065 0.7263045701811001
vn 0.040443654580400314 -0.1574020054209493 -0.9867060958024151
vn -0.040443654580400314 0.1574020054209493 0.9867060958024151
vn 0 -1 0
vn 0 1 0
vn -0.8342907252297408 -0.15740200644570743 -0.5283782680641763
vn 0.8342907252297408 0.15740200644570743 0.5283782680641763
vn 0.29444389418077316 -0.15740201157581937 -0.9426173136175398
vn -0.29444389418077316 0.15740201157581937 0.9426173136175398
vn -0.7263045701811 -0.15740201537019535 0.6691085688372616
vn -0.8747343451164277 -0.15740201634966636 0.4583278637861697
vn 0.7263045701811 0.15740201537019535 -0.6691085688372616
vn 0.8747343451164277 0.15740201634966636 -0.4583278637861697
vn -0.9635524846112993 -0.15740201773809445 0.21631276941356978
vn 0.9635524846112993 0.15740201773809445 -0.21631276941356978
vn -0.986706095802415 -0.15740200542095004 -0.04044365458039899
vn 0.986706095802415 0.15740200542095004 0.04044365458039899
vn -0.9426173136175396 -0.1574020115758223 -0.2944438941807719
vn 0.9426173136175396 0.1574020115758223 0.2944438941807719
vn 0.5283782680641775 -0.1574020064457026 -0.8342907252297409
vn -0.5283782680641775 0.1574020064457026 0.8342907252297409
vn 0.7263045701811014 -0.15740201537019424 -0.6691085688372603
vn -0.7263045701811014 0.15740201537019424 0.6691085688372603
vn 0.8747343451164291 -0.15740201634966225 -0.45832786378616847
vn -0.8747343451164291 0.15740201634966225 0.45832786378616847
vn 0.9635524846113007 -0.15740201773808762 -0.2163127694135685
vn -0.9635524846113007 0.15740201773808762 0.2163127694135685
vn 0.9867060958024164 -0.15740200542094102 0.040443654580400244
vn -0.9867060958024164 0.15740200542094102 -0.040443654580400244
vn 0.9426173136175411 -0.1574020115758116 0.2944438941807731
vn -0.9426173136175411 0.1574020115758116 -0.2944438941807731
vn 0.8342907252297422 -0.15740200644569582 0.5283782680641775
vn -0.8342907252297422 0.15740200644569582 -0.5283782680641775
vn 0.6691085688372617 -0.15740201537018894 0.7263045701811013
vn -0.6691085688372617 0.15740201537018894 -0.7263045701811013
vn 0.45832786378616974 -0.15740201634965878 0.874734345116429
vn -0.45832786378616974 0.15740201634965878 -0.874734345116429
vn 0.21631276941356983 -0.15740201773808624 0.9635524846113006
vn -0.21631276941356983 0.15740201773808624 -0.9635524846113006
vn -0.040443654580398926 -0.15740200542094177 0.9867060958024163
vn 0.040443654580398926 0.15740200542094177 -0.9867060958024163
vn -0.2944438941807718 -0.1574020115758145 0.942617313617541
vn 0.2944438941807718 0.1574020115758145 -0.942617313617541
vn -0.5283782680641762 -0.15740200644570065 0.8342907252297421
vn 0.5283782680641762 0.15740200644570065 -0.8342907252297421
usemtl material_0_0
f 1//1 2//2 3//1
f 2//2 1//1 4//2
f 5//3 6//4 7//3
f 8//4 7//3 6//4
f 9//5 3//1 10//5
f 3//1 9//5 1//1
f 6//4 11//6 8//4
f 12//6 8//4 11//6
f 4//2 13//7 2//2
f 13//7 4//2 14//7
f 15//8 5//3 16//8
f 7//3 16//8 5//3
f 17//9 18//9 19//9
f 18//9 17//9 20//9
f 20//9 17//9 21//9
f 20//9 21//9 22//9
f 22//9 21//9 23//9
f 22//9 23//9 24//9
f 24//9 23//9 25//9
f 24//9 25//9 26//9
f 26//9 25//9 27//9
f 26//9 27//9 28//9
f 28//9 27//9 29//9
f 28//9 29//9 30//9
f 30//9 29//9 31//9
f 30//9 31//9 32//9
f 32//9 31//9 33//9
f 32//9 33//9 34//9
f 34//9 33//9 35//9
f 34//9 35//9 36//9
f 36//9 35//9 37//9
f 36//9 37//9 38//9
f 38//9 37//9 39//9
f 38//9 39//9 40//9
f 41//10 42//10 43//10
f 42//10 44//10 43//10
f 43//10 44//10 45//10
f 44//10 46//10 45//10
f 45//10 46//10 47//10
f 46//10 48//10 47//10
f 47//10 48//10 49//10
f 48//10 50//10 49//10
f 49//10 50//10 51//10
f 50//10 52//10 51//10
f 51//10 52//10 53//10
f 52//10 54//10 53//10
f 53//10 54//10 55//10
f 54//10 56//10 55//10
f 55//10 56//10 57//10
f 56//10 58//10 57//10
f 57//10 58//10 59//10
f 58//10 60//10 59//10
f 59//10 60//10 61//10
f 60//10 62//10 61//10
f 61//10 62//10 63//10
f 64//10 63//10 62//10
f 10//5 65//11 9//5
f 65//11 10//5 66//11
f 67//12 12//6 68//12
f 11//6 68//12 12//6
f 14//7 69//13 13//7
f 69//13 14//7 70//13
f 71//14 15//8 72//14
f 16//8 72//14 15//8
f 73//15 74//16 75//16
f 74//16 73//15 76//15
f 77//17 78//17 79//18
f 80//18 79//18 78//17
f 75//16 81//19 82//19
f 81//19 75//16 74//16
f 79//18 80//18 83//20
f 84//20 83//20 80//18
f 85//21 81//19 86//21
f 81//19 85//21 82//19
f 84//20 87//22 83//20
f 88//22 83//20 87//22
f 89//23 86//21 90//23
f 86//21 89//23 85//21
f 87//22 91//24 88//22
f 92//24 88//22 91//24
f 66//11 90//23 65//11
f 90//23 66//11 89//23
f 91//24 67//12 92//24
f 68//12 92//24 67//12
f 70//13 93//25 69//13
f 93//25 70//13 94//25
f 95//26 71//14 96//26
f 72//14 96//26 71//14
f 94//25 97//27 93//25
f 97//27 94//25 98//27
f 99//28 95//26 100//28
f 96//26 100//28 95//26
f 101//29 97//27 98//27
f 97//27 101//29 102//29
f 103//30 104//30 100//28
f 99//28 100//28 104//30
f 105//31 102//29 101//29
f 102//29 105//31 106//31
f 107//32 108//32 103//30
f 104//30 103//30 108//32
f 109//33 106//31 105//31
f 106//31 109//33 110//33
f 111//34 112//34 107//32
f 108//32 107//32 112//34
f 109//33 113//35 110//33
f 113//35 109//33 114//35
f 115//36 112//34 116//36
f 111//34 116//36 112//34
f 114//35 117//37 113//35
f 117//37 114//35 118//37
f 119//38 115//36 120//38
f 116//36 120//38 115//36
f 118//37 121//39 117//37
f 121//39 118//37 122//39
f 123//40 119//38 124//40
f 120//38 124//40 119//38
f 122//39 125//41 121//39
f 125//41 122//39 126//41
f 127//42 123//40 128//42
f 124//40 128//42 123//40
f 126//41 129//43 125//41
f 129//43 126//41 130//43
f 131//44 127//42 132//44
f 128//42 132//44 127//42
f 130//43 133//45 129//43
f 133//45 130//43 134//45
f 135//46 131//44 136//46
f 132//44 136//46 131//44
f 134//45 137//47 133//45
f 137//47 134//45 138//47
f 139//48 135//46 140//48
f 136//46 140//48 135//46
f 138//47 141//49 137//47
f 141//49 138//47 142//49
f 143//50 139//48 144//50
f 140//48 144//50 139//48
f 142//49 73//15 141//49
f 73//15 142//49 76//15
f 77//17 143//50 78//17
f 144//50 78//17 143//50
