# SSTK version 0.8.0
# 15
mtllib original-15.mtl
o #ID43
v -0.078573 -0.429543 -0.751229
v 0.177272 -0.429543 -0.650255
v -0.079434 -0.429543 -0.652496
v 0.178134 -0.429543 -0.748989
v -0.047549 -0.014167 -0.652217
v -0.078573 -0.429543 -0.751229
v -0.079434 -0.429543 -0.652496
v -0.046687 -0.014167 -0.750951
v 0.100576 -0.216970 -0.749666
v 0.105246 -0.110506 -0.749625
v 0.129200 -0.384719 -0.749416
v 0.104573 -0.115617 -0.749631
v 0.102601 -0.120380 -0.749648
v 0.099462 -0.124470 -0.749675
v -0.005174 -0.216970 -0.750589
v 0.095373 -0.127608 -0.749711
v 0.090610 -0.129581 -0.749753
v 0.085499 -0.130254 -0.749797
v 0.080389 -0.129581 -0.749842
v 0.075626 -0.127608 -0.749883
v 0.071536 -0.124470 -0.749919
v 0.068398 -0.120380 -0.749946
v 0.066426 -0.115617 -0.749964
v 0.065753 -0.110506 -0.749970
v 0.178134 -0.429543 -0.748989
v 0.141632 -0.014167 -0.749307
v -0.078573 -0.429543 -0.751229
v -0.030178 -0.384719 -0.750807
v -0.046687 -0.014167 -0.750951
v 0.095373 -0.093404 -0.749711
v 0.099462 -0.096543 -0.749675
v 0.102601 -0.100633 -0.749648
v 0.104573 -0.105395 -0.749631
v 0.090610 -0.091432 -0.749753
v 0.085499 -0.090759 -0.749797
v 0.080389 -0.091432 -0.749842
v 0.075626 -0.093404 -0.749883
v 0.071536 -0.096543 -0.749919
v 0.068398 -0.100633 -0.749946
v 0.066426 -0.105395 -0.749964
v 0.141632 -0.014167 -0.749307
v 0.177272 -0.429543 -0.650255
v 0.178134 -0.429543 -0.748989
v 0.140770 -0.014167 -0.650574
v 0.141632 -0.014167 -0.749307
v -0.047549 -0.014167 -0.652217
v 0.140770 -0.014167 -0.650574
v -0.046687 -0.014167 -0.750951
vn 0 -1 0
vn -0.9970285381352436 0.07654010614804646 -0.008700936429204957
vn 0.008726535692212775 0 -0.9999619230624797
vn 0.9961227340988922 0.08754387364631606 0.008693031596959262
vn 0 1 0
usemtl material_0_0
f 1//1 2//1 3//1
f 2//1 1//1 4//1
f 5//2 6//2 7//2
f 6//2 5//2 8//2
f 9//3 10//3 11//3
f 10//3 9//3 12//3
f 12//3 9//3 13//3
f 13//3 9//3 14//3
f 14//3 9//3 15//3
f 14//3 15//3 16//3
f 16//3 15//3 17//3
f 17//3 15//3 18//3
f 18//3 15//3 19//3
f 19//3 15//3 20//3
f 20//3 15//3 21//3
f 21//3 15//3 22//3
f 22//3 15//3 23//3
f 23//3 15//3 24//3
f 25//3 11//3 26//3
f 11//3 25//3 27//3
f 11//3 27//3 28//3
f 28//3 27//3 29//3
f 26//3 30//3 29//3
f 30//3 26//3 31//3
f 31//3 26//3 32//3
f 32//3 26//3 33//3
f 33//3 26//3 10//3
f 10//3 26//3 11//3
f 29//3 30//3 34//3
f 29//3 34//3 35//3
f 29//3 35//3 36//3
f 29//3 36//3 37//3
f 29//3 37//3 38//3
f 29//3 38//3 39//3
f 29//3 39//3 40//3
f 29//3 40//3 24//3
f 29//3 24//3 15//3
f 29//3 15//3 28//3
f 41//4 42//4 43//4
f 42//4 41//4 44//4
f 45//5 46//5 47//5
f 46//5 45//5 48//5
