# SSTK version 0.8.0
# 14
mtllib original-14.mtl
o #ID35
v -0.013907 -0.379510 -0.750665
v 0.103884 -0.379510 -0.670644
v -0.014596 -0.379510 -0.671678
v 0.104573 -0.379510 -0.749631
v -0.013907 -0.379510 -0.750665
v 0.104573 -0.359762 -0.749631
v 0.104573 -0.379510 -0.749631
v -0.013907 -0.359762 -0.750665
v 0.104573 -0.359762 -0.749631
v 0.103884 -0.379510 -0.670644
v 0.104573 -0.379510 -0.749631
v 0.103884 -0.359762 -0.670644
v 0.104573 -0.359762 -0.749631
v -0.014596 -0.359762 -0.671678
v 0.103884 -0.359762 -0.670644
v -0.013907 -0.359762 -0.750665
vn 0 -1 0
vn 0.008726535692212775 0 -0.9999619230624797
vn 0.9999619230624797 0 0.008726535692212775
vn 0 1 0
usemtl material_0_0
f 1//1 2//1 3//1
f 2//1 1//1 4//1
f 5//2 6//2 7//2
f 6//2 5//2 8//2
f 9//3 10//3 11//3
f 10//3 9//3 12//3
f 13//4 14//4 15//4
f 14//4 13//4 16//4
