# SSTK version 0.8.0
# 7
mtllib original-7.mtl
o #ID148
v 0.405392 0.414139 0.563117
v 0.250031 0.315402 0.644520
v 0.405392 0.315402 0.563117
v 0.250031 0.414139 0.644520
v 0.250031 0.414139 0.644520
v 0.405392 0.414139 0.563117
v 0.250031 0.315402 0.644520
v 0.405392 0.315402 0.563117
v 0.680531 0.315402 0.128681
v 0.668647 0.315402 0.126618
v 0.675701 0.315402 -0.045484
v 0.628235 0.315402 0.296099
v 0.617290 0.315402 0.291030
v 0.534390 0.315402 0.444276
v 0.525130 0.315402 0.436548
v 0.405392 0.315402 0.563117
v 0.398447 0.315402 0.553255
v 0.250031 0.315402 0.644520
v 0.245875 0.315402 0.633197
v 0.078895 0.315402 0.682939
v 0.077811 0.315402 0.670926
v -0.096354 0.315402 0.675756
v -0.094291 0.315402 0.663872
v -0.258703 0.315402 0.612514
v -0.263772 0.315402 0.623460
v -0.404221 0.315402 0.520355
v -0.411950 0.315402 0.529615
v -0.520927 0.315402 0.393671
v -0.530789 0.315402 0.400616
v -0.600869 0.315402 0.241100
v -0.612193 0.315402 0.245256
v -0.638599 0.315402 0.073036
v -0.650612 0.315402 0.074119
v -0.643429 0.315402 -0.101129
v 0.687714 0.315402 -0.046567
v 0.649295 0.315402 -0.217703
v 0.637972 0.315402 -0.213547
v 0.567892 0.315402 -0.373064
v 0.558030 0.315402 -0.366119
v 0.449052 0.315402 -0.502063
v 0.441323 0.315402 -0.492802
v 0.300874 0.315402 -0.595908
v 0.295806 0.315402 -0.584962
v 0.133456 0.315402 -0.648204
v 0.131394 0.315402 -0.636319
v -0.041792 0.315402 -0.655387
v -0.040709 0.315402 -0.643374
v -0.208772 0.315402 -0.605644
v -0.212928 0.315402 -0.616968
v -0.361345 0.315402 -0.525702
v -0.368289 0.315402 -0.535564
v -0.488027 0.315402 -0.408996
v -0.497288 0.315402 -0.416724
v -0.580187 0.315402 -0.263478
v -0.591133 0.315402 -0.268546
v -0.631544 0.315402 -0.099066
v -0.638599 0.315402 0.073036
v -0.631544 0.315402 -0.099066
v -0.643429 0.315402 -0.101129
v -0.591133 0.315402 -0.268546
v -0.580187 0.315402 -0.263478
v -0.497288 0.315402 -0.416724
v -0.488027 0.315402 -0.408996
v -0.368289 0.315402 -0.535564
v -0.361345 0.315402 -0.525702
v -0.212928 0.315402 -0.616968
v -0.208772 0.315402 -0.605644
v -0.041792 0.315402 -0.655387
v -0.040709 0.315402 -0.643374
v 0.131394 0.315402 -0.636319
v 0.133456 0.315402 -0.648204
v 0.295806 0.315402 -0.584962
v 0.300874 0.315402 -0.595908
v 0.441323 0.315402 -0.492802
v 0.449052 0.315402 -0.502063
v 0.558030 0.315402 -0.366119
v 0.567892 0.315402 -0.373064
v 0.637972 0.315402 -0.213547
v 0.649295 0.315402 -0.217703
v 0.675701 0.315402 -0.045484
v 0.680531 0.315402 0.128681
v 0.687714 0.315402 -0.046567
v -0.650612 0.315402 0.074119
v -0.612193 0.315402 0.245256
v -0.600869 0.315402 0.241100
v -0.530789 0.315402 0.400616
v -0.520927 0.315402 0.393671
v -0.411950 0.315402 0.529615
v -0.404221 0.315402 0.520355
v -0.263772 0.315402 0.623460
v -0.258703 0.315402 0.612514
v -0.096354 0.315402 0.675756
v -0.094291 0.315402 0.663872
v 0.077811 0.315402 0.670926
v 0.078895 0.315402 0.682939
v 0.245875 0.315402 0.633197
v 0.250031 0.315402 0.644520
v 0.398447 0.315402 0.553255
v 0.405392 0.315402 0.563117
v 0.525130 0.315402 0.436548
v 0.534390 0.315402 0.444276
v 0.617290 0.315402 0.291030
v 0.628235 0.315402 0.296099
v 0.668647 0.315402 0.126618
v 0.534390 0.414139 0.444276
v 0.534390 0.315402 0.444276
v 0.534390 0.414139 0.444276
v 0.534390 0.315402 0.444276
v 0.649295 0.414139 -0.217703
v 0.680531 0.414139 0.128681
v 0.687714 0.414139 -0.046567
v 0.655987 0.414139 -0.043706
v 0.619389 0.414139 -0.206728
v 0.567892 0.414139 -0.373064
v 0.541845 0.414139 -0.354723
v 0.449052 0.414139 -0.502063
v 0.428640 0.414139 -0.477605
v 0.300874 0.414139 -0.595908
v 0.287488 0.414139 -0.567000
v 0.133456 0.414139 -0.648204
v 0.128009 0.414139 -0.616816
v -0.041792 0.414139 -0.655387
v -0.038931 0.414139 -0.623659
v -0.201952 0.414139 -0.587062
v -0.212928 0.414139 -0.616968
v -0.349947 0.414139 -0.509518
v -0.368289 0.414139 -0.535564
v -0.472830 0.414139 -0.396313
v -0.497288 0.414139 -0.416724
v -0.562225 0.414139 -0.255160
v -0.591133 0.414139 -0.268546
v -0.612041 0.414139 -0.095681
v -0.643429 0.414139 -0.101129
v -0.618884 0.414139 0.071259
v 0.649144 0.414139 0.123233
v 0.628235 0.414139 0.296099
v 0.599328 0.414139 0.282713
v 0.534390 0.414139 0.444276
v 0.509932 0.414139 0.423865
v 0.405392 0.414139 0.563117
v 0.387050 0.414139 0.537070
v 0.250031 0.414139 0.644520
v 0.239055 0.414139 0.614614
v 0.078895 0.414139 0.682939
v 0.076034 0.414139 0.651211
v -0.096354 0.414139 0.675756
v -0.090906 0.414139 0.644369
v -0.250385 0.414139 0.594552
v -0.263772 0.414139 0.623460
v -0.391538 0.414139 0.505157
v -0.411950 0.414139 0.529615
v -0.504743 0.414139 0.382275
v -0.530789 0.414139 0.400616
v -0.582286 0.414139 0.234280
v -0.612193 0.414139 0.245256
v -0.650612 0.414139 0.074119
v -0.643429 0.414139 -0.101129
v -0.618884 0.414139 0.071259
v -0.650612 0.414139 0.074119
v -0.612193 0.414139 0.245256
v -0.582286 0.414139 0.234280
v -0.530789 0.414139 0.400616
v -0.504743 0.414139 0.382275
v -0.411950 0.414139 0.529615
v -0.391538 0.414139 0.505157
v -0.263772 0.414139 0.623460
v -0.250385 0.414139 0.594552
v -0.096354 0.414139 0.675756
v -0.090906 0.414139 0.644369
v 0.076034 0.414139 0.651211
v 0.078895 0.414139 0.682939
v 0.239055 0.414139 0.614614
v 0.250031 0.414139 0.644520
v 0.387050 0.414139 0.537070
v 0.405392 0.414139 0.563117
v 0.509932 0.414139 0.423865
v 0.534390 0.414139 0.444276
v 0.599328 0.414139 0.282713
v 0.628235 0.414139 0.296099
v 0.649144 0.414139 0.123233
v 0.655987 0.414139 -0.043706
v 0.680531 0.414139 0.128681
v -0.612041 0.414139 -0.095681
v -0.591133 0.414139 -0.268546
v -0.562225 0.414139 -0.255160
v -0.497288 0.414139 -0.416724
v -0.472830 0.414139 -0.396313
v -0.368289 0.414139 -0.535564
v -0.349947 0.414139 -0.509518
v -0.212928 0.414139 -0.616968
v -0.201952 0.414139 -0.587062
v -0.041792 0.414139 -0.655387
v -0.038931 0.414139 -0.623659
v 0.128009 0.414139 -0.616816
v 0.133456 0.414139 -0.648204
v 0.287488 0.414139 -0.567000
v 0.300874 0.414139 -0.595908
v 0.428640 0.414139 -0.477605
v 0.449052 0.414139 -0.502063
v 0.541845 0.414139 -0.354723
v 0.567892 0.414139 -0.373064
v 0.619389 0.414139 -0.206728
v 0.649295 0.414139 -0.217703
v 0.687714 0.414139 -0.046567
v 0.078895 0.315402 0.682939
v 0.078895 0.414139 0.682939
v 0.078895 0.414139 0.682939
v 0.078895 0.315402 0.682939
v -0.096354 0.315402 0.675756
v -0.096354 0.414139 0.675756
v -0.096354 0.414139 0.675756
v -0.096354 0.315402 0.675756
v -0.263772 0.315402 0.623460
v -0.263772 0.414139 0.623460
v -0.263772 0.414139 0.623460
v -0.263772 0.315402 0.623460
v -0.411950 0.315402 0.529615
v -0.411950 0.414139 0.529615
v -0.411950 0.414139 0.529615
v -0.411950 0.315402 0.529615
v -0.530789 0.414139 0.400616
v -0.530789 0.315402 0.400616
v -0.530789 0.414139 0.400616
v -0.530789 0.315402 0.400616
v -0.612193 0.414139 0.245256
v -0.612193 0.315402 0.245256
v -0.612193 0.414139 0.245256
v -0.612193 0.315402 0.245256
v -0.650612 0.414139 0.074119
v -0.650612 0.315402 0.074119
v -0.650612 0.414139 0.074119
v -0.650612 0.315402 0.074119
v -0.643429 0.414139 -0.101129
v -0.643429 0.315402 -0.101129
v -0.643429 0.414139 -0.101129
v -0.643429 0.315402 -0.101129
v -0.591133 0.414139 -0.268546
v -0.591133 0.315402 -0.268546
v -0.591133 0.414139 -0.268546
v -0.591133 0.315402 -0.268546
v -0.497288 0.414139 -0.416724
v -0.497288 0.315402 -0.416724
v -0.497288 0.414139 -0.416724
v -0.497288 0.315402 -0.416724
v -0.368289 0.315402 -0.535564
v -0.368289 0.414139 -0.535564
v -0.368289 0.414139 -0.535564
v -0.368289 0.315402 -0.535564
v -0.212928 0.315402 -0.616968
v -0.212928 0.414139 -0.616968
v -0.212928 0.414139 -0.616968
v -0.212928 0.315402 -0.616968
v -0.041792 0.315402 -0.655387
v -0.041792 0.414139 -0.655387
v -0.041792 0.414139 -0.655387
v -0.041792 0.315402 -0.655387
v 0.133456 0.315402 -0.648204
v 0.133456 0.414139 -0.648204
v 0.133456 0.414139 -0.648204
v 0.133456 0.315402 -0.648204
v 0.300874 0.315402 -0.595908
v 0.300874 0.414139 -0.595908
v 0.300874 0.414139 -0.595908
v 0.300874 0.315402 -0.595908
v 0.449052 0.315402 -0.502063
v 0.449052 0.414139 -0.502063
v 0.449052 0.414139 -0.502063
v 0.449052 0.315402 -0.502063
v 0.567892 0.414139 -0.373064
v 0.567892 0.315402 -0.373064
v 0.567892 0.315402 -0.373064
v 0.567892 0.414139 -0.373064
v 0.649295 0.414139 -0.217703
v 0.649295 0.315402 -0.217703
v 0.649295 0.315402 -0.217703
v 0.649295 0.414139 -0.217703
v 0.687714 0.414139 -0.046567
v 0.687714 0.315402 -0.046567
v 0.687714 0.315402 -0.046567
v 0.687714 0.414139 -0.046567
v 0.680531 0.414139 0.128681
v 0.680531 0.315402 0.128681
v 0.680531 0.315402 0.128681
v 0.680531 0.414139 0.128681
v 0.628235 0.414139 0.296099
v 0.628235 0.315402 0.296099
v 0.628235 0.315402 0.296099
v 0.628235 0.414139 0.296099
vn 0.5757595677040458 0 0.8176190556715581
vn 0.3445256628938973 0 0.9387768998050179
vn -0.3445256628938973 0 -0.9387768998050179
vn -0.5757595677040458 0 -0.8176190556715581
vn 0 -1 0
vn 0 1 0
vn 0.7677563870781163 0 0.6407418591763437
vn -0.7677563870781163 0 -0.6407418591763437
vn 0.08981288884377402 0 0.9959586562691927
vn -0.08981288884377402 0 -0.9959586562691927
vn -0.17102047951562357 0 0.9852674741339259
vn 0.17102047951562357 0 -0.9852674741339259
vn -0.42019903489299887 0 0.9074319649841484
vn 0.42019903489299887 0 -0.9074319649841484
vn -0.6407418591763437 0 0.7677563870781163
vn 0.6407418591763437 0 -0.7677563870781163
vn -0.8176190556715581 0 0.5757595677040458
vn 0.8176190556715581 0 -0.5757595677040458
vn -0.9387768998050179 0 0.3445256628938973
vn 0.9387768998050179 0 -0.3445256628938973
vn -0.9959586562691927 0 0.08981288884377402
vn 0.9959586562691927 0 -0.08981288884377402
vn -0.9852674741339259 0 -0.17102047951562357
vn 0.9852674741339259 0 0.17102047951562357
vn -0.9074319649841484 0 -0.42019903489299887
vn 0.9074319649841484 0 0.42019903489299887
usemtl material_0_0
f 1//1 2//2 3//1
f 2//2 1//1 4//2
f 5//3 6//4 7//3
f 8//4 7//3 6//4
f 9//5 10//5 11//5
f 10//5 9//5 12//5
f 10//5 12//5 13//5
f 13//5 12//5 14//5
f 13//5 14//5 15//5
f 15//5 14//5 16//5
f 15//5 16//5 17//5
f 17//5 16//5 18//5
f 17//5 18//5 19//5
f 19//5 18//5 20//5
f 19//5 20//5 21//5
f 21//5 20//5 22//5
f 21//5 22//5 23//5
f 23//5 22//5 24//5
f 24//5 22//5 25//5
f 24//5 25//5 26//5
f 26//5 25//5 27//5
f 26//5 27//5 28//5
f 28//5 27//5 29//5
f 28//5 29//5 30//5
f 30//5 29//5 31//5
f 30//5 31//5 32//5
f 32//5 31//5 33//5
f 32//5 33//5 34//5
f 35//5 11//5 36//5
f 11//5 35//5 9//5
f 36//5 11//5 37//5
f 36//5 37//5 38//5
f 38//5 37//5 39//5
f 38//5 39//5 40//5
f 40//5 39//5 41//5
f 40//5 41//5 42//5
f 42//5 41//5 43//5
f 42//5 43//5 44//5
f 44//5 43//5 45//5
f 44//5 45//5 46//5
f 46//5 45//5 47//5
f 46//5 47//5 48//5
f 46//5 48//5 49//5
f 49//5 48//5 50//5
f 49//5 50//5 51//5
f 51//5 50//5 52//5
f 51//5 52//5 53//5
f 53//5 52//5 54//5
f 53//5 54//5 55//5
f 55//5 54//5 56//5
f 55//5 56//5 34//5
f 34//5 56//5 32//5
f 57//6 58//6 59//6
f 59//6 58//6 60//6
f 58//6 61//6 60//6
f 60//6 61//6 62//6
f 61//6 63//6 62//6
f 62//6 63//6 64//6
f 63//6 65//6 64//6
f 64//6 65//6 66//6
f 65//6 67//6 66//6
f 66//6 67//6 68//6
f 67//6 69//6 68//6
f 69//6 70//6 68//6
f 68//6 70//6 71//6
f 70//6 72//6 71//6
f 71//6 72//6 73//6
f 72//6 74//6 73//6
f 73//6 74//6 75//6
f 74//6 76//6 75//6
f 75//6 76//6 77//6
f 76//6 78//6 77//6
f 77//6 78//6 79//6
f 78//6 80//6 79//6
f 81//6 82//6 80//6
f 79//6 80//6 82//6
f 59//6 83//6 57//6
f 83//6 84//6 57//6
f 57//6 84//6 85//6
f 84//6 86//6 85//6
f 85//6 86//6 87//6
f 86//6 88//6 87//6
f 87//6 88//6 89//6
f 88//6 90//6 89//6
f 89//6 90//6 91//6
f 90//6 92//6 91//6
f 91//6 92//6 93//6
f 93//6 92//6 94//6
f 92//6 95//6 94//6
f 94//6 95//6 96//6
f 95//6 97//6 96//6
f 96//6 97//6 98//6
f 97//6 99//6 98//6
f 98//6 99//6 100//6
f 99//6 101//6 100//6
f 100//6 101//6 102//6
f 101//6 103//6 102//6
f 102//6 103//6 104//6
f 103//6 81//6 104//6
f 80//6 104//6 81//6
f 105//7 3//1 106//7
f 3//1 105//7 1//1
f 6//4 107//8 8//4
f 108//8 8//4 107//8
f 109//6 110//6 111//6
f 110//6 109//6 112//6
f 112//6 109//6 113//6
f 113//6 109//6 114//6
f 113//6 114//6 115//6
f 115//6 114//6 116//6
f 115//6 116//6 117//6
f 117//6 116//6 118//6
f 117//6 118//6 119//6
f 119//6 118//6 120//6
f 119//6 120//6 121//6
f 121//6 120//6 122//6
f 121//6 122//6 123//6
f 123//6 122//6 124//6
f 124//6 122//6 125//6
f 124//6 125//6 126//6
f 126//6 125//6 127//6
f 126//6 127//6 128//6
f 128//6 127//6 129//6
f 128//6 129//6 130//6
f 130//6 129//6 131//6
f 130//6 131//6 132//6
f 132//6 131//6 133//6
f 132//6 133//6 134//6
f 110//6 135//6 136//6
f 135//6 110//6 112//6
f 136//6 135//6 137//6
f 136//6 137//6 138//6
f 138//6 137//6 139//6
f 138//6 139//6 140//6
f 140//6 139//6 141//6
f 140//6 141//6 142//6
f 142//6 141//6 143//6
f 142//6 143//6 144//6
f 144//6 143//6 145//6
f 144//6 145//6 146//6
f 146//6 145//6 147//6
f 146//6 147//6 148//6
f 146//6 148//6 149//6
f 149//6 148//6 150//6
f 149//6 150//6 151//6
f 151//6 150//6 152//6
f 151//6 152//6 153//6
f 153//6 152//6 154//6
f 153//6 154//6 155//6
f 155//6 154//6 134//6
f 155//6 134//6 156//6
f 156//6 134//6 133//6
f 157//5 158//5 159//5
f 159//5 158//5 160//5
f 158//5 161//5 160//5
f 160//5 161//5 162//5
f 161//5 163//5 162//5
f 162//5 163//5 164//5
f 163//5 165//5 164//5
f 164//5 165//5 166//5
f 165//5 167//5 166//5
f 166//5 167//5 168//5
f 167//5 169//5 168//5
f 169//5 170//5 168//5
f 168//5 170//5 171//5
f 170//5 172//5 171//5
f 171//5 172//5 173//5
f 172//5 174//5 173//5
f 173//5 174//5 175//5
f 174//5 176//5 175//5
f 175//5 176//5 177//5
f 176//5 178//5 177//5
f 177//5 178//5 179//5
f 178//5 180//5 179//5
f 181//5 182//5 180//5
f 179//5 180//5 182//5
f 158//5 157//5 183//5
f 157//5 184//5 183//5
f 183//5 184//5 185//5
f 184//5 186//5 185//5
f 185//5 186//5 187//5
f 186//5 188//5 187//5
f 187//5 188//5 189//5
f 188//5 190//5 189//5
f 189//5 190//5 191//5
f 190//5 192//5 191//5
f 191//5 192//5 193//5
f 193//5 192//5 194//5
f 192//5 195//5 194//5
f 194//5 195//5 196//5
f 195//5 197//5 196//5
f 196//5 197//5 198//5
f 197//5 199//5 198//5
f 198//5 199//5 200//5
f 199//5 201//5 200//5
f 200//5 201//5 202//5
f 201//5 203//5 202//5
f 202//5 203//5 181//5
f 181//5 203//5 182//5
f 204//5 182//5 203//5
f 4//2 205//9 2//2
f 205//9 4//2 206//9
f 207//10 5//3 208//10
f 7//3 208//10 5//3
f 206//9 209//11 205//9
f 209//11 206//9 210//11
f 211//12 207//10 212//12
f 208//10 212//12 207//10
f 210//11 213//13 209//11
f 213//13 210//11 214//13
f 215//14 211//12 216//14
f 212//12 216//14 211//12
f 214//13 217//15 213//13
f 217//15 214//13 218//15
f 219//16 215//14 220//16
f 216//14 220//16 215//14
f 217//15 221//17 222//17
f 221//17 217//15 218//15
f 219//16 220//16 223//18
f 224//18 223//18 220//16
f 222//17 225//19 226//19
f 225//19 222//17 221//17
f 223//18 224//18 227//20
f 228//20 227//20 224//18
f 226//19 229//21 230//21
f 229//21 226//19 225//19
f 227//20 228//20 231//22
f 232//22 231//22 228//20
f 230//21 233//23 234//23
f 233//23 230//21 229//21
f 231//22 232//22 235//24
f 236//24 235//24 232//22
f 234//23 237//25 238//25
f 237//25 234//23 233//23
f 235//24 236//24 239//26
f 240//26 239//26 236//24
f 238//25 241//8 242//8
f 241//8 238//25 237//25
f 239//26 240//26 243//7
f 244//7 243//7 240//26
f 241//8 245//4 242//8
f 245//4 241//8 246//4
f 247//1 243//7 248//1
f 244//7 248//1 243//7
f 246//4 249//3 245//4
f 249//3 246//4 250//3
f 251//2 247//1 252//2
f 248//1 252//2 247//1
f 250//3 253//10 249//3
f 253//10 250//3 254//10
f 255//9 251//2 256//9
f 252//2 256//9 251//2
f 254//10 257//12 253//10
f 257//12 254//10 258//12
f 259//11 255//9 260//11
f 256//9 260//11 255//9
f 258//12 261//14 257//12
f 261//14 258//12 262//14
f 263//13 259//11 264//13
f 260//11 264//13 259//11
f 262//14 265//16 261//14
f 265//16 262//14 266//16
f 267//15 263//13 268//15
f 264//13 268//15 263//13
f 269//18 265//16 266//16
f 265//16 269//18 270//18
f 271//17 272//17 268//15
f 267//15 268//15 272//17
f 273//20 270//18 269//18
f 270//18 273//20 274//20
f 275//19 276//19 271//17
f 272//17 271//17 276//19
f 277//22 274//20 273//20
f 274//20 277//22 278//22
f 279//21 280//21 275//19
f 276//19 275//19 280//21
f 281//24 278//22 277//22
f 278//22 281//24 282//24
f 283//23 284//23 279//21
f 280//21 279//21 284//23
f 285//26 282//24 281//24
f 282//24 285//26 286//26
f 287//25 288//25 283//23
f 284//23 283//23 288//25
f 105//7 286//26 285//26
f 286//26 105//7 106//7
f 108//8 107//8 287//25
f 288//25 287//25 107//8
