# SSTK version 0.8.0
# 24
mtllib original-24.mtl
o #ID98
v 0.117944 0.453634 -0.558834
v 0.101479 0.453634 -0.016658
v 0.106530 0.453634 0.005843
v -0.033645 0.453634 -0.565048
v 0.090776 0.453634 -0.037084
v 0.075152 0.453634 -0.054044
v 0.055670 0.453634 -0.066382
v 0.033658 0.453634 -0.073258
v 0.010618 0.453634 -0.074202
v -0.011883 0.453634 -0.069151
v -0.032309 0.453634 -0.058449
v -0.049269 0.453634 -0.042824
v -0.181678 0.453634 -0.531815
v -0.061607 0.453634 -0.023342
v -0.068483 0.453634 -0.001331
v -0.069427 0.453634 0.021710
v -0.080841 0.453634 0.586387
v -0.225657 0.453634 0.541151
v -0.316064 0.453634 -0.461402
v -0.353830 0.453634 0.459975
v -0.427648 0.453634 -0.358605
v -0.456626 0.453634 0.348392
v -0.508823 0.453634 -0.230432
v -0.527040 0.453634 0.214005
v -0.554059 0.453634 -0.085616
v -0.560272 0.453634 0.065973
v 0.564143 0.453634 -0.186453
v 0.591162 0.453634 0.113169
v 0.597375 0.453634 -0.038421
v 0.545926 0.453634 0.257984
v 0.493729 0.453634 -0.320839
v 0.464750 0.453634 0.386158
v 0.390933 0.453634 -0.432423
v 0.353167 0.453634 0.488954
v 0.262760 0.453634 -0.513598
v 0.218780 0.453634 0.559368
v 0.105586 0.453634 0.028883
v 0.070748 0.453634 0.592600
v 0.098710 0.453634 0.050895
v 0.086372 0.453634 0.070377
v 0.069411 0.453634 0.086001
v 0.048985 0.453634 0.096704
v 0.026485 0.453634 0.101755
v 0.003444 0.453634 0.100810
v -0.018567 0.453634 0.093935
v -0.038049 0.453634 0.081597
v -0.053674 0.453634 0.064636
v -0.064376 0.453634 0.044210
v -0.069427 0.453634 0.021710
v -0.064376 0.453634 0.044210
v -0.080841 0.453634 0.586387
v -0.053674 0.453634 0.064636
v -0.038049 0.453634 0.081597
v -0.018567 0.453634 0.093935
v 0.003444 0.453634 0.100810
v 0.026485 0.453634 0.101755
v 0.048985 0.453634 0.096704
v 0.069411 0.453634 0.086001
v 0.070748 0.453634 0.592600
v 0.086372 0.453634 0.070377
v 0.098710 0.453634 0.050895
v 0.105586 0.453634 0.028883
v 0.218780 0.453634 0.559368
v 0.106530 0.453634 0.005843
v 0.117944 0.453634 -0.558834
v 0.262760 0.453634 -0.513598
v 0.353167 0.453634 0.488954
v 0.390933 0.453634 -0.432423
v 0.464750 0.453634 0.386158
v 0.493729 0.453634 -0.320839
v 0.545926 0.453634 0.257984
v 0.564143 0.453634 -0.186453
v 0.591162 0.453634 0.113169
v 0.597375 0.453634 -0.038421
v -0.560272 0.453634 0.065973
v -0.554059 0.453634 -0.085616
v -0.527040 0.453634 0.214005
v -0.508823 0.453634 -0.230432
v -0.456626 0.453634 0.348392
v -0.427648 0.453634 -0.358605
v -0.353830 0.453634 0.459975
v -0.316064 0.453634 -0.461402
v -0.225657 0.453634 0.541151
v -0.181678 0.453634 -0.531815
v -0.068483 0.453634 -0.001331
v -0.061607 0.453634 -0.023342
v -0.049269 0.453634 -0.042824
v -0.033645 0.453634 -0.565048
v -0.032309 0.453634 -0.058449
v -0.011883 0.453634 -0.069151
v 0.010618 0.453634 -0.074202
v 0.033658 0.453634 -0.073258
v 0.055670 0.453634 -0.066382
v 0.075152 0.453634 -0.054044
v 0.090776 0.453634 -0.037084
v 0.101479 0.453634 -0.016658
vn 0 1 0
vn 0 -1 0
usemtl material_0_0
f 1//1 2//1 3//1
f 2//1 1//1 4//1
f 2//1 4//1 5//1
f 5//1 4//1 6//1
f 6//1 4//1 7//1
f 7//1 4//1 8//1
f 8//1 4//1 9//1
f 9//1 4//1 10//1
f 10//1 4//1 11//1
f 11//1 4//1 12//1
f 12//1 4//1 13//1
f 12//1 13//1 14//1
f 14//1 13//1 15//1
f 15//1 13//1 16//1
f 16//1 13//1 17//1
f 17//1 13//1 18//1
f 18//1 13//1 19//1
f 18//1 19//1 20//1
f 20//1 19//1 21//1
f 20//1 21//1 22//1
f 22//1 21//1 23//1
f 22//1 23//1 24//1
f 24//1 23//1 25//1
f 24//1 25//1 26//1
f 27//1 28//1 29//1
f 28//1 27//1 30//1
f 30//1 27//1 31//1
f 30//1 31//1 32//1
f 32//1 31//1 33//1
f 32//1 33//1 34//1
f 34//1 33//1 35//1
f 34//1 35//1 36//1
f 36//1 35//1 1//1
f 36//1 1//1 3//1
f 36//1 3//1 37//1
f 36//1 37//1 38//1
f 38//1 37//1 39//1
f 38//1 39//1 40//1
f 38//1 40//1 41//1
f 38//1 41//1 17//1
f 17//1 41//1 42//1
f 17//1 42//1 43//1
f 17//1 43//1 44//1
f 17//1 44//1 45//1
f 17//1 45//1 46//1
f 17//1 46//1 47//1
f 17//1 47//1 48//1
f 17//1 48//1 16//1
f 49//2 50//2 51//2
f 50//2 52//2 51//2
f 52//2 53//2 51//2
f 53//2 54//2 51//2
f 54//2 55//2 51//2
f 55//2 56//2 51//2
f 56//2 57//2 51//2
f 57//2 58//2 51//2
f 51//2 58//2 59//2
f 58//2 60//2 59//2
f 60//2 61//2 59//2
f 61//2 62//2 59//2
f 59//2 62//2 63//2
f 62//2 64//2 63//2
f 64//2 65//2 63//2
f 65//2 66//2 63//2
f 63//2 66//2 67//2
f 66//2 68//2 67//2
f 67//2 68//2 69//2
f 68//2 70//2 69//2
f 69//2 70//2 71//2
f 70//2 72//2 71//2
f 71//2 72//2 73//2
f 74//2 73//2 72//2
f 75//2 76//2 77//2
f 76//2 78//2 77//2
f 77//2 78//2 79//2
f 78//2 80//2 79//2
f 79//2 80//2 81//2
f 80//2 82//2 81//2
f 81//2 82//2 83//2
f 82//2 84//2 83//2
f 83//2 84//2 51//2
f 51//2 84//2 49//2
f 49//2 84//2 85//2
f 85//2 84//2 86//2
f 86//2 84//2 87//2
f 84//2 88//2 87//2
f 87//2 88//2 89//2
f 89//2 88//2 90//2
f 90//2 88//2 91//2
f 91//2 88//2 92//2
f 92//2 88//2 93//2
f 93//2 88//2 94//2
f 94//2 88//2 95//2
f 95//2 88//2 96//2
f 88//2 65//2 96//2
f 64//2 96//2 65//2
