# SSTK version 0.8.0
# 21
mtllib original-21.mtl
o #ID80
v 0.036831 0.512877 -0.091535
v 0.055670 0.453634 -0.066382
v 0.033658 0.453634 -0.073258
v 0.063465 0.512877 -0.083216
v 0.063465 0.512877 -0.083216
v 0.036831 0.512877 -0.091535
v 0.055670 0.453634 -0.066382
v 0.033658 0.453634 -0.073258
v 0.008952 0.512877 -0.092678
v 0.010618 0.453634 -0.074202
v 0.008952 0.512877 -0.092678
v 0.010618 0.453634 -0.074202
v 0.075152 0.453634 -0.054044
v 0.087038 0.512877 -0.068286
v 0.087038 0.512877 -0.068286
v 0.075152 0.453634 -0.054044
v -0.018274 0.512877 -0.086566
v -0.011883 0.453634 -0.069151
v -0.018274 0.512877 -0.086566
v -0.011883 0.453634 -0.069151
v 0.105943 0.512877 -0.047764
v 0.090776 0.453634 -0.037084
v 0.090776 0.453634 -0.037084
v 0.105943 0.512877 -0.047764
v -0.042989 0.512877 -0.073616
v -0.032309 0.453634 -0.058449
v -0.042989 0.512877 -0.073616
v -0.032309 0.453634 -0.058449
v 0.118894 0.512877 -0.023049
v 0.101479 0.453634 -0.016658
v 0.101479 0.453634 -0.016658
v 0.118894 0.512877 -0.023049
v -0.063511 0.512877 -0.054710
v -0.049269 0.453634 -0.042824
v -0.063511 0.512877 -0.054710
v -0.049269 0.453634 -0.042824
v 0.125005 0.512877 0.004176
v 0.106530 0.453634 0.005843
v 0.106530 0.453634 0.005843
v 0.125005 0.512877 0.004176
v -0.078441 0.512877 -0.031137
v -0.061607 0.453634 -0.023342
v -0.061607 0.453634 -0.023342
v -0.078441 0.512877 -0.031137
v 0.123863 0.512877 0.032056
v 0.105586 0.453634 0.028883
v 0.105586 0.453634 0.028883
v 0.123863 0.512877 0.032056
v -0.086760 0.512877 -0.004504
v -0.068483 0.453634 -0.001331
v -0.068483 0.453634 -0.001331
v -0.086760 0.512877 -0.004504
v 0.098710 0.453634 0.050895
v 0.115543 0.512877 0.058690
v 0.115543 0.512877 0.058690
v 0.098710 0.453634 0.050895
v -0.087903 0.512877 0.023376
v -0.069427 0.453634 0.021710
v -0.069427 0.453634 0.021710
v -0.087903 0.512877 0.023376
v 0.086372 0.453634 0.070377
v 0.100614 0.512877 0.082263
v 0.100614 0.512877 0.082263
v 0.086372 0.453634 0.070377
v -0.064376 0.453634 0.044210
v -0.081791 0.512877 0.050601
v -0.081791 0.512877 0.050601
v -0.064376 0.453634 0.044210
v 0.069411 0.453634 0.086001
v 0.080092 0.512877 0.101168
v 0.080092 0.512877 0.101168
v 0.069411 0.453634 0.086001
v -0.053674 0.453634 0.064636
v -0.068841 0.512877 0.075317
v -0.068841 0.512877 0.075317
v -0.053674 0.453634 0.064636
v 0.048985 0.453634 0.096704
v 0.055376 0.512877 0.114118
v 0.055376 0.512877 0.114118
v 0.048985 0.453634 0.096704
v -0.038049 0.453634 0.081597
v -0.049935 0.512877 0.095839
v -0.049935 0.512877 0.095839
v -0.038049 0.453634 0.081597
v 0.026485 0.453634 0.101755
v 0.028151 0.512877 0.120230
v 0.028151 0.512877 0.120230
v 0.026485 0.453634 0.101755
v -0.026362 0.512877 0.110768
v -0.018567 0.453634 0.093935
v -0.026362 0.512877 0.110768
v -0.018567 0.453634 0.093935
v 0.003444 0.453634 0.100810
v 0.000272 0.512877 0.119088
v 0.000272 0.512877 0.119088
v 0.003444 0.453634 0.100810
vn 0.16320633126048145 -0.29882211612897625 -0.9402494543198069
vn 0.4009996830127558 -0.2988221178738375 -0.8659703205613132
vn -0.08570923924288035 -0.29882212361109367 -0.950452137011098
vn 0.611465601726875 -0.29882211782455137 -0.7326767089266866
vn -0.32878387326758973 -0.2988221317661728 -0.8958830829108682
vn 0.7802610968127661 -0.29882211168871464 -0.5494524241155336
vn -0.5494524241155336 -0.2988221116887215 -0.7802610968127637
vn 0.8958830829108708 -0.2988221317661651 -0.32878387326758995
vn -0.7326767089266865 -0.29882211782455687 -0.6114656017268725
vn 0.9504521370111005 -0.2988221236110857 -0.08570923924288049
vn -0.8659703205613133 -0.29882211787384133 -0.40099968301275335
vn 0.9402494543198094 -0.2988221161289684 0.16320633126048134
vn -0.9402494543198068 -0.2988221161289781 -0.16320633126047895
vn 0.8659703205613157 -0.2988221178738304 0.4009996830127556
vn -0.9504521370110979 -0.29882212361109334 0.08570923924288287
vn 0.7326767089266891 -0.2988221178245455 0.6114656017268749
vn -0.895883082910868 -0.2988221317661705 0.32878387326759223
vn 0.5494524241155362 -0.29882211168871037 0.780261096812766
vn -0.7802610968127635 -0.2988221116887172 0.549452424115536
vn 0.32878387326759245 -0.2988221317661628 0.8958830829108706
vn -0.6114656017268724 -0.298822117824551 0.732676708926689
vn 0.08570923924288301 -0.29882212361108534 0.9504521370111004
vn -0.40099968301275307 -0.2988221178738342 0.8659703205613156
vn -0.16320633126047884 -0.29882211612897025 0.9402494543198093
vn -0.4009996830127558 0.2988221178738375 0.8659703205613132
vn -0.16320633126048145 0.29882211612897625 0.9402494543198069
vn 0.08570923924288035 0.29882212361109367 0.950452137011098
vn -0.611465601726875 0.29882211782455137 0.7326767089266866
vn 0.32878387326758973 0.2988221317661728 0.8958830829108682
vn -0.7802610968127661 0.29882211168871464 0.5494524241155336
vn 0.5494524241155336 0.2988221116887215 0.7802610968127637
vn -0.8958830829108708 0.2988221317661651 0.32878387326758995
vn 0.7326767089266865 0.29882211782455687 0.6114656017268725
vn -0.9504521370111005 0.2988221236110857 0.08570923924288049
vn 0.8659703205613133 0.29882211787384133 0.40099968301275335
vn -0.9402494543198094 0.2988221161289684 -0.16320633126048134
vn 0.9402494543198068 0.2988221161289781 0.16320633126047895
vn -0.8659703205613157 0.2988221178738304 -0.4009996830127556
vn 0.9504521370110979 0.29882212361109334 -0.08570923924288287
vn -0.7326767089266891 0.2988221178245455 -0.6114656017268749
vn 0.895883082910868 0.2988221317661705 -0.32878387326759223
vn -0.5494524241155362 0.29882211168871037 -0.780261096812766
vn 0.7802610968127635 0.2988221116887172 -0.549452424115536
vn -0.32878387326759245 0.2988221317661628 -0.8958830829108706
vn 0.6114656017268724 0.298822117824551 -0.732676708926689
vn -0.08570923924288301 0.29882212361108534 -0.9504521370111004
vn 0.40099968301275307 0.2988221178738342 -0.8659703205613156
vn 0.16320633126047884 0.29882211612897025 -0.9402494543198093
usemtl material_0_0
f 1//1 2//2 3//1
f 2//2 1//1 4//2
f 9//3 3//1 10//3
f 3//1 9//3 1//1
f 4//2 13//4 2//2
f 13//4 4//2 14//4
f 17//5 10//3 18//5
f 10//3 17//5 9//3
f 21//6 13//4 14//4
f 13//4 21//6 22//6
f 25//7 18//5 26//7
f 18//5 25//7 17//5
f 29//8 22//6 21//6
f 22//6 29//8 30//8
f 33//9 26//7 34//9
f 26//7 33//9 25//7
f 37//10 30//8 29//8
f 30//8 37//10 38//10
f 34//9 41//11 33//9
f 41//11 34//9 42//11
f 45//12 38//10 37//10
f 38//10 45//12 46//12
f 42//11 49//13 41//11
f 49//13 42//11 50//13
f 45//12 53//14 46//12
f 53//14 45//12 54//14
f 50//13 57//15 49//13
f 57//15 50//13 58//15
f 54//14 61//16 53//14
f 61//16 54//14 62//16
f 65//17 57//15 58//15
f 57//15 65//17 66//17
f 62//16 69//18 61//16
f 69//18 62//16 70//18
f 73//19 66//17 65//17
f 66//17 73//19 74//19
f 70//18 77//20 69//18
f 77//20 70//18 78//20
f 81//21 74//19 73//19
f 74//19 81//21 82//21
f 78//20 85//22 77//20
f 85//22 78//20 86//22
f 89//23 81//21 90//23
f 81//21 89//23 82//21
f 86//22 93//24 85//22
f 93//24 86//22 94//24
f 94//24 90//23 93//24
f 90//23 94//24 89//23
usemtl material_1_0
f 5//25 6//26 7//25
f 8//26 7//25 6//26
f 6//26 11//27 8//26
f 12//27 8//26 11//27
f 15//28 5//25 16//28
f 7//25 16//28 5//25
f 11//27 19//29 12//27
f 20//29 12//27 19//29
f 23//30 24//30 16//28
f 15//28 16//28 24//30
f 19//29 27//31 20//29
f 28//31 20//29 27//31
f 31//32 32//32 23//30
f 24//30 23//30 32//32
f 27//31 35//33 28//31
f 36//33 28//31 35//33
f 39//34 40//34 31//32
f 32//32 31//32 40//34
f 43//35 36//33 44//35
f 35//33 44//35 36//33
f 47//36 48//36 39//34
f 40//34 39//34 48//36
f 51//37 43//35 52//37
f 44//35 52//37 43//35
f 55//38 48//36 56//38
f 47//36 56//38 48//36
f 59//39 51//37 60//39
f 52//37 60//39 51//37
f 63//40 55//38 64//40
f 56//38 64//40 55//38
f 67//41 68//41 60//39
f 59//39 60//39 68//41
f 71//42 63//40 72//42
f 64//40 72//42 63//40
f 75//43 76//43 67//41
f 68//41 67//41 76//43
f 79//44 71//42 80//44
f 72//42 80//44 71//42
f 83//45 84//45 75//43
f 76//43 75//43 84//45
f 87//46 79//44 88//46
f 80//44 88//46 79//44
f 83//45 91//47 84//45
f 92//47 84//45 91//47
f 95//48 87//46 96//48
f 88//46 96//48 87//46
f 91//47 95//48 92//47
f 96//48 92//47 95//48
