# SSTK version 0.8.0
# 8
mtllib original-8.mtl
o #ID57
v -0.815277 0.210788 -0.106093
v -0.813463 0.189477 0.113319
v -0.813463 0.189477 -0.089689
v -0.813463 0.189477 -0.089689
v -0.813463 0.189477 0.113319
v -0.815277 0.210788 -0.106093
v -0.815277 0.210788 0.129723
v -0.815277 0.210788 0.129723
v -0.812531 0.237294 0.077703
v -0.812531 0.237294 0.077703
v -0.812531 0.237294 -0.054073
v -0.812531 0.237294 -0.054073
v -0.813388 0.229338 0.111353
v -0.813388 0.229338 0.111353
v -0.813388 0.229338 -0.087723
v -0.813388 0.229338 -0.087723
v -0.811008 0.271337 0.011815
v -0.811008 0.271337 0.011815
v -0.813388 0.229338 0.146127
v -0.813388 0.229338 0.146127
v -0.816259 0.235521 0.115405
v -0.816259 0.235521 0.115405
v -0.813388 0.229338 -0.122496
v -0.813388 0.229338 -0.122496
v -0.816259 0.235521 -0.091775
v -0.816259 0.235521 -0.091775
v -0.812321 0.271337 0.067954
v -0.812321 0.271337 0.067954
v -0.812321 0.271337 -0.044324
v -0.812321 0.271337 -0.044324
v -0.816259 0.244475 0.093851
v -0.816259 0.244475 0.093851
v -0.816259 0.244475 -0.070221
v -0.816259 0.244475 -0.070221
v -0.816259 0.271337 0.086667
v -0.816259 0.271337 0.086667
v -0.809342 0.300165 0.079289
v -0.809342 0.300165 0.079289
v -0.816259 0.271337 -0.063037
v -0.816259 0.271337 -0.063037
v -0.809342 0.300165 -0.055659
v -0.809342 0.300165 -0.055659
v -0.816259 0.235521 0.151594
v -0.816259 0.235521 0.151594
v -0.816259 0.235521 -0.127964
v -0.816259 0.235521 -0.127964
v -0.807092 0.296236 0.011815
v -0.807092 0.296236 0.011815
v -0.816259 0.298198 0.093851
v -0.816259 0.298198 0.093851
v -0.816259 0.298198 -0.070221
v -0.816259 0.298198 -0.070221
vn 0.9988276712617049 -0.04840713861505439 -0.0001790335789052006
vn 0.9963963909531429 0.08481881922988142 8.400440938939727e-9
vn -0.9963963909531429 -0.08481881922988142 -8.400440938939727e-9
vn -0.9988276712617049 0.04840713861505439 0.0001790335789052006
vn 0.9988276654617434 -0.04840725831830989 0.00017902610975837837
vn -0.9988276654617434 0.04840725831830989 -0.00017902610975837837
vn 0.9980772862047395 -0.007959466203111198 0.06146850949831174
vn -0.9980772862047395 0.007959466203111198 -0.06146850949831174
vn 0.9980772876382937 -0.007959445588291588 -0.06146848889076233
vn -0.9980772876382937 0.007959445588291588 0.06146848889076233
vn 0.9911854932342561 0.12789760063709674 0.03454738417359999
vn -0.9911854932342561 -0.12789760063709674 -0.03454738417359999
vn 0.9911854678801884 0.1278977943452995 -0.03454739447106737
vn -0.9911854678801884 -0.1278977943452995 0.03454739447106737
vn 0.9961398472991989 -0.08778043416803398 -1.1906145474591292e-8
vn -0.9961398472991989 0.08778043416803398 1.1906145474591292e-8
vn 0.9582552200808709 0.2859142059915204 -1.2497708925961585e-8
vn -0.9582552200808709 -0.2859142059915204 1.2497708925961585e-8
vn 0.9210114326358894 0.387123415609607 0.04328281461201533
vn -0.9210114326358894 -0.387123415609607 -0.04328281461201533
vn 0.9582552200808709 0.2859142059915204 -1.2497708923369745e-8
vn -0.9582552200808709 -0.2859142059915204 1.2497708923369745e-8
vn 0.9210114362236442 0.38712341333372524 -0.04328275862402727
vn -0.9210114362236442 -0.38712341333372524 0.04328275862402727
vn 0.99362034681931 -0.0586296085515167 0.096338857102261
vn -0.99362034681931 0.0586296085515167 -0.096338857102261
vn 0.993620353293119 -0.05862957145511751 -0.09633881290864332
vn -0.993620353293119 0.05862957145511751 0.09633881290864332
vn 0.9738981277255848 0.17168881137788433 0.1484768967221825
vn -0.9738981277255848 -0.17168881137788433 -0.1484768967221825
vn 0.9738981830400016 0.1716884905199894 -0.1484769049190852
vn -0.9738981830400016 -0.1716884905199894 0.1484769049190852
vn 0.9698318233100284 -0.05353614089114187 0.23782370805626174
vn -0.9698318233100284 0.05353614089114187 -0.23782370805626174
vn 0.9663483511002816 -0.1333753836361553 0.21995879469954224
vn -0.9663483511002816 0.1333753836361553 -0.21995879469954224
vn 0.969831858548063 -0.05353603810739801 -0.23782358749496033
vn -0.969831858548063 0.05353603810739801 0.23782358749496033
vn 0.9663483639889854 -0.13337530464446917 -0.21995878597320515
vn -0.9663483639889854 0.13337530464446917 0.21995878597320515
vn 0.9070016846118595 0.42112699285518185 -1.8408048524913236e-8
vn -0.9070016846118595 -0.42112699285518185 1.8408048524913236e-8
vn 0.9070016464155689 0.4211270751203809 -1.8408052115639474e-8
vn -0.9070016464155689 -0.4211270751203809 1.8408052115639474e-8
vn 0.9878541620481993 -0.1553838940303966 -2.2735202023119072e-8
vn -0.9878541620481993 0.1553838940303966 2.2735202023119072e-8
vn 0.9034330842193237 -0.11077587996104787 0.4141706976076605
vn -0.9034330842193237 0.11077587996104787 -0.4141706976076605
vn 0.903433104235028 -0.11077571862326295 -0.41417069709934884
vn -0.903433104235028 0.11077571862326295 0.41417069709934884
usemtl material_0_0
f 1//1 2//2 3//2
f 4//3 5//3 6//4
f 1//1 7//5 2//2
f 5//3 8//6 6//4
f 1//1 9//7 7//5
f 8//6 10//8 6//4
f 1//1 11//9 9//7
f 10//8 12//10 6//4
f 9//7 13//11 7//5
f 8//6 14//12 10//8
f 1//1 15//13 11//9
f 12//10 16//14 6//4
f 11//9 17//15 9//7
f 10//8 18//16 12//10
f 13//11 19//17 7//5
f 8//6 20//18 14//12
f 9//7 21//19 13//11
f 14//12 22//20 10//8
f 23//21 15//13 1//1
f 6//4 16//14 24//22
f 25//23 11//9 15//13
f 16//14 12//10 26//24
f 17//15 27//25 9//7
f 10//8 28//26 18//16
f 11//9 29//27 17//15
f 18//16 30//28 12//10
f 13//11 21//19 19//17
f 20//18 22//20 14//12
f 9//7 31//29 21//19
f 22//20 32//30 10//8
f 23//21 25//23 15//13
f 16//14 26//24 24//22
f 25//23 33//31 11//9
f 12//10 34//32 26//24
f 27//25 35//33 9//7
f 10//8 36//34 28//26
f 17//15 37//35 27//25
f 28//26 38//36 18//16
f 39//37 29//27 11//9
f 12//10 30//28 40//38
f 41//39 17//15 29//27
f 30//28 18//16 42//40
f 21//19 43//41 19//17
f 20//18 44//42 22//20
f 9//7 35//33 31//29
f 32//30 36//34 10//8
f 45//43 25//23 23//21
f 24//22 26//24 46//44
f 33//31 39//37 11//9
f 12//10 40//38 34//32
f 27//25 37//35 35//33
f 36//34 38//36 28//26
f 17//15 47//45 37//35
f 38//36 48//46 18//16
f 39//37 41//39 29//27
f 30//28 42//40 40//38
f 41//39 47//45 17//15
f 18//16 48//46 42//40
f 37//35 49//47 35//33
f 36//34 50//48 38//36
f 51//49 41//39 39//37
f 40//38 42//40 52//50
