# SSTK version 0.8.0
# 30
mtllib original-30.mtl
o #ID189
v -0.865307 0.273292 -0.063037
v -0.816259 0.271337 -0.063037
v -0.845787 0.244475 -0.070221
v -0.845787 0.244475 -0.070221
v -0.816259 0.271337 -0.063037
v -0.865307 0.273292 -0.063037
v -0.816259 0.244475 -0.070221
v -0.816259 0.244475 -0.070221
v -0.865307 0.247408 -0.070221
v -0.865307 0.247408 -0.070221
v -0.875314 0.279159 -0.063037
v -0.875314 0.279159 -0.063037
v -0.875314 0.256208 -0.070221
v -0.875314 0.256208 -0.070221
vn 0.09847630998858294 0.2610914579946422 -0.9602779113013401
vn 0.004881894810516483 0.2533671478813652 -0.967357873528469
vn 0.015936789471742034 0.25617634926149585 -0.9664986791612213
vn -0.015936789471742034 -0.25617634926149585 0.9664986791612213
vn -0.004881894810516483 -0.2533671478813652 0.967357873528469
vn -0.09847630998858294 -0.2610914579946422 0.9602779113013401
vn 0 0.25838196431568977 -0.9660428357564512
vn 0 -0.25838196431568977 0.9660428357564512
vn 0.10173339462797393 0.2728842437737338 -0.9566527614121575
vn -0.10173339462797393 -0.2728842437737338 0.9566527614121575
vn 0.183764207715879 0.2716836701141931 -0.9446791515407956
vn -0.183764207715879 -0.2716836701141931 0.9446791515407956
vn 0.2540781026798864 0.2889434627013717 -0.9230146223656102
vn -0.2540781026798864 -0.2889434627013717 0.9230146223656102
usemtl material_0_0
f 1//1 2//2 3//3
f 4//4 5//5 6//6
f 2//2 7//7 3//3
f 4//4 8//8 5//5
f 1//1 3//3 9//9
f 10//10 4//4 6//6
f 11//11 1//1 9//9
f 10//10 6//6 12//12
f 11//11 9//9 13//13
f 14//14 10//10 12//12
