# SSTK version 0.8.0
# 33
mtllib original-33.mtl
o #ID207
v 0.947590 0.286981 0.011815
v 0.936642 0.268430 0.075139
v 0.947590 0.285025 0.075139
v 0.947590 0.285025 0.075139
v 0.936642 0.268430 0.075139
v 0.947590 0.286981 0.011815
v 0.936642 0.271852 0.011815
v 0.936642 0.271852 0.011815
v 0.947590 0.279159 0.115405
v 0.947590 0.279159 0.115405
v 0.936642 0.268430 -0.051508
v 0.936642 0.268430 -0.051508
v 0.936642 0.258164 0.115405
v 0.936642 0.258164 0.115405
v 0.947590 0.285025 -0.051508
v 0.947590 0.285025 -0.051508
v 0.936642 0.247897 0.138821
v 0.936642 0.247897 0.138821
v 0.947590 0.279159 -0.091774
v 0.947590 0.279159 -0.091774
v 0.947590 0.271337 0.151595
v 0.947590 0.271337 0.151595
v 0.936642 0.258164 -0.091774
v 0.936642 0.258164 -0.091774
v 0.936642 0.244475 0.151595
v 0.936642 0.244475 0.151595
v 0.936642 0.247897 -0.115191
v 0.936642 0.247897 -0.115191
v 0.947590 0.271337 -0.127964
v 0.947590 0.271337 -0.127964
v 0.936642 0.244475 -0.127964
v 0.936642 0.244475 -0.127964
vn -0.8150435329064281 0.5793997233925872 4.265266229694764e-8
vn -0.8407590838626807 0.5382269922316051 0.058616275348280525
vn -0.8337973713202517 0.55006648313396 0.04699795433925836
vn 0.8337973713202517 -0.55006648313396 -0.04699795433925836
vn 0.8407590838626807 -0.5382269922316051 -0.058616275348280525
vn 0.8150435329064281 -0.5793997233925872 -4.265266229694764e-8
vn -0.8101226815034993 0.5862603866146648 5.744092849248168e-8
vn 0.8101226815034993 -0.5862603866146648 -5.744092849248168e-8
vn -0.8825814081283587 0.45459470943092745 0.11997378123396024
vn 0.8825814081283587 -0.45459470943092745 -0.11997378123396024
vn -0.8407587681872197 0.53822747707225 -0.05861635130873904
vn 0.8407587681872197 -0.53822747707225 0.05861635130873904
vn -0.8744929729238399 0.4560105931054177 0.1652766749498231
vn 0.8744929729238399 -0.4560105931054177 -0.1652766749498231
vn -0.8337970956442359 0.5500668950720959 -0.04699802379867358
vn 0.8337970956442359 -0.5500668950720959 0.04699802379867358
vn -0.9120405731515783 0.39413829334997796 0.11330047943635356
vn 0.9120405731515783 -0.39413829334997796 -0.11330047943635356
vn -0.8825812034315244 0.4545950965232677 -0.1199738203374508
vn 0.8825812034315244 -0.4545950965232677 0.1199738203374508
vn -0.9200136059170673 0.3819634062870032 0.0876294538674354
vn 0.9200136059170673 -0.3819634062870032 -0.0876294538674354
vn -0.8744926106452819 0.45601119832658304 -0.16527692194481736
vn 0.8744926106452819 -0.45601119832658304 0.16527692194481736
vn -0.9213409645201138 0.3755121899370119 0.10060527971163241
vn 0.9213409645201138 -0.3755121899370119 -0.10060527971163241
vn -0.9120404794926561 0.3941385861852341 -0.11330021468077855
vn 0.9120404794926561 -0.3941385861852341 0.11330021468077855
vn -0.9200136038301576 0.3819634977597834 -0.08762907706097071
vn 0.9200136038301576 -0.3819634977597834 0.08762907706097071
vn -0.9213409450960794 0.3755124139823136 -0.10060462133837832
vn 0.9213409450960794 -0.3755124139823136 0.10060462133837832
usemtl material_0_0
f 1//1 2//2 3//3
f 4//4 5//5 6//6
f 7//7 2//2 1//1
f 6//6 5//5 8//8
f 2//2 9//9 3//3
f 4//4 10//10 5//5
f 11//11 7//7 1//1
f 6//6 8//8 12//12
f 2//2 13//13 9//9
f 10//10 14//14 5//5
f 11//11 1//1 15//15
f 16//16 6//6 12//12
f 13//13 17//17 9//9
f 10//10 18//18 14//14
f 19//19 11//11 15//15
f 16//16 12//12 20//20
f 9//9 17//17 21//21
f 22//22 18//18 10//10
f 23//23 11//11 19//19
f 20//20 12//12 24//24
f 17//17 25//25 21//21
f 22//22 26//26 18//18
f 27//27 23//23 19//19
f 20//20 24//24 28//28
f 29//29 27//27 19//19
f 20//20 28//28 30//30
f 31//31 27//27 29//29
f 30//30 28//28 32//32
