# SSTK version 0.8.0
# 13
mtllib original-13.mtl
o #ID87
v -0.886732 0.303611 -0.055659
v -0.879253 0.285025 -0.044324
v -0.880565 0.286981 0.011815
v -0.880565 0.286981 0.011815
v -0.879253 0.285025 -0.044324
v -0.886732 0.303611 -0.055659
v -0.891513 0.302109 0.011815
v -0.891513 0.302109 0.011815
v -0.875314 0.279159 -0.063037
v -0.875314 0.279159 -0.063037
v -0.886732 0.303611 0.079289
v -0.886732 0.303611 0.079289
v -0.875314 0.300153 -0.070221
v -0.875314 0.300153 -0.070221
v -0.879253 0.285025 0.067954
v -0.879253 0.285025 0.067954
v -0.875314 0.279159 0.086667
v -0.875314 0.279159 0.086667
v -0.875314 0.300153 0.093851
v -0.875314 0.300153 0.093851
vn -0.9043432407061183 -0.3615046261895211 -0.22688699441072133
vn -0.9204735146259104 -0.3895436075610454 -0.03137334347101391
vn -0.8350176920310484 -0.5502230947489742 -5.193384998049945e-8
vn 0.8350176920310484 0.5502230947489742 5.193384998049945e-8
vn 0.9204735146259104 0.3895436075610454 0.03137334347101391
vn 0.9043432407061183 0.3615046261895211 0.22688699441072133
vn -0.810121216063404 -0.5862624116246462 -7.292195382709172e-8
vn 0.810121216063404 0.5862624116246462 7.292195382709172e-8
vn -0.8959016750525298 -0.32787230397320893 -0.2997664773208821
vn 0.8959016750525298 0.32787230397320893 0.2997664773208821
vn -0.904343112238376 -0.36150499497466376 0.22688691887232337
vn 0.904343112238376 0.36150499497466376 -0.22688691887232337
vn -0.7937084681971383 -0.1969475172659335 -0.5755332683302824
vn 0.7937084681971383 0.1969475172659335 0.5755332683302824
vn -0.9204733573710776 -0.3895439805880841 0.03137332557455168
vn 0.9204733573710776 0.3895439805880841 -0.03137332557455168
vn -0.8959015206018964 -0.32787259443644784 0.2997666212251162
vn 0.8959015206018964 0.32787259443644784 -0.2997666212251162
vn -0.7937084143473873 -0.19694787840274808 0.5755332190124325
vn 0.7937084143473873 0.19694787840274808 -0.5755332190124325
usemtl material_0_0
f 1//1 2//2 3//3
f 4//4 5//5 6//6
f 1//1 3//3 7//7
f 8//8 4//4 6//6
f 9//9 2//2 1//1
f 6//6 5//5 10//10
f 3//3 11//11 7//7
f 8//8 12//12 4//4
f 13//13 9//9 1//1
f 6//6 10//10 14//14
f 3//3 15//15 11//11
f 12//12 16//16 4//4
f 15//15 17//17 11//11
f 12//12 18//18 16//16
f 11//11 17//17 19//19
f 20//20 18//18 12//12
