# SSTK version 0.8.0
# 11
mtllib original-11.mtl
o #ID75
v 0.903798 0.266809 0.011815
v 0.870954 0.271852 0.011815
v 0.866173 0.265656 0.079289
v 0.866173 0.265656 0.079289
v 0.870954 0.271852 0.011815
v 0.903798 0.266809 0.011815
v 0.903798 0.262898 0.075139
v 0.903798 0.262898 0.075139
v 0.866173 0.265656 -0.055658
v 0.866173 0.265656 -0.055658
v 0.903798 0.251165 0.115405
v 0.903798 0.251165 0.115405
v 0.936642 0.268430 0.075139
v 0.936642 0.268430 0.075139
v 0.903798 0.262898 -0.051508
v 0.903798 0.262898 -0.051508
v 0.869641 0.238943 0.138821
v 0.869641 0.238943 0.138821
v 0.936642 0.271852 0.011815
v 0.936642 0.271852 0.011815
v 0.903798 0.251165 -0.091774
v 0.903798 0.251165 -0.091774
v 0.936642 0.268430 -0.051508
v 0.936642 0.268430 -0.051508
v 0.854755 0.243343 0.115405
v 0.854755 0.243343 0.115405
v 0.903798 0.239432 0.138821
v 0.903798 0.239432 0.138821
v 0.936642 0.258164 0.115405
v 0.936642 0.258164 0.115405
v 0.869641 0.238944 -0.115191
v 0.869641 0.238944 -0.115191
v 0.854755 0.256208 0.093852
v 0.854755 0.256208 0.093852
v 0.844748 0.236010 0.138821
v 0.844748 0.236010 0.138821
v 0.936642 0.247897 0.138821
v 0.936642 0.247897 0.138821
v 0.903798 0.235521 0.151595
v 0.903798 0.235521 0.151595
v 0.854755 0.243343 -0.091774
v 0.854755 0.243343 -0.091774
v 0.903798 0.239432 -0.115191
v 0.903798 0.239432 -0.115191
v 0.936642 0.258164 -0.091774
v 0.936642 0.258164 -0.091774
v 0.844748 0.247408 0.093852
v 0.844748 0.247408 0.093852
v 0.854755 0.235521 0.151595
v 0.854755 0.235521 0.151595
v 0.844748 0.237477 0.115405
v 0.844748 0.237477 0.115405
v 0.854755 0.256208 -0.070221
v 0.854755 0.256208 -0.070221
v 0.844748 0.236010 -0.115191
v 0.844748 0.236010 -0.115191
v 0.936642 0.247897 -0.115191
v 0.936642 0.247897 -0.115191
v 0.903798 0.235521 -0.127964
v 0.903798 0.235521 -0.127964
v 0.795700 0.235521 0.151595
v 0.795700 0.235521 0.151595
v 0.825228 0.235521 0.115405
v 0.825228 0.235521 0.115405
v 0.936642 0.244475 0.151595
v 0.936642 0.244475 0.151595
v 0.844748 0.247408 -0.070221
v 0.844748 0.247408 -0.070221
v 0.854755 0.235521 -0.127964
v 0.854755 0.235521 -0.127964
v 0.844748 0.237477 -0.091774
v 0.844748 0.237477 -0.091774
v 0.795700 0.235521 -0.127964
v 0.795700 0.235521 -0.127964
v 0.825228 0.235521 -0.091774
v 0.825228 0.235521 -0.091774
v 0.936642 0.244475 -0.127964
v 0.936642 0.244475 -0.127964
v 0.825228 0.244475 0.093852
v 0.825228 0.244475 0.093852
v 0.795700 0.235521 0.115405
v 0.795700 0.235521 0.115405
v 0.825228 0.244475 -0.070221
v 0.825228 0.244475 -0.070221
v 0.795700 0.235521 -0.091774
v 0.795700 0.235521 -0.091774
v 0.795700 0.244475 0.093852
v 0.795700 0.244475 0.093852
v 0.795700 0.244475 -0.070221
v 0.795700 0.244475 -0.070221
vn -0.014091930053890101 0.9999007038238066 1.1076144548961216e-7
vn 0.1517595074010802 0.9884174482036213 1.5185550353946616e-7
vn 0.014938800156927928 0.9643556216782935 0.2641875606218871
vn -0.014938800156927928 -0.9643556216782935 -0.2641875606218871
vn -0.1517595074010802 -0.9884174482036213 -1.5185550353946616e-7
vn 0.014091930053890101 -0.9999007038238066 -1.1076144548961216e-7
vn -0.037379598563763564 0.9848571695587344 0.16929005044588497
vn 0.037379598563763564 -0.9848571695587344 -0.16929005044588497
vn 0.014939210460105039 0.9643556181526852 -0.26418755028990465
vn -0.014939210460105039 -0.9643556181526852 0.26418755028990465
vn -0.1001883045255485 0.9240695578640045 0.36886007626919914
vn 0.1001883045255485 -0.9240695578640045 -0.36886007626919914
vn -0.17050640446786391 0.9724038324411164 0.15924306166759758
vn 0.17050640446786391 -0.9724038324411164 -0.15924306166759758
vn -0.03737944068571478 0.9848572106670189 -0.1692898461550544
vn 0.03737944068571478 -0.9848572106670189 0.1692898461550544
vn -0.0740413205438357 0.9499624202422567 0.3034621607047559
vn 0.0740413205438357 -0.9499624202422567 -0.3034621607047559
vn -0.15176009358246115 0.9884173582024103 1.0362809175154251e-7
vn 0.15176009358246115 -0.9884173582024103 -1.0362809175154251e-7
vn -0.10018819627122544 0.9240695494848621 -0.36886012666424434
vn 0.10018819627122544 -0.9240695494848621 0.36886012666424434
vn -0.17050649041089702 0.972403838352315 -0.15924293354947855
vn 0.17050649041089702 -0.972403838352315 0.15924293354947855
vn -0.3937286895496201 0.8598891913791393 0.32491275378918094
vn 0.3937286895496201 -0.8598891913791393 -0.32491275378918094
vn -0.12325020371073103 0.9221070437946448 0.36678057073618875
vn 0.12325020371073103 -0.9221070437946448 -0.36678057073618875
vn -0.19773960016780595 0.9280148145886786 0.3157333597031154
vn 0.19773960016780595 -0.9280148145886786 -0.3157333597031154
vn -0.07404121280766977 0.9499626227582015 -0.303461553031563
vn 0.07404121280766977 -0.9499626227582015 0.303461553031563
vn -0.2426860056633149 0.8330026411723347 0.49720227519099347
vn 0.2426860056633149 -0.8330026411723347 -0.49720227519099347
vn -0.08787942602523625 0.9923691588960329 0.0864908027102006
vn 0.08787942602523625 -0.9923691588960329 -0.0864908027102006
vn -0.2277907043903085 0.912258832463197 0.3404338666852229
vn 0.2277907043903085 -0.912258832463197 -0.3404338666852229
vn -0.1246814990834284 0.9511306053563299 0.2824979563480253
vn 0.1246814990834284 -0.9511306053563299 -0.2824979563480253
vn -0.3937280892648132 0.8598893623522983 -0.3249130287280541
vn 0.3937280892648132 -0.8598893623522983 0.3249130287280541
vn -0.12325009825827286 0.9221072709366364 -0.36678003512338947
vn 0.12325009825827286 -0.9221072709366364 0.36678003512338947
vn -0.19773950407789803 0.9280148053369067 -0.31573344707605844
vn 0.19773950407789803 -0.9280148053369067 0.31573344707605844
vn -0.3776831935495604 0.8297761037886653 0.41088565671182453
vn 0.3776831935495604 -0.8297761037886653 -0.41088565671182453
vn -0.05625480789428148 0.9894824687871389 0.13326605175995113
vn 0.05625480789428148 -0.9894824687871389 -0.13326605175995113
vn -0.2958747008942238 0.9272183128392545 0.22961786016396915
vn 0.2958747008942238 -0.9272183128392545 -0.22961786016396915
vn -0.24268491011721763 0.8330026129933635 -0.49720285713944423
vn 0.24268491011721763 -0.8330026129933635 0.49720285713944423
vn -0.0878793001455052 0.9923691978624849 -0.08649048352104807
vn 0.0878793001455052 -0.9923691978624849 0.08649048352104807
vn -0.22779068857764254 0.9122590393747816 -0.34043332280539745
vn 0.22779068857764254 -0.9122590393747816 0.34043332280539745
vn -0.12468149614469745 0.9511310582415644 -0.2824964328401359
vn 0.12468149614469745 -0.9511310582415644 0.2824964328401359
vn -0.005089431191748038 0.999984937764978 0.0020547343666781808
vn 0.005089431191748038 -0.999984937764978 -0.0020547343666781808
vn -0.045027200554013595 0.977631021009301 0.2054510597942492
vn 0.045027200554013595 -0.977631021009301 -0.2054510597942492
vn -0.2546491914970066 0.9340906797488379 0.2502566508132695
vn 0.2546491914970066 -0.9340906797488379 -0.2502566508132695
vn -0.3776828040519609 0.8297760909418309 -0.41088604067885154
vn 0.3776828040519609 -0.8297760909418309 0.41088604067885154
vn -0.05625469760530879 0.9894826520537893 -0.13326473757875834
vn 0.05625469760530879 -0.9894826520537893 0.13326473757875834
vn -0.29587409880995613 0.9272183862336698 -0.22961833960645509
vn 0.29587409880995613 -0.9272183862336698 0.22961833960645509
vn -0.005089277196337526 0.9999849384882684 -0.0020547637900054758
vn 0.005089277196337526 -0.9999849384882684 0.0020547637900054758
vn -0.04502699910932796 0.9776309716810695 -0.205451338669614
vn 0.04502699910932796 -0.9776309716810695 0.205451338669614
vn -0.254649298202851 0.934091082468796 -0.2502550390642878
vn 0.254649298202851 -0.934091082468796 0.2502550390642878
vn -0.07011868860317949 0.9212109983767683 0.38269265210903636
vn 0.07011868860317949 -0.9212109983767683 -0.38269265210903636
vn 0 0.9806844696399136 0.19559644937237833
vn 0 -0.9806844696399136 -0.19559644937237833
vn -0.07011843097412442 0.921210896069934 -0.38269294558399736
vn 0.07011843097412442 -0.921210896069934 0.38269294558399736
vn 0 0.9806844295326669 -0.1955966504625984
vn 0 -0.9806844295326669 0.1955966504625984
vn 0 0.9234840309458868 0.38363686552250964
vn 0 -0.9234840309458868 -0.38363686552250964
vn 0 0.9234838764047276 -0.3836372375311054
vn 0 -0.9234838764047276 0.3836372375311054
usemtl material_0_0
f 1//1 2//2 3//3
f 4//4 5//5 6//6
f 1//1 3//3 7//7
f 8//8 4//4 6//6
f 1//1 9//9 2//2
f 5//5 10//10 6//6
f 7//7 3//3 11//11
f 12//12 4//4 8//8
f 13//13 1//1 7//7
f 8//8 6//6 14//14
f 15//15 9//9 1//1
f 6//6 10//10 16//16
f 11//11 3//3 17//17
f 18//18 4//4 12//12
f 13//13 7//7 11//11
f 12//12 8//8 14//14
f 19//19 1//1 13//13
f 14//14 6//6 20//20
f 21//21 9//9 15//15
f 16//16 10//10 22//22
f 23//23 15//15 1//1
f 6//6 16//16 24//24
f 17//17 3//3 25//25
f 26//26 4//4 18//18
f 11//11 17//17 27//27
f 28//28 18//18 12//12
f 13//13 11//11 29//29
f 30//30 12//12 14//14
f 23//23 1//1 19//19
f 20//20 6//6 24//24
f 21//21 31//31 9//9
f 10//10 32//32 22//22
f 23//23 21//21 15//15
f 16//16 22//22 24//24
f 3//3 33//33 25//25
f 26//26 34//34 4//4
f 17//17 25//25 35//35
f 36//36 26//26 18//18
f 37//37 11//11 27//27
f 28//28 12//12 38//38
f 27//27 17//17 39//39
f 40//40 18//18 28//28
f 29//29 11//11 37//37
f 38//38 12//12 30//30
f 31//31 41//41 9//9
f 10//10 42//42 32//32
f 43//43 31//31 21//21
f 22//22 32//32 44//44
f 45//45 21//21 23//23
f 24//24 22//22 46//46
f 33//33 47//47 25//25
f 26//26 48//48 34//34
f 17//17 35//35 49//49
f 50//50 36//36 18//18
f 25//25 51//51 35//35
f 36//36 52//52 26//26
f 37//37 27//27 39//39
f 40//40 28//28 38//38
f 39//39 17//17 49//49
f 50//50 18//18 40//40
f 9//9 41//41 53//53
f 54//54 42//42 10//10
f 31//31 55//55 41//41
f 42//42 56//56 32//32
f 57//57 43//43 21//21
f 22//22 44//44 58//58
f 59//59 31//31 43//43
f 44//44 32//32 60//60
f 57//57 21//21 45//45
f 46//46 22//22 58//58
f 25//25 47//47 51//51
f 52//52 48//48 26//26
f 49//49 35//35 61//61
f 62//62 36//36 50//50
f 51//51 63//63 35//35
f 36//36 64//64 52//52
f 37//37 39//39 65//65
f 66//66 40//40 38//38
f 41//41 67//67 53//53
f 54//54 68//68 42//42
f 31//31 69//69 55//55
f 56//56 70//70 32//32
f 41//41 55//55 71//71
f 72//72 56//56 42//42
f 57//57 59//59 43//43
f 44//44 60//60 58//58
f 59//59 69//69 31//31
f 32//32 70//70 60//60
f 47//47 63//63 51//51
f 52//52 64//64 48//48
f 35//35 63//63 61//61
f 62//62 64//64 36//36
f 41//41 71//71 67//67
f 68//68 72//72 42//42
f 69//69 73//73 55//55
f 56//56 74//74 70//70
f 55//55 75//75 71//71
f 72//72 76//76 56//56
f 77//77 59//59 57//57
f 58//58 60//60 78//78
f 47//47 79//79 63//63
f 64//64 80//80 48//48
f 63//63 81//81 61//61
f 62//62 82//82 64//64
f 71//71 75//75 67//67
f 68//68 76//76 72//72
f 55//55 73//73 75//75
f 76//76 74//74 56//56
f 79//79 81//81 63//63
f 64//64 82//82 80//80
f 67//67 75//75 83//83
f 84//84 76//76 68//68
f 75//75 73//73 85//85
f 86//86 74//74 76//76
f 79//79 87//87 81//81
f 82//82 88//88 80//80
f 75//75 85//85 83//83
f 84//84 86//86 76//76
f 83//83 85//85 89//89
f 90//90 86//86 84//84
