# SSTK version 0.8.0
# 23
mtllib original-23.mtl
o #ID147
v 0.703571 0.278194 -0.127964
v 0.717434 0.277891 0.025181
v 0.717086 0.201362 0.025181
v 0.717086 0.201362 0.025181
v 0.717434 0.277891 0.025181
v 0.703571 0.278194 -0.127964
v 0.706900 0.278121 0.151595
v 0.706900 0.278121 0.151595
v 0.703209 0.201695 -0.127964
v 0.703209 0.201695 -0.127964
v 0.706551 0.201614 0.151595
v 0.706551 0.201614 0.151595
v 0.701796 0.211292 -0.133553
v 0.701796 0.211292 -0.133553
v 0.706391 0.268568 0.157183
v 0.706391 0.268568 0.157183
v 0.701446 0.239989 -0.135416
v 0.701796 0.211292 -0.133553
v 0.701796 0.211292 -0.133553
v 0.701446 0.239989 -0.135416
v 0.706129 0.211189 0.157183
v 0.706129 0.211189 0.157183
v 0.701446 0.239989 -0.135416
v 0.702068 0.268664 -0.133553
v 0.702068 0.268664 -0.133553
v 0.701446 0.239989 -0.135416
v 0.706129 0.211189 0.157183
v 0.706105 0.239883 0.159046
v 0.706105 0.239883 0.159046
v 0.706129 0.211189 0.157183
vn 0.9911913761436226 -0.004653160673453896 -0.13235559661101817
vn 0.9999832349841056 -0.004555356315622855 -0.003574699925938802
vn 0.9999830895272945 -0.004583481108459874 -0.0035794357621626314
vn -0.9999830895272945 0.004583481108459874 0.0035794357621626314
vn -0.9999832349841056 0.004555356315622855 0.003574699925938802
vn -0.9911913761436226 0.004653160673453896 0.13235559661101817
vn 0.9965345548484619 -0.004547394163495835 0.08305541643565226
vn -0.9965345548484619 0.004547394163495835 -0.08305541643565226
vn 0.9912168073072797 -0.004692924811651759 -0.13216360076917968
vn -0.9912168073072797 0.004692924811651759 0.13216360076917968
vn 0.9965348762458347 -0.004549619261257458 0.08305143821919281
vn -0.9965348762458347 0.004549619261257458 -0.08305143821919281
vn 0.9676082009309822 -0.004581131037823977 -0.252415100042613
vn -0.9676082009309822 0.004581131037823977 0.252415100042613
vn 0.9965339117897679 -0.004549961423030354 0.08306299118158468
vn -0.9965339117897679 0.004549961423030354 -0.08306299118158468
vn 0.9676068988722802 -0.004580679028296151 -0.2524200995055833
vn 0.9676081458249859 -0.004581105250381707 -0.25241531175389853
vn -0.9676081458249859 0.004581105250381707 0.25241531175389853
vn -0.9676068988722802 0.004580679028296151 0.2524200995055833
vn 0.9965359329573843 -0.004547881520663279 0.08303885294505084
vn -0.9965359329573843 0.004547881520663279 -0.08303885294505084
vn 0.967606740176995 -0.004580544223854524 -0.25242071028079804
vn 0.9676030798955206 -0.004577583939166112 -0.2524347945549157
vn -0.9676030798955206 0.004577583939166112 0.2524347945549157
vn -0.967606740176995 0.004580544223854524 0.25242071028079804
vn 0.9965359932295992 -0.004547881339389441 0.08303812963463858
vn 0.9965383958848489 -0.0045478923527678145 0.08300928985601239
vn -0.9965383958848489 0.0045478923527678145 -0.08300928985601239
vn -0.9965359932295992 0.004547881339389441 -0.08303812963463858
usemtl material_0_0
f 1//1 2//2 3//3
f 4//4 5//5 6//6
f 3//3 2//2 7//7
f 8//8 5//5 4//4
f 9//9 1//1 3//3
f 4//4 6//6 10//10
f 3//3 7//7 11//11
f 12//12 8//8 4//4
f 13//13 1//1 9//9
f 10//10 6//6 14//14
f 11//11 7//7 15//15
f 16//16 8//8 12//12
f 17//17 1//1 18//18
f 19//19 6//6 20//20
f 11//11 15//15 21//21
f 22//22 16//16 12//12
f 23//23 24//24 1//1
f 6//6 25//25 26//26
f 27//27 15//15 28//28
f 29//29 16//16 30//30
