# SSTK version 0.8.0
# 25
mtllib original-25.mtl
o #ID159
v -0.713591 0.278424 -0.127964
v -0.727107 0.201614 0.025181
v -0.727455 0.278121 0.025181
v -0.727455 0.278121 0.025181
v -0.727107 0.201614 0.025181
v -0.713591 0.278424 -0.127964
v -0.713229 0.201947 -0.127964
v -0.713229 0.201947 -0.127964
v -0.716922 0.278351 0.151594
v -0.716922 0.278351 0.151594
v -0.711817 0.211541 -0.133553
v -0.711817 0.211541 -0.133553
v -0.716573 0.201867 0.151594
v -0.716573 0.201867 0.151594
v -0.711466 0.240230 -0.135416
v -0.711466 0.240230 -0.135416
v -0.716412 0.268801 0.157183
v -0.716412 0.268801 0.157183
v -0.712088 0.268896 -0.133553
v -0.712088 0.268896 -0.133553
v -0.716151 0.211439 0.157183
v -0.716151 0.211439 0.157183
v -0.716126 0.240124 0.159046
v -0.716126 0.240124 0.159046
vn -0.9911874966636866 -0.004654493771048682 -0.13238459935094218
vn -0.999983093634347 -0.004581251127373601 -0.003581142776950422
vn -0.9999832407849303 -0.004552925342013402 -0.003576173946841738
vn 0.9999832407849303 0.004552925342013402 0.003576173946841738
vn 0.999983093634347 0.004581251127373601 0.003581142776950422
vn 0.9911874966636866 0.004654493771048682 0.13238459935094218
vn -0.9912126744911409 -0.0046928256576405595 -0.13219459639284198
vn 0.9912126744911409 0.0046928256576405595 0.13219459639284198
vn -0.9965352709817684 -0.00454439323757143 0.08304698778038645
vn 0.9965352709817684 0.00454439323757143 -0.08304698778038645
vn -0.9675881127715418 -0.004580598097242982 -0.2524921031325093
vn 0.9675881127715418 0.004580598097242982 0.2524921031325093
vn -0.996534853449335 -0.0045471621572782785 0.08305184631920089
vn 0.996534853449335 0.0045471621572782785 -0.08305184631920089
vn -0.9675706571170264 -0.004574958836947371 -0.25255908860654014
vn 0.9675706571170264 0.004574958836947371 0.25255908860654014
vn -0.9965363370826638 -0.004546962539665328 0.08303405328858006
vn 0.9965363370826638 0.004546962539665328 -0.08303405328858006
vn -0.967590882456357 -0.004591268953064449 -0.252481295221505
vn 0.967590882456357 0.004591268953064449 0.252481295221505
vn -0.9965350967477071 -0.0045482033549744715 0.08304886992776994
vn 0.9965350967477071 0.0045482033549744715 -0.08304886992776994
vn -0.9965293925700198 -0.0045481773329167 0.08311728957909659
vn 0.9965293925700198 0.0045481773329167 -0.08311728957909659
usemtl material_0_0
f 1//1 2//2 3//3
f 4//4 5//5 6//6
f 7//7 2//2 1//1
f 6//6 5//5 8//8
f 2//2 9//9 3//3
f 4//4 10//10 5//5
f 11//11 7//7 1//1
f 6//6 8//8 12//12
f 2//2 13//13 9//9
f 10//10 14//14 5//5
f 15//15 11//11 1//1
f 6//6 12//12 16//16
f 13//13 17//17 9//9
f 10//10 18//18 14//14
f 15//15 1//1 19//19
f 20//20 6//6 16//16
f 13//13 21//21 17//17
f 18//18 22//22 14//14
f 21//21 23//23 17//17
f 18//18 24//24 22//22
