# SSTK version 0.8.0
# 9
mtllib original-9.mtl
o #ID63
v 0.903798 0.307152 0.011815
v 0.870954 0.302109 0.011815
v 0.866173 0.303611 -0.055658
v 0.866173 0.303611 -0.055658
v 0.870954 0.302109 0.011815
v 0.903798 0.307152 0.011815
v 0.903798 0.307152 -0.091774
v 0.903798 0.307152 -0.091774
v 0.866173 0.303611 0.079289
v 0.866173 0.303611 0.079289
v 0.854755 0.307152 -0.091774
v 0.854755 0.307152 -0.091774
v 0.936642 0.301620 -0.051508
v 0.936642 0.301620 -0.051508
v 0.903798 0.307152 0.115405
v 0.903798 0.307152 0.115405
v 0.854755 0.300153 -0.070221
v 0.854755 0.300153 -0.070221
v 0.903798 0.307152 -0.127964
v 0.903798 0.307152 -0.127964
v 0.936642 0.301620 0.075139
v 0.936642 0.301620 0.075139
v 0.936642 0.298198 -0.127964
v 0.936642 0.298198 -0.127964
v 0.854755 0.307152 0.115405
v 0.854755 0.307152 0.115405
v 0.844748 0.298687 -0.070221
v 0.844748 0.298687 -0.070221
v 0.795700 0.307152 -0.127964
v 0.795700 0.307152 -0.127964
v 0.854755 0.300153 0.093852
v 0.854755 0.300153 0.093852
v 0.903798 0.307152 0.151595
v 0.903798 0.307152 0.151595
v 0.936642 0.298198 0.151595
v 0.936642 0.298198 0.151595
v 0.795700 0.298198 -0.070221
v 0.795700 0.298198 -0.070221
v 0.795700 0.307152 -0.091774
v 0.795700 0.307152 -0.091774
v 0.844748 0.298687 0.093852
v 0.844748 0.298687 0.093852
v 0.795700 0.307152 0.115405
v 0.795700 0.307152 0.115405
v 0.787845 0.305189 -0.127964
v 0.787845 0.305189 -0.127964
v 0.795700 0.307152 0.151595
v 0.795700 0.307152 0.151595
v 0.788783 0.300165 -0.055658
v 0.788783 0.300165 -0.055658
v 0.787845 0.305189 -0.091774
v 0.787845 0.305189 -0.091774
v 0.795700 0.298198 0.093852
v 0.795700 0.298198 0.093852
v 0.787845 0.305189 0.151595
v 0.787845 0.305189 0.151595
v 0.774783 0.299303 -0.091774
v 0.774783 0.299303 -0.091774
v 0.788783 0.300165 0.079289
v 0.788783 0.300165 0.079289
v 0.774783 0.299303 0.115405
v 0.774783 0.299303 0.115405
v 0.760940 0.291653 -0.127964
v 0.760940 0.291653 -0.127964
v 0.760940 0.291653 0.151595
v 0.760940 0.291653 0.151595
v 0.774783 0.299303 0.011815
v 0.774783 0.299303 0.011815
v 0.786533 0.296236 0.011815
v 0.786533 0.296236 0.011815
v 0.750743 0.284400 -0.127964
v 0.750743 0.284400 -0.127964
v 0.742369 0.277347 -0.127964
v 0.742369 0.277347 -0.127964
v 0.742369 0.277347 0.151595
v 0.742369 0.277347 0.151595
v 0.717434 0.277891 0.025181
v 0.717434 0.277891 0.025181
v 0.717434 0.277891 0.025181
v 0.703571 0.278194 -0.127964
v 0.703571 0.278194 -0.127964
v 0.717434 0.277891 0.025181
v 0.706900 0.278121 0.151595
v 0.717434 0.277891 0.025181
v 0.717434 0.277891 0.025181
v 0.706900 0.278121 0.151595
vn -0.016772130636156415 -0.9998593379240442 -1.236157594064813e-7
vn 0.15175999588557532 -0.9884173732026346 -1.1692159296379731e-7
vn 0.13140729362308698 -0.9892945547660159 -0.06346973367650284
vn -0.13140729362308698 0.9892945547660159 0.06346973367650284
vn -0.15175999588557532 0.9884173732026346 1.1692159296379731e-7
vn 0.016772130636156415 0.9998593379240442 1.236157594064813e-7
vn -0.09741632113584184 -0.9952437116095416 -0.00012197549793122819
vn 0.09741632113584184 0.9952437116095416 0.00012197549793122819
vn 0.13140710057961189 -0.9892946015892555 0.06346940352339893
vn -0.13140710057961189 0.9892946015892555 -0.06346940352339893
vn 0.04401847155152351 -0.9912555403764881 -0.12439786105550259
vn -0.04401847155152351 0.9912555403764881 0.12439786105550259
vn -0.17762570766711677 -0.9840503420521259 0.009697024432778584
vn 0.17762570766711677 0.9840503420521259 -0.009697024432778584
vn -0.09741627161257796 -0.9952437164694161 0.00012187390550840183
vn 0.09741627161257796 0.9952437164694161 -0.00012187390550840183
vn 0.39884341025009856 -0.8721943347939766 -0.2831977691532264
vn -0.39884341025009856 0.8721943347939766 0.2831977691532264
vn -0.13268240068837497 -0.9911586051422686 4.332492579366978e-8
vn 0.13268240068837497 0.9911586051422686 -4.332492579366978e-8
vn -0.1776255927969254 -0.9840503605186618 -0.009697254592540627
vn 0.1776255927969254 0.9840503605186618 0.009697254592540627
vn -0.24153700122963434 -0.9701681040286647 0.020826112513424564
vn 0.24153700122963434 0.9701681040286647 -0.020826112513424564
vn 0.04283793821086452 -0.9913872531848358 0.12375873816611241
vn -0.04283793821086452 0.9913872531848358 -0.12375873816611241
vn 0.055743121468697976 -0.9378767396802823 -0.34246156802714345
vn -0.055743121468697976 0.9378767396802823 0.34246156802714345
vn 0.1220992987252285 -0.9925178896376657 4.338434199049069e-8
vn -0.1220992987252285 0.9925178896376657 -4.338434199049069e-8
vn 0.3988441136511622 -0.8721941174734682 0.2831974478177663
vn -0.3988441136511622 0.8721941174734682 -0.2831974478177663
vn -0.13268240068837497 -0.9911586051422686 4.332492576834863e-8
vn 0.13268240068837497 0.9911586051422686 -4.332492576834863e-8
vn -0.24153690661091792 -0.9701681274640523 -0.020826118162613864
vn 0.24153690661091792 0.9701681274640523 0.020826118162613864
vn -0.4842588332705954 -0.808880470150121 -0.33347528755384714
vn 0.4842588332705954 0.808880470150121 0.33347528755384714
vn 0.08257419895181972 -0.9864785936659719 -0.1415679550826084
vn -0.08257419895181972 0.9864785936659719 0.1415679550826084
vn 0.051123388645017274 -0.9362481599914415 0.34760003171186615
vn -0.051123388645017274 0.9362481599914415 -0.34760003171186615
vn 0.13313339660243723 -0.980985868792462 0.1412169392764077
vn -0.13313339660243723 0.980985868792462 -0.1412169392764077
vn 0.34322219732778725 -0.9392319924048899 0.006464341004812195
vn -0.34322219732778725 0.9392319924048899 -0.006464341004812195
vn 0.12209880617930792 -0.9925179502304158 4.338434463561101e-8
vn -0.12209880617930792 0.9925179502304158 -4.338434463561101e-8
vn 0.007821359311660782 -0.9984027422295508 -0.0559534685880245
vn -0.007821359311660782 0.9984027422295508 0.0559534685880245
vn 0.32659881429505455 -0.9426267442829033 -0.06919563182512702
vn -0.32659881429505455 0.9426267442829033 0.06919563182512702
vn -0.48200498891632226 -0.8091274667014112 0.33613082763878194
vn 0.48200498891632226 0.8091274667014112 -0.33613082763878194
vn 0.34346998786144667 -0.939162266879655 -0.0016136628908769172
vn -0.34346998786144667 0.939162266879655 0.0016136628908769172
vn 0.42880640587137536 -0.9030638134365155 -0.024511530861441966
vn -0.42880640587137536 0.9030638134365155 0.024511530861441966
vn 0.008116814978763983 -0.9986269951251525 0.05175173351598161
vn -0.008116814978763983 0.9986269951251525 -0.05175173351598161
vn 0.40635328112284796 -0.9133809564872927 0.02474346877569959
vn -0.40635328112284796 0.9133809564872927 -0.02474346877569959
vn 0.5203350086119988 -0.8539393138600193 0.006255162430406842
vn -0.5203350086119988 0.8539393138600193 -0.006255162430406842
vn 0.5365314984572171 -0.8438566978493597 -0.0063106780956998535
vn -0.5365314984572171 0.8438566978493597 0.0063106780956998535
vn 0.14477890454741646 -0.9894640310784618 -1.0286995101828173e-7
vn -0.14477890454741646 0.9894640310784618 1.0286995101828173e-7
vn -0.2525741133236513 -0.967577551041128 -1.5681224551634856e-7
vn 0.2525741133236513 0.967577551041128 1.5681224551634856e-7
vn 0.6133144157371591 -0.7898366203488276 -0.0018816495234216398
vn -0.6133144157371591 0.7898366203488276 0.0018816495234216398
vn 0.33152479757515807 -0.9434446931802782 -0.001849189747190244
vn -0.33152479757515807 0.9434446931802782 0.001849189747190244
vn 0.31197800772792184 -0.9500893235344117 -2.0269847589161841e-7
vn -0.31197800772792184 0.9500893235344117 2.0269847589161841e-7
vn -0.021812169701647094 -0.9997620863249835 -1.5061940140523915e-7
vn 0.021812169701647094 0.9997620863249835 1.5061940140523915e-7
vn -0.021811260134584228 -0.9997621061689335 -1.043343471891234e-9
vn 0.021811260134584228 0.9997621061689335 1.043343471891234e-9
vn -0.02181152001089243 -0.9997621004992822 -2.788651036047149e-7
vn 0.02181152001089243 0.9997621004992822 2.788651036047149e-7
usemtl material_0_0
f 1//1 2//2 3//3
f 4//4 5//5 6//6
f 1//1 3//3 7//7
f 8//8 4//4 6//6
f 1//1 9//9 2//2
f 5//5 10//10 6//6
f 7//7 3//3 11//11
f 12//12 4//4 8//8
f 13//13 1//1 7//7
f 8//8 6//6 14//14
f 15//15 9//9 1//1
f 6//6 10//10 16//16
f 3//3 17//17 11//11
f 12//12 18//18 4//4
f 7//7 11//11 19//19
f 20//20 12//12 8//8
f 21//21 1//1 13//13
f 14//14 6//6 22//22
f 13//13 7//7 23//23
f 24//24 8//8 14//14
f 15//15 25//25 9//9
f 10//10 26//26 16//16
f 21//21 15//15 1//1
f 6//6 16//16 22//22
f 17//17 27//27 11//11
f 12//12 28//28 18//18
f 23//23 7//7 19//19
f 20//20 8//8 24//24
f 19//19 11//11 29//29
f 30//30 12//12 20//20
f 9//9 25//25 31//31
f 32//32 26//26 10//10
f 33//33 25//25 15//15
f 16//16 26//26 34//34
f 35//35 15//15 21//21
f 22//22 16//16 36//36
f 11//11 27//27 37//37
f 38//38 28//28 12//12
f 11//11 39//39 29//29
f 30//30 40//40 12//12
f 25//25 41//41 31//31
f 32//32 42//42 26//26
f 33//33 43//43 25//25
f 26//26 44//44 34//34
f 35//35 33//33 15//15
f 16//16 34//34 36//36
f 11//11 37//37 39//39
f 40//40 38//38 12//12
f 39//39 45//45 29//29
f 30//30 46//46 40//40
f 25//25 43//43 41//41
f 42//42 44//44 26//26
f 33//33 47//47 43//43
f 44//44 48//48 34//34
f 39//39 37//37 49//49
f 50//50 38//38 40//40
f 39//39 51//51 45//45
f 46//46 52//52 40//40
f 41//41 43//43 53//53
f 54//54 44//44 42//42
f 47//47 55//55 43//43
f 44//44 56//56 48//48
f 39//39 49//49 51//51
f 52//52 50//50 40//40
f 51//51 57//57 45//45
f 46//46 58//58 52//52
f 59//59 53//53 43//43
f 44//44 54//54 60//60
f 43//43 55//55 61//61
f 62//62 56//56 44//44
f 49//49 57//57 51//51
f 52//52 58//58 50//50
f 45//45 57//57 63//63
f 64//64 58//58 46//46
f 43//43 61//61 59//59
f 60//60 62//62 44//44
f 55//55 65//65 61//61
f 62//62 66//66 56//56
f 49//49 67//67 57//57
f 58//58 68//68 50//50
f 67//67 63//63 57//57
f 58//58 64//64 68//68
f 59//59 61//61 67//67
f 68//68 62//62 60//60
f 61//61 65//65 67//67
f 68//68 66//66 62//62
f 49//49 69//69 67//67
f 68//68 70//70 50//50
f 67//67 65//65 63//63
f 64//64 66//66 68//68
f 59//59 67//67 69//69
f 70//70 68//68 60//60
f 65//65 71//71 63//63
f 64//64 72//72 66//66
f 65//65 73//73 71//71
f 72//72 74//74 66//66
f 65//65 75//75 73//73
f 74//74 76//76 66//66
f 75//75 77//77 73//73
f 74//74 78//78 76//76
f 73//73 79//79 80//79
f 81//80 82//80 74//74
f 75//75 83//81 84//81
f 85//82 86//82 76//76
