# SSTK version 0.8.0
# 12
mtllib original-12.mtl
o #ID81
v -0.886732 0.265656 -0.055659
v -0.924357 0.266809 0.011815
v -0.891513 0.271852 0.011815
v -0.891513 0.271852 0.011815
v -0.924357 0.266809 0.011815
v -0.886732 0.265656 -0.055659
v -0.924357 0.262898 -0.051508
v -0.924357 0.262898 -0.051508
v -0.886732 0.265656 0.079289
v -0.886732 0.265656 0.079289
v -0.924357 0.251165 -0.091775
v -0.924357 0.251165 -0.091775
v -0.957201 0.268430 -0.051508
v -0.957201 0.268430 -0.051508
v -0.924357 0.262898 0.075138
v -0.924357 0.262898 0.075138
v -0.890201 0.238944 -0.115191
v -0.890201 0.238944 -0.115191
v -0.957201 0.271852 0.011815
v -0.957201 0.271852 0.011815
v -0.924357 0.251165 0.115405
v -0.924357 0.251165 0.115405
v -0.957201 0.268430 0.075138
v -0.957201 0.268430 0.075138
v -0.875314 0.243343 -0.091775
v -0.875314 0.243343 -0.091775
v -0.924357 0.239432 -0.115191
v -0.924357 0.239432 -0.115191
v -0.957201 0.258164 -0.091775
v -0.957201 0.258164 -0.091775
v -0.890201 0.238943 0.138821
v -0.890201 0.238943 0.138821
v -0.875314 0.256208 -0.070221
v -0.875314 0.256208 -0.070221
v -0.865307 0.236010 -0.115191
v -0.865307 0.236010 -0.115191
v -0.957201 0.247897 -0.115191
v -0.957201 0.247897 -0.115191
v -0.924357 0.235521 -0.127964
v -0.924357 0.235521 -0.127964
v -0.875314 0.243343 0.115405
v -0.875314 0.243343 0.115405
v -0.924357 0.239432 0.138821
v -0.924357 0.239432 0.138821
v -0.957201 0.258164 0.115405
v -0.957201 0.258164 0.115405
v -0.865307 0.247408 -0.070221
v -0.865307 0.247408 -0.070221
v -0.875314 0.235521 -0.127964
v -0.875314 0.235521 -0.127964
v -0.865307 0.237477 -0.091775
v -0.865307 0.237477 -0.091775
v -0.875314 0.256208 0.093851
v -0.875314 0.256208 0.093851
v -0.865307 0.236010 0.138821
v -0.865307 0.236010 0.138821
v -0.957201 0.247897 0.138821
v -0.957201 0.247897 0.138821
v -0.924357 0.235521 0.151594
v -0.924357 0.235521 0.151594
v -0.816259 0.235521 -0.127964
v -0.816259 0.235521 -0.127964
v -0.845787 0.235521 -0.091775
v -0.845787 0.235521 -0.091775
v -0.957201 0.244475 -0.127964
v -0.957201 0.244475 -0.127964
v -0.865307 0.247408 0.093851
v -0.865307 0.247408 0.093851
v -0.875314 0.235521 0.151594
v -0.875314 0.235521 0.151594
v -0.865307 0.237477 0.115405
v -0.865307 0.237477 0.115405
v -0.816259 0.235521 0.151594
v -0.816259 0.235521 0.151594
v -0.845787 0.235521 0.115405
v -0.845787 0.235521 0.115405
v -0.957201 0.244475 0.151594
v -0.957201 0.244475 0.151594
v -0.845787 0.244475 -0.070221
v -0.845787 0.244475 -0.070221
v -0.816259 0.235521 -0.091775
v -0.816259 0.235521 -0.091775
v -0.816259 0.244475 -0.070221
v -0.816259 0.244475 -0.070221
v -0.816259 0.244475 -0.070221
v -0.816259 0.244475 -0.070221
v -0.845787 0.244475 0.093851
v -0.845787 0.244475 0.093851
v -0.816259 0.235521 0.115405
v -0.816259 0.235521 0.115405
v -0.816259 0.244475 0.093851
v -0.816259 0.244475 0.093851
vn -0.014939120480188289 0.9643556194492855 -0.2641875506451114
vn 0.014092649910902512 0.9999006936783659 1.0755434438605304e-7
vn -0.15175900391634672 0.9884175255074605 1.6389709599215143e-7
vn 0.15175900391634672 -0.9884175255074605 -1.6389709599215143e-7
vn -0.014092649910902512 -0.9999006936783659 -1.0755434438605304e-7
vn 0.014939120480188289 -0.9643556194492855 0.2641875506451114
vn 0.03738008977750836 0.9848571867380939 -0.1692898420418449
vn -0.03738008977750836 -0.9848571867380939 0.1692898420418449
vn -0.014938969724321415 0.9643555937521264 0.26418765297144287
vn 0.014938969724321415 -0.9643555937521264 -0.26418765297144287
vn 0.10018899749911944 0.9240694608103297 -0.36886013118501704
vn -0.10018899749911944 -0.9240694608103297 0.36886013118501704
vn 0.17050769139918148 0.972403643988892 -0.15924283447253038
vn -0.17050769139918148 -0.972403643988892 0.15924283447253038
vn 0.03738012845600159 0.9848571667200534 0.16928994995794044
vn -0.03738012845600159 -0.9848571667200534 -0.16928994995794044
vn 0.07404117818536031 0.949962663453098 -0.3034614340868041
vn -0.07404117818536031 -0.949962663453098 0.3034614340868041
vn 0.15176110055172243 0.9884172035933618 9.374670521679657e-8
vn -0.15176110055172243 -0.9884172035933618 -9.374670521679657e-8
vn 0.10018889480733503 0.9240694682300289 0.3688601404900728
vn -0.10018889480733503 -0.9240694682300289 -0.3688601404900728
vn 0.17050750564833247 0.9724036391731543 0.15924306277006123
vn -0.17050750564833247 -0.9724036391731543 -0.15924306277006123
vn 0.39372707500513937 0.8598898312094633 -0.3249130169606289
vn -0.39372707500513937 -0.8598898312094633 0.3249130169606289
vn 0.1232510049928442 0.9221072213217008 -0.3667798551646829
vn -0.1232510049928442 -0.9221072213217008 0.3667798551646829
vn 0.1977410004778601 0.9280144884414867 -0.3157334413278084
vn -0.1977410004778601 -0.9280144884414867 0.3157334413278084
vn 0.0740410221884587 0.9499624413431563 0.3034621674453642
vn -0.0740410221884587 -0.9499624413431563 -0.3034621674453642
vn 0.24268520843178487 0.833002707208189 -0.49720255368637156
vn -0.24268520843178487 -0.833002707208189 0.49720255368637156
vn 0.08787925037962904 0.9923692005063091 -0.0864905037514722
vn -0.08787925037962904 -0.9923692005063091 0.0864905037514722
vn 0.22779229643195056 0.912258670829925 -0.3404332345436871
vn -0.22779229643195056 -0.912258670829925 0.3404332345436871
vn 0.12468240457921274 0.9511310225839044 -0.28249615195050365
vn -0.12468240457921274 -0.9511310225839044 0.28249615195050365
vn 0.39372772193915134 0.8598896621168414 0.3249126805176899
vn -0.39372772193915134 -0.8598896621168414 -0.3249126805176899
vn 0.12325090444228447 0.9221069492676326 0.36678057291314964
vn -0.12325090444228447 -0.9221069492676326 -0.36678057291314964
vn 0.19774090438800734 0.9280145343944297 0.3157333664415322
vn -0.19774090438800734 -0.9280145343944297 -0.3157333664415322
vn 0.37768299073922673 0.8297761616935295 -0.41088572619577174
vn -0.37768299073922673 -0.8297761616935295 0.41088572619577174
vn 0.0562546500125653 0.9894826943958408 -0.13326444328143594
vn -0.0562546500125653 -0.9894826943958408 0.13326444328143594
vn 0.2958742036434233 0.927218401380927 -0.22961814335754954
vn -0.2958742036434233 -0.927218401380927 0.22961814335754954
vn 0.24268579722680295 0.8330027122145919 0.4972022579067041
vn -0.24268579722680295 -0.8330027122145919 -0.4972022579067041
vn 0.08787935671784948 0.9923691667172645 0.0864907833918677
vn -0.08787935671784948 -0.9923691667172645 -0.0864907833918677
vn 0.2277921888982862 0.9122584704208755 0.3404338435324732
vn -0.2277921888982862 -0.9122584704208755 -0.3404338435324732
vn 0.12468219876823412 0.9511306029519155 0.28249765563389034
vn -0.12468219876823412 -0.9511306029519155 -0.28249765563389034
vn 0.00508925719701162 0.9999849386208731 -0.002054748790277369
vn -0.00508925719701162 -0.9999849386208731 0.002054748790277369
vn 0.045027059912767245 0.9776309891254351 -0.20545124233558576
vn -0.045027059912767245 -0.9776309891254351 0.20545124233558576
vn 0.25465100222825 0.9340906972345068 -0.2502547430201893
vn -0.25465100222825 -0.9340906972345068 0.2502547430201893
vn 0.37768331032201924 0.8297761406380146 0.41088547495875655
vn -0.37768331032201924 -0.8297761406380146 -0.41088547495875655
vn 0.05625467058637908 0.9894825161392531 0.13326575813745464
vn -0.05625467058637908 -0.9894825161392531 -0.13326575813745464
vn 0.2958746164422132 0.9272183615638812 0.22961777223021096
vn -0.2958746164422132 -0.9272183615638812 -0.22961777223021096
vn 0.0050894081924579525 0.9999849379046345 0.0020547233669647265
vn -0.0050894081924579525 -0.9999849379046345 -0.0020547233669647265
vn 0.04502707174266516 0.9776310468174203 0.20545096521787273
vn -0.04502707174266516 -0.9776310468174203 -0.20545096521787273
vn 0.2546509018952917 0.9340903178912098 0.25025626103219273
vn -0.2546509018952917 -0.9340903178912098 -0.25025626103219273
vn 0.07011849953733927 0.9212109771935685 -0.38269273774230794
vn -0.07011849953733927 -0.9212109771935685 0.38269273774230794
vn 0 0.9806844525403223 -0.19559653510655098
vn 0 -0.9806844525403223 0.19559653510655098
vn 0 0.923483997407278 -0.38363694625605965
vn 0 -0.923483997407278 0.38363694625605965
vn 0.07011838012733103 0.9212110184008976 0.38269266042752925
vn -0.07011838012733103 -0.9212110184008976 -0.38269266042752925
vn 0 0.9806844696399136 0.19559644937237833
vn 0 -0.9806844696399136 -0.19559644937237833
vn 0 0.9234840309458868 0.38363686552250964
vn 0 -0.9234840309458868 -0.38363686552250964
usemtl material_0_0
f 1//1 2//2 3//3
f 4//4 5//5 6//6
f 1//1 7//7 2//2
f 5//5 8//8 6//6
f 9//9 3//3 2//2
f 5//5 4//4 10//10
f 1//1 11//11 7//7
f 8//8 12//12 6//6
f 7//7 13//13 2//2
f 5//5 14//14 8//8
f 9//9 2//2 15//15
f 16//16 5//5 10//10
f 1//1 17//17 11//11
f 12//12 18//18 6//6
f 11//11 13//13 7//7
f 8//8 14//14 12//12
f 2//2 13//13 19//19
f 20//20 14//14 5//5
f 9//9 15//15 21//21
f 22//22 16//16 10//10
f 2//2 23//23 15//15
f 16//16 24//24 5//5
f 25//25 17//17 1//1
f 6//6 18//18 26//26
f 17//17 27//27 11//11
f 12//12 28//28 18//18
f 11//11 29//29 13//13
f 14//14 30//30 12//12
f 2//2 19//19 23//23
f 24//24 20//20 5//5
f 9//9 21//21 31//31
f 32//32 22//22 10//10
f 15//15 23//23 21//21
f 22//22 24//24 16//16
f 25//25 1//1 33//33
f 34//34 6//6 26//26
f 35//35 17//17 25//25
f 26//26 18//18 36//36
f 27//27 37//37 11//11
f 12//12 38//38 28//28
f 17//17 39//39 27//27
f 28//28 40//40 18//18
f 11//11 37//37 29//29
f 30//30 38//38 12//12
f 41//41 9//9 31//31
f 32//32 10//10 42//42
f 31//31 21//21 43//43
f 44//44 22//22 32//32
f 21//21 23//23 45//45
f 46//46 24//24 22//22
f 47//47 25//25 33//33
f 34//34 26//26 48//48
f 35//35 49//49 17//17
f 18//18 50//50 36//36
f 35//35 25//25 51//51
f 52//52 26//26 36//36
f 39//39 37//37 27//27
f 28//28 38//38 40//40
f 49//49 39//39 17//17
f 18//18 40//40 50//50
f 53//53 9//9 41//41
f 42//42 10//10 54//54
f 55//55 41//41 31//31
f 32//32 42//42 56//56
f 21//21 57//57 43//43
f 44//44 58//58 22//22
f 31//31 43//43 59//59
f 60//60 44//44 32//32
f 21//21 45//45 57//57
f 58//58 46//46 22//22
f 51//51 25//25 47//47
f 48//48 26//26 52//52
f 61//61 49//49 35//35
f 36//36 50//50 62//62
f 63//63 35//35 51//51
f 52//52 36//36 64//64
f 39//39 65//65 37//37
f 38//38 66//66 40//40
f 67//67 53//53 41//41
f 42//42 54//54 68//68
f 55//55 31//31 69//69
f 70//70 32//32 56//56
f 71//71 41//41 55//55
f 56//56 42//42 72//72
f 43//43 57//57 59//59
f 60//60 58//58 44//44
f 69//69 31//31 59//59
f 60//60 32//32 70//70
f 63//63 51//51 47//47
f 48//48 52//52 64//64
f 61//61 35//35 63//63
f 64//64 36//36 62//62
f 67//67 41//41 71//71
f 72//72 42//42 68//68
f 73//73 55//55 69//69
f 70//70 56//56 74//74
f 75//75 71//71 55//55
f 56//56 72//72 76//76
f 59//59 57//57 77//77
f 78//78 58//58 60//60
f 63//63 47//47 79//79
f 80//80 48//48 64//64
f 61//61 63//63 81//81
f 82//82 64//64 62//62
f 75//75 67//67 71//71
f 72//72 68//68 76//76
f 73//73 75//75 55//55
f 56//56 76//76 74//74
f 83//83 63//63 79//79
f 80//80 64//64 84//84
f 81//81 63//63 85//83
f 86//84 64//64 82//82
f 87//85 67//67 75//75
f 76//76 68//68 88//86
f 89//87 75//75 73//73
f 74//74 76//76 90//88
f 89//87 87//85 75//75
f 76//76 88//86 90//88
f 91//89 87//85 89//87
f 90//88 88//86 92//90
