# SSTK version 0.8.0
# 18
mtllib original-18.mtl
o #ID117
v 0.936642 0.301620 -0.051508
v 0.947590 0.286981 0.011815
v 0.936642 0.301620 0.075139
v 0.936642 0.301620 0.075139
v 0.947590 0.286981 0.011815
v 0.936642 0.301620 -0.051508
v 0.947590 0.285025 -0.051508
v 0.947590 0.285025 -0.051508
v 0.947590 0.285025 0.075139
v 0.947590 0.285025 0.075139
v 0.947590 0.279159 -0.091774
v 0.947590 0.279159 -0.091774
v 0.947590 0.279159 0.115405
v 0.947590 0.279159 0.115405
v 0.936642 0.298198 -0.127964
v 0.936642 0.298198 -0.127964
v 0.936642 0.298198 0.151595
v 0.936642 0.298198 0.151595
v 0.947590 0.271337 -0.127964
v 0.947590 0.271337 -0.127964
v 0.947590 0.271337 0.151595
v 0.947590 0.271337 0.151595
vn -0.8399230678234878 -0.5414528776467228 0.036851342255928114
vn -0.8075518246082016 -0.5897966179726374 -5.662154929268244e-8
vn -0.8399227950769228 -0.5414532984371806 -0.036851376116321985
vn 0.8399227950769228 0.5414532984371806 0.036851376116321985
vn 0.8075518246082016 0.5897966179726374 5.662154929268244e-8
vn 0.8399230678234878 0.5414528776467228 -0.036851342255928114
vn -0.8336783128977313 -0.5499880063259963 0.0499365948133056
vn 0.8336783128977313 0.5499880063259963 -0.0499365948133056
vn -0.8336779913142934 -0.5499884964527204 -0.04993656543896904
vn 0.8336779913142934 0.5499884964527204 0.04993656543896904
vn -0.8875031082535402 -0.45880870239545585 0.04281130045330203
vn 0.8875031082535402 0.45880870239545585 -0.04281130045330203
vn -0.8875028968289107 -0.45880910023200056 -0.0428114197918467
vn 0.8875028968289107 0.45880910023200056 0.0428114197918467
vn -0.9100907329418348 -0.41010671224087664 0.059559570082166696
vn 0.9100907329418348 0.41010671224087664 -0.059559570082166696
vn -0.9100906254020881 -0.4101069140501843 -0.059559823736065144
vn 0.9100906254020881 0.4101069140501843 0.059559823736065144
vn -0.9229731276359789 -0.376177907709617 0.08130674887777545
vn 0.9229731276359789 0.376177907709617 -0.08130674887777545
vn -0.9229731006201053 -0.3761779038067831 -0.08130707361136555
vn 0.9229731006201053 0.3761779038067831 0.08130707361136555
usemtl material_0_0
f 1//1 2//2 3//3
f 4//4 5//5 6//6
f 7//7 2//2 1//1
f 6//6 5//5 8//8
f 2//2 9//9 3//3
f 4//4 10//10 5//5
f 11//11 7//7 1//1
f 6//6 8//8 12//12
f 9//9 13//13 3//3
f 4//4 14//14 10//10
f 15//15 11//11 1//1
f 6//6 12//12 16//16
f 3//3 13//13 17//17
f 18//18 14//14 4//4
f 19//19 11//11 15//15
f 16//16 12//12 20//20
f 13//13 21//21 17//17
f 18//18 22//22 14//14
