# SSTK version 0.8.0
# 14
mtllib original-14.mtl
o #ID93
v 0.795700 0.271337 0.086667
v 0.795700 0.244475 0.093852
v 0.825228 0.244475 0.093852
v 0.825228 0.244475 0.093852
v 0.795700 0.244475 0.093852
v 0.795700 0.271337 0.086667
v 0.844748 0.273292 0.086667
v 0.844748 0.273292 0.086667
v 0.844748 0.247408 0.093852
v 0.844748 0.247408 0.093852
v 0.854755 0.279159 0.086667
v 0.854755 0.279159 0.086667
v 0.854755 0.256208 0.093852
v 0.854755 0.256208 0.093852
vn -0.0048819128325973135 0.2533668335965205 0.9673579557539019
vn 0 0.2583815322288527 0.9660429513241481
vn -0.015937110206996927 0.25617624557431573 0.9664987013554119
vn 0.015937110206996927 -0.25617624557431573 -0.9664987013554119
vn 0 -0.2583815322288527 -0.9660429513241481
vn 0.0048819128325973135 -0.2533668335965205 -0.9673579557539019
vn -0.09847686411138219 0.2610915528755832 0.9602778286786615
vn 0.09847686411138219 -0.2610915528755832 -0.9602778286786615
vn -0.10173370125542094 0.2728843451840894 0.9566526998771934
vn 0.10173370125542094 -0.2728843451840894 -0.9566526998771934
vn -0.18376399710991348 0.2716837370204308 0.9446791732672002
vn 0.18376399710991348 -0.2716837370204308 -0.9446791732672002
vn -0.25407610433526273 0.2889430452764784 0.9230153031191691
vn 0.25407610433526273 -0.2889430452764784 -0.9230153031191691
usemtl material_0_0
f 1//1 2//2 3//3
f 4//4 5//5 6//6
f 7//7 1//1 3//3
f 4//4 6//6 8//8
f 7//7 3//3 9//9
f 10//10 4//4 8//8
f 11//11 7//7 9//9
f 10//10 8//8 12//12
f 11//11 9//9 13//13
f 14//14 10//10 12//12
