# SSTK version 0.8.0
# 14
mtllib original-14.mtl
o #ID81
v 0.18546871991682626 0.6288389977051024 -0.022256907320078505
v 0.18518944855426764 0.6240929977224225 -0.0207148138206592
v 0.18518944855426764 0.6288919977049089 -0.0207148138206592
v 0.18546871991682623 0.6240399977226161 -0.022256907320078505
v 0.18518944855426764 0.6288919977049089 -0.0207148138206592
v 0.18434220117886074 0.6241859977220832 -0.019396845786435475
v 0.18434220117886074 0.6289839977045731 -0.019396845786435475
v 0.18518944855426764 0.6240929977224225 -0.0207148138206592
v 0.18555918160528484 0.6292789977034966 -0.02225854511928869
v 0.18518944855426764 0.6288919977049089 -0.0207148138206592
v 0.1852741884752918 0.6293329977032996 -0.0206814050607961
v 0.18546871991682626 0.6288389977051024 -0.022256907320078505
v 0.18513627437602917 0.6288329977051244 -0.023788589014445482
v 0.18546871991682623 0.6240399977226161 -0.022256907320078505
v 0.18546871991682626 0.6288389977051024 -0.022256907320078505
v 0.18513627437602914 0.6240339977226379 -0.023788589014445496
v 0.18305418751556105 0.6291009977041463 -0.018503511777157068
v 0.18434220117886074 0.6241859977220832 -0.019396845786435475
v 0.18305418751556105 0.6243039977216523 -0.018503511777157068
v 0.18434220117886074 0.6289839977045731 -0.019396845786435475
v 0.1852741884752918 0.6293329977032996 -0.0206814050607961
v 0.18434220117886074 0.6289839977045731 -0.019396845786435475
v 0.1844070365533984 0.6294269977029565 -0.019333273987076384
v 0.18518944855426764 0.6288919977049089 -0.0207148138206592
v 0.1852741884752918 0.6293329977032996 -0.0206814050607961
v 0.1858315121892638 0.6295259977025952 -0.02226313294894746
v 0.18555918160528484 0.6292789977034966 -0.02225854511928869
v 0.18552713715178773 0.6295839977023835 -0.020580558830571763
v 0.18555918160528484 0.6292789977034966 -0.02225854511928869
v 0.18513627437602917 0.6288329977051244 -0.023788589014445482
v 0.18546871991682626 0.6288389977051024 -0.022256907320078505
v 0.18521948376881522 0.6292729977035184 -0.023824452595356163
v 0.18513627437602917 0.6288329977051244 -0.023788589014445482
v 0.1842373296312239 0.6240769977224809 -0.025084880334858232
v 0.18513627437602914 0.6240339977226379 -0.023788589014445496
v 0.18423732963122388 0.6288759977049673 -0.02508488033485825
v 0.1815225058248518 0.6244279977211998 -0.01817106623196242
v 0.18305418751556105 0.6291009977041463 -0.018503511777157068
v 0.18305418751556105 0.6243039977216523 -0.018503511777157068
v 0.18152250582485183 0.62922599770369 -0.018171066231962407
v 0.1844070365533984 0.6294269977029565 -0.019333273987076384
v 0.18305418751556105 0.6291009977041463 -0.018503511777157068
v 0.183090996614785 0.6295469977025185 -0.018419976816240434
v 0.18434220117886074 0.6289839977045731 -0.019396845786435475
v 0.18460281376358795 0.6296839977020187 -0.01914317853963419
v 0.1852741884752918 0.6293329977032996 -0.0206814050607961
v 0.1844070365533984 0.6294269977029565 -0.019333273987076384
v 0.18552713715178773 0.6295839977023835 -0.020580558830571763
v 0.18552713715178773 0.6295839977023835 -0.020580558830571763
v 0.18628538610079023 0.6295799977023981 -0.022269725290447864
v 0.1858315121892638 0.6295259977025952 -0.02226313294894746
v 0.185949565670332 0.6296439977021645 -0.020412895080621232
v 0.18555918160528484 0.6292789977034966 -0.02225854511928869
v 0.18546849199654314 0.6295189977026209 -0.023933314424666882
v 0.18521948376881522 0.6292729977035184 -0.023824452595356163
v 0.1858315121892638 0.6295259977025952 -0.02226313294894746
v 0.18521948376881522 0.6292729977035184 -0.023824452595356163
v 0.18423732963122388 0.6288759977049673 -0.02508488033485825
v 0.18513627437602917 0.6288329977051244 -0.023788589014445482
v 0.18429995591194237 0.6293159977033617 -0.02515004127769704
v 0.18423732963122388 0.6288759977049673 -0.02508488033485825
v 0.18292497234368374 0.6241599977221781 -0.025923850054324363
v 0.1842373296312239 0.6240769977224809 -0.025084880334858232
v 0.18292497234368374 0.6289579977046681 -0.025923850054324363
v 0.17998041233049472 0.6245419977207839 -0.018450337591859458
v 0.18152250582485183 0.62922599770369 -0.018171066231962407
v 0.1815225058248518 0.6244279977211998 -0.01817106623196242
v 0.1799804123304947 0.629339997703274 -0.01845033759185946
v 0.18152250582485183 0.62922599770369 -0.018171066231962407
v 0.183090996614785 0.6295469977025185 -0.018419976816240434
v 0.18305418751556105 0.6291009977041463 -0.018503511777157068
v 0.18152476357448455 0.6296749977020515 -0.018079333456668713
v 0.18319920730727718 0.6298129977015477 -0.018169077550827174
v 0.1844070365533984 0.6294269977029565 -0.019333273987076384
v 0.183090996614785 0.6295469977025185 -0.018419976816240434
v 0.18460281376358795 0.6296839977020187 -0.01914317853963419
v 0.18492953280942936 0.6297549977017595 -0.018826559444108878
v 0.18552713715178773 0.6295839977023835 -0.020580558830571763
v 0.18460281376358795 0.6296839977020187 -0.01914317853963419
v 0.185949565670332 0.6296439977021645 -0.020412895080621232
v 0.1858315121892638 0.6295259977025952 -0.02226313294894746
v 0.18588519009641977 0.6295719977024273 -0.024114523366434
v 0.18546849199654314 0.6295189977026209 -0.023933314424666882
v 0.18628538610079023 0.6295799977023981 -0.022269725290447864
v 0.18521948376881522 0.6292729977035184 -0.023824452595356163
v 0.18448910584067427 0.629564997702453 -0.025346144056848506
v 0.18429995591194237 0.6293159977033617 -0.02515004127769704
v 0.18546849199654314 0.6295189977026209 -0.023933314424666882
v 0.18429995591194237 0.6293159977033617 -0.02515004127769704
v 0.18292497234368374 0.6289579977046681 -0.025923850054324363
v 0.18423732963122388 0.6288759977049673 -0.02508488033485825
v 0.18295743558503766 0.6294009977030514 -0.026008915543639072
v 0.18292497234368374 0.6289579977046681 -0.025923850054324363
v 0.18138287884932666 0.6242739977217621 -0.02620312141422139
v 0.18292497234368374 0.6241599977221781 -0.025923850054324363
v 0.18138287884932666 0.6290709977042557 -0.02620312141422139
v 0.17866746627763969 0.6246259977204774 -0.019293740521696884
v 0.1799804123304947 0.629339997703274 -0.01845033759185946
v 0.17998041233049472 0.6245419977207839 -0.018450337591859458
v 0.17866746627763966 0.6294239977029674 -0.019293740521696898
v 0.1799804123304947 0.629339997703274 -0.01845033759185946
v 0.18152476357448455 0.6296749977020515 -0.018079333456668713
v 0.18152250582485183 0.62922599770369 -0.018171066231962407
v 0.17994794908914077 0.629790997701628 -0.01836527210254474
v 0.18152935140351828 0.6299489977010515 -0.017807002871916902
v 0.183090996614785 0.6295469977025185 -0.018419976816240434
v 0.18152476357448455 0.6296749977020515 -0.018079333456668713
v 0.18319920730727718 0.6298129977015477 -0.018169077550827174
v 0.183380416247587 0.6298969977012414 -0.01775237945015937
v 0.18460281376358795 0.6296839977020187 -0.01914317853963419
v 0.18319920730727718 0.6298129977015477 -0.018169077550827174
v 0.18492953280942936 0.6297549977017595 -0.018826559444108878
v 0.18546849199654314 0.6295189977026209 -0.023933314424666882
v 0.18480383389881616 0.6296239977022375 -0.025673514240284474
v 0.18448910584067427 0.629564997702453 -0.025346144056848506
v 0.18588519009641977 0.6295719977024273 -0.024114523366434
v 0.18429995591194237 0.6293159977033617 -0.02515004127769704
v 0.1830563907783334 0.6296569977021171 -0.026262515357032657
v 0.18295743558503766 0.6294009977030514 -0.026008915543639072
v 0.18448910584067427 0.629564997702453 -0.025346144056848506
v 0.18295743558503766 0.6294009977030514 -0.026008915543639072
v 0.18138287884932666 0.6290709977042557 -0.02620312141422139
v 0.18292497234368374 0.6289579977046681 -0.025923850054324363
v 0.18138124105032438 0.629516997702628 -0.026293583102936342
v 0.18138287884932666 0.6290709977042557 -0.02620312141422139
v 0.17985119715861753 0.6243979977213094 -0.025870675869026718
v 0.18138287884932666 0.6242739977217621 -0.02620312141422139
v 0.1798511971586175 0.6291959977037994 -0.025870675869026735
v 0.17776911029814935 0.624667997720324 -0.020585598631738308
v 0.17866746627763966 0.6294239977029674 -0.019293740521696898
v 0.17866746627763969 0.6246259977204774 -0.019293740521696884
v 0.17776911029814932 0.6294669977028104 -0.020585598631738315
v 0.17866746627763966 0.6294239977029674 -0.019293740521696898
v 0.17994794908914077 0.629790997701628 -0.01836527210254474
v 0.1799804123304947 0.629339997703274 -0.01845033759185946
v 0.17860451442894815 0.6298769977013142 -0.019227634060251172
v 0.17994794908914077 0.629790997701628 -0.01836527210254474
v 0.18152935140351828 0.6299489977010515 -0.017807002871916902
v 0.18152476357448455 0.6296749977020515 -0.018079333456668713
v 0.17984866832787202 0.6300719977006025 -0.018110726770544223
v 0.1815378347811869 0.6300469977006938 -0.017352477823156416
v 0.18319920730727718 0.6298129977015477 -0.018169077550827174
v 0.18152935140351828 0.6299489977010515 -0.017807002871916902
v 0.183380416247587 0.6298969977012414 -0.01775237945015937
v 0.18448910584067427 0.629564997702453 -0.025346144056848506
v 0.18322121797294044 0.6297249977018691 -0.026685920581083898
v 0.1830563907783334 0.6296569977021171 -0.026262515357032657
v 0.18480383389881616 0.6296239977022375 -0.025673514240284474
v 0.18138124105032438 0.629516997702628 -0.026293583102936342
v 0.1830563907783334 0.6296569977021171 -0.026262515357032657
v 0.1813757077026872 0.6297799977016683 -0.026566239255659978
v 0.18295743558503766 0.6294009977030514 -0.026008915543639072
v 0.18138124105032438 0.629516997702628 -0.026293583102936342
v 0.1798511971586175 0.6291959977037994 -0.025870675869026735
v 0.18138287884932666 0.6290709977042557 -0.02620312141422139
v 0.1798153335779969 0.6296439977021646 -0.025953885261971572
v 0.17985119715861753 0.6243979977213094 -0.025870675869026718
v 0.17856318349531772 0.6293139977033689 -0.024977341859748318
v 0.1785631834953177 0.6245159977208788 -0.02497734185974833
v 0.1798511971586175 0.6291959977037994 -0.025870675869026735
v 0.17743666475735206 0.624661997720346 -0.022117280326105312
v 0.17776911029814932 0.6294669977028104 -0.020585598631738315
v 0.17776911029814935 0.624667997720324 -0.020585598631738308
v 0.17743666475735206 0.6294609977028325 -0.022117280326105312
v 0.17776911029814932 0.6294669977028104 -0.020585598631738315
v 0.17860451442894815 0.6298769977013142 -0.019227634060251172
v 0.17866746627763966 0.6294239977029674 -0.019293740521696898
v 0.17768557533739018 0.6299209977011536 -0.020548789532220727
v 0.17860451442894815 0.6298769977013142 -0.019227634060251172
v 0.17984866832787202 0.6300719977006025 -0.018110726770544223
v 0.17994794908914077 0.629790997701628 -0.01836527210254474
v 0.17841631001881975 0.6301639977002668 -0.019031205713127882
v 0.1815378347811869 0.6300469977006938 -0.017352477823156416
v 0.17984866832787202 0.6300719977006025 -0.018110726770544223
v 0.17968289561466155 0.6301829977001976 -0.017687647114464806
v 0.18152935140351828 0.6299489977010515 -0.017807002871916902
v 0.1813757077026872 0.6297799977016683 -0.026566239255659978
v 0.18322121797294044 0.6297249977018691 -0.026685920581083898
v 0.18136754989299164 0.6298609977013726 -0.027021709823027394
v 0.1830563907783334 0.6296569977021171 -0.026262515357032657
v 0.1798153335779969 0.6296439977021646 -0.025953885261971572
v 0.1813757077026872 0.6297799977016683 -0.026566239255659978
v 0.1797058517989282 0.6299159977011721 -0.026204164576749706
v 0.18138124105032438 0.629516997702628 -0.026293583102936342
v 0.1798511971586175 0.6291959977037994 -0.025870675869026735
v 0.17849802255280708 0.6297649977017231 -0.025039968140500506
v 0.17856318349531772 0.6293139977033689 -0.024977341859748318
v 0.1798153335779969 0.6296439977021646 -0.025953885261971572
v 0.1785631834953177 0.6245159977208788 -0.02497734185974833
v 0.17771593611991082 0.6294069977030297 -0.02365937382552461
v 0.17771593611991082 0.6246089977205395 -0.023659373825524604
v 0.17856318349531772 0.6293139977033689 -0.024977341859748318
v 0.17771593611991082 0.6246089977205395 -0.023659373825524604
v 0.17743666475735206 0.6294609977028325 -0.022117280326105312
v 0.17743666475735206 0.624661997720346 -0.022117280326105312
v 0.17771593611991082 0.6294069977030297 -0.02365937382552461
v 0.17776911029814932 0.6294669977028104 -0.020585598631738315
v 0.1773462030688936 0.6299149977011755 -0.02211564252689511
v 0.17768557533739018 0.6299209977011536 -0.020548789532220727
v 0.17743666475735206 0.6294609977028325 -0.022117280326105312
v 0.17841631001881975 0.6301639977002668 -0.019031205713127882
v 0.17768557533739018 0.6299209977011536 -0.020548789532220727
v 0.1774365671096623 0.630209997700099 -0.020439927702910025
v 0.17860451442894815 0.6298769977013142 -0.019227634060251172
v 0.17968289561466155 0.6301829977001976 -0.017687647114464806
v 0.17841631001881975 0.6301639977002668 -0.019031205713127882
v 0.17810252747928126 0.6302839976998289 -0.018703509961720134
v 0.17984866832787202 0.6300719977006025 -0.018110726770544223
v 0.1797058517989282 0.6299159977011721 -0.026204164576749706
v 0.18136754989299164 0.6298609977013726 -0.027021709823027394
v 0.17952496842659155 0.6300109977008252 -0.02662180819602443
v 0.1813757077026872 0.6297799977016683 -0.026566239255659978
v 0.17849802255280708 0.6297649977017231 -0.025039968140500506
v 0.1797058517989282 0.6299159977011721 -0.026204164576749706
v 0.17830224534261752 0.6300449977007012 -0.025230063587942716
v 0.1798153335779969 0.6296439977021646 -0.025953885261971572
v 0.17856318349531772 0.6293139977033689 -0.024977341859748318
v 0.17763119619888668 0.6298599977013764 -0.023692782585387685
v 0.17771593611991082 0.6294069977030297 -0.02365937382552461
v 0.17849802255280708 0.6297649977017231 -0.025039968140500506
v 0.17743666475735206 0.6294609977028325 -0.022117280326105312
v 0.17763119619888668 0.6298599977013764 -0.023692782585387685
v 0.1773462030688936 0.6299149977011755 -0.02211564252689511
v 0.17771593611991082 0.6294069977030297 -0.02365937382552461
v 0.1774365671096623 0.630209997700099 -0.020439927702910025
v 0.1773462030688936 0.6299149977011755 -0.02211564252689511
v 0.17707387248491469 0.6302039977001209 -0.02211105469723635
v 0.17768557533739018 0.6299209977011536 -0.020548789532220727
v 0.17810252747928126 0.6302839976998289 -0.018703509961720134
v 0.1774365671096623 0.630209997700099 -0.020439927702910025
v 0.17702081452838922 0.6303349976996429 -0.020258393193171083
v 0.17841631001881975 0.6301639977002668 -0.019031205713127882
v 0.17830224534261752 0.6300449977007012 -0.025230063587942716
v 0.17952496842659155 0.6300109977008252 -0.02662180819602443
v 0.17797679738335256 0.630152997700307 -0.025547302634103097
v 0.1797058517989282 0.6299159977011721 -0.026204164576749706
v 0.17849802255280708 0.6297649977017231 -0.025039968140500506
v 0.1773779219544177 0.6301459977003325 -0.02379268329700513
v 0.17763119619888668 0.6298599977013764 -0.023692782585387685
v 0.17830224534261752 0.6300449977007012 -0.025230063587942716
v 0.1773462030688936 0.6299149977011755 -0.02211564252689511
v 0.1773779219544177 0.6301459977003325 -0.02379268329700513
v 0.17707387248491469 0.6302039977001209 -0.02211105469723635
v 0.17763119619888668 0.6298599977013764 -0.023692782585387685
v 0.17702081452838922 0.6303349976996429 -0.020258393193171083
v 0.17707387248491469 0.6302039977001209 -0.02211105469723635
v 0.17661967300541526 0.6303279976996683 -0.022103516837128995
v 0.1774365671096623 0.630209997700099 -0.020439927702910025
v 0.1773779219544177 0.6301459977003325 -0.02379268329700513
v 0.17797679738335256 0.630152997700307 -0.025547302634103097
v 0.17695581900384647 0.6302639976999019 -0.023961292565562606
v 0.17830224534261752 0.6300449977007012 -0.025230063587942716
v 0.17661967300541526 0.6303279976996683 -0.022103516837128995
v 0.1773779219544177 0.6301459977003325 -0.02379268329700513
v 0.17695581900384647 0.6302639976999019 -0.023961292565562606
v 0.17707387248491469 0.6302039977001209 -0.02211105469723635
vn -0.9840416892442446 0.0 -0.17793787620310697
vn -0.8410375216882596 0.0 -0.5409767289951067
vn -0.9633003942229621 0.1982456902928543 -0.18097218853501862
vn -0.9772319451050329 3.6394459559940806e-07 0.21217365816660702
vn -0.5700013925428735 -4.149720203988627e-07 -0.8216436872759467
vn -0.8181347040074932 0.1975371951380437 -0.5400320353082946
vn -0.6659375643832661 0.7316571060554641 -0.14561938357820955
vn -0.9579454368190096 0.19848909553542637 0.2072258599300829
vn -0.8216459323548667 5.658282066986486e-07 0.5699981582256509
vn -0.2121775604991444 -1.2000850234741844e-06 -0.9772310995579031
vn -0.5467344302326007 0.19651399606890463 -0.8139187003417737
vn -0.5554353360472917 0.7245667302846077 -0.40803750545662826
vn -0.11941938250764303 0.9912719077498021 -0.05584807665668336
vn -0.6636262438193468 0.7346068952974837 0.14125467910386913
vn -0.8022953897262702 0.19834549376686383 0.563010757827524
vn -0.5388964459930518 3.469446951953614e-18 0.8423719850400139
vn 0.17795051418889093 -6.935917085618831e-07 -0.98403940745216
vn -0.1928441788827285 0.1953817983640293 -0.9615804785905053
vn -0.3534456840408801 0.7147052434789916 -0.6035499389224303
vn -0.09062222703461832 0.9876734566648464 -0.12762737279057063
vn -0.1181609203993497 0.9927553278806185 0.021791001150803367
vn -0.5476260004384094 0.7328209666116732 0.4038306108440052
vn -0.5193398210650159 0.1977235091347184 0.8313792798375398
vn -0.1779434441538658 6.935909135172974e-07 0.9840406859482657
vn 0.5406308891958675 0.0 -0.8412598779952457
vn 0.1884026946013903 0.19426469636617907 -0.9626866547922965
vn -0.09548352117251908 0.7036742408958316 -0.7040777128867565
vn -0.036700922194616896 0.9825535586271895 -0.18232261952507103
vn -0.08701447487445216 0.9918663774341221 0.09289543758038586
vn -0.3369423535857714 0.7264465289515752 0.5989534699360766
vn -0.1605270170325972 0.19681910412806308 0.9672090053066525
vn 0.21217286776284533 6.000377054324324e-07 0.9772321184390728
vn 0.8209579752726811 0.0 -0.5709885650175701
vn 0.5391980391596898 0.19334639187365146 -0.8196844453218807
vn 0.17728014180277435 0.693239135018538 -0.6985636827573004
vn 0.03369171369296986 0.976747979542107 -0.21172681268008225
vn -0.030722045023188847 0.988710118609219 0.14665759049267457
vn -0.0727911537466547 0.7171593795662573 0.6930972801061517
vn 0.22328636870211582 0.19568679954191953 0.9549082757588121
vn 0.5700024438290017 0.0 0.8216429579631028
vn 0.9772300128952771 0.0 -0.21218255736618327
vn 0.8085635283772028 0.19271249722047507 -0.5559558026616687
vn 0.4243964041190557 0.684976478239058 -0.5921949690916598
vn 0.10956623004619712 0.971168059348446 -0.2117258404019943
vn 0.04073059940323561 0.98391371198149 0.1739391176101216
vn 0.20474578398871307 0.7062354113945013 0.6777246293370285
vn 0.5710963060241542 0.19454771005283186 0.797496166845756
vn 0.8410380728777334 0.0 0.5409758720792268
vn 0.9840388982211825 0.0 0.1779533105787758
vn 0.9587988259685648 0.1924922956110776 -0.20892933092358026
vn 0.6124451632351335 0.679804038655736 -0.40345675670936565
vn 0.17938092814323417 0.9665956690244419 -0.18307180138924337
vn 0.11702329608033822 0.9782033114228814 0.17153372837194206
vn 0.45139724940406717 0.695572275292741 0.5589451640627531
vn 0.8313036488558412 0.19353890919322425 0.5210344234146906
vn 0.9667362264597442 0.19278770699310535 0.1680889783385542
vn 0.7174224078617362 0.6783839986990324 -0.15843042946539823
vn 0.2330023063000876 0.96370927488471 -0.13028563831846104
vn 0.18613514651998245 0.9724742566931843 0.14016960026841538
vn 0.6324242624841645 0.6867123009996025 0.35842116228948856
vn 0.7245638029926319 0.6807858117778499 0.1074147806390784
vn 0.263004352688016 0.9628738657404236 -0.06084913885068153
vn 0.23785651714269 0.9675734911630305 0.08500473747914031
vn 0.264743591793212 0.9642094063792461 0.014527210750220808
usemtl material_0_0
f 1//1 2//1 3//1
f 2//1 1//1 4//1
f 5//2 6//2 7//2
f 6//2 5//2 8//2
f 9//3 10//3 11//3
f 10//3 9//3 12//3
f 13//4 14//4 15//4
f 14//4 13//4 16//4
f 17//5 18//5 19//5
f 18//5 17//5 20//5
f 21//6 22//6 23//6
f 22//6 21//6 24//6
f 25//7 26//7 27//7
f 26//7 25//7 28//7
f 29//8 30//8 31//8
f 30//8 29//8 32//8
f 33//9 34//9 35//9
f 34//9 33//9 36//9
f 37//10 38//10 39//10
f 38//10 37//10 40//10
f 41//11 42//11 43//11
f 42//11 41//11 44//11
f 45//12 46//12 47//12
f 46//12 45//12 48//12
f 49//13 50//13 51//13
f 50//13 49//13 52//13
f 53//14 54//14 55//14
f 54//14 53//14 56//14
f 57//15 58//15 59//15
f 58//15 57//15 60//15
f 61//16 62//16 63//16
f 62//16 61//16 64//16
f 65//17 66//17 67//17
f 66//17 65//17 68//17
f 69//18 70//18 71//18
f 70//18 69//18 72//18
f 73//19 74//19 75//19
f 74//19 73//19 76//19
f 77//20 78//20 79//20
f 78//20 77//20 80//20
f 81//21 82//21 83//21
f 82//21 81//21 84//21
f 85//22 86//22 87//22
f 86//22 85//22 88//22
f 89//23 90//23 91//23
f 90//23 89//23 92//23
f 93//24 94//24 95//24
f 94//24 93//24 96//24
f 97//25 98//25 99//25
f 98//25 97//25 100//25
f 101//26 102//26 103//26
f 102//26 101//26 104//26
f 105//27 106//27 107//27
f 106//27 105//27 108//27
f 109//28 110//28 111//28
f 110//28 109//28 112//28
f 113//29 114//29 115//29
f 114//29 113//29 116//29
f 117//30 118//30 119//30
f 118//30 117//30 120//30
f 121//31 122//31 123//31
f 122//31 121//31 124//31
f 125//32 126//32 127//32
f 126//32 125//32 128//32
f 129//33 130//33 131//33
f 130//33 129//33 132//33
f 133//34 134//34 135//34
f 134//34 133//34 136//34
f 137//35 138//35 139//35
f 138//35 137//35 140//35
f 141//36 142//36 143//36
f 142//36 141//36 144//36
f 145//37 146//37 147//37
f 146//37 145//37 148//37
f 149//38 150//38 151//38
f 150//38 149//38 152//38
f 153//39 154//39 155//39
f 154//39 153//39 156//39
f 157//40 158//40 159//40
f 158//40 157//40 160//40
f 161//41 162//41 163//41
f 162//41 161//41 164//41
f 165//42 166//42 167//42
f 166//42 165//42 168//42
f 169//43 170//43 171//43
f 170//43 169//43 172//43
f 173//44 174//44 175//44
f 174//44 173//44 176//44
f 177//45 178//45 179//45
f 178//45 177//45 180//45
f 181//46 182//46 183//46
f 182//46 181//46 184//46
f 185//47 186//47 187//47
f 186//47 185//47 188//47
f 189//48 190//48 191//48
f 190//48 189//48 192//48
f 193//49 194//49 195//49
f 194//49 193//49 196//49
f 197//50 198//50 199//50
f 198//50 197//50 200//50
f 201//51 202//51 203//51
f 202//51 201//51 204//51
f 205//52 206//52 207//52
f 206//52 205//52 208//52
f 209//53 210//53 211//53
f 210//53 209//53 212//53
f 213//54 214//54 215//54
f 214//54 213//54 216//54
f 217//55 218//55 219//55
f 218//55 217//55 220//55
f 221//56 222//56 223//56
f 222//56 221//56 224//56
f 225//57 226//57 227//57
f 226//57 225//57 228//57
f 229//58 230//58 231//58
f 230//58 229//58 232//58
f 233//59 234//59 235//59
f 234//59 233//59 236//59
f 237//60 238//60 239//60
f 238//60 237//60 240//60
f 241//61 242//61 243//61
f 242//61 241//61 244//61
f 245//62 246//62 247//62
f 246//62 245//62 248//62
f 249//63 250//63 251//63
f 250//63 249//63 252//63
f 253//64 254//64 255//64
f 254//64 253//64 256//64
