# SSTK version 0.8.0
# 6
mtllib original-6.mtl
o #ID33
v -0.14050054544965962 0.6240399977226161 0.0639770761889948
v -0.1401680999088624 0.6288329977051242 0.06550875788336183
v -0.1401680999088624 0.6240339977226378 0.06550875788336183
v -0.14050054544965962 0.6288389977051025 0.0639770761889948
v -0.1401680999088624 0.6288329977051242 0.06550875788336183
v -0.1392700694973451 0.6240769977224809 0.06680156151201017
v -0.1401680999088624 0.6240339977226378 0.06550875788336183
v -0.13927006949734513 0.6288759977049674 0.06680156151201015
v -0.14022221960570438 0.6240929977224225 0.0624346571216037
v -0.14050054544965962 0.6288389977051025 0.0639770761889948
v -0.14050054544965962 0.6240399977226161 0.0639770761889948
v -0.14022221960570438 0.6288919977049089 0.0624346571216037
v -0.1401680999088624 0.6288329977051242 0.06550875788336183
v -0.14059100713811812 0.6292789977034966 0.06397871398820501
v -0.14025130930164853 0.6292729977035184 0.06554462146427245
v -0.14050054544965962 0.6288389977051025 0.0639770761889948
v -0.13927006949734513 0.6288759977049674 0.06680156151201015
v -0.13795679787651696 0.6241599977221781 0.06764401892324065
v -0.1392700694973451 0.6240769977224809 0.06680156151201017
v -0.13795679787651696 0.6289579977046681 0.06764401892324065
v -0.14025130930164853 0.6292729977035184 0.06554462146427245
v -0.13927006949734513 0.6288759977049674 0.06680156151201015
v -0.1401680999088624 0.6288329977051242 0.06550875788336183
v -0.1393326957780636 0.6293159977033616 0.06686672245484894
v -0.139373701143721 0.6241859977220832 0.06111606913674489
v -0.14022221960570438 0.6288919977049089 0.0624346571216037
v -0.14022221960570438 0.6240929977224225 0.0624346571216037
v -0.139373701143721 0.6289839977045732 0.06111606913674489
v -0.14050054544965962 0.6288389977051025 0.0639770761889948
v -0.14030601400812504 0.6293329977032996 0.06240157392971242
v -0.14059100713811812 0.6292789977034966 0.06397871398820501
v -0.14022221960570438 0.6288919977049089 0.0624346571216037
v -0.1405003175293764 0.6295189977026207 0.06565348329358323
v -0.14059100713811812 0.6292789977034966 0.06397871398820501
v -0.14086301215412406 0.6295259977025952 0.06398235629925685
v -0.14025130930164853 0.6292729977035184 0.06554462146427245
v -0.13795679787651696 0.6289579977046681 0.06764401892324065
v -0.1364143788141869 0.624273997721762 0.06792234476453078
v -0.13795679787651696 0.6241599977221781 0.06764401892324065
v -0.1364143788141869 0.6290709977042558 0.06792234476453078
v -0.1393326957780636 0.6293159977033616 0.06686672245484894
v -0.13795679787651696 0.6289579977046681 0.06764401892324065
v -0.13927006949734513 0.6288759977049674 0.06680156151201015
v -0.13799020663647438 0.6294009977030515 0.0677287588445836
v -0.13952090018819205 0.6295649977024529 0.06706315080197221
v -0.14025130930164853 0.6292729977035184 0.06554462146427245
v -0.1405003175293764 0.6295189977026207 0.06565348329358323
v -0.1393326957780636 0.6293159977033616 0.06686672245484894
v -0.13808601304839427 0.6243039977216523 0.06022368064607342
v -0.139373701143721 0.6289839977045732 0.06111606913674489
v -0.139373701143721 0.6241859977220832 0.06111606913674489
v -0.13808601304839427 0.6291009977041463 0.060223680646073405
v -0.139373701143721 0.6289839977045732 0.06111606913674489
v -0.14030601400812504 0.6293329977032996 0.06240157392971242
v -0.14022221960570438 0.6288919977049089 0.0624346571216037
v -0.13943886208623169 0.6294269977029564 0.06105344285599268
v -0.14086301215412406 0.6295259977025952 0.06398235629925685
v -0.14030601400812504 0.6293329977032996 0.06240157392971242
v -0.14055896268462106 0.6295839977023836 0.062300727699488044
v -0.14059100713811812 0.6292789977034966 0.06397871398820501
v -0.140917015629253 0.6295719977024273 0.06583469223535032
v -0.14086301215412406 0.6295259977025952 0.06398235629925685
v -0.14131721163362346 0.6295799977023983 0.0639898941593642
v -0.1405003175293764 0.6295189977026207 0.06565348329358323
v -0.1364143788141869 0.6290709977042558 0.06792234476453078
v -0.13488269712347772 0.6243979977213096 0.06758989921933611
v -0.1364143788141869 0.624273997721762 0.06792234476453078
v -0.13488269712347772 0.6291959977037995 0.06758989921933611
v -0.13799020663647438 0.6294009977030515 0.0677287588445836
v -0.1364143788141869 0.6290709977042558 0.06792234476453078
v -0.13795679787651696 0.6289579977046681 0.06764401892324065
v -0.1364130665831577 0.629516997702628 0.06801375197185268
v -0.13808916182977019 0.6296569977021172 0.06798235865797717
v -0.1393326957780636 0.6293159977033616 0.06686672245484894
v -0.13952090018819205 0.6295649977024529 0.06706315080197221
v -0.13799020663647438 0.6294009977030515 0.0677287588445836
v -0.13983595381430694 0.6296239977022374 0.06739146650401512
v -0.1405003175293764 0.6295189977026207 0.06565348329358323
v -0.140917015629253 0.6295719977024273 0.06583469223535032
v -0.13952090018819205 0.6295649977024529 0.06706315080197221
v -0.13655527687628857 0.6244279977212 0.059890909532906926
v -0.13808601304839427 0.6291009977041463 0.060223680646073405
v -0.13808601304839427 0.6243039977216523 0.06022368064607342
v -0.13655527687628857 0.6292259977036899 0.059890909532906926
v -0.13808601304839427 0.6291009977041463 0.060223680646073405
v -0.13943886208623169 0.6294269977029564 0.06105344285599268
v -0.139373701143721 0.6289839977045732 0.06111606913674489
v -0.1381224965796453 0.6295469977025185 0.060139200166549805
v -0.14030601400812504 0.6293329977032996 0.06240157392971242
v -0.13963463929642117 0.6296839977020185 0.060863347408550504
v -0.14055896268462106 0.6295839977023836 0.062300727699488044
v -0.13943886208623169 0.6294269977029564 0.06105344285599268
v -0.14131721163362346 0.6295799977023983 0.0639898941593642
v -0.14055896268462106 0.6295839977023836 0.062300727699488044
v -0.14098139120316536 0.6296439977021646 0.062133063949537534
v -0.14086301215412406 0.6295259977025952 0.06398235629925685
v -0.133594683460178 0.6293139977033689 0.06669656521005772
v -0.13488269712347772 0.6243979977213096 0.06758989921933611
v -0.13488269712347772 0.6291959977037995 0.06758989921933611
v -0.133594683460178 0.6245159977208788 0.06669656521005772
v -0.1364130665831577 0.629516997702628 0.06801375197185268
v -0.13488269712347772 0.6291959977037995 0.06758989921933611
v -0.1364143788141869 0.6290709977042558 0.06792234476453078
v -0.13484683354285718 0.6296439977021646 0.06767310861228094
v -0.1364075332355205 0.6297799977016684 0.06828640812457631
v -0.13799020663647438 0.6294009977030515 0.0677287588445836
v -0.13808916182977019 0.6296569977021172 0.06798235865797717
v -0.1364130665831577 0.629516997702628 0.06801375197185268
v -0.13825398902437722 0.629724997701869 0.06840576388202838
v -0.13952090018819205 0.6295649977024529 0.06706315080197221
v -0.13983595381430694 0.6296239977022374 0.06739146650401512
v -0.13808916182977019 0.6296569977021172 0.06798235865797717
v -0.13501285781395844 0.6245419977207839 0.06016923537419702
v -0.13655527687628857 0.6292259977036899 0.059890909532906926
v -0.13655527687628857 0.6244279977212 0.059890909532906926
v -0.13501285781395844 0.6293399977032739 0.06016923537419702
v -0.13655527687628857 0.6292259977036899 0.059890909532906926
v -0.1381224965796453 0.6295469977025185 0.060139200166549805
v -0.13808601304839427 0.6291009977041463 0.060223680646073405
v -0.13655658910731777 0.6296749977020515 0.059799502325585056
v -0.13943886208623169 0.6294269977029564 0.06105344285599268
v -0.13823103284011046 0.6298129977015477 0.05988924641974349
v -0.13963463929642117 0.6296839977020185 0.060863347408550504
v -0.1381224965796453 0.6295469977025185 0.060139200166549805
v -0.14055896268462106 0.6295839977023836 0.062300727699488044
v -0.1399613583422626 0.6297549977017595 0.060546728313025204
v -0.14098139120316536 0.6296439977021646 0.062133063949537534
v -0.13963463929642117 0.6296839977020185 0.060863347408550504
v -0.13274743608477105 0.6294069977030297 0.06537859717583402
v -0.133594683460178 0.6245159977208788 0.06669656521005772
v -0.133594683460178 0.6293139977033689 0.06669656521005772
v -0.13274743608477105 0.6246089977205393 0.06537859717583402
v -0.1335298480856403 0.6297649977017231 0.06676013700941681
v -0.13488269712347772 0.6291959977037995 0.06758989921933611
v -0.13484683354285718 0.6296439977021646 0.06767310861228094
v -0.133594683460178 0.6293139977033689 0.06669656521005772
v -0.1364075332355205 0.6297799977016684 0.06828640812457631
v -0.13484683354285718 0.6296439977021646 0.06767310861228094
v -0.1364130665831577 0.629516997702628 0.06801375197185268
v -0.13473862285036503 0.629915997701172 0.06792400787769425
v -0.13639904985785184 0.6298609977013726 0.06874093317333675
v -0.13808916182977019 0.6296569977021172 0.06798235865797717
v -0.13825398902437722 0.629724997701869 0.06840576388202838
v -0.1364075332355205 0.6297799977016684 0.06828640812457631
v -0.13369896624249988 0.6246259977204774 0.06101296387200627
v -0.13501285781395844 0.6293399977032739 0.06016923537419702
v -0.13501285781395844 0.6245419977207839 0.06016923537419702
v -0.13369896624249988 0.6294239977029674 0.06101296387200627
v -0.13501285781395844 0.6293399977032739 0.06016923537419702
v -0.13655658910731777 0.6296749977020515 0.059799502325585056
v -0.13655527687628857 0.6292259977036899 0.059890909532906926
v -0.13497944905400105 0.629790997701628 0.06008449545285413
v -0.1381224965796453 0.6295469977025185 0.060139200166549805
v -0.1365611769363515 0.6299489977010515 0.05952717174083323
v -0.13823103284011046 0.6298129977015477 0.05988924641974349
v -0.13655658910731777 0.6296749977020515 0.059799502325585056
v -0.13963463929642117 0.6296839977020185 0.060863347408550504
v -0.1384119162124472 0.6298969977012413 0.059471602800468745
v -0.1399613583422626 0.6297549977017595 0.060546728313025204
v -0.13823103284011046 0.6298129977015477 0.05988924641974349
v -0.13246816472221234 0.6294609977028324 0.0638365036764147
v -0.13274743608477105 0.6246089977205393 0.06537859717583402
v -0.13274743608477105 0.6294069977030297 0.06537859717583402
v -0.13246816472221234 0.6246619977203459 0.0638365036764147
v -0.13266269616374693 0.6298599977013764 0.06541200593569708
v -0.133594683460178 0.6293139977033689 0.06669656521005772
v -0.1335298480856403 0.6297649977017231 0.06676013700941681
v -0.13274743608477105 0.6294069977030297 0.06537859717583402
v -0.13473862285036503 0.629915997701172 0.06792400787769425
v -0.1335298480856403 0.6297649977017231 0.06676013700941681
v -0.13484683354285718 0.6296439977021646 0.06767310861228094
v -0.1333340708754508 0.6300449977007011 0.06695023245685901
v -0.13639904985785184 0.6298609977013726 0.06874093317333675
v -0.13473862285036503 0.629915997701172 0.06792400787769425
v -0.1364075332355205 0.6297799977016684 0.06828640812457631
v -0.1345567939594248 0.6300109977008252 0.06834197706494073
v -0.1328006102630096 0.624667997720324 0.06230482198204771
v -0.13369896624249988 0.6294239977029674 0.06101296387200627
v -0.13369896624249988 0.6246259977204774 0.06101296387200627
v -0.1328006102630096 0.6294669977028104 0.06230482198204771
v -0.13369896624249988 0.6294239977029674 0.06101296387200627
v -0.13497944905400105 0.629790997701628 0.06008449545285413
v -0.13501285781395844 0.6293399977032739 0.06016923537419702
v -0.13363601439380837 0.6298769977013142 0.060946857410560565
v -0.13497944905400105 0.629790997701628 0.06008449545285413
v -0.1365611769363515 0.6299489977010515 0.05952717174083323
v -0.13655658910731777 0.6296749977020515 0.059799502325585056
v -0.13488049386070533 0.6300719977006026 0.05983089563946053
v -0.13823103284011046 0.6298129977015477 0.05988924641974349
v -0.13657060583262362 0.6300469977006938 0.059072321124100956
v -0.1384119162124472 0.6298969977012413 0.059471602800468745
v -0.1365611769363515 0.6299489977010515 0.05952717174083323
v -0.1328006102630096 0.6294669977028104 0.06230482198204771
v -0.13246816472221234 0.6246619977203459 0.0638365036764147
v -0.13246816472221234 0.6294609977028324 0.0638365036764147
v -0.1328006102630096 0.624667997720324 0.06230482198204771
v -0.13237770303375387 0.6299149977011756 0.06383486587720452
v -0.13274743608477105 0.6294069977030297 0.06537859717583402
v -0.13266269616374693 0.6298599977013764 0.06541200593569708
v -0.13246816472221234 0.6294609977028324 0.0638365036764147
v -0.13240974748725096 0.6301459977003325 0.06551285216592145
v -0.1335298480856403 0.6297649977017231 0.06676013700941681
v -0.1333340708754508 0.6300449977007011 0.06695023245685901
v -0.13266269616374693 0.6298599977013764 0.06541200593569708
v -0.1345567939594248 0.6300109977008252 0.06834197706494073
v -0.1333340708754508 0.6300449977007011 0.06695023245685901
v -0.13473862285036503 0.629915997701172 0.06792400787769425
v -0.13300829734821293 0.6301529977003071 0.0672665259844125
v -0.1328006102630096 0.6294669977028104 0.06230482198204771
v -0.13363601439380837 0.6298769977013142 0.060946857410560565
v -0.13369896624249988 0.6294239977029674 0.06101296387200627
v -0.132718346388827 0.6299209977011536 0.06226863283316523
v -0.13363601439380837 0.6298769977013142 0.060946857410560565
v -0.13488049386070533 0.6300719977006026 0.05983089563946053
v -0.13497944905400105 0.629790997701628 0.06008449545285413
v -0.13344780998367994 0.6301639977002669 0.060750429063437306
v -0.1365611769363515 0.6299489977010515 0.05952717174083323
v -0.13471566666609822 0.6301829977001976 0.05940749041540931
v -0.13657060583262362 0.6300469977006938 0.059072321124100956
v -0.13488049386070533 0.6300719977006026 0.05983089563946053
v -0.13237770303375387 0.6299149977011756 0.06383486587720452
v -0.1328006102630096 0.6294669977028104 0.06230482198204771
v -0.13246816472221234 0.6294609977028324 0.0638365036764147
v -0.132718346388827 0.6299209977011536 0.06226863283316523
v -0.132105698017748 0.6302039977001208 0.06383122356615266
v -0.13266269616374693 0.6298599977013764 0.06541200593569708
v -0.13240974748725096 0.6301459977003325 0.06551285216592145
v -0.13237770303375387 0.6299149977011756 0.06383486587720452
v -0.13300829734821293 0.6301529977003071 0.0672665259844125
v -0.13240974748725096 0.6301459977003325 0.06551285216592145
v -0.1333340708754508 0.6300449977007011 0.06695023245685901
v -0.13198731896870672 0.630263997699902 0.06568051591587196
v -0.132718346388827 0.6299209977011536 0.06226863283316523
v -0.13344780998367994 0.6301639977002669 0.060750429063437306
v -0.13363601439380837 0.6298769977013142 0.060946857410560565
v -0.13246839264249557 0.630209997700099 0.06216009657182633
v -0.13344780998367994 0.6301639977002669 0.060750429063437306
v -0.13471566666609822 0.6301829977001976 0.05940749041540931
v -0.13488049386070533 0.6300719977006026 0.05983089563946053
v -0.13313402744414157 0.6302839976998289 0.06042273331202954
v -0.13237770303375387 0.6299149977011756 0.06383486587720452
v -0.13246839264249557 0.630209997700099 0.06216009657182633
v -0.132718346388827 0.6299209977011536 0.06226863283316523
v -0.132105698017748 0.6302039977001208 0.06383122356615266
v -0.13240974748725096 0.6301459977003325 0.06551285216592145
v -0.13165244405685197 0.6303279976996684 0.06382336013807352
v -0.132105698017748 0.6302039977001208 0.06383122356615266
v -0.13198731896870672 0.630263997699902 0.06568051591587196
v -0.13246839264249557 0.630209997700099 0.06216009657182633
v -0.13313402744414157 0.6302839976998289 0.06042273331202954
v -0.13344780998367994 0.6301639977002669 0.060750429063437306
v -0.13205264006122247 0.6303349976996429 0.061978562062087385
v -0.132105698017748 0.6302039977001208 0.06383122356615266
v -0.13205264006122247 0.6303349976996429 0.061978562062087385
v -0.13246839264249557 0.630209997700099 0.06216009657182633
v -0.13165244405685197 0.6303279976996684 0.06382336013807352
vn 0.9772315739559192 0.0 -0.21217536760271372
vn 0.8213013456297008 -6.938893903907228e-18 -0.5704945558086435
vn 0.9840417974710881 0.0 0.1779372776801152
vn 0.9579400889094006 0.19851639775978225 -0.207224428757668
vn 0.539948976973602 0.0 -0.8416977147082992
vn 0.8019448878284103 0.19834420870222363 -0.5635103481458523
vn 0.8410369576394808 -1.3877787807814457e-17 0.5409776059009326
vn 0.9633015481107813 0.19822929790361316 0.18098400236641524
vn 0.663626269573207 0.73460695863205 -0.1412542287326035
vn 0.17793727937935744 0.0 -0.9840418007007696
vn 0.5203758842519067 0.1977580002571874 -0.8307229713759907
vn 0.5473962017740511 0.7327663879183788 -0.4042410008085794
vn 0.5700009154837746 0.0 0.821644018227519
vn 0.8181430538399085 0.19752509868064982 0.540023810001043
vn 0.6659248097465782 0.7316664126353342 0.1456309505496027
vn 0.11816666187219275 0.9927546358769906 -0.021791393777768567
vn -0.21217536479689342 6.938893903907228e-18 -0.9772315762895082
vn 0.1605221050587004 0.1968283044138928 -0.9672079483041348
vn 0.3376635234869505 0.7265089006187642 -0.5984714950984962
vn 0.08702248942276672 0.9918477774664823 -0.09308632828088653
vn 0.21217615239430102 0.0 0.9772314052869548
vn 0.546732921603984 0.1965623956940245 0.8139080265319992
vn 0.5554427351656224 0.7245643943191035 0.4080315814505818
vn 0.11942308180039163 0.9912714266534427 0.05584870555687679
vn -0.5699930926203308 0.0 -0.8216494451446927
vn -0.22328328871993106 0.19571240473556328 -0.9549037483890138
vn 0.07279836208854287 0.7171467085127646 -0.6931096337519593
vn 0.030961814634979296 0.9887100844360325 -0.14660738899811737
vn -0.17793727937935744 0.0 0.9840418007007696
vn 0.19283305485229324 0.19541050206335303 0.9615768767538067
vn 0.35352289763802375 0.7146212130225211 0.6036042148077613
vn 0.0906191271210513 0.9876740419353477 0.12762504458530857
vn -0.8410409199334826 -1.3877787807814457e-17 -0.5409714458261131
vn -0.5710915864930847 0.1945410028987185 -0.7975011826967909
vn -0.20474637538767257 0.7062127136078542 -0.6777481025287069
vn -0.040712379904164715 0.9839116475712293 -0.17395505995498978
vn -0.5402892227312422 0.0 0.8414793500016061
vn -0.18839986569693795 0.19427168997869887 0.9626857971222086
vn 0.09548210258415572 0.7035987798939859 0.7041533149193343
vn 0.036699078136666896 0.9825544900677871 0.18231797103692546
vn -0.9840401767373128 0.0 -0.17794624054786534
vn -0.8313170301404949 0.19348759030766507 -0.5210321335099666
vn -0.4514104228842102 0.6955492833111054 -0.5589631364855009
vn -0.11702151255467168 0.9782055238070091 -0.1715223281864047
vn -0.8211653070096645 6.938893903907228e-18 0.5706903513341016
vn -0.5388682567214791 0.19331659252649444 0.8199083116663238
vn -0.17728211646349648 0.6932375724791642 0.6985647322557971
vn -0.03369277563994584 0.9767479062224486 0.2117269819332345
vn -0.9772320396749504 0.0 0.2121732225951975
vn -0.9667363466853658 0.19278660686424443 -0.16808954865595369
vn -0.6324142367390008 0.6867230042454591 -0.3584183453878188
vn -0.1861291490263107 0.9724764779357742 -0.14016215354012798
vn -0.8087669383348547 0.19268349897762982 0.5556699102840807
vn -0.424147149831071 0.6849966715689462 0.592350166894027
vn -0.10957109169593715 0.9711658202525957 0.2117335948699021
vn -0.9588006545715281 0.19248879837803728 0.2089241612656911
vn -0.7245458469298613 0.6808055793676934 -0.10741061411705924
vn -0.23785656869273142 0.9675734916117263 -0.0850045881266202
vn -0.6126191109083886 0.679753206909127 0.40327827379955616
vn -0.17929498296676127 0.9666005984052538 0.18312995786720732
vn -0.717474502832632 0.6783297832605506 0.1584266546264041
vn -0.26475421586784675 0.9642064686735723 -0.014528576870416084
vn -0.2330520662176096 0.9637080190672331 0.13020590312624059
vn -0.2630076541984135 0.9628728421887355 0.06085106544624309
usemtl material_0_0
f 1//1 2//1 3//1
f 2//1 1//1 4//1
f 5//2 6//2 7//2
f 6//2 5//2 8//2
f 9//3 10//3 11//3
f 10//3 9//3 12//3
f 13//4 14//4 15//4
f 14//4 13//4 16//4
f 17//5 18//5 19//5
f 18//5 17//5 20//5
f 21//6 22//6 23//6
f 22//6 21//6 24//6
f 25//7 26//7 27//7
f 26//7 25//7 28//7
f 29//8 30//8 31//8
f 30//8 29//8 32//8
f 33//9 34//9 35//9
f 34//9 33//9 36//9
f 37//10 38//10 39//10
f 38//10 37//10 40//10
f 41//11 42//11 43//11
f 42//11 41//11 44//11
f 45//12 46//12 47//12
f 46//12 45//12 48//12
f 49//13 50//13 51//13
f 50//13 49//13 52//13
f 53//14 54//14 55//14
f 54//14 53//14 56//14
f 57//15 58//15 59//15
f 58//15 57//15 60//15
f 61//16 62//16 63//16
f 62//16 61//16 64//16
f 65//17 66//17 67//17
f 66//17 65//17 68//17
f 69//18 70//18 71//18
f 70//18 69//18 72//18
f 73//19 74//19 75//19
f 74//19 73//19 76//19
f 77//20 78//20 79//20
f 78//20 77//20 80//20
f 81//21 82//21 83//21
f 82//21 81//21 84//21
f 85//22 86//22 87//22
f 86//22 85//22 88//22
f 89//23 90//23 91//23
f 90//23 89//23 92//23
f 93//24 94//24 95//24
f 94//24 93//24 96//24
f 97//25 98//25 99//25
f 98//25 97//25 100//25
f 101//26 102//26 103//26
f 102//26 101//26 104//26
f 105//27 106//27 107//27
f 106//27 105//27 108//27
f 109//28 110//28 111//28
f 110//28 109//28 112//28
f 113//29 114//29 115//29
f 114//29 113//29 116//29
f 117//30 118//30 119//30
f 118//30 117//30 120//30
f 121//31 122//31 123//31
f 122//31 121//31 124//31
f 125//32 126//32 127//32
f 126//32 125//32 128//32
f 129//33 130//33 131//33
f 130//33 129//33 132//33
f 133//34 134//34 135//34
f 134//34 133//34 136//34
f 137//35 138//35 139//35
f 138//35 137//35 140//35
f 141//36 142//36 143//36
f 142//36 141//36 144//36
f 145//37 146//37 147//37
f 146//37 145//37 148//37
f 149//38 150//38 151//38
f 150//38 149//38 152//38
f 153//39 154//39 155//39
f 154//39 153//39 156//39
f 157//40 158//40 159//40
f 158//40 157//40 160//40
f 161//41 162//41 163//41
f 162//41 161//41 164//41
f 165//42 166//42 167//42
f 166//42 165//42 168//42
f 169//43 170//43 171//43
f 170//43 169//43 172//43
f 173//44 174//44 175//44
f 174//44 173//44 176//44
f 177//45 178//45 179//45
f 178//45 177//45 180//45
f 181//46 182//46 183//46
f 182//46 181//46 184//46
f 185//47 186//47 187//47
f 186//47 185//47 188//47
f 189//48 190//48 191//48
f 190//48 189//48 192//48
f 193//49 194//49 195//49
f 194//49 193//49 196//49
f 197//50 198//50 199//50
f 198//50 197//50 200//50
f 201//51 202//51 203//51
f 202//51 201//51 204//51
f 205//52 206//52 207//52
f 206//52 205//52 208//52
f 209//53 210//53 211//53
f 210//53 209//53 212//53
f 213//54 214//54 215//54
f 214//54 213//54 216//54
f 217//55 218//55 219//55
f 218//55 217//55 220//55
f 221//56 222//56 223//56
f 222//56 221//56 224//56
f 225//57 226//57 227//57
f 226//57 225//57 228//57
f 229//58 230//58 231//58
f 230//58 229//58 232//58
f 233//59 234//59 235//59
f 234//59 233//59 236//59
f 237//60 238//60 239//60
f 238//60 237//60 240//60
f 241//61 242//61 243//61
f 242//61 241//61 244//61
f 245//62 246//62 247//62
f 246//62 245//62 248//62
f 249//63 250//63 251//63
f 250//63 249//63 252//63
f 253//64 254//64 255//64
f 254//64 253//64 256//64
