# SSTK version 0.8.0
# 12
mtllib original-12.mtl
o #ID69
v 0.26703560791006636 0.6209209977339984 0.056863231614997886
v 0.26675633654750747 0.6161279977514902 0.058405325114417164
v 0.2667563365475075 0.6209269977339766 0.05840532511441718
v 0.26703560791006636 0.616121997751512 0.056863231614997886
v 0.2667563365475075 0.6209269977339766 0.05840532511441718
v 0.2659081436534972 0.6162039977512127 0.059722967580669084
v 0.2659081436534972 0.6210009977337065 0.059722967580669084
v 0.26675633654750747 0.6161279977514902 0.058405325114417164
v 0.2671251240799213 0.6213569977324073 0.05686126824781586
v 0.2667563365475075 0.6209269977339766 0.05840532511441718
v 0.26684013094992826 0.6213629977323853 0.05843840830630844
v 0.26703560791006636 0.6209209977339984 0.056863231614997886
v 0.26670316236926905 0.6209849977337649 0.05533154992063086
v 0.26703560791006636 0.616121997751512 0.056863231614997886
v 0.26703560791006636 0.6209209977339984 0.056863231614997886
v 0.26670316236926905 0.616186997751275 0.05533154992063086
v 0.2659081436534972 0.6210009977337065 0.059722967580669084
v 0.2646210755088009 0.6163379977507238 0.060616627157919295
v 0.2646210755088009 0.6211339977332211 0.060616627157919295
v 0.2659081436534972 0.6162039977512127 0.059722967580669084
v 0.26684013094992826 0.6213629977323853 0.05843840830630844
v 0.2659081436534972 0.6210009977337065 0.059722967580669084
v 0.26597297902803485 0.6214399977321043 0.059786539380028196
v 0.2667563365475075 0.6209269977339766 0.05840532511441718
v 0.26684013094992826 0.6213629977323853 0.05843840830630844
v 0.26739650914529683 0.621592997731546 0.0568563548501853
v 0.2671251240799213 0.6213569977324073 0.05686126824781586
v 0.26709213410782073 0.6215999977315206 0.05853892896856099
v 0.2671251240799213 0.6213569977324073 0.05686126824781586
v 0.26670316236926905 0.6209849977337649 0.05533154992063086
v 0.26703560791006636 0.6209209977339984 0.056863231614997886
v 0.2667854262434517 0.6214229977321664 0.05529536077174841
v 0.26670316236926905 0.6209849977337649 0.05533154992063086
v 0.2658026209699143 0.6163149977508077 0.05403682406946015
v 0.26670316236926905 0.616186997751275 0.05533154992063086
v 0.2658026209699143 0.6211109977333051 0.05403682406946015
v 0.26308939381809165 0.6165109977500924 0.06094907270311392
v 0.2646210755088009 0.6211339977332211 0.060616627157919295
v 0.2646210755088009 0.6163379977507238 0.060616627157919295
v 0.26308939381809165 0.6213059977325934 0.06094907270311392
v 0.26597297902803485 0.6214399977321043 0.059786539380028196
v 0.2646210755088009 0.6211339977332211 0.060616627157919295
v 0.2646566135214485 0.6215769977316045 0.06070078206947106
v 0.2659081436534972 0.6210009977337065 0.059722967580669084
v 0.26684013094992826 0.6213629977323853 0.05843840830630844
v 0.26597297902803485 0.6214399977321043 0.059786539380028196
v 0.2661674851516479 0.6216819977312212 0.05997725477810548
v 0.26709213410782073 0.6215999977315206 0.05853892896856099
v 0.26684013094992826 0.6213629977323853 0.05843840830630844
v 0.2661674851516479 0.6216819977312212 0.05997725477810548
v 0.26709213410782073 0.6215999977315206 0.05853892896856099
v 0.26784914315556224 0.6216299977314111 0.056847220335527415
v 0.26739650914529683 0.621592997731546 0.0568563548501853
v 0.26751267158915804 0.6216369977313855 0.05870594158256789
v 0.2671251240799213 0.6213569977324073 0.05686126824781586
v 0.2670338145205491 0.6216649977312834 0.05518522785585893
v 0.2667854262434517 0.6214229977321664 0.05529536077174841
v 0.26739650914529683 0.621592997731546 0.0568563548501853
v 0.2667854262434517 0.6214229977321664 0.05529536077174841
v 0.2658026209699143 0.6211109977333051 0.05403682406946015
v 0.26670316236926905 0.6209849977337649 0.05533154992063086
v 0.2658652472506329 0.6215529977316921 0.053971663126621376
v 0.2658026209699143 0.6211109977333051 0.05403682406946015
v 0.2644909148183202 0.6164819977501983 0.053195963312780224
v 0.2658026209699143 0.6163149977508077 0.05403682406946015
v 0.2644909148183202 0.621275997732703 0.053195963312780224
v 0.26154697475576155 0.6166959977494173 0.06067074686182385
v 0.26308939381809165 0.6213059977325934 0.06094907270311392
v 0.26308939381809165 0.6165109977500924 0.06094907270311392
v 0.26154697475576155 0.6214899977319218 0.06067074686182385
v 0.26308939381809165 0.6213059977325934 0.06094907270311392
v 0.2646566135214485 0.6215769977316045 0.06070078206947106
v 0.2646210755088009 0.6211339977332211 0.060616627157919295
v 0.26309070604912105 0.6217529977309622 0.06104047991043586
v 0.2647638786953372 0.6218289977306847 0.06095135576691249
v 0.26597297902803485 0.6214399977321043 0.059786539380028196
v 0.2646566135214485 0.6215769977316045 0.06070078206947106
v 0.2661674851516479 0.6216819977312212 0.05997725477810548
v 0.2664910420737058 0.6217289977310498 0.06029384268832223
v 0.26709213410782073 0.6215999977315206 0.05853892896856099
v 0.2661674851516479 0.6216819977312212 0.05997725477810548
v 0.26751267158915804 0.6216369977313855 0.05870594158256789
v 0.26739650914529683 0.621592997731546 0.0568563548501853
v 0.26744800163258836 0.6217089977311226 0.055002096691569455
v 0.2670338145205491 0.6216649977312834 0.05518522785585893
v 0.26784914315556224 0.6216299977314111 0.056847220335527415
v 0.2667854262434517 0.6214229977321664 0.05529536077174841
v 0.2660543971793647 0.6218029977307797 0.05377556034746991
v 0.2658652472506329 0.6215529977316921 0.053971663126621376
v 0.2670338145205491 0.6216649977312834 0.05518522785585893
v 0.2658652472506329 0.6215529977316921 0.053971663126621376
v 0.2644909148183202 0.621275997732703 0.053195963312780224
v 0.2658026209699143 0.6211109977333051 0.05403682406946015
v 0.26452432357827765 0.6217229977310716 0.053111223391437305
v 0.2644909148183202 0.621275997732703 0.053195963312780224
v 0.2629497668425665 0.616666997749523 0.05291701752085496
v 0.2644909148183202 0.6164819977501983 0.053195963312780224
v 0.2629497668425665 0.6214609977320279 0.05291701752085496
v 0.2602334087522761 0.6168629977488078 0.05982607284540767
v 0.26154697475576155 0.6214899977319218 0.06067074686182385
v 0.26154697475576155 0.6166959977494173 0.06067074686182385
v 0.2602334087522761 0.6216589977313051 0.05982607284540767
v 0.26154697475576155 0.6214899977319218 0.06067074686182385
v 0.26309070604912105 0.6217529977309622 0.06104047991043586
v 0.26308939381809165 0.6213059977325934 0.06094907270311392
v 0.2615135659958041 0.6219419977302724 0.06075548678316673
v 0.2630952938781545 0.6220169977299986 0.06131281049518762
v 0.2646566135214485 0.6215769977316045 0.06070078206947106
v 0.26309070604912105 0.6217529977309622 0.06104047991043586
v 0.2647638786953372 0.6218289977306847 0.06095135576691249
v 0.26494287103046693 0.6218909977304585 0.06136834825024358
v 0.2661674851516479 0.6216819977312212 0.05997725477810548
v 0.2647638786953372 0.6218289977306847 0.06095135576691249
v 0.2664910420737058 0.6217289977310498 0.06029384268832223
v 0.2670338145205491 0.6216649977312834 0.05518522785585893
v 0.2663681797189033 0.6218619977305644 0.053447864596062176
v 0.2660543971793647 0.6218029977307797 0.05377556034746991
v 0.26744800163258836 0.6217089977311226 0.055002096691569455
v 0.2658652472506329 0.6215529977316921 0.053971663126621376
v 0.2646232787715734 0.6219859977301119 0.05285762357804374
v 0.26452432357827765 0.6217229977310716 0.053111223391437305
v 0.2660543971793647 0.6218029977307797 0.05377556034746991
v 0.26452432357827765 0.6217229977310716 0.053111223391437305
v 0.2629497668425665 0.6214609977320279 0.05291701752085496
v 0.2644909148183202 0.621275997732703 0.053195963312780224
v 0.26294812904356435 0.6219119977303819 0.052826555832140035
v 0.2629497668425665 0.6214609977320279 0.05291701752085496
v 0.2614177595838843 0.6168389977488954 0.05325040858465657
v 0.2629497668425665 0.616666997749523 0.05291701752085496
v 0.2614180851518573 0.6216349977313927 0.05324946306604963
v 0.2593359982913892 0.6169909977483407 0.058534540303338066
v 0.2602334087522761 0.6216589977313051 0.05982607284540767
v 0.2602334087522761 0.6168629977488078 0.05982607284540767
v 0.25933599829138926 0.6217889977308309 0.05853454030333809
v 0.2602334087522761 0.6216589977313051 0.05982607284540767
v 0.2615135659958041 0.6219419977302724 0.06075548678316673
v 0.26154697475576155 0.6214899977319218 0.06067074686182385
v 0.2601707824715575 0.6221139977296446 0.05989123378824644
v 0.2615135659958041 0.6219419977302724 0.06075548678316673
v 0.2630952938781545 0.6220169977299986 0.06131281049518762
v 0.26309070604912105 0.6217529977309622 0.06104047991043586
v 0.26141461080250855 0.6222179977292651 0.06100908659656036
v 0.26310156065064333 0.6220979977297032 0.0617676299266114
v 0.2647638786953372 0.6218289977306847 0.06095135576691249
v 0.2630952938781545 0.6220169977299986 0.06131281049518762
v 0.26494287103046693 0.6218909977304585 0.06136834825024358
v 0.2660543971793647 0.6218029977307797 0.05377556034746991
v 0.2647884315341533 0.622062997729831 0.05243327283538555
v 0.2646232787715734 0.6219859977301119 0.05285762357804374
v 0.2663681797189033 0.6218619977305644 0.053447864596062176
v 0.26294812904356435 0.6219119977303819 0.052826555832140035
v 0.2646232787715734 0.6219859977301119 0.05285762357804374
v 0.26294386678250375 0.6221869977293782 0.05255327972878131
v 0.26452432357827765 0.6217229977310716 0.053111223391437305
v 0.26294812904356435 0.6219119977303819 0.052826555832140035
v 0.2614180851518573 0.6216349977313927 0.05324946306604963
v 0.2629497668425665 0.6214609977320279 0.05291701752085496
v 0.26138222157123675 0.622088997729736 0.053166253673104825
v 0.2614177595838843 0.6168389977488954 0.05325040858465657
v 0.2601300714885576 0.6217719977308928 0.05414279707532806
v 0.26013007148855755 0.6169739977484028 0.054142797075328035
v 0.2614180851518573 0.6216349977313927 0.05324946306604963
v 0.2590032271826189 0.6170559977481036 0.057003804127577995
v 0.25933599829138926 0.6217889977308309 0.05853454030333809
v 0.2593359982913892 0.6169909977483407 0.058534540303338066
v 0.25900322718261887 0.62185499773059 0.05700380412757799
v 0.25933599829138926 0.6217889977308309 0.05853454030333809
v 0.2601707824715575 0.6221139977296446 0.05989123378824644
v 0.2602334087522761 0.6216589977313051 0.05982607284540767
v 0.2592524633306301 0.6222449977291667 0.058571349402855646
v 0.26141461080250855 0.6222179977292651 0.06100908659656036
v 0.2601707824715575 0.6221139977296446 0.05989123378824644
v 0.2599825780614291 0.6224019977285937 0.06008766213536973
v 0.2615135659958041 0.6219419977302724 0.06075548678316673
v 0.26310156065064333 0.6220979977297032 0.0617676299266114
v 0.26141461080250855 0.6222179977292651 0.06100908659656036
v 0.2612494580399284 0.6223199977288929 0.06143343733921851
v 0.2630952938781545 0.6220169977299986 0.06131281049518762
v 0.26294386678250375 0.6221869977293782 0.05255327972878131
v 0.2647884315341533 0.622062997729831 0.05243327283538555
v 0.26293632892343843 0.6222849977290207 0.05209908024799263
v 0.2646232787715734 0.6219859977301119 0.05285762357804374
v 0.26138222157123675 0.622088997729736 0.053166253673104825
v 0.26294386678250375 0.6221869977293782 0.05255327972878131
v 0.2612749563973481 0.6223749977286922 0.05291567997566339
v 0.26294812904356435 0.6219119977303819 0.052826555832140035
v 0.2614180851518573 0.6216349977313927 0.05324946306604963
v 0.26006491054604697 0.6222279977292287 0.054080170794575874
v 0.2601300714885576 0.6217719977308928 0.05414279707532806
v 0.26138222157123675 0.622088997729736 0.053166253673104825
v 0.26013007148855755 0.6169739977484028 0.054142797075328035
v 0.2592815530265742 0.6218489977306119 0.055461385060186864
v 0.2592815530265742 0.6170499977481254 0.05546138506018688
v 0.2601300714885576 0.6217719977308928 0.05414279707532806
v 0.2592815530265742 0.6170499977481254 0.05546138506018688
v 0.25900322718261887 0.62185499773059 0.05700380412757799
v 0.2590032271826189 0.6170559977481036 0.057003804127577995
v 0.2592815530265742 0.6218489977306119 0.055461385060186864
v 0.25933599829138926 0.6217889977308309 0.05853454030333809
v 0.2589127654941605 0.6223119977289221 0.05700544192678817
v 0.2592524633306301 0.6222449977291667 0.058571349402855646
v 0.25900322718261887 0.62185499773059 0.05700380412757799
v 0.2599825780614291 0.6224019977285937 0.06008766213536973
v 0.2592524633306301 0.6222449977291667 0.058571349402855646
v 0.2590040750535326 0.6225399977280901 0.05868148231874511
v 0.2601707824715575 0.6221139977296446 0.05989123378824644
v 0.2612494580399284 0.6223199977288929 0.06143343733921851
v 0.2599825780614291 0.6224019977285937 0.06008766213536973
v 0.2596684699539178 0.6225219977281558 0.06041630340538444
v 0.26141461080250855 0.6222179977292651 0.06100908659656036
v 0.2612749563973481 0.6223749977286922 0.05291567997566339
v 0.26293632892343843 0.6222849977290207 0.05209908024799263
v 0.26109596406221836 0.6224929977282616 0.0524986874923323
v 0.26294386678250375 0.6221869977293782 0.05255327972878131
v 0.26006491054604697 0.6222279977292287 0.054080170794575874
v 0.2612749563973481 0.6223749977286922 0.05291567997566339
v 0.25987040442243386 0.6225219977281558 0.05388945539649856
v 0.26138222157123675 0.622088997729736 0.053166253673104825
v 0.2601300714885576 0.6217719977308928 0.05414279707532806
v 0.25919808419212664 0.622305997728944 0.055427356349688685
v 0.2592815530265742 0.6218489977306119 0.055461385060186864
v 0.26006491054604697 0.6222279977292287 0.054080170794575874
v 0.25900322718261887 0.62185499773059 0.05700380412757799
v 0.25919808419212664 0.622305997728944 0.055427356349688685
v 0.2589127654941605 0.6223119977289221 0.05700544192678817
v 0.2592815530265742 0.6218489977306119 0.055461385060186864
v 0.2590040750535326 0.6225399977280901 0.05868148231874511
v 0.2589127654941605 0.6223119977289221 0.05700544192678817
v 0.258641380428785 0.6226109977278309 0.057010355324418754
v 0.2592524633306301 0.6222449977291667 0.058571349402855646
v 0.2596684699539178 0.6225219977281558 0.06041630340538444
v 0.2590040750535326 0.6225399977280901 0.05868148231874511
v 0.25858988794149357 0.6226749977275973 0.058864613483034636
v 0.2599825780614291 0.6224019977285937 0.06008766213536973
v 0.25987040442243386 0.6225219977281558 0.05388945539649856
v 0.26109596406221836 0.6224929977282616 0.0524986874923323
v 0.259546847500376 0.6226549977276703 0.05357286748628181
v 0.2612749563973481 0.6223749977286922 0.05291567997566339
v 0.26006491054604697 0.6222279977292287 0.054080170794575874
v 0.25894575546626114 0.6226049977278528 0.05532778120604308
v 0.25919808419212664 0.622305997728944 0.055427356349688685
v 0.25987040442243386 0.6225219977281558 0.05388945539649856
v 0.2589127654941605 0.6223119977289221 0.05700544192678817
v 0.25894575546626114 0.6226049977278528 0.05532778120604308
v 0.258641380428785 0.6226109977278309 0.057010355324418754
v 0.25919808419212664 0.622305997728944 0.055427356349688685
v 0.25858988794149357 0.6226749977275973 0.058864613483034636
v 0.258641380428785 0.6226109977278309 0.057010355324418754
v 0.25818969193712304 0.6227529977273127 0.05701981540704847
v 0.2590040750535326 0.6225399977280901 0.05868148231874511
v 0.25894575546626114 0.6226049977278528 0.05532778120604308
v 0.259546847500376 0.6226549977276703 0.05357286748628181
v 0.25852521798492384 0.6227459977273383 0.05516076859203618
v 0.25987040442243386 0.6225219977281558 0.05388945539649856
v 0.25818969193712304 0.6227529977273127 0.05701981540704847
v 0.25894575546626114 0.6226049977278528 0.05532778120604308
v 0.25852521798492384 0.6227459977273383 0.05516076859203618
v 0.258641380428785 0.6226109977278309 0.057010355324418754
vn -0.9840417447111869 0.0 -0.1779375694565464
vn -0.8410383484721607 0.0 -0.5409754436210483
vn -0.964180425143445 0.19925669025817128 -0.17507945466740477
vn -0.9772336006670546 0.0 0.2121660328161677
vn -0.5700049748720679 1.3877787807814457e-17 -0.8216412020842571
vn -0.8190536662555634 0.19887940014504477 -0.5381431152944944
vn -0.6535443372101193 0.7471582005028613 -0.12097268067294269
vn -0.9559317612921601 0.1989471946099315 0.2159037275486676
vn -0.8209500493468842 5.664482825712414e-07 0.5709999606145066
vn -0.212174660744181 0.0 -0.9772317291523375
vn -0.5448246312314634 0.19786159792513536 -0.8148722893394229
vn -0.5433341386647218 0.7424176847418649 -0.39192341302659256
vn -0.54235064248747 0.7432698720303796 -0.39167032633913884
vn -0.08146678721784678 0.9965050383058202 -0.018462489057806064
vn -0.6456853553401046 0.7440344668306539 0.17176466890189382
vn -0.7955466234522603 0.19815529837950263 0.5725731293172873
vn -0.5399458536624268 6.823563828625701e-07 0.8416997183035724
vn 0.17794434942205667 0.0 -0.9840405222490165
vn -0.18693737343510622 0.196447410992627 -0.9625293629049664
vn -0.33510050498165456 0.7321786188156547 -0.5929773086465948
vn -0.052612502417075636 0.9944437869970901 -0.09117823849723168
vn -0.07994462404144288 0.9950058769024795 0.05976750103801379
vn -0.521400187183717 0.7344061189739515 0.4344990969406456
vn -0.5116371290075485 0.19653629569273687 0.8364214699849809
vn -0.17794693802778708 -1.734723475976807e-18 0.984040054147135
vn 0.5408270167925922 0.0 -0.841133805398244
vn 0.19707471900894039 0.19473919817648772 -0.9608528205453476
vn -0.06972922046418262 0.7173827237338262 -0.6931809507850419
vn 0.0017164867348817103 0.9892116702595505 -0.1464831617410119
vn -0.048367621207175034 0.9902096692304054 0.13094035236241092
vn -0.3076379529361554 0.7197245187027226 0.6223788836861824
vn -0.15189386396481785 0.19497230576415236 0.9689757462958403
vn 0.21217834809626768 6.003996989370486e-07 0.9772309285541112
vn 0.8209547428738546 0.0 -0.5709932124794541
vn 0.5481029259087854 0.19301059455061537 -0.8138366147724073
vn 0.20733246460357263 0.7011585937628263 -0.682194870965294
vn 0.07247923708972878 0.981701594427534 -0.17609295987627424
vn 0.007556888055932941 0.9829607921259429 0.18365991808395107
vn -0.04398816771464719 0.7037432125946249 0.7090913186723066
vn 0.2290692623428634 0.19329449793842796 0.9540253933226996
vn 0.5700066180568748 6.225552002664392e-07 0.8216400621393367
vn 0.9772336006670546 0.0 -0.2121660328161677
vn 0.8145821652869046 0.19169290472629813 -0.5474574565217145
vn 0.45368658532131445 0.6859240992196588 -0.5689258100554585
vn 0.14834691365877953 0.9731600099196079 -0.17593401666158878
vn 0.07874067117195577 0.9745550158426395 0.2098628546421577
vn 0.22736204775264796 0.6883064858536599 0.6888691057856791
vn 0.5730133053065812 0.19184190342642965 0.796776238560024
vn 0.8410286125273241 8.33868869926091e-08 0.5409905795041049
vn 0.9840450035242557 1.3877787807814457e-17 0.17791954641727073
vn 0.9609700128051928 0.19073159676610774 -0.2003946862034939
vn 0.6359135781414887 0.6741834120111003 -0.37562030160440374
vn 0.2176811444715771 0.9649318250967482 -0.14670201504869668
vn 0.1539184816348539 0.9662031372227594 0.20678633313841535
vn 0.46673854579486723 0.6757460971703231 0.5705456193985048
vn 0.8306174840772469 0.19083370730881474 0.5231223830058094
vn 0.9661637522800137 0.1904250003112145 0.17397085711891844
vn 0.7338687928636511 0.6665871786255693 -0.1307596615109339
vn 0.27015800294955494 0.9582646634590594 -0.09350655763853716
vn 0.22201562513455647 0.9591534796065735 0.17531016172847613
vn 0.6432777328089149 0.6674648694119043 0.3750791473305788
vn 0.735967948350453 0.6643058994861163 0.1305710947895575
vn 0.29911411261839405 0.9539104211250142 -0.02420007444292155
vn 0.2730779151391355 0.9544080419369035 0.12055591734059945
vn 0.3000524841087459 0.9525764210290096 0.05066217665938079
usemtl material_0_0
f 1//1 2//1 3//1
f 2//1 1//1 4//1
f 5//2 6//2 7//2
f 6//2 5//2 8//2
f 9//3 10//3 11//3
f 10//3 9//3 12//3
f 13//4 14//4 15//4
f 14//4 13//4 16//4
f 17//5 18//5 19//5
f 18//5 17//5 20//5
f 21//6 22//6 23//6
f 22//6 21//6 24//6
f 25//7 26//7 27//7
f 26//7 25//7 28//7
f 29//8 30//8 31//8
f 30//8 29//8 32//8
f 33//9 34//9 35//9
f 34//9 33//9 36//9
f 37//10 38//10 39//10
f 38//10 37//10 40//10
f 41//11 42//11 43//11
f 42//11 41//11 44//11
f 45//12 46//12 47//12
f 48//13 49//13 50//13
f 51//14 52//14 53//14
f 52//14 51//14 54//14
f 55//15 56//15 57//15
f 56//15 55//15 58//15
f 59//16 60//16 61//16
f 60//16 59//16 62//16
f 63//17 64//17 65//17
f 64//17 63//17 66//17
f 67//18 68//18 69//18
f 68//18 67//18 70//18
f 71//19 72//19 73//19
f 72//19 71//19 74//19
f 75//20 76//20 77//20
f 76//20 75//20 78//20
f 79//21 80//21 81//21
f 80//21 79//21 82//21
f 83//22 84//22 85//22
f 84//22 83//22 86//22
f 87//23 88//23 89//23
f 88//23 87//23 90//23
f 91//24 92//24 93//24
f 92//24 91//24 94//24
f 95//25 96//25 97//25
f 96//25 95//25 98//25
f 99//26 100//26 101//26
f 100//26 99//26 102//26
f 103//27 104//27 105//27
f 104//27 103//27 106//27
f 107//28 108//28 109//28
f 108//28 107//28 110//28
f 111//29 112//29 113//29
f 112//29 111//29 114//29
f 115//30 116//30 117//30
f 116//30 115//30 118//30
f 119//31 120//31 121//31
f 120//31 119//31 122//31
f 123//32 124//32 125//32
f 124//32 123//32 126//32
f 127//33 128//33 129//33
f 128//33 127//33 130//33
f 131//34 132//34 133//34
f 132//34 131//34 134//34
f 135//35 136//35 137//35
f 136//35 135//35 138//35
f 139//36 140//36 141//36
f 140//36 139//36 142//36
f 143//37 144//37 145//37
f 144//37 143//37 146//37
f 147//38 148//38 149//38
f 148//38 147//38 150//38
f 151//39 152//39 153//39
f 152//39 151//39 154//39
f 155//40 156//40 157//40
f 156//40 155//40 158//40
f 159//41 160//41 161//41
f 160//41 159//41 162//41
f 163//42 164//42 165//42
f 164//42 163//42 166//42
f 167//43 168//43 169//43
f 168//43 167//43 170//43
f 171//44 172//44 173//44
f 172//44 171//44 174//44
f 175//45 176//45 177//45
f 176//45 175//45 178//45
f 179//46 180//46 181//46
f 180//46 179//46 182//46
f 183//47 184//47 185//47
f 184//47 183//47 186//47
f 187//48 188//48 189//48
f 188//48 187//48 190//48
f 191//49 192//49 193//49
f 192//49 191//49 194//49
f 195//50 196//50 197//50
f 196//50 195//50 198//50
f 199//51 200//51 201//51
f 200//51 199//51 202//51
f 203//52 204//52 205//52
f 204//52 203//52 206//52
f 207//53 208//53 209//53
f 208//53 207//53 210//53
f 211//54 212//54 213//54
f 212//54 211//54 214//54
f 215//55 216//55 217//55
f 216//55 215//55 218//55
f 219//56 220//56 221//56
f 220//56 219//56 222//56
f 223//57 224//57 225//57
f 224//57 223//57 226//57
f 227//58 228//58 229//58
f 228//58 227//58 230//58
f 231//59 232//59 233//59
f 232//59 231//59 234//59
f 235//60 236//60 237//60
f 236//60 235//60 238//60
f 239//61 240//61 241//61
f 240//61 239//61 242//61
f 243//62 244//62 245//62
f 244//62 243//62 246//62
f 247//63 248//63 249//63
f 248//63 247//63 250//63
f 251//64 252//64 253//64
f 252//64 251//64 254//64
f 255//65 256//65 257//65
f 256//65 255//65 258//65
