# SSTK version 0.8.0
# 18
mtllib original-18.mtl
o #ID105
v 0.1787976665413009 0.6283849977067592 -0.022138328437185287
v 0.17954206954626534 0.6282879977071132 -0.024026864622537333
v 0.17898195058896701 0.6283489977068906 -0.02315576262503791
v 0.17901636804196874 0.6283879977067481 -0.021130202160955135
v 0.1803941728436008 0.6282099977073978 -0.02461869052980946
v 0.1796097594148584 0.6283599977068506 -0.020276502207948396
v 0.1814080034143595 0.6281279977076971 -0.024838600749333025
v 0.18047678495152283 0.6283049977070512 -0.01971990212806949
v 0.18243049075986256 0.6280529977079706 -0.02465363438217071
v 0.18149738125981896 0.6282299977073248 -0.019535586896850764
v 0.1832947109260322 0.6279979977081714 -0.024101173129999803
v 0.18251121183057767 0.6281479977076242 -0.01975549711637437
v 0.18388807111360622 0.6279689977082774 -0.023244311053200493
v 0.18336331512791307 0.6280699977079088 -0.02034732302364647
v 0.18410739256490458 0.6279729977082628 -0.022234913690391593
v 0.1839234340852114 0.6280079977081351 -0.021218425021145897
v 0.1829187613659593 0.627799997708894 -0.01881666309962017
v 0.18336331512791307 0.6280699977079088 -0.02034732302364647
v 0.18251121183057767 0.6281479977076242 -0.01975549711637437
v 0.18409724328647292 0.6276919977092883 -0.0196345464877312
v 0.18409724328647292 0.6276919977092883 -0.0196345464877312
v 0.1839234340852114 0.6280079977081351 -0.021218425021145897
v 0.18336331512791307 0.6280699977079088 -0.02034732302364647
v 0.18487318131665442 0.6276079977095949 -0.020840635228787936
v 0.1839234340852114 0.6280079977081351 -0.021218425021145897
v 0.18512838807884588 0.6275589977097735 -0.022251408912656784
v 0.18410739256490458 0.6279729977082628 -0.022234913690391593
v 0.18487318131665442 0.6276079977095949 -0.020840635228787936
v 0.18410739256490458 0.6279729977082628 -0.022234913690391593
v 0.1848240685727658 0.6275539977097918 -0.02365283729577893
v 0.18388807111360622 0.6279689977082774 -0.023244311053200493
v 0.18512838807884588 0.6275589977097735 -0.022251408912656784
v 0.18388807111360622 0.6279689977082774 -0.023244311053200493
v 0.18400119439929533 0.6275929977096494 -0.0248383257866814
v 0.1832947109260322 0.6279979977081714 -0.024101173129999803
v 0.1848240685727658 0.6275539977097918 -0.02365283729577893
v 0.1832947109260322 0.6279979977081714 -0.024101173129999803
v 0.1828010419724132 0.6276689977093722 -0.0256069316795753
v 0.18243049075986256 0.6280529977079706 -0.02465363438217071
v 0.18400119439929533 0.6275929977096494 -0.0248383257866814
v 0.1814080034143595 0.6281279977076971 -0.024838600749333025
v 0.1828010419724132 0.6276689977093722 -0.0256069316795753
v 0.18138899720659837 0.6277719977089962 -0.025861518488695823
v 0.18243049075986256 0.6280529977079706 -0.02465363438217071
v 0.1803941728436008 0.6282099977073978 -0.02461869052980946
v 0.18138899720659837 0.6277719977089962 -0.025861518488695823
v 0.1799866233082192 0.6278869977085767 -0.02555752454656365
v 0.1814080034143595 0.6281279977076971 -0.024838600749333025
v 0.17954206954626534 0.6282879977071132 -0.024026864622537333
v 0.1799866233082192 0.6278869977085767 -0.02555752454656365
v 0.1788081413877055 0.6279949977081825 -0.024739641158452615
v 0.1803941728436008 0.6282099977073978 -0.02461869052980946
v 0.17898195058896701 0.6283489977068906 -0.02315576262503791
v 0.1788081413877055 0.6279949977081825 -0.024739641158452615
v 0.17803220335752398 0.6280799977078723 -0.023533552417395916
v 0.17954206954626534 0.6282879977071132 -0.024026864622537333
v 0.17777667102735956 0.6281289977076934 -0.022121833214920096
v 0.17898195058896701 0.6283489977068906 -0.02315576262503791
v 0.17803220335752398 0.6280799977078723 -0.023533552417395916
v 0.1787976665413009 0.6283849977067592 -0.022138328437185287
v 0.17808131610141267 0.6281339977076752 -0.020721350350404885
v 0.1787976665413009 0.6283849977067592 -0.022138328437185287
v 0.17777667102735956 0.6281289977076934 -0.022121833214920096
v 0.17901636804196874 0.6283879977067481 -0.021130202160955135
v 0.17890327594159514 0.6280949977078175 -0.01953934955126681
v 0.17901636804196874 0.6283879977067481 -0.021130202160955135
v 0.17808131610141267 0.6281339977076752 -0.020721350350404885
v 0.1796097594148584 0.6283599977068506 -0.020276502207948396
v 0.18010434270176523 0.6280179977080985 -0.01876725596660851
v 0.1796097594148584 0.6283599977068506 -0.020276502207948396
v 0.17890327594159514 0.6280949977078175 -0.01953934955126681
v 0.18047678495152283 0.6283049977070512 -0.01971990212806949
v 0.18151606189960715 0.627913997708478 -0.018511723638881043
v 0.18047678495152283 0.6283049977070512 -0.01971990212806949
v 0.18010434270176523 0.6280179977080985 -0.01876725596660851
v 0.18149738125981896 0.6282299977073248 -0.019535586896850764
v 0.18151606189960715 0.627913997708478 -0.018511723638881043
v 0.18251121183057767 0.6281479977076242 -0.01975549711637437
v 0.18149738125981896 0.6282299977073248 -0.019535586896850764
v 0.1829187613659593 0.627799997708894 -0.01881666309962017
v 0.18434220117886074 0.6266719977130106 -0.019396845786435475
v 0.1829187613659593 0.627799997708894 -0.01881666309962017
v 0.18305418751556102 0.6267889977125837 -0.018503511777157075
v 0.18409724328647292 0.6276919977092883 -0.0196345464877312
v 0.18518944855426764 0.6265809977133427 -0.0207148138206592
v 0.18409724328647292 0.6276919977092883 -0.0196345464877312
v 0.18434220117886074 0.6266719977130106 -0.019396845786435475
v 0.18487318131665442 0.6276079977095949 -0.020840635228787936
v 0.18546871991682623 0.6265289977135325 -0.02225690732007852
v 0.18487318131665442 0.6276079977095949 -0.020840635228787936
v 0.18518944855426764 0.6265809977133427 -0.0207148138206592
v 0.18512838807884588 0.6275589977097735 -0.022251408912656784
v 0.18546871991682623 0.6265289977135325 -0.02225690732007852
v 0.1848240685727658 0.6275539977097918 -0.02365283729577893
v 0.18512838807884588 0.6275589977097735 -0.022251408912656784
v 0.18513627437602914 0.6265229977135545 -0.023788589014445496
v 0.1842373296312239 0.6265639977134049 -0.025084880334858232
v 0.1848240685727658 0.6275539977097918 -0.02365283729577893
v 0.18513627437602914 0.6265229977135545 -0.023788589014445496
v 0.18400119439929533 0.6275929977096494 -0.0248383257866814
v 0.18292497234368374 0.6266469977131018 -0.025923850054324363
v 0.18400119439929533 0.6275929977096494 -0.0248383257866814
v 0.1842373296312239 0.6265639977134049 -0.025084880334858232
v 0.1828010419724132 0.6276689977093722 -0.0256069316795753
v 0.18138287884932666 0.6267589977126932 -0.02620312141422139
v 0.1828010419724132 0.6276689977093722 -0.0256069316795753
v 0.18292497234368374 0.6266469977131018 -0.025923850054324363
v 0.18138899720659837 0.6277719977089962 -0.025861518488695823
v 0.1798511971586175 0.6268839977122369 -0.025870675869026735
v 0.18138899720659837 0.6277719977089962 -0.025861518488695823
v 0.18138287884932666 0.6267589977126932 -0.02620312141422139
v 0.1799866233082192 0.6278869977085767 -0.02555752454656365
v 0.1799866233082192 0.6278869977085767 -0.02555752454656365
v 0.17856318349531772 0.6270019977118064 -0.024977341859748318
v 0.1788081413877055 0.6279949977081825 -0.024739641158452615
v 0.1798511971586175 0.6268839977122369 -0.025870675869026735
v 0.1788081413877055 0.6279949977081825 -0.024739641158452615
v 0.17771593611991082 0.6270959977114634 -0.02365937382552461
v 0.17803220335752398 0.6280799977078723 -0.023533552417395916
v 0.17856318349531772 0.6270019977118064 -0.024977341859748318
v 0.17777667102735956 0.6281289977076934 -0.022121833214920096
v 0.17771593611991082 0.6270959977114634 -0.02365937382552461
v 0.17743666475735206 0.6271509977112626 -0.022117280326105312
v 0.17803220335752398 0.6280799977078723 -0.023533552417395916
v 0.17808131610141267 0.6281339977076752 -0.020721350350404885
v 0.17743666475735206 0.6271509977112626 -0.022117280326105312
v 0.17776911029814932 0.6271569977112407 -0.020585598631738315
v 0.17777667102735956 0.6281289977076934 -0.022121833214920096
v 0.17890327594159514 0.6280949977078175 -0.01953934955126681
v 0.17776911029814932 0.6271569977112407 -0.020585598631738315
v 0.17866746627763963 0.6271129977114013 -0.019293740521696908
v 0.17808131610141267 0.6281339977076752 -0.020721350350404885
v 0.18010434270176523 0.6280179977080985 -0.01876725596660851
v 0.17866746627763963 0.6271129977114013 -0.019293740521696908
v 0.17998041233049472 0.6270279977117116 -0.018450337591859458
v 0.17890327594159514 0.6280949977078175 -0.01953934955126681
v 0.18151606189960715 0.627913997708478 -0.018511723638881043
v 0.17998041233049472 0.6270279977117116 -0.018450337591859458
v 0.18152250582485183 0.6269139977121274 -0.018171066231962428
v 0.18010434270176523 0.6280179977080985 -0.01876725596660851
v 0.1829187613659593 0.627799997708894 -0.01881666309962017
v 0.18152250582485183 0.6269139977121274 -0.018171066231962428
v 0.18305418751556102 0.6267889977125837 -0.018503511777157075
v 0.18151606189960715 0.627913997708478 -0.018511723638881043
vn 0.07684176234326336 0.9968311151799221 -0.020568512633352604
vn 0.2510649380035638 0.9381368655380399 0.23846510061685827
vn 0.333470155358671 0.9308557446628664 0.1493493319602709
vn 0.37602518850686056 0.9259064224457256 0.03608793196707409
vn 0.3731790434324231 0.9238918890685067 -0.08462365643094744
vn 0.32550038214515886 0.9251093871532048 -0.19550475147528085
vn 0.2389689917496558 0.9294621765196618 -0.281058479584224
vn 0.1277180465290471 0.9362271990615708 -0.32736328238629997
vn 0.005843531973394357 0.9446196788013884 -0.32811507527561024
vn -0.1081125840917771 0.9534149918325275 -0.2816229930952545
vn -0.19612324629547184 0.9612213990210731 -0.19387904128962952
vn -0.24362374252011504 0.9667624803629458 -0.07757427082041794
vn -0.2420100727322565 0.9690472365699394 0.048770556863760146
vn -0.1910040905704436 0.9676435555546323 0.16487381865095452
vn -0.0996894238828777 0.9628267764676415 0.25105100321833246
vn 0.016946714741526737 0.9554615306477383 0.2946286822872275
vn 0.14014617038042246 0.9467735798277864 0.289791004769286
vn 0.5604393397813664 0.31278260992979073 0.7668603047836721
vn 0.809179091352463 0.31029149220930363 0.4989472194118022
vn 0.9377986897608956 0.30859499129181667 0.15906818791685137
vn 0.9294979401252357 0.3079298917046921 -0.20300911865826848
vn 0.7862612799868842 0.3083360904478808 -0.5354642831711507
vn 0.5261841987340858 0.3097999120137081 -0.7919306466739364
vn 0.191014567514784 0.3121044085841731 -0.9306472044475165
vn -0.17678612456293322 0.31491970993728086 -0.9325085452930272
vn -0.5205495388121548 0.31784290285672456 -0.7924670396557704
vn -0.786179777151684 0.3204183037335831 -0.5284443290465499
vn -0.9295184632917282 0.3222083932190583 -0.17937981428702754
vn -0.925135236986551 0.3229406000393664 0.19958482862480137
vn -0.7720028917756425 0.32248941474388576 0.5477335636084847
vn -0.4972713709399621 0.3209324934136146 0.8060542564890089
vn -0.14584655522647927 0.31851608361364553 0.9366302541178494
vn 0.2258639302976153 0.31565621649838965 0.9216000120887622
usemtl material_0_0
f 1//1 2//1 3//1
f 2//1 1//1 4//1
f 2//1 4//1 5//1
f 5//1 4//1 6//1
f 5//1 6//1 7//1
f 7//1 6//1 8//1
f 7//1 8//1 9//1
f 9//1 8//1 10//1
f 9//1 10//1 11//1
f 11//1 10//1 12//1
f 11//1 12//1 13//1
f 13//1 12//1 14//1
f 13//1 14//1 15//1
f 15//1 14//1 16//1
f 17//2 18//2 19//2
f 18//2 17//2 20//2
f 21//3 22//3 23//3
f 22//3 21//3 24//3
f 25//4 26//4 27//4
f 26//4 25//4 28//4
f 29//5 30//5 31//5
f 30//5 29//5 32//5
f 33//6 34//6 35//6
f 34//6 33//6 36//6
f 37//7 38//7 39//7
f 38//7 37//7 40//7
f 41//8 42//8 43//8
f 42//8 41//8 44//8
f 45//9 46//9 47//9
f 46//9 45//9 48//9
f 49//10 50//10 51//10
f 50//10 49//10 52//10
f 53//11 54//11 55//11
f 54//11 53//11 56//11
f 57//12 58//12 59//12
f 58//12 57//12 60//12
f 61//13 62//13 63//13
f 62//13 61//13 64//13
f 65//14 66//14 67//14
f 66//14 65//14 68//14
f 69//15 70//15 71//15
f 70//15 69//15 72//15
f 73//16 74//16 75//16
f 74//16 73//16 76//16
f 77//17 78//17 79//17
f 78//17 77//17 80//17
f 81//18 82//18 83//18
f 82//18 81//18 84//18
f 85//19 86//19 87//19
f 86//19 85//19 88//19
f 89//20 90//20 91//20
f 90//20 89//20 92//20
f 93//21 94//21 95//21
f 94//21 93//21 96//21
f 97//22 98//22 99//22
f 98//22 97//22 100//22
f 101//23 102//23 103//23
f 102//23 101//23 104//23
f 105//24 106//24 107//24
f 106//24 105//24 108//24
f 109//25 110//25 111//25
f 110//25 109//25 112//25
f 113//26 114//26 115//26
f 114//26 113//26 116//26
f 117//27 118//27 119//27
f 118//27 117//27 120//27
f 121//28 122//28 123//28
f 122//28 121//28 124//28
f 125//29 126//29 127//29
f 126//29 125//29 128//29
f 129//30 130//30 131//30
f 130//30 129//30 132//30
f 133//31 134//31 135//31
f 134//31 133//31 136//31
f 137//32 138//32 139//32
f 138//32 137//32 140//32
f 141//33 142//33 143//33
f 142//33 141//33 144//33
