# SSTK version 0.8.0
# 4
mtllib original-4.mtl
o #ID21
v -0.22206743344289956 0.616121997751512 -0.015143062746081569
v -0.22173466233412933 0.6209849977337648 -0.013612326570321487
v -0.22173466233412933 0.6161869977512748 -0.013612326570321487
v -0.22206743344289956 0.6209209977339984 -0.015143062746081569
v -0.22173466233412933 0.6209849977337648 -0.013612326570321487
v -0.22083725187324252 0.6163139977508114 -0.012320794028251883
v -0.22173466233412933 0.6161869977512748 -0.013612326570321487
v -0.22083725187324252 0.6211099977333088 -0.012320794028251893
v -0.22178816208034086 0.6161279977514901 -0.016685156245500862
v -0.22206743344289956 0.6209209977339984 -0.015143062746081569
v -0.22206743344289956 0.616121997751512 -0.015143062746081569
v -0.22178816208034086 0.6209269977339765 -0.016685156245500862
v -0.22173466233412933 0.6209849977337648 -0.013612326570321487
v -0.222157895131358 0.6213569977324073 -0.015141424946871375
v -0.22181725177628497 0.6214229977321664 -0.013575191902832077
v -0.22206743344289956 0.6209209977339984 -0.015143062746081569
v -0.22083725187324252 0.6211099977333088 -0.012320794028251893
v -0.21952368586975693 0.6164819977501983 -0.011476120011835709
v -0.22083725187324252 0.6163139977508114 -0.012320794028251883
v -0.2195236858697569 0.621275997732703 -0.011476120011835702
v -0.22181725177628497 0.6214229977321664 -0.013575191902832077
v -0.22083725187324252 0.6211099977333088 -0.012320794028251893
v -0.22173466233412933 0.6209849977337648 -0.013612326570321487
v -0.22090114924053741 0.6215519977316956 -0.012255013134777986
v -0.22094058913696094 0.6162039977512127 -0.018004069798331506
v -0.22178816208034086 0.6209269977339765 -0.016685156245500862
v -0.22178816208034086 0.6161279977514901 -0.016685156245500862
v -0.22094058913696096 0.6210009977337065 -0.018004069798331513
v -0.22206743344289956 0.6209209977339984 -0.015143062746081569
v -0.22187257643339192 0.6213629977323853 -0.016719510523970874
v -0.222157895131358 0.6213569977324073 -0.015141424946871375
v -0.22178816208034086 0.6209269977339765 -0.016685156245500862
v -0.22206564005338236 0.6216649977312833 -0.013465058986942627
v -0.222157895131358 0.6213569977324073 -0.015141424946871375
v -0.22242928019673347 0.621592997731546 -0.01513651154924077
v -0.22181725177628497 0.6214229977321664 -0.013575191902832077
v -0.2195236858697569 0.621275997732703 -0.011476120011835702
v -0.21798126680742674 0.616666997749523 -0.011197794170545582
v -0.21952368586975693 0.6164819977501983 -0.011476120011835709
v -0.21798126680742677 0.6214609977320279 -0.011197794170545585
v -0.22090114924053741 0.6215519977316956 -0.012255013134777986
v -0.2195236858697569 0.621275997732703 -0.011476120011835702
v -0.22083725187324252 0.6211099977333088 -0.012320794028251893
v -0.21955582354313788 0.6217229977310718 -0.011392000041127923
v -0.22108935365066587 0.6218029977307797 -0.012058584787654711
v -0.22181725177628497 0.6214229977321664 -0.013575191902832077
v -0.22206564005338236 0.6216649977312833 -0.013465058986942627
v -0.22090114924053741 0.6215519977316956 -0.012255013134777986
v -0.21965257547366115 0.6163379977507238 -0.01889740380760991
v -0.22094058913696096 0.6210009977337065 -0.018004069798331513
v -0.22094058913696094 0.6162039977512127 -0.018004069798331506
v -0.21965257547366115 0.6211339977332212 -0.01889740380760991
v -0.22094058913696096 0.6210009977337065 -0.018004069798331513
v -0.22187257643339192 0.6213629977323853 -0.016719510523970874
v -0.22178816208034086 0.6209269977339765 -0.016685156245500862
v -0.2210057500794716 0.6214399977321043 -0.018066696079083674
v -0.22242928019673347 0.621592997731546 -0.01513651154924077
v -0.22187257643339192 0.6213629977323853 -0.016719510523970874
v -0.22212490515925742 0.6215999977315206 -0.01681908566761649
v -0.222157895131358 0.6213569977324073 -0.015141424946871375
v -0.2224798271654216 0.6217089977311226 -0.013281927822653134
v -0.22242928019673347 0.621592997731546 -0.01513651154924077
v -0.22288096868839552 0.6216299977314111 -0.015127051466611072
v -0.22206564005338236 0.6216649977312833 -0.013465058986942627
v -0.21798126680742677 0.6214609977320279 -0.011197794170545585
v -0.2164495851167177 0.6168389977488954 -0.01153023971574026
v -0.21798126680742674 0.616666997749523 -0.011197794170545582
v -0.2164495851167177 0.6216349977313927 -0.01153023971574026
v -0.21955582354313788 0.6217229977310718 -0.011392000041127923
v -0.21798126680742677 0.6214609977320279 -0.011197794170545585
v -0.2195236858697569 0.621275997732703 -0.011476120011835702
v -0.21797995457639757 0.6219119977303819 -0.011106386963223715
v -0.21965510430440655 0.6219859977301119 -0.011137454709127385
v -0.22090114924053741 0.6215519977316956 -0.012255013134777986
v -0.22108935365066587 0.6218029977307797 -0.012058584787654711
v -0.21955582354313788 0.6217229977310718 -0.011392000041127923
v -0.2214031361902042 0.6218609977305679 -0.011730889036246927
v -0.22206564005338236 0.6216649977312833 -0.013465058986942627
v -0.2224798271654216 0.6217089977311226 -0.013281927822653134
v -0.22108935365066587 0.6218029977307797 -0.012058584787654711
v -0.218120893782952 0.6165109977500924 -0.019229849352804564
v -0.21965257547366115 0.6211339977332212 -0.01889740380760991
v -0.21965257547366115 0.6163379977507238 -0.01889740380760991
v -0.218120893782952 0.6213059977325935 -0.019229849352804564
v -0.21965257547366115 0.6211339977332212 -0.01889740380760991
v -0.2210057500794716 0.6214399977321043 -0.018066696079083674
v -0.22094058913696096 0.6210009977337065 -0.018004069798331513
v -0.21968843905428173 0.6215769977316046 -0.018980613200554757
v -0.22187257643339192 0.6213629977323853 -0.016719510523970874
v -0.22119931068448118 0.6216819977312211 -0.01825708590918916
v -0.22212490515925742 0.6215999977315206 -0.01681908566761649
v -0.2210057500794716 0.6214399977321043 -0.018066696079083674
v -0.22288096868839552 0.6216299977314111 -0.015127051466611072
v -0.22212490515925742 0.6215999977315206 -0.01681908566761649
v -0.2225444971219913 0.6216369977313855 -0.01698577271365158
v -0.22242928019673347 0.621592997731546 -0.01513651154924077
v -0.2151615714534179 0.6217719977308929 -0.012423573725018662
v -0.2164495851167177 0.6168389977488954 -0.01153023971574026
v -0.2164495851167177 0.6216349977313927 -0.01153023971574026
v -0.2151615714534179 0.6169739977484028 -0.012423573725018662
v -0.21797995457639757 0.6219119977303819 -0.011106386963223715
v -0.2164495851167177 0.6216349977313927 -0.01153023971574026
v -0.21798126680742677 0.6214609977320279 -0.011197794170545585
v -0.21641372153609711 0.622088997729736 -0.011447030322795423
v -0.21797536674736387 0.6221869977293784 -0.010834056378471896
v -0.21955582354313788 0.6217229977310718 -0.011392000041127923
v -0.21965510430440655 0.6219859977301119 -0.011137454709127385
v -0.21797995457639757 0.6219119977303819 -0.011106386963223715
v -0.21982087701761707 0.6220629977298309 -0.010714375053047981
v -0.22108935365066587 0.6218029977307797 -0.012058584787654711
v -0.2214031361902042 0.6218609977305679 -0.011730889036246927
v -0.21965510430440655 0.6219859977301119 -0.011137454709127385
v -0.21657880028859486 0.6166959977494173 -0.018950577992907523
v -0.218120893782952 0.6213059977325935 -0.019229849352804564
v -0.218120893782952 0.6165109977500924 -0.019229849352804564
v -0.21657880028859489 0.6214899977319218 -0.018950577992907527
v -0.218120893782952 0.6213059977325935 -0.019229849352804564
v -0.21968843905428173 0.6215769977316046 -0.018980613200554757
v -0.21965257547366115 0.6211339977332212 -0.01889740380760991
v -0.21812253158195416 0.6217529977309622 -0.019320311041519513
v -0.2210057500794716 0.6214399977321043 -0.018066696079083674
v -0.21979570422817038 0.6218289977306848 -0.019231186897996164
v -0.22119931068448118 0.6216819977312211 -0.01825708590918916
v -0.21968843905428173 0.6215769977316046 -0.018980613200554757
v -0.22212490515925742 0.6215999977315206 -0.01681908566761649
v -0.22152381312514258 0.6217289977310498 -0.01857399938737774
v -0.2225444971219913 0.6216369977313855 -0.01698577271365158
v -0.22119931068448118 0.6216819977312211 -0.01825708590918916
v -0.21431432407801096 0.6218489977306118 -0.013741541759242372
v -0.2151615714534179 0.6169739977484028 -0.012423573725018662
v -0.2151615714534179 0.6217719977308929 -0.012423573725018662
v -0.21431432407801093 0.6170499977481254 -0.01374154175924236
v -0.2150967360788802 0.6222279977292288 -0.01236000192565957
v -0.2164495851167177 0.6216349977313927 -0.01153023971574026
v -0.21641372153609711 0.622088997729736 -0.011447030322795423
v -0.2151615714534179 0.6217719977308929 -0.012423573725018662
v -0.21797536674736387 0.6221869977293784 -0.010834056378471896
v -0.21641372153609711 0.622088997729736 -0.011447030322795423
v -0.21797995457639757 0.6219119977303819 -0.011106386963223715
v -0.2163064563622084 0.6223749977286922 -0.011196456625353984
v -0.21796815445627177 0.6222849977290208 -0.010378911379076322
v -0.21965510430440655 0.6219859977301119 -0.011137454709127385
v -0.21982087701761707 0.6220629977298309 -0.010714375053047981
v -0.21797536674736387 0.6221869977293784 -0.010834056378471896
v -0.21526647418637024 0.6168629977488078 -0.018108446149648832
v -0.21657880028859489 0.6214899977319218 -0.018950577992907527
v -0.21657880028859486 0.6166959977494173 -0.018950577992907523
v -0.21526647418637027 0.6216589977313051 -0.01810844614964884
v -0.21657880028859489 0.6214899977319218 -0.018950577992907527
v -0.21812253158195416 0.6217529977309622 -0.019320311041519513
v -0.218120893782952 0.6213059977325935 -0.019229849352804564
v -0.216546337047241 0.6219419977302725 -0.01903564348222224
v -0.21968843905428173 0.6215769977316046 -0.018980613200554757
v -0.21812679384301495 0.6220169977299987 -0.01959358714487826
v -0.21979570422817038 0.6218289977306848 -0.019231186897996164
v -0.21812253158195416 0.6217529977309622 -0.019320311041519513
v -0.22119931068448118 0.6216819977312211 -0.01825708590918916
v -0.21997469656330024 0.6218909977304584 -0.01964817938132727
v -0.22152381312514258 0.6217289977310498 -0.01857399938737774
v -0.21979570422817038 0.6218289977306848 -0.019231186897996164
v -0.21403505271545226 0.6218549977305899 -0.015283635258661677
v -0.21431432407801093 0.6170499977481254 -0.01374154175924236
v -0.21431432407801096 0.6218489977306118 -0.013741541759242372
v -0.21403505271545228 0.6170559977481035 -0.015283635258661684
v -0.21422958415698687 0.6223059977289441 -0.013708132999379282
v -0.2151615714534179 0.6217719977308929 -0.012423573725018662
v -0.2150967360788802 0.6222279977292288 -0.01236000192565957
v -0.21431432407801096 0.6218489977306118 -0.013741541759242372
v -0.2163064563622084 0.6223749977286922 -0.011196456625353984
v -0.2150967360788802 0.6222279977292288 -0.01236000192565957
v -0.21641372153609711 0.622088997729736 -0.011447030322795423
v -0.21490317547387064 0.6225219977281558 -0.01216961209555407
v -0.21796815445627177 0.6222849977290208 -0.010378911379076322
v -0.2163064563622084 0.6223749977286922 -0.011196456625353984
v -0.21797536674736387 0.6221869977293784 -0.010834056378471896
v -0.21612778959505158 0.6224929977282615 -0.010778518623415959
v -0.21436749825624943 0.6169909977483407 -0.016815316953028674
v -0.21526647418637027 0.6216589977313051 -0.01810844614964884
v -0.21526647418637024 0.6168629977488078 -0.018108446149648832
v -0.21436749825624943 0.6217889977308307 -0.016815316953028674
v -0.21526647418637027 0.6216589977313051 -0.01810844614964884
v -0.216546337047241 0.6219419977302725 -0.01903564348222224
v -0.21657880028859489 0.6214899977319218 -0.018950577992907527
v -0.21520290238704834 0.6221139977296447 -0.018173281524515805
v -0.216546337047241 0.6219419977302725 -0.01903564348222224
v -0.21812679384301495 0.6220169977299987 -0.01959358714487826
v -0.21812253158195416 0.6217529977309622 -0.019320311041519513
v -0.21644738185394524 0.6222179977292652 -0.01928924329561585
v -0.21979570422817038 0.6218289977306848 -0.019231186897996164
v -0.21813433170208008 0.6220979977297031 -0.02004778662566691
v -0.21997469656330024 0.6218909977304584 -0.01964817938132727
v -0.21812679384301495 0.6220169977299987 -0.01959358714487826
v -0.21403505271545226 0.6218549977305899 -0.015283635258661677
v -0.21436749825624943 0.6169909977483407 -0.016815316953028674
v -0.21403505271545228 0.6170559977481035 -0.015283635258661684
v -0.21436749825624943 0.6217889977308307 -0.016815316953028674
v -0.21394459102699376 0.6223119977289221 -0.015285273057871866
v -0.21431432407801096 0.6218489977306118 -0.013741541759242372
v -0.21422958415698687 0.6223059977289441 -0.013708132999379282
v -0.21403505271545226 0.6218549977305899 -0.015283635258661677
v -0.21397758099909434 0.6226049977278528 -0.01360761233712673
v -0.2150967360788802 0.6222279977292288 -0.01236000192565957
v -0.21490317547387064 0.6225219977281558 -0.01216961209555407
v -0.21422958415698687 0.6223059977289441 -0.013708132999379282
v -0.21612778959505158 0.6224929977282615 -0.010778518623415959
v -0.21490317547387064 0.6225219977281558 -0.01216961209555407
v -0.2163064563622084 0.6223749977286922 -0.011196456625353984
v -0.2145786730332092 0.6226549977276703 -0.011852698617365477
v -0.21436749825624943 0.6217889977308307 -0.016815316953028674
v -0.21520290238704834 0.6221139977296447 -0.018173281524515805
v -0.21526647418637027 0.6216589977313051 -0.01810844614964884
v -0.21428523438206687 0.6222449977291669 -0.016851506101911152
v -0.21520290238704834 0.6221139977296447 -0.018173281524515805
v -0.21644738185394524 0.6222179977292652 -0.01928924329561585
v -0.216546337047241 0.6219419977302725 -0.01903564348222224
v -0.21501437240894686 0.6224009977285972 -0.018370655390246023
v -0.21812679384301495 0.6220169977299987 -0.01959358714487826
v -0.21628128357276166 0.6223199977288929 -0.019713268470302164
v -0.21813433170208008 0.6220979977297031 -0.02004778662566691
v -0.21644738185394524 0.6222179977292652 -0.01928924329561585
v -0.21394459102699376 0.6223119977289221 -0.015285273057871866
v -0.21436749825624943 0.6217889977308307 -0.016815316953028674
v -0.21403505271545226 0.6218549977305899 -0.015283635258661677
v -0.21428523438206687 0.6222449977291669 -0.016851506101911152
v -0.2136741514802218 0.6226109977278309 -0.01529051202347427
v -0.21422958415698687 0.6223059977289441 -0.013708132999379282
v -0.21397758099909434 0.6226049977278528 -0.01360761233712673
v -0.21394459102699376 0.6223119977289221 -0.015285273057871866
v -0.2145786730332092 0.6226549977276703 -0.011852698617365477
v -0.21397758099909434 0.6226049977278528 -0.01360761233712673
v -0.21490317547387064 0.6225219977281558 -0.01216961209555407
v -0.21355798903636053 0.6227459977273382 -0.013440925291091674
v -0.21428523438206687 0.6222449977291669 -0.016851506101911152
v -0.21501437240894686 0.6224009977285972 -0.018370655390246023
v -0.21520290238704834 0.6221139977296447 -0.018173281524515805
v -0.21403684610496937 0.6225399977280901 -0.016961639017800612
v -0.21501437240894686 0.6224009977285972 -0.018370655390246023
v -0.21628128357276166 0.6223199977288929 -0.019713268470302164
v -0.21644738185394524 0.6222179977292652 -0.01928924329561585
v -0.21470058986940846 0.6225219977281558 -0.01869835114165378
v -0.21394459102699376 0.6223119977289221 -0.015285273057871866
v -0.21403684610496937 0.6225399977280901 -0.016961639017800612
v -0.21428523438206687 0.6222449977291669 -0.016851506101911152
v -0.2136741514802218 0.6226109977278309 -0.01529051202347427
v -0.21397758099909434 0.6226049977278528 -0.01360761233712673
v -0.21322151746995632 0.6227529977273127 -0.015299646538132164
v -0.2136741514802218 0.6226109977278309 -0.01529051202347427
v -0.21355798903636053 0.6227459977273382 -0.013440925291091674
v -0.21403684610496937 0.6225399977280901 -0.016961639017800612
v -0.21470058986940846 0.6225219977281558 -0.01869835114165378
v -0.21501437240894686 0.6224009977285972 -0.018370655390246023
v -0.21362265899293026 0.6226749977275974 -0.017144770182090117
v -0.2136741514802218 0.6226109977278309 -0.01529051202347427
v -0.21362265899293026 0.6226749977275974 -0.017144770182090117
v -0.21403684610496937 0.6225399977280901 -0.016961639017800612
v -0.21322151746995632 0.6227529977273127 -0.015299646538132164
vn 0.9772332405376689 -1.8197869079694673e-07 -0.21216769155993423
vn 0.8212944877610219 -2.8321359233501875e-07 -0.5705044284787127
vn 0.984041618897441 -1.0673110205361436e-07 0.17793826523834072
vn 0.9559369829896966 0.19890910372380832 -0.21591570361429197
vn 0.5404616690208873 0.0 -0.8413686023361722
vn 0.7959054000477829 0.19809310474733122 -0.5720958458154856
vn 0.8410459845372389 1.6680429966442478e-07 0.5409635718747435
vn 0.9641845168895677 0.19922850566195274 0.17508899511542433
vn 0.6456870192939671 0.7440317637428194 -0.1717701227584265
vn 0.17794493297476838 -6.941055347084446e-07 -0.9840404167245776
vn 0.5121346958724862 0.1966209940972325 -0.8360969924113447
vn 0.5217010151539013 0.7343637118162134 -0.43420957793855336
vn 0.5699863386820959 0.0 0.8216541304328161
vn 0.8190724252689057 0.19882329819405015 0.5381352941459857
vn 0.6535274261153831 0.7471744581654628 0.12096362729709476
vn 0.07983772605294322 0.99501754301877 -0.05971615149004419
vn -0.2121851022851982 -6.002353090742152e-07 -0.9772294620465382
vn 0.15188848797089022 0.19497329726585946 -0.9689763895007635
vn 0.3078970255506161 0.719867506757146 -0.6220853334950044
vn 0.048373849675338976 0.9902204833804378 -0.13085624424507342
vn 0.21217606884921125 1.7570100177069503e-06 0.9772314234246536
vn 0.5448146662130942 0.19784300222034346 0.8148834668923535
vn 0.5427932525403932 0.742888875565074 0.39178000221303544
vn 0.08147201609940788 0.9965046157054493 0.018462225247101286
vn -0.5699956236830382 0.0 -0.8216476892948907
vn -0.22906646121041133 0.19330629509396177 -0.9540236756045152
vn 0.04399075224775928 0.7037311356852467 -0.7091031439581087
vn -0.007511724180650926 0.9829693182052901 -0.1836161332572295
vn -0.1779383641963389 7.743987266144864e-07 0.98404160454011
vn 0.18694334240139596 0.19644439759496643 0.9625288186397372
vn 0.33509402796406484 0.732182799812678 0.5929758063708587
vn 0.052613806234910084 0.9944436740316498 0.09117871821348902
vn -0.8410366820439853 0.0 -0.5409780343583506
vn -0.5730141598446624 0.1918500952252829 -0.796773651598895
vn -0.2273820686745652 0.6882279323426879 -0.6889409786877141
vn -0.0787276997511367 0.974553836225936 -0.2098731987375214
vn -0.5399540807874321 6.823547746524772e-07 0.8416944405902452
vn -0.19707311463792607 0.19471839326259738 0.9608573659709018
vn 0.06973301476282741 0.7173823211615662 0.6931809857219442
vn -0.0017194612012792338 0.9892121133678806 0.14648013448082528
vn -0.9840416540708532 1.601003982026894e-07 -0.17793807072071963
vn -0.8306252299921959 0.19080489559298508 -0.5231205935720927
vn -0.46676151420599166 0.675675224515991 -0.5706107619143838
vn -0.15397053349601755 0.966197618001576 -0.20677337043984914
vn -0.8212870132661064 5.661909132093079e-07 0.5705151885627155
vn -0.5472605400826339 0.19298849857842915 0.8144085481076795
vn -0.2073407792528108 0.7011501840485165 0.682200987337582
vn -0.07248002018703774 0.9817026490077247 0.17608675825759373
vn -0.977230136616041 5.460839795634609e-07 0.2121819875551384
vn -0.9661671850246184 0.19039799297405702 -0.1739813522836389
vn -0.6432611044595565 0.667483395613399 -0.3750746969076955
vn -0.2219726212363035 0.9591577212958424 -0.17534140740606582
vn -0.8148955896436905 0.19173589791303317 0.5469757433879592
vn -0.45310569620115965 0.6859376155171814 0.5693722689332212
vn -0.14832471564085425 0.9731782215991412 0.17585197654422977
vn -0.9609713086076209 0.1907191982302278 0.20040027253848153
vn -0.7359347486917247 0.664343742181584 -0.13056568378002473
vn -0.2730753504578847 0.9544083049508929 -0.12055964444830909
vn -0.6361144654230328 0.6742111778404721 0.3752301126339301
vn -0.21753692309130845 0.9649460190493182 0.1468225336145764
vn -0.7338595910861339 0.6665972033846473 0.1307602001261729
vn -0.3000535814812719 0.9525760474731549 -0.050662701119995754
vn -0.2702704414475986 0.9582403851557065 0.0934304064367505
vn -0.2991073484401293 0.9539125877816913 0.024198274368710693
usemtl material_0_0
f 1//1 2//1 3//1
f 2//1 1//1 4//1
f 5//2 6//2 7//2
f 6//2 5//2 8//2
f 9//3 10//3 11//3
f 10//3 9//3 12//3
f 13//4 14//4 15//4
f 14//4 13//4 16//4
f 17//5 18//5 19//5
f 18//5 17//5 20//5
f 21//6 22//6 23//6
f 22//6 21//6 24//6
f 25//7 26//7 27//7
f 26//7 25//7 28//7
f 29//8 30//8 31//8
f 30//8 29//8 32//8
f 33//9 34//9 35//9
f 34//9 33//9 36//9
f 37//10 38//10 39//10
f 38//10 37//10 40//10
f 41//11 42//11 43//11
f 42//11 41//11 44//11
f 45//12 46//12 47//12
f 46//12 45//12 48//12
f 49//13 50//13 51//13
f 50//13 49//13 52//13
f 53//14 54//14 55//14
f 54//14 53//14 56//14
f 57//15 58//15 59//15
f 58//15 57//15 60//15
f 61//16 62//16 63//16
f 62//16 61//16 64//16
f 65//17 66//17 67//17
f 66//17 65//17 68//17
f 69//18 70//18 71//18
f 70//18 69//18 72//18
f 73//19 74//19 75//19
f 74//19 73//19 76//19
f 77//20 78//20 79//20
f 78//20 77//20 80//20
f 81//21 82//21 83//21
f 82//21 81//21 84//21
f 85//22 86//22 87//22
f 86//22 85//22 88//22
f 89//23 90//23 91//23
f 90//23 89//23 92//23
f 93//24 94//24 95//24
f 94//24 93//24 96//24
f 97//25 98//25 99//25
f 98//25 97//25 100//25
f 101//26 102//26 103//26
f 102//26 101//26 104//26
f 105//27 106//27 107//27
f 106//27 105//27 108//27
f 109//28 110//28 111//28
f 110//28 109//28 112//28
f 113//29 114//29 115//29
f 114//29 113//29 116//29
f 117//30 118//30 119//30
f 118//30 117//30 120//30
f 121//31 122//31 123//31
f 122//31 121//31 124//31
f 125//32 126//32 127//32
f 126//32 125//32 128//32
f 129//33 130//33 131//33
f 130//33 129//33 132//33
f 133//34 134//34 135//34
f 134//34 133//34 136//34
f 137//35 138//35 139//35
f 138//35 137//35 140//35
f 141//36 142//36 143//36
f 142//36 141//36 144//36
f 145//37 146//37 147//37
f 146//37 145//37 148//37
f 149//38 150//38 151//38
f 150//38 149//38 152//38
f 153//39 154//39 155//39
f 154//39 153//39 156//39
f 157//40 158//40 159//40
f 158//40 157//40 160//40
f 161//41 162//41 163//41
f 162//41 161//41 164//41
f 165//42 166//42 167//42
f 166//42 165//42 168//42
f 169//43 170//43 171//43
f 170//43 169//43 172//43
f 173//44 174//44 175//44
f 174//44 173//44 176//44
f 177//45 178//45 179//45
f 178//45 177//45 180//45
f 181//46 182//46 183//46
f 182//46 181//46 184//46
f 185//47 186//47 187//47
f 186//47 185//47 188//47
f 189//48 190//48 191//48
f 190//48 189//48 192//48
f 193//49 194//49 195//49
f 194//49 193//49 196//49
f 197//50 198//50 199//50
f 198//50 197//50 200//50
f 201//51 202//51 203//51
f 202//51 201//51 204//51
f 205//52 206//52 207//52
f 206//52 205//52 208//52
f 209//53 210//53 211//53
f 210//53 209//53 212//53
f 213//54 214//54 215//54
f 214//54 213//54 216//54
f 217//55 218//55 219//55
f 218//55 217//55 220//55
f 221//56 222//56 223//56
f 222//56 221//56 224//56
f 225//57 226//57 227//57
f 226//57 225//57 228//57
f 229//58 230//58 231//58
f 230//58 229//58 232//58
f 233//59 234//59 235//59
f 234//59 233//59 236//59
f 237//60 238//60 239//60
f 238//60 237//60 240//60
f 241//61 242//61 243//61
f 242//61 241//61 244//61
f 245//62 246//62 247//62
f 246//62 245//62 248//62
f 249//63 250//63 251//63
f 250//63 249//63 252//63
f 253//64 254//64 255//64
f 254//64 253//64 256//64
