# SSTK version 0.8.0
# 5
mtllib original-5.mtl
o #ID27
v -0.14190655350656256 0.624039997722616 -0.016542488605790454
v -0.14157410796576536 0.6288919977049089 -0.015010806911423456
v -0.14157410796576536 0.6240929977224225 -0.015010806911423456
v -0.14190655350656256 0.6288389977051024 -0.016542488605790454
v -0.14157410796576536 0.6288919977049089 -0.015010806911423456
v -0.14068044839397684 0.6241859977220833 -0.01372373876503371
v -0.14157410796576536 0.6240929977224225 -0.015010806911423456
v -0.14068044839397684 0.6289839977045732 -0.01372373876503371
v -0.14162728214400389 0.6240339977226378 -0.018084582105209766
v -0.14190655350656256 0.6288389977051024 -0.016542488605790454
v -0.14190655350656256 0.624039997722616 -0.016542488605790454
v -0.14162728214400389 0.6288329977051242 -0.018084582105209766
v -0.14157410796576536 0.6288919977049089 -0.015010806911423456
v -0.14199701519502106 0.6292789977034967 -0.016540850806580264
v -0.14165637183994798 0.6293329977032996 -0.014974617762540963
v -0.14190655350656256 0.6288389977051024 -0.016542488605790454
v -0.14068044839397684 0.6289839977045732 -0.01372373876503371
v -0.1393618604148165 0.6243039977216523 -0.012875220303572785
v -0.14068044839397684 0.6241859977220833 -0.01372373876503371
v -0.13936186041481652 0.6291009977041463 -0.012875220303572795
v -0.14165637183994798 0.6293329977032996 -0.014974617762540963
v -0.14068044839397684 0.6289839977045732 -0.01372373876503371
v -0.14157410796576536 0.6288919977049089 -0.015010806911423456
v -0.14074340024266843 0.6294269977029564 -0.013657632303588022
v -0.14077394253305647 0.6240769977224808 -0.01941102862158727
v -0.14162728214400389 0.6288329977051242 -0.018084582105209766
v -0.14162728214400389 0.6240339977226378 -0.018084582105209766
v -0.14077394253305647 0.6288759977049673 -0.01941102862158727
v -0.14190655350656256 0.6288389977051024 -0.016542488605790454
v -0.1417120220650281 0.6292729977035185 -0.01811799086507285
v -0.14199701519502106 0.6292789977034967 -0.016540850806580264
v -0.14162728214400389 0.6288329977051242 -0.018084582105209766
v -0.14190665115425238 0.6295839977023836 -0.014865135982595156
v -0.14199701519502106 0.6292789977034967 -0.016540850806580264
v -0.14226934577900005 0.6295259977025952 -0.016536262976921498
v -0.14165637183994798 0.6293329977032996 -0.014974617762540963
v -0.13936186041481652 0.6291009977041463 -0.012875220303572795
v -0.13782038687108986 0.6244279977211998 -0.012597220030254493
v -0.1393618604148165 0.6243039977216523 -0.012875220303572785
v -0.13782038687108986 0.6292259977036899 -0.012597220030254493
v -0.14074340024266843 0.6294269977029564 -0.013657632303588022
v -0.13936186041481652 0.6291009977041463 -0.012875220303572795
v -0.14068044839397684 0.6289839977045732 -0.01372373876503371
v -0.13939526917477393 0.6295469977025185 -0.012790480382229876
v -0.1409325501714003 0.6296839977020187 -0.013461529524436557
v -0.14165637183994798 0.6293329977032996 -0.014974617762540963
v -0.14190665115425238 0.6295839977023836 -0.014865135982595156
v -0.14074340024266843 0.6294269977029564 -0.013657632303588022
v -0.1394920211052972 0.6241599977221781 -0.020295884148711876
v -0.14077394253305647 0.6288759977049673 -0.01941102862158727
v -0.14077394253305647 0.6240769977224808 -0.01941102862158727
v -0.1394920211052972 0.6289579977046681 -0.020295884148711876
v -0.14077394253305647 0.6288759977049673 -0.01941102862158727
v -0.1417120220650281 0.6292729977035185 -0.01811799086507285
v -0.14162728214400389 0.6288329977051242 -0.018084582105209766
v -0.1408387779075941 0.6293159977033616 -0.01947460042094636
v -0.14226934577900005 0.6295259977025952 -0.016536262976921498
v -0.1417120220650281 0.6292729977035185 -0.01811799086507285
v -0.14196529630949697 0.6295189977026208 -0.01821789157669029
v -0.14199701519502106 0.6292789977034967 -0.016540850806580264
v -0.14232272930349849 0.6296439977021646 -0.014682655954249274
v -0.14226934577900005 0.6295259977025952 -0.016536262976921498
v -0.142722925307869 0.6295799977023983 -0.01652745403023544
v -0.14190665115425238 0.6295839977023836 -0.014865135982595156
v -0.13782038687108986 0.6292259977036899 -0.012597220030254493
v -0.13628870518038066 0.6245419977207839 -0.012929665575449134
v -0.13782038687108986 0.6244279977211998 -0.012597220030254493
v -0.1362887051803807 0.6293399977032739 -0.012929665575449143
v -0.13939526917477393 0.6295469977025185 -0.012790480382229876
v -0.13782038687108986 0.6292259977036899 -0.012597220030254493
v -0.13936186041481652 0.6291009977041463 -0.012875220303572795
v -0.13781812912145716 0.6296749977020514 -0.012505487254960791
v -0.13949516988667307 0.6298129977015477 -0.012537206136808102
v -0.14074340024266843 0.6294269977029564 -0.013657632303588022
v -0.1409325501714003 0.6296839977020187 -0.013461529524436557
v -0.13939526917477393 0.6295469977025185 -0.012790480382229876
v -0.14124665827891172 0.6297549977017595 -0.013132888254421847
v -0.14190665115425238 0.6295839977023836 -0.014865135982595156
v -0.14232272930349849 0.6296439977021646 -0.014682655954249274
v -0.1409325501714003 0.6296839977020187 -0.013461529524436557
v -0.13796033941458807 0.6242739977217621 -0.02062832969390653
v -0.1394920211052972 0.6289579977046681 -0.020295884148711876
v -0.1394920211052972 0.6241599977221781 -0.020295884148711876
v -0.13796033941458807 0.6290709977042557 -0.02062832969390653
v -0.1394920211052972 0.6289579977046681 -0.020295884148711876
v -0.1408387779075941 0.6293159977033616 -0.01947460042094636
v -0.14077394253305647 0.6288759977049673 -0.01941102862158727
v -0.1395275591179448 0.6294009977030515 -0.020380039060263647
v -0.1417120220650281 0.6292729977035185 -0.01811799086507285
v -0.14103455511778368 0.6295649977024529 -0.01966469586838857
v -0.14196529630949697 0.6295189977026208 -0.01821789157669029
v -0.1408387779075941 0.6293159977033616 -0.01947460042094636
v -0.142722925307869 0.6295799977023983 -0.01652745403023544
v -0.14196529630949697 0.6295189977026208 -0.01821789157669029
v -0.14238677930943774 0.6295719977024272 -0.018385229758668985
v -0.14226934577900005 0.6295259977025952 -0.016536262976921498
v -0.13500548148072938 0.6294239977029675 -0.013818303177001454
v -0.13628870518038066 0.6245419977207839 -0.012929665575449134
v -0.1362887051803807 0.6293399977032739 -0.012929665575449143
v -0.13500548148072938 0.6246259977204774 -0.013818303177001454
v -0.13781812912145716 0.6296749977020514 -0.012505487254960791
v -0.1362887051803807 0.6293399977032739 -0.012929665575449143
v -0.13782038687108986 0.6292259977036899 -0.012597220030254493
v -0.13625222164912967 0.6297909977016282 -0.012845185095925572
v -0.13781448681102693 0.6299489977010516 -0.012233482238180797
v -0.13939526917477393 0.6295469977025185 -0.012790480382229876
v -0.13949516988667307 0.6298129977015477 -0.012537206136808102
v -0.13781812912145716 0.6296749977020514 -0.012505487254960791
v -0.13966126816785668 0.6298969977012414 -0.012113180962121786
v -0.1409325501714003 0.6296839977020187 -0.013461529524436557
v -0.14124665827891172 0.6297549977017595 -0.013132888254421847
v -0.13949516988667307 0.6298129977015477 -0.012537206136808102
v -0.13641792035225792 0.6243979977213096 -0.02035000385261642
v -0.13796033941458807 0.6290709977042557 -0.02062832969390653
v -0.13796033941458807 0.6242739977217621 -0.02062832969390653
v -0.13641792035225792 0.6291959977037995 -0.02035000385261642
v -0.13796033941458807 0.6290709977042557 -0.02062832969390653
v -0.1395275591179448 0.6294009977030515 -0.020380039060263647
v -0.1394920211052972 0.6289579977046681 -0.020295884148711876
v -0.13796165164561724 0.629516997702628 -0.020719736901228417
v -0.1408387779075941 0.6293159977033616 -0.01947460042094636
v -0.13963514985980643 0.6296569977021172 -0.020629667239098138
v -0.14103455511778368 0.6295649977024529 -0.01966469586838857
v -0.1395275591179448 0.6294009977030515 -0.020380039060263647
v -0.14196529630949697 0.6295189977026208 -0.01821789157669029
v -0.14136032864502154 0.6296239977022374 -0.01998098939594204
v -0.14238677930943774 0.6295719977024272 -0.018385229758668985
v -0.14103455511778368 0.6295649977024529 -0.01966469586838857
v -0.13415249862307055 0.6294669977028106 -0.015140642050979439
v -0.13500548148072938 0.6246259977204774 -0.013818303177001454
v -0.13500548148072938 0.6294239977029675 -0.013818303177001454
v -0.13415249862307055 0.6246679977203241 -0.015140642050979439
v -0.13494064610619164 0.6298769977013142 -0.013754731377642345
v -0.1362887051803807 0.6293399977032739 -0.012929665575449143
v -0.13625222164912967 0.6297909977016282 -0.012845185095925572
v -0.13500548148072938 0.6294239977029675 -0.013818303177001454
v -0.13781448681102693 0.6299489977010516 -0.012233482238180797
v -0.13625222164912967 0.6297909977016282 -0.012845185095925572
v -0.13781812912145716 0.6296749977020514 -0.012505487254960791
v -0.13614463090726797 0.6300719977006026 -0.01259555691709107
v -0.13780632900133133 0.6300469977006938 -0.011778011670813403
v -0.13949516988667307 0.6298129977015477 -0.012537206136808102
v -0.13966126816785668 0.6298969977012414 -0.012113180962121786
v -0.13781448681102693 0.6299489977010516 -0.012233482238180797
v -0.135100277891701 0.6245159977208788 -0.0195018109591273
v -0.13641792035225792 0.6291959977037995 -0.02035000385261642
v -0.13641792035225792 0.6243979977213096 -0.02035000385261642
v -0.135100277891701 0.6293139977033689 -0.0195018109591273
v -0.13641792035225792 0.6291959977037995 -0.02035000385261642
v -0.13796165164561724 0.629516997702628 -0.020719736901228417
v -0.13796033941458807 0.6290709977042557 -0.02062832969390653
v -0.13638451159230053 0.6296439977021646 -0.020434743773959332
v -0.1395275591179448 0.6294009977030515 -0.020380039060263647
v -0.13796591390667795 0.6297799977016683 -0.02099301300458716
v -0.13963514985980643 0.6296569977021172 -0.020629667239098138
v -0.13796165164561724 0.629516997702628 -0.020719736901228417
v -0.14103455511778368 0.6295649977024529 -0.01966469586838857
v -0.13981476214556673 0.629724997701869 -0.021047930809007985
v -0.14136032864502154 0.6296239977022374 -0.01998098939594204
v -0.13963514985980643 0.6296569977021172 -0.020629667239098138
v -0.13387417277911534 0.6294609977028325 -0.01668306111837058
v -0.13415249862307055 0.6246679977203241 -0.015140642050979439
v -0.13415249862307055 0.6294669977028106 -0.015140642050979439
v -0.13387417277911534 0.6246619977203461 -0.01668306111837058
v -0.13406870422064984 0.6299209977011536 -0.015107558859088176
v -0.13500548148072938 0.6294239977029675 -0.013818303177001454
v -0.13494064610619164 0.6298769977013142 -0.013754731377642345
v -0.13415249862307055 0.6294669977028106 -0.015140642050979439
v -0.13614463090726797 0.6300719977006026 -0.01259555691709107
v -0.13494064610619164 0.6298769977013142 -0.013754731377642345
v -0.13625222164912967 0.6297909977016282 -0.012845185095925572
v -0.13474581441460567 0.6301639977002668 -0.013564961498171966
v -0.13780632900133133 0.6300469977006938 -0.011778011670813403
v -0.13614463090726797 0.6300719977006026 -0.01259555691709107
v -0.13781448681102693 0.6299489977010516 -0.012233482238180797
v -0.13596469305353465 0.6301829977001976 -0.012178238865788152
v -0.13420661831991254 0.6246089977205393 -0.018214742812737567
v -0.135100277891701 0.6293139977033689 -0.0195018109591273
v -0.135100277891701 0.6245159977208788 -0.0195018109591273
v -0.1342066183199126 0.6294069977030295 -0.01821474281273758
v -0.135100277891701 0.6293139977033689 -0.0195018109591273
v -0.13638451159230053 0.6296439977021646 -0.020434743773959332
v -0.13641792035225792 0.6291959977037995 -0.02035000385261642
v -0.13503732604300955 0.6297649977017231 -0.019567917420573032
v -0.13796165164561724 0.629516997702628 -0.020719736901228417
v -0.13628461088040134 0.629915997701172 -0.020688018019381103
v -0.13796591390667795 0.6297799977016683 -0.02099301300458716
v -0.13638451159230053 0.6296439977021646 -0.020434743773959332
v -0.13963514985980643 0.6296569977021172 -0.020629667239098138
v -0.13797345176574322 0.6298609977013726 -0.02144721248537583
v -0.13981476214556673 0.629724997701869 -0.021047930809007985
v -0.13796591390667795 0.6297799977016683 -0.02099301300458716
v -0.1342066183199126 0.6294069977030295 -0.01821474281273758
v -0.13387417277911534 0.6246619977203461 -0.01668306111837058
v -0.13387417277911534 0.6294609977028325 -0.01668306111837058
v -0.13420661831991254 0.6246089977205393 -0.018214742812737567
v -0.13378371109065684 0.6299149977011755 -0.016684698917580766
v -0.13415249862307055 0.6294669977028106 -0.015140642050979439
v -0.13406870422064984 0.6299209977011536 -0.015107558859088176
v -0.13387417277911534 0.6294609977028325 -0.01668306111837058
v -0.1338157555441539 0.630209997700099 -0.015006712628863814
v -0.13494064610619164 0.6298769977013142 -0.013754731377642345
v -0.13474581441460567 0.6301639977002668 -0.013564961498171966
v -0.13406870422064984 0.6299209977011536 -0.015107558859088176
v -0.13596469305353465 0.6301829977001976 -0.012178238865788152
v -0.13474581441460567 0.6301639977002668 -0.013564961498171966
v -0.13614463090726797 0.6300719977006026 -0.01259555691709107
v -0.1344200408873678 0.6302839976998289 -0.013248667970618496
v -0.1342066183199126 0.6294069977030295 -0.01821474281273758
v -0.13503732604300955 0.6297649977017231 -0.019567917420573032
v -0.135100277891701 0.6293139977033689 -0.0195018109591273
v -0.13412340892712643 0.6298599977013764 -0.018250606393648228
v -0.13503732604300955 0.6297649977017231 -0.019567917420573032
v -0.13628461088040134 0.629915997701172 -0.020688018019381103
v -0.13638451159230053 0.6296439977021646 -0.020434743773959332
v -0.1348481761142776 0.6300449977007011 -0.01976402019972448
v -0.13796591390667795 0.6297799977016683 -0.02099301300458716
v -0.13611851259921776 0.6300109977008252 -0.021112043194067433
v -0.13797345176574322 0.6298609977013726 -0.02144721248537583
v -0.13628461088040134 0.629915997701172 -0.020688018019381103
v -0.13378371109065684 0.6299149977011755 -0.016684698917580766
v -0.1342066183199126 0.6294069977030295 -0.01821474281273758
v -0.13387417277911534 0.6294609977028325 -0.01668306111837058
v -0.13412340892712643 0.6298599977013764 -0.018250606393648228
v -0.1335113805066779 0.6302039977001208 -0.01668928674723953
v -0.13406870422064984 0.6299209977011536 -0.015107558859088176
v -0.1338157555441539 0.630209997700099 -0.015006712628863814
v -0.13378371109065684 0.6299149977011755 -0.016684698917580766
v -0.1344200408873678 0.6302839976998289 -0.013248667970618496
v -0.1338157555441539 0.630209997700099 -0.015006712628863814
v -0.13474581441460567 0.6301639977002668 -0.013564961498171966
v -0.13339394697624013 0.6303349976996429 -0.01484031996549203
v -0.13412340892712643 0.6298599977013764 -0.018250606393648228
v -0.1348481761142776 0.6300449977007011 -0.01976402019972448
v -0.13503732604300955 0.6297649977017231 -0.019567917420573032
v -0.13387407513142552 0.6301459977003325 -0.01836041374156587
v -0.1348481761142776 0.6300449977007011 -0.01976402019972448
v -0.13611851259921776 0.6300109977008252 -0.021112043194067433
v -0.13628461088040134 0.629915997701172 -0.020688018019381103
v -0.13453312248816274 0.6301529977003071 -0.020092335901767372
v -0.13378371109065684 0.6299149977011755 -0.016684698917580766
v -0.13387407513142552 0.6301459977003325 -0.01836041374156587
v -0.13412340892712643 0.6298599977013764 -0.018250606393648228
v -0.1335113805066779 0.6302039977001208 -0.01668928674723953
v -0.1338157555441539 0.630209997700099 -0.015006712628863814
v -0.13305780097780895 0.6303279976996683 -0.016698095693925608
v -0.1335113805066779 0.6302039977001208 -0.01668928674723953
v -0.13339394697624013 0.6303349976996429 -0.01484031996549203
v -0.13387407513142552 0.6301459977003325 -0.01836041374156587
v -0.13453312248816274 0.6301529977003071 -0.020092335901767372
v -0.1348481761142776 0.6300449977007011 -0.01976402019972448
v -0.1334579969821794 0.6302639976999019 -0.018542893769911743
v -0.1335113805066779 0.6302039977001208 -0.01668928674723953
v -0.1334579969821794 0.6302639976999019 -0.018542893769911743
v -0.13387407513142552 0.6301459977003325 -0.01836041374156587
v -0.13305780097780895 0.6303279976996683 -0.016698095693925608
vn 0.9772333642499353 1.3877787807814457e-17 -0.21216712174700475
vn 0.8216454880289398 6.938893903907228e-18 -0.569998798716229
vn 0.9840420693900868 -5.3364011806666944e-08 0.1779357738871422
vn 0.9563980208292887 0.19824620143249444 -0.21447892065590685
vn 0.5409758724130217 -6.816777154868003e-07 -0.8410380765116491
vn 0.7987910525121233 0.19753558923213696 -0.5682538923244492
vn 0.8410405789361473 8.33831019647624e-08 0.5409719759696427
vn 0.9645918818038921 0.19850299801375024 0.17366346078606879
vn 0.6604549262010684 0.7316515095404102 -0.16877596213296364
vn 0.17794413993483005 -1.3874160378728184e-06 -0.9840405601296547
vn 0.5179925344310556 0.196526093307368 -0.832502955944002
vn 0.5408699391403067 0.7245532915268493 -0.42717935793296696
vn 0.5679673690432397 0.0 0.8230510336915517
vn 0.8214557373030411 0.198344405826599 0.5346680323808665
vn 0.668151346407891 0.7346076158739673 0.11800590941248269
vn 0.11739784273172225 0.9912718500932366 -0.059982142990384166
vn -0.21217970550449408 -5.999407844750615e-07 -0.9772306338299106
vn 0.15916724325654225 0.19539220440729416 -0.9677229035173508
vn 0.3321741213519833 0.7146950020601442 -0.6155252833893349
vn 0.08611118657604452 0.9876737821850342 -0.13071095958782167
vn 0.21217444295854512 2.999713899290435e-07 0.9772317764374623
vn 0.5480395536514558 0.19772220034595828 0.8127475116895091
vn 0.5613844449584673 0.7328210330858117 0.3844747119002692
vn 0.11885182927152799 0.9927550404279138 0.017654014782551408
vn -0.5696674593934079 1.3877787807814457e-17 -0.8218752472562301
vn -0.22188304713816898 0.1942585028577856 -0.9555268120339468
vn 0.07085441487238703 0.703673698408174 -0.706981572964984
vn 0.03031463148827441 0.9825539572167697 -0.18349042259566442
vn -0.17793965850092153 3.4684981183204233e-07 0.9840413704981111
vn 0.19418070941808613 0.19681438961814723 0.9610191930536869
vn 0.35764533931343484 0.7264396236012066 0.5868349434129477
vn 0.09020367036009723 0.9918663410381406 0.089802289160222
vn -0.840384915268505 0.0 -0.5419899707512988
vn -0.5674759227042232 0.19335050076613405 -0.8003665406452348
vn -0.20155326333975343 0.6932451227506072 -0.6919446845306727
vn -0.04105975772157712 0.9767474320876289 -0.21042466692569284
vn -0.5409776062348456 0.0 0.8410369612735925
vn -0.18982495258446336 0.19569199269400273 0.9621180147497387
vn 0.09693369263392108 0.7171572039787414 0.6901372116592966
vn 0.03582168948524021 0.9887101229628639 0.1454960164655487
vn -0.9840386641593052 0.0 -0.17795460487964895
vn -0.8274753161039096 0.19272370875543265 -0.5273917990293914
vn -0.4448061408234211 0.6849702087189244 -0.5770296984173044
vn -0.1168901015766693 0.9711669813083571 -0.2077772559879317
vn -0.8216445074404853 -6.938893903907228e-18 0.5700002122185152
vn -0.5429136641335669 0.1945591970121153 0.8169402761220861
vn -0.18097063673824604 0.7062298082406284 0.6844626019017893
vn -0.034635371984469816 0.9839140133724049 0.17525294960889465
vn -0.9772292887027931 0.0 0.21218589268660762
vn -0.9655052395842397 0.19248920641998388 -0.1753495762197724
vn -0.6261505906874892 0.6798079940437194 -0.381833065895428
vn -0.1856617717982124 0.9665953196399946 -0.1767008303795799
vn -0.8126135690176107 0.19353979187903833 0.5497285483710649
vn -0.4316216770353546 0.6955577048414223 0.5743711107382516
vn -0.110966956099948 0.9782034735796341 0.1755115078554812
vn -0.960279478686795 0.192795098851425 0.2017258300279286
vn -0.7224983241374597 0.6784007133081633 -0.13329893019366568
vn -0.23740868842878246 0.9637085533819222 -0.12207754629918087
vn -0.6195436323297043 0.686694493646105 0.3802845301933207
vn -0.1811293431234209 0.9724743888576945 0.14658005956830747
vn -0.7203780874320007 0.6807797690720598 0.13264342881721133
vn -0.26497275343781085 0.9628724276491539 -0.05163444999912505
vn -0.23474135709849914 0.9675745785301298 0.09325191360052494
vn -0.26407660348260353 0.9642090121992498 0.02375956506914852
usemtl material_0_0
f 1//1 2//1 3//1
f 2//1 1//1 4//1
f 5//2 6//2 7//2
f 6//2 5//2 8//2
f 9//3 10//3 11//3
f 10//3 9//3 12//3
f 13//4 14//4 15//4
f 14//4 13//4 16//4
f 17//5 18//5 19//5
f 18//5 17//5 20//5
f 21//6 22//6 23//6
f 22//6 21//6 24//6
f 25//7 26//7 27//7
f 26//7 25//7 28//7
f 29//8 30//8 31//8
f 30//8 29//8 32//8
f 33//9 34//9 35//9
f 34//9 33//9 36//9
f 37//10 38//10 39//10
f 38//10 37//10 40//10
f 41//11 42//11 43//11
f 42//11 41//11 44//11
f 45//12 46//12 47//12
f 46//12 45//12 48//12
f 49//13 50//13 51//13
f 50//13 49//13 52//13
f 53//14 54//14 55//14
f 54//14 53//14 56//14
f 57//15 58//15 59//15
f 58//15 57//15 60//15
f 61//16 62//16 63//16
f 62//16 61//16 64//16
f 65//17 66//17 67//17
f 66//17 65//17 68//17
f 69//18 70//18 71//18
f 70//18 69//18 72//18
f 73//19 74//19 75//19
f 74//19 73//19 76//19
f 77//20 78//20 79//20
f 78//20 77//20 80//20
f 81//21 82//21 83//21
f 82//21 81//21 84//21
f 85//22 86//22 87//22
f 86//22 85//22 88//22
f 89//23 90//23 91//23
f 90//23 89//23 92//23
f 93//24 94//24 95//24
f 94//24 93//24 96//24
f 97//25 98//25 99//25
f 98//25 97//25 100//25
f 101//26 102//26 103//26
f 102//26 101//26 104//26
f 105//27 106//27 107//27
f 106//27 105//27 108//27
f 109//28 110//28 111//28
f 110//28 109//28 112//28
f 113//29 114//29 115//29
f 114//29 113//29 116//29
f 117//30 118//30 119//30
f 118//30 117//30 120//30
f 121//31 122//31 123//31
f 122//31 121//31 124//31
f 125//32 126//32 127//32
f 126//32 125//32 128//32
f 129//33 130//33 131//33
f 130//33 129//33 132//33
f 133//34 134//34 135//34
f 134//34 133//34 136//34
f 137//35 138//35 139//35
f 138//35 137//35 140//35
f 141//36 142//36 143//36
f 142//36 141//36 144//36
f 145//37 146//37 147//37
f 146//37 145//37 148//37
f 149//38 150//38 151//38
f 150//38 149//38 152//38
f 153//39 154//39 155//39
f 154//39 153//39 156//39
f 157//40 158//40 159//40
f 158//40 157//40 160//40
f 161//41 162//41 163//41
f 162//41 161//41 164//41
f 165//42 166//42 167//42
f 166//42 165//42 168//42
f 169//43 170//43 171//43
f 170//43 169//43 172//43
f 173//44 174//44 175//44
f 174//44 173//44 176//44
f 177//45 178//45 179//45
f 178//45 177//45 180//45
f 181//46 182//46 183//46
f 182//46 181//46 184//46
f 185//47 186//47 187//47
f 186//47 185//47 188//47
f 189//48 190//48 191//48
f 190//48 189//48 192//48
f 193//49 194//49 195//49
f 194//49 193//49 196//49
f 197//50 198//50 199//50
f 198//50 197//50 200//50
f 201//51 202//51 203//51
f 202//51 201//51 204//51
f 205//52 206//52 207//52
f 206//52 205//52 208//52
f 209//53 210//53 211//53
f 210//53 209//53 212//53
f 213//54 214//54 215//54
f 214//54 213//54 216//54
f 217//55 218//55 219//55
f 218//55 217//55 220//55
f 221//56 222//56 223//56
f 222//56 221//56 224//56
f 225//57 226//57 227//57
f 226//57 225//57 228//57
f 229//58 230//58 231//58
f 230//58 229//58 232//58
f 233//59 234//59 235//59
f 234//59 233//59 236//59
f 237//60 238//60 239//60
f 238//60 237//60 240//60
f 241//61 242//61 243//61
f 242//61 241//61 244//61
f 245//62 246//62 247//62
f 246//62 245//62 248//62
f 249//63 250//63 251//63
f 250//63 249//63 252//63
f 253//64 254//64 255//64
f 254//64 253//64 256//64
