# SSTK version 0.8.0
# 19
mtllib original-19.mtl
o #ID111
v 0.18020308583288894 0.6283849977067592 0.05837680314722867
v 0.1809500310110064 0.6283599977068505 0.05648702706060639
v 0.18038671874460913 0.6283879977067482 0.05736125999658988
v 0.18042208171621427 0.6283489977068906 0.059387146028644464
v 0.18179574769014376 0.6283049977070513 0.055901463030302384
v 0.1810132876692394 0.6282879977071131 0.060237978240521906
v 0.18280990382887555 0.6282299977073248 0.055680607292171884
v 0.18188500961360568 0.6282099977073977 0.06079936828405249
v 0.18383112008780214 0.6281479977076242 0.05586619360996934
v 0.18290655144050527 0.6281279977076971 0.060984009083243015
v 0.1847031676001414 0.6280699977079087 0.05642663813489301
v 0.18392038201126407 0.6280529977079707 0.060764098863719446
v 0.18529437355316664 0.6280079977081351 0.05727747034677044
v 0.18476609869040153 0.6279979977081714 0.06017853483341546
v 0.18551336943649196 0.6279729977082628 0.05828781322818623
v 0.18532941095679878 0.6279689977082774 0.05930430189743196
v 0.18432476942286222 0.6276689977093722 0.06170290169516509
v 0.18476609869040153 0.6279979977081714 0.06017853483341546
v 0.18392038201126407 0.6280529977079707 0.060764098863719446
v 0.18549908133035792 0.6275929977096495 0.060890985801358925
v 0.18549908133035792 0.6275929977096495 0.060890985801358925
v 0.18532941095679878 0.6279689977082774 0.05930430189743196
v 0.18476609869040153 0.6279979977081714 0.06017853483341546
v 0.1862788638055844 0.6275539977097918 0.059679875084604275
v 0.18532941095679878 0.6279689977082774 0.05930430189743196
v 0.18653407056777585 0.6275589977097735 0.0582691014007354
v 0.18551336943649196 0.6279729977082628 0.05828781322818623
v 0.1862788638055844 0.6275539977097918 0.059679875084604275
v 0.18551336943649196 0.6279729977082628 0.05828781322818623
v 0.18622975106169573 0.627607997709595 0.056867673017613266
v 0.18529437355316664 0.6280079977081351 0.05727747034677044
v 0.18653407056777585 0.6275589977097735 0.0582691014007354
v 0.18529437355316664 0.6280079977081351 0.05727747034677044
v 0.1854118676785845 0.6276919977092882 0.055689191095548124
v 0.1847031676001414 0.6280699977079087 0.05642663813489301
v 0.18622975106169573 0.627607997709595 0.056867673017613266
v 0.1847031676001414 0.6280699977079087 0.05642663813489301
v 0.1842057789427397 0.627799997708894 0.054913253065845075
v 0.18383112008780214 0.6281479977076242 0.05586619360996934
v 0.1854118676785845 0.6276919977092882 0.055689191095548124
v 0.18280990382887555 0.6282299977073248 0.055680607292171884
v 0.1842057789427397 0.627799997708894 0.054913253065845075
v 0.1827940597448979 0.627913997708478 0.05465772073811763
v 0.18383112008780214 0.6281479977076242 0.05586619360996934
v 0.18179574769014376 0.6283049977070513 0.055901463030302384
v 0.1827940597448979 0.627913997708478 0.05465772073811763
v 0.18139168584651866 0.6280179977080985 0.05496171468024981
v 0.18280990382887555 0.6282299977073248 0.055680607292171884
v 0.1809500310110064 0.6283599977068505 0.05648702706060639
v 0.18139168584651866 0.6280179977080985 0.05496171468024981
v 0.18021799388965343 0.6280949977078174 0.05577490166063473
v 0.18179574769014376 0.6283049977070513 0.055901463030302384
v 0.18038671874460913 0.6283879977067482 0.05736125999658988
v 0.18021799388965343 0.6280949977078174 0.05577490166063473
v 0.17943726589582348 0.6281339977076752 0.05698568680941756
v 0.1809500310110064 0.6283599977068505 0.05648702706060639
v 0.17918205913363203 0.6281289977076936 0.05839646049328642
v 0.18038671874460913 0.6283879977067482 0.05736125999658988
v 0.17943726589582348 0.6281339977076752 0.05698568680941756
v 0.18020308583288894 0.6283849977067592 0.05837680314722867
v 0.17948670420768514 0.6280799977078724 0.059796943357801655
v 0.18020308583288894 0.6283849977067592 0.05837680314722867
v 0.17918205913363203 0.6281289977076936 0.05839646049328642
v 0.18042208171621427 0.6283489977068906 0.059387146028644464
v 0.1803042620228233 0.6279949977081825 0.0609763707984737
v 0.18042208171621427 0.6283489977068906 0.059387146028644464
v 0.17948670420768514 0.6280799977078724 0.059796943357801655
v 0.1810132876692394 0.6282879977071131 0.060237978240521906
v 0.18151035075866823 0.6278869977085766 0.061752308828176776
v 0.1810132876692394 0.6282879977071131 0.060237978240521906
v 0.1803042620228233 0.6279949977081825 0.0609763707984737
v 0.18188500961360568 0.6282099977073977 0.06079936828405249
v 0.18292239552448308 0.6277719977089963 0.0620068956372973
v 0.18188500961360568 0.6282099977073977 0.06079936828405249
v 0.18151035075866823 0.6278869977085766 0.061752308828176776
v 0.18290655144050527 0.6281279977076971 0.060984009083243015
v 0.18292239552448308 0.6277719977089963 0.0620068956372973
v 0.18392038201126407 0.6280529977079707 0.060764098863719446
v 0.18290655144050527 0.6281279977076971 0.060984009083243015
v 0.18432476942286222 0.6276689977093722 0.06170290169516509
v 0.18574309370414227 0.6265639977134049 0.061128360934682824
v 0.18432476942286222 0.6276689977093722 0.06170290169516509
v 0.1844592500538605 0.626646997713102 0.06201572744965638
v 0.18549908133035792 0.6275929977096495 0.060890985801358925
v 0.18659545661117063 0.6265229977135544 0.05980475097412609
v 0.18549908133035792 0.6275929977096495 0.060890985801358925
v 0.18574309370414227 0.6265639977134049 0.061128360934682824
v 0.1862788638055844 0.6275539977097918 0.059679875084604275
v 0.18687378245512581 0.6265289977135324 0.058262331906734945
v 0.1862788638055844 0.6275539977097918 0.059679875084604275
v 0.18659545661117063 0.6265229977135544 0.05980475097412609
v 0.18653407056777585 0.6275589977097735 0.0582691014007354
v 0.18687378245512581 0.6265289977135324 0.058262331906734945
v 0.18622975106169573 0.627607997709595 0.056867673017613266
v 0.18653407056777585 0.6275589977097735 0.0582691014007354
v 0.18654133691432867 0.6265809977133427 0.05673065021236795
v 0.1856489484291166 0.6266719977130106 0.05544296211534311
v 0.18622975106169573 0.627607997709595 0.056867673017613266
v 0.18654133691432867 0.6265809977133427 0.05673065021236795
v 0.1854118676785845 0.6276919977092882 0.055689191095548124
v 0.18433003488198327 0.6267889977125837 0.054595389172489094
v 0.1854118676785845 0.6276919977092882 0.055689191095548124
v 0.1856489484291166 0.6266719977130106 0.05544296211534311
v 0.1842057789427397 0.627799997708894 0.054913253065845075
v 0.18278794138762616 0.6269139977121274 0.05431611781259208
v 0.1842057789427397 0.627799997708894 0.054913253065845075
v 0.18433003488198327 0.6267889977125837 0.054595389172489094
v 0.1827940597448979 0.627913997708478 0.05465772073811763
v 0.18125625969691703 0.6270279977117116 0.05464856335778673
v 0.1827940597448979 0.627913997708478 0.05465772073811763
v 0.18278794138762616 0.6269139977121274 0.05431611781259208
v 0.18139168584651866 0.6280179977080985 0.05496171468024981
v 0.18139168584651866 0.6280179977080985 0.05496171468024981
v 0.1799739815158692 0.6271129977114014 0.05553752652731086
v 0.18021799388965343 0.6280949977078174 0.05577490166063473
v 0.18125625969691703 0.6270279977117116 0.05464856335778673
v 0.18021799388965343 0.6280949977078174 0.05577490166063473
v 0.17912067309023727 0.6271569977112407 0.05686081091989577
v 0.17943726589582348 0.6281339977076752 0.05698568680941756
v 0.1799739815158692 0.6271129977114014 0.05553752652731086
v 0.17918205913363203 0.6281289977076936 0.05839646049328642
v 0.17912067309023727 0.6271569977112407 0.05686081091989577
v 0.17884267281425506 0.6271509977112625 0.058402284468679955
v 0.17943726589582348 0.6281339977076752 0.05698568680941756
v 0.17948670420768514 0.6280799977078724 0.059796943357801655
v 0.17884267281425506 0.6271509977112625 0.058402284468679955
v 0.17917511835505232 0.6270959977114634 0.05993396616304698
v 0.17918205913363203 0.6281289977076936 0.05839646049328642
v 0.1803042620228233 0.6279949977081825 0.0609763707984737
v 0.17917511835505232 0.6270959977114634 0.05993396616304698
v 0.18006750684026424 0.6270019977118063 0.0612216542600718
v 0.17948670420768514 0.6280799977078724 0.059796943357801655
v 0.18151035075866823 0.6278869977085766 0.061752308828176776
v 0.18006750684026424 0.6270019977118063 0.0612216542600718
v 0.1813864203873977 0.6268839977122369 0.062069227202925834
v 0.1803042620228233 0.6279949977081825 0.0609763707984737
v 0.18292239552448308 0.6277719977089963 0.0620068956372973
v 0.1813864203873977 0.6268839977122369 0.062069227202925834
v 0.18292851388175477 0.6267589977126932 0.06234849856282283
v 0.18151035075866823 0.6278869977085766 0.061752308828176776
v 0.18432476942286222 0.6276689977093722 0.06170290169516509
v 0.18292851388175477 0.6267589977126932 0.06234849856282283
v 0.1844592500538605 0.626646997713102 0.06201572744965638
v 0.18292239552448308 0.6277719977089963 0.0620068956372973
vn 0.07751067773567973 0.9968313476278451 0.017870409965287565
vn 0.2489635623024242 0.9294340762893841 0.27234064585592277
vn 0.3320199459937162 0.9251157753886073 0.1841834461337599
vn 0.37590127496690917 0.9238934004801613 0.07154858576216218
vn 0.37454128651405855 0.9259041973228591 -0.04919579837542382
vn 0.32805217701123396 0.9308568946659385 -0.16089498480859019
vn 0.24258833161635518 0.9381383912963368 -0.24707740991556515
vn 0.12994577514207814 0.9467740492164426 -0.29450463935360877
vn 0.006651635511695293 0.9554640219760338 -0.2950326195556353
vn -0.108292778246121 0.9628223824740282 -0.24747873176749333
vn -0.19669558531105438 0.9676449913681181 -0.15803166266036883
vn -0.24356262520927593 0.9690477517882371 -0.040295055260106766
vn -0.24076662710687172 0.9667632038028309 0.0860251595804286
vn -0.18923262126906307 0.9612220180236148 0.20060716785778718
vn -0.09821778035303869 0.9534145177742641 0.2852262486590899
vn 0.01729027114962073 0.9446192311152292 0.3277125901809122
vn 0.13906379028827315 0.9362180031463058 0.3227337892662303
vn 0.5544412834254746 0.30979839645815216 0.772411650893105
vn 0.8041683251542145 0.3083303950247175 0.5081787205911205
vn 0.9360279824356739 0.3079012027636288 0.17043592625688056
vn 0.9316797598402277 0.30858488375647786 -0.19169803268217808
vn 0.7912753284757199 0.3102955056336401 -0.5268775923874887
vn 0.5333347239772016 0.3127800840813975 -0.7859533299690717
vn 0.19355754183919696 0.315656104033405 -0.9289223046683961
vn -0.17843658250001926 0.31852089193414823 -0.9309698019415639
vn -0.5247761402993129 0.3209392155634455 -0.7884211848710588
vn -0.7908369155208426 0.3224978867425395 -0.5201653837131743
vn -0.9315378210423221 0.3229365940338417 -0.16718009537218165
vn -0.9226977050076969 0.3221978071488717 0.21170134618367736
vn -0.7672567097235972 0.32041720545768215 0.555562687780061
vn -0.4925663437639919 0.31785138963203724 0.8101535885897848
vn -0.1441345050998352 0.31492789691563533 0.9381074619585589
vn 0.2233777237421671 0.31210828739483115 0.9234125587618062
usemtl material_0_0
f 1//1 2//1 3//1
f 2//1 1//1 4//1
f 2//1 4//1 5//1
f 5//1 4//1 6//1
f 5//1 6//1 7//1
f 7//1 6//1 8//1
f 7//1 8//1 9//1
f 9//1 8//1 10//1
f 9//1 10//1 11//1
f 11//1 10//1 12//1
f 11//1 12//1 13//1
f 13//1 12//1 14//1
f 13//1 14//1 15//1
f 15//1 14//1 16//1
f 17//2 18//2 19//2
f 18//2 17//2 20//2
f 21//3 22//3 23//3
f 22//3 21//3 24//3
f 25//4 26//4 27//4
f 26//4 25//4 28//4
f 29//5 30//5 31//5
f 30//5 29//5 32//5
f 33//6 34//6 35//6
f 34//6 33//6 36//6
f 37//7 38//7 39//7
f 38//7 37//7 40//7
f 41//8 42//8 43//8
f 42//8 41//8 44//8
f 45//9 46//9 47//9
f 46//9 45//9 48//9
f 49//10 50//10 51//10
f 50//10 49//10 52//10
f 53//11 54//11 55//11
f 54//11 53//11 56//11
f 57//12 58//12 59//12
f 58//12 57//12 60//12
f 61//13 62//13 63//13
f 62//13 61//13 64//13
f 65//14 66//14 67//14
f 66//14 65//14 68//14
f 69//15 70//15 71//15
f 70//15 69//15 72//15
f 73//16 74//16 75//16
f 74//16 73//16 76//16
f 77//17 78//17 79//17
f 78//17 77//17 80//17
f 81//18 82//18 83//18
f 82//18 81//18 84//18
f 85//19 86//19 87//19
f 86//19 85//19 88//19
f 89//20 90//20 91//20
f 90//20 89//20 92//20
f 93//21 94//21 95//21
f 94//21 93//21 96//21
f 97//22 98//22 99//22
f 98//22 97//22 100//22
f 101//23 102//23 103//23
f 102//23 101//23 104//23
f 105//24 106//24 107//24
f 106//24 105//24 108//24
f 109//25 110//25 111//25
f 110//25 109//25 112//25
f 113//26 114//26 115//26
f 114//26 113//26 116//26
f 117//27 118//27 119//27
f 118//27 117//27 120//27
f 121//28 122//28 123//28
f 122//28 121//28 124//28
f 125//29 126//29 127//29
f 126//29 125//29 128//29
f 129//30 130//30 131//30
f 130//30 129//30 132//30
f 133//31 134//31 135//31
f 134//31 133//31 136//31
f 137//32 138//32 139//32
f 138//32 137//32 140//32
f 141//33 142//33 143//33
f 142//33 141//33 144//33
