# SSTK version 0.8.0
# 7
mtllib original-7.mtl
o #ID39
v -0.21930547676303822 0.619986997737407 0.0653547716163716
v -0.2185553382758218 0.6201139977369436 0.06346186459126522
v -0.21912216941929102 0.62002999773725 0.06434017398433974
v -0.2190867752623703 0.6199909977373924 0.06636289789260172
v -0.21770707942353137 0.6202249977365384 0.06287506065969103
v -0.21849808029718254 0.62004099773721 0.06721180788195676
v -0.21668881564241266 0.6203479977360896 0.06265456167484083
v -0.21762603278484322 0.6201299977368852 0.06777225240688046
v -0.21566505721033313 0.6204629977356698 0.0628389080913681
v -0.21660259992073666 0.6202439977364692 0.06795754434201462
v -0.21479333526596683 0.6205519977353451 0.06340029813489872
v -0.21558433613961805 0.6203669977360203 0.06773704535716443
v -0.21420464030077907 0.6206019977351627 0.06424920812425378
v -0.21473382949683212 0.6204779977356152 0.06714678491913435
v -0.2139856132321382 0.6206059977351481 0.06525638888187699
v -0.21416924614385838 0.6205629977353049 0.06627193203251579
v -0.22032203906661962 0.6195339977390601 0.06537067807331015
v -0.21912216941929102 0.62002999773725 0.06434017398433974
v -0.2200671578724011 0.6195929977388448 0.06396084990804822
v -0.21930547676303822 0.619986997737407 0.0653547716163716
v -0.22001866507914297 0.6195389977390419 0.06677178088846054
v -0.21930547676303822 0.619986997737407 0.0653547716163716
v -0.22032203906661962 0.6195339977390601 0.06537067807331015
v -0.2190867752623703 0.6199909977373924 0.06636289789260172
v -0.2192014016466623 0.6196079977387902 0.06794899172394689
v -0.2190867752623703 0.6199909977373924 0.06636289789260172
v -0.22001866507914297 0.6195389977390419 0.06677178088846054
v -0.21849808029718254 0.62004099773721 0.06721180788195676
v -0.2179943673922139 0.619729997738345 0.0687252553216218
v -0.21849808029718254 0.62004099773721 0.06721180788195676
v -0.2192014016466623 0.6196079977387902 0.06794899172394689
v -0.21762603278484322 0.6201299977368852 0.06777225240688046
v -0.21658264819437203 0.6198879977377683 0.06898078764934926
v -0.21762603278484322 0.6201299977368852 0.06777225240688046
v -0.2179943673922139 0.619729997738345 0.0687252553216218
v -0.21660259992073666 0.6202439977364692 0.06795754434201462
v -0.21658264819437203 0.6198879977377683 0.06898078764934926
v -0.21558433613961805 0.6203669977360203 0.06773704535716443
v -0.21660259992073666 0.6202439977364692 0.06795754434201462
v -0.21517900320941633 0.6200569977371516 0.06867617375658192
v -0.21517900320941633 0.6200569977371516 0.06867617375658192
v -0.21473382949683212 0.6204779977356152 0.06714678491913435
v -0.21558433613961805 0.6203669977360203 0.06773704535716443
v -0.21400371459800166 0.6202109977365895 0.06786142130695498
v -0.21400371459800166 0.6202109977365895 0.06786142130695498
v -0.21416924614385838 0.6205629977353049 0.06627193203251579
v -0.21473382949683212 0.6204779977356152 0.06714678491913435
v -0.2132242576907482 0.6203289977361589 0.06665125610880725
v -0.21416924614385838 0.6205629977353049 0.06627193203251579
v -0.21296905092855678 0.6203889977359399 0.06524048242493842
v -0.2139856132321382 0.6206059977351481 0.06525638888187699
v -0.2132242576907482 0.6203289977361589 0.06665125610880725
v -0.2139856132321382 0.6206059977351481 0.06525638888187699
v -0.21327275048400643 0.6203839977359582 0.06384032512839498
v -0.21420464030077907 0.6206019977351627 0.06424920812425378
v -0.21296905092855678 0.6203889977359399 0.06524048242493842
v -0.21420464030077907 0.6206019977351627 0.06424920812425378
v -0.21408968834851408 0.6203129977362173 0.06266216877430168
v -0.21479333526596683 0.6205519977353451 0.06340029813489872
v -0.21327275048400643 0.6203839977359582 0.06384032512839498
v -0.21479333526596683 0.6205519977353451 0.06340029813489872
v -0.21529672260296243 0.6201889977366699 0.0618859051766268
v -0.21566505721033313 0.6204629977356698 0.0628389080913681
v -0.21408968834851408 0.6203129977362173 0.06266216877430168
v -0.21668881564241266 0.6203479977360896 0.06265456167484083
v -0.21529672260296243 0.6201889977366699 0.0618859051766268
v -0.21670876736877728 0.62002999773725 0.06163131836750626
v -0.21566505721033313 0.6204629977356698 0.0628389080913681
v -0.21770707942353137 0.6202249977365384 0.06287506065969103
v -0.21670876736877728 0.62002999773725 0.06163131836750626
v -0.21811241235373302 0.6198609977378667 0.06193593226027356
v -0.21668881564241266 0.6203479977360896 0.06265456167484083
v -0.2185553382758218 0.6201139977369436 0.06346186459126522
v -0.21811241235373302 0.6198609977378667 0.06193593226027356
v -0.21928545317465215 0.6197089977384215 0.06274722820344465
v -0.21770707942353137 0.6202249977365384 0.06287506065969103
v -0.21912216941929102 0.62002999773725 0.06434017398433974
v -0.21928545317465215 0.6197089977384215 0.06274722820344465
v -0.2200671578724011 0.6195929977388448 0.06396084990804822
v -0.2185553382758218 0.6201139977369436 0.06346186459126522
v -0.22032203906661962 0.6195339977390601 0.06537067807331015
v -0.22038309954204133 0.6185529977426404 0.06383408298131257
v -0.22066142538599653 0.6184899977428702 0.06537650204870372
v -0.2200671578724011 0.6195929977388448 0.06396084990804822
v -0.22001866507914297 0.6195389977390419 0.06677178088846054
v -0.22066142538599653 0.6184899977428702 0.06537650204870372
v -0.2203286542772263 0.6184949977428521 0.06690723822446379
v -0.22032203906661962 0.6195339977390601 0.06537067807331015
v -0.21943532027341084 0.6185689977425819 0.06819525188946043
v -0.22001866507914297 0.6195389977390419 0.06677178088846054
v -0.2203286542772263 0.6184949977428521 0.06690723822446379
v -0.2192014016466623 0.6196079977387902 0.06794899172394689
v -0.21811767781285393 0.6186999977421038 0.06904344478294955
v -0.2192014016466623 0.6196079977387902 0.06794899172394689
v -0.21943532027341084 0.6185689977425819 0.06819525188946043
v -0.2179943673922139 0.619729997738345 0.0687252553216218
v -0.21657525875052389 0.6188709977414798 0.06932177062423969
v -0.2179943673922139 0.619729997738345 0.0687252553216218
v -0.21811767781285393 0.6186999977421038 0.06904344478294955
v -0.21658264819437203 0.6198879977377683 0.06898078764934926
v -0.21504357705981472 0.6190559977408047 0.06898932507904502
v -0.21658264819437203 0.6198879977377683 0.06898078764934926
v -0.21657525875052389 0.6188709977414798 0.06932177062423969
v -0.21517900320941633 0.6200569977371516 0.06867617375658192
v -0.21376097331079383 0.6192259977401842 0.06809941639091396
v -0.21517900320941633 0.6200569977371516 0.06867617375658192
v -0.21504357705981472 0.6190559977408047 0.06898932507904502
v -0.21400371459800166 0.6202109977365895 0.06786142130695498
v -0.212908316021108 0.6193559977397098 0.06677802303554288
v -0.21400371459800166 0.6202109977365895 0.06786142130695498
v -0.21376097331079383 0.6192259977401842 0.06809941639091396
v -0.2132242576907482 0.6203289977361589 0.06665125610880725
v -0.2126299901771528 0.6194239977394617 0.06523560396815178
v -0.2132242576907482 0.6203289977361589 0.06665125610880725
v -0.212908316021108 0.6193559977397098 0.06677802303554288
v -0.21296905092855678 0.6203889977359399 0.06524048242493842
v -0.2126299901771528 0.6194239977394617 0.06523560396815178
v -0.21327275048400643 0.6203839977359582 0.06384032512839498
v -0.21296905092855678 0.6203889977359399 0.06524048242493842
v -0.21296243571795007 0.6194179977394836 0.06370392227378474
v -0.21408968834851408 0.6203129977362173 0.06266216877430168
v -0.21296243571795007 0.6194179977394836 0.06370392227378474
v -0.21385609528973856 0.6193389977397719 0.06241685412739504
v -0.21327275048400643 0.6203839977359582 0.06384032512839498
v -0.21529672260296243 0.6201889977366699 0.0618859051766268
v -0.21385609528973856 0.6193389977397719 0.06241685412739504
v -0.2151737377502954 0.6192009977402755 0.06156866123390593
v -0.21408968834851408 0.6203129977362173 0.06266216877430168
v -0.21670876736877728 0.62002999773725 0.06163131836750626
v -0.2151737377502954 0.6192009977402755 0.06156866123390593
v -0.21671583124465255 0.6190259977409142 0.06128938987400889
v -0.21529672260296243 0.6201889977366699 0.0618859051766268
v -0.21811241235373302 0.6198609977378667 0.06193593226027356
v -0.21671583124465255 0.6190259977409142 0.06128938987400889
v -0.2182475129353617 0.6188419977415855 0.061621835419203526
v -0.21670876736877728 0.62002999773725 0.06163131836750626
v -0.21811241235373302 0.6198609977378667 0.06193593226027356
v -0.219527868893887 0.6186769977421879 0.06250828760087873
v -0.21928545317465215 0.6197089977384215 0.06274722820344465
v -0.2182475129353617 0.6188419977415855 0.061621835419203526
v -0.21928545317465215 0.6197089977384215 0.06274722820344465
v -0.22038309954204133 0.6185529977426404 0.06383408298131257
v -0.2200671578724011 0.6195929977388448 0.06396084990804822
v -0.219527868893887 0.6186769977421879 0.06250828760087873
vn -0.11511302507465807 0.9931252887650235 0.021240155170668594
vn -0.40727476456690404 0.9126254177512388 -0.035243381639874734
vn -0.40439159033038047 0.9106813681847228 0.08442079296600598
vn -0.3576977818063198 0.9133526790767432 0.19452291409266248
vn -0.27348758327579675 0.920320814284129 0.2796678837270822
vn -0.16321358910633127 0.9307351105193652 0.3272513776284652
vn -0.042276594099766564 0.9432376929948074 0.32941665270633225
vn 0.0718117618036671 0.9560810792344974 0.2841690146299889
vn 0.1605015086249519 0.9671913001679915 0.1969270007854477
vn 0.208990791746198 0.9746933370899302 0.07934568265078151
vn 0.20735396933395311 0.9770508758772294 -0.048743281295145824
vn 0.15562041661784318 0.9738078675953314 -0.16577247331998832
vn 0.06308865273706639 0.965645794632316 -0.25208730713169586
vn -0.05389121182302686 0.9540849637990975 -0.29464827685497225
vn -0.17604620529971993 0.9411662849810661 -0.2884679252990764
vn -0.2848124966879084 0.9289341864494327 -0.23656522087271492
vn -0.3655349625732135 0.9189838039091969 -0.14782740894216514
vn -0.9395637216992861 0.3040918795016504 -0.15731522845893248
vn -0.9313904755289665 0.3034257930915985 0.20110820761632262
vn -0.7908074822318383 0.30437721225863257 0.531015990495501
vn -0.5365015431157691 0.3067897953250571 0.7861590559192533
vn -0.2024431510601968 0.3103486998868125 0.9288166670753236
vn 0.16500900447705766 0.3145430945739585 0.9347912145207604
vn 0.5113502132919475 0.3187830797808026 0.7980590515195765
vn 0.7808306376493092 0.3224159884158161 0.5351181048124162
vn 0.9281219544845962 0.3248119914869425 0.18189763032663797
vn 0.9237346322795357 0.3255457091814669 -0.20182730775966085
vn 0.7679046654131505 0.3245159092292556 -0.5522787283966913
vn 0.48832284681274274 0.3218996081663778 -0.8111235329432105
vn 0.13376034271175005 0.31813938878465636 -0.9385603049881222
vn -0.23740583002410348 0.31384429984941614 -0.9193150556214668
vn -0.5677956101463746 0.30971119322725277 -0.7626841177234779
vn -0.8129111623882155 0.30630738606257 -0.4953293519747605
usemtl material_0_0
f 1//1 2//1 3//1
f 2//1 1//1 4//1
f 2//1 4//1 5//1
f 5//1 4//1 6//1
f 5//1 6//1 7//1
f 7//1 6//1 8//1
f 7//1 8//1 9//1
f 9//1 8//1 10//1
f 9//1 10//1 11//1
f 11//1 10//1 12//1
f 11//1 12//1 13//1
f 13//1 12//1 14//1
f 13//1 14//1 15//1
f 15//1 14//1 16//1
f 17//2 18//2 19//2
f 18//2 17//2 20//2
f 21//3 22//3 23//3
f 22//3 21//3 24//3
f 25//4 26//4 27//4
f 26//4 25//4 28//4
f 29//5 30//5 31//5
f 30//5 29//5 32//5
f 33//6 34//6 35//6
f 34//6 33//6 36//6
f 37//7 38//7 39//7
f 38//7 37//7 40//7
f 41//8 42//8 43//8
f 42//8 41//8 44//8
f 45//9 46//9 47//9
f 46//9 45//9 48//9
f 49//10 50//10 51//10
f 50//10 49//10 52//10
f 53//11 54//11 55//11
f 54//11 53//11 56//11
f 57//12 58//12 59//12
f 58//12 57//12 60//12
f 61//13 62//13 63//13
f 62//13 61//13 64//13
f 65//14 66//14 67//14
f 66//14 65//14 68//14
f 69//15 70//15 71//15
f 70//15 69//15 72//15
f 73//16 74//16 75//16
f 74//16 73//16 76//16
f 77//17 78//17 79//17
f 78//17 77//17 80//17
f 81//18 82//18 83//18
f 82//18 81//18 84//18
f 85//19 86//19 87//19
f 86//19 85//19 88//19
f 89//20 90//20 91//20
f 90//20 89//20 92//20
f 93//21 94//21 95//21
f 94//21 93//21 96//21
f 97//22 98//22 99//22
f 98//22 97//22 100//22
f 101//23 102//23 103//23
f 102//23 101//23 104//23
f 105//24 106//24 107//24
f 106//24 105//24 108//24
f 109//25 110//25 111//25
f 110//25 109//25 112//25
f 113//26 114//26 115//26
f 114//26 113//26 116//26
f 117//27 118//27 119//27
f 118//27 117//27 120//27
f 121//28 122//28 123//28
f 122//28 121//28 124//28
f 125//29 126//29 127//29
f 126//29 125//29 128//29
f 129//30 130//30 131//30
f 130//30 129//30 132//30
f 133//31 134//31 135//31
f 134//31 133//31 136//31
f 137//32 138//32 139//32
f 138//32 137//32 140//32
f 141//33 142//33 143//33
f 142//33 141//33 144//33
