# SSTK version 0.8.0
# 8
mtllib original-8.mtl
o #ID45
v -0.22071080249867958 0.6199869977374068 -0.015169846339420128
v -0.2199689728521837 0.6200409977372099 -0.017053980499709402
v -0.22052749515493236 0.6199909977373924 -0.016184443971451985
v -0.22049210099801173 0.62002999773725 -0.014161720063189994
v -0.2191171951228212 0.6201299977368852 -0.017644860888374587
v -0.21989808967449165 0.6201139977369436 -0.013306749023604502
v -0.21810020242827904 0.6202439977364692 -0.017864739922589634
v -0.21902793319935931 0.6202249977365385 -0.012746955634624467
v -0.21707455295899256 0.6203669977360203 -0.017679742370118767
v -0.21800228373007285 0.6203479977360896 -0.012561958082153615
v -0.2162046908665176 0.6204779977356151 -0.01712216558632439
v -0.21698496546755766 0.6204629977356698 -0.012782782634975584
v -0.21561005959236718 0.6205629977353051 -0.016265923460160175
v -0.21613318773819518 0.6205519977353451 -0.013373663023640773
v -0.2153916836596722 0.620605997735148 -0.015256851665323107
v -0.21557499100341942 0.6206019977351627 -0.014242254033291255
v -0.22172866707415298 0.6195339977390603 -0.015150157808053826
v -0.22052749515493236 0.6199909977373924 -0.016184443971451985
v -0.22147251479335806 0.619538997739042 -0.016560605923950866
v -0.22071080249867958 0.6199869977374068 -0.015169846339420128
v -0.22142402200009992 0.6195929977388449 -0.013749674943538615
v -0.22071080249867958 0.6199869977374068 -0.015169846339420128
v -0.22172866707415298 0.6195339977390603 -0.015150157808053826
v -0.22049210099801173 0.62002999773725 -0.014161720063189994
v -0.22060333324649387 0.6197079977384252 -0.012567054193765451
v -0.22049210099801173 0.62002999773725 -0.014161720063189994
v -0.22142402200009992 0.6195929977388449 -0.013749674943538615
v -0.21989808967449165 0.6201139977369436 -0.013306749023604502
v -0.2193994299305134 0.6198609977378667 -0.011793983905191683
v -0.21989808967449165 0.6201139977369436 -0.013306749023604502
v -0.22060333324649387 0.6197079977384252 -0.012567054193765451
v -0.21902793319935931 0.6202249977365385 -0.012746955634624467
v -0.21798643964609504 0.62002999773725 -0.011539071528099328
v -0.21902793319935931 0.6202249977365385 -0.012746955634624467
v -0.2193994299305134 0.6198609977378667 -0.011793983905191683
v -0.21800228373007285 0.6203479977360896 -0.012561958082153615
v -0.21798643964609504 0.62002999773725 -0.011539071528099328
v -0.21698496546755766 0.6204629977356698 -0.012782782634975584
v -0.21800228373007285 0.6203479977360896 -0.012561958082153615
v -0.21658406574771585 0.6201889977366699 -0.01184306547023152
v -0.21658406574771585 0.6201889977366699 -0.01184306547023152
v -0.21613318773819518 0.6205519977353451 -0.013373663023640773
v -0.21698496546755766 0.6204629977356698 -0.012782782634975584
v -0.21540463830859874 0.6203129977362174 -0.012660623290370716
v -0.21540463830859874 0.6203129977362174 -0.012660623290370716
v -0.21557499100341942 0.6206019977351627 -0.014242254033291255
v -0.21613318773819518 0.6205519977353451 -0.013373663023640773
v -0.21462870027841727 0.6203839977359583 -0.013866712031427465
v -0.21557499100341942 0.6206019977351627 -0.014242254033291255
v -0.21437476460280222 0.62038899773594 -0.015276865764661196
v -0.2153916836596722 0.620605997735148 -0.015256851665323107
v -0.21462870027841727 0.6203839977359583 -0.013866712031427465
v -0.2153916836596722 0.620605997735148 -0.015256851665323107
v -0.2146781385902789 0.6203289977361589 -0.01667796857981156
v -0.21561005959236718 0.6205629977353051 -0.016265923460160175
v -0.21437476460280222 0.62038899773594 -0.015276865764661196
v -0.21561005959236718 0.6205629977353051 -0.016265923460160175
v -0.21550071838109192 0.6202109977365895 -0.017861240465528356
v -0.2162046908665176 0.6204779977356151 -0.01712216558632439
v -0.2146781385902789 0.6203289977361589 -0.01667796857981156
v -0.2162046908665176 0.6204779977356151 -0.01712216558632439
v -0.21670305622783845 0.6200569977371516 -0.01863271409955157
v -0.21707455295899256 0.6203669977360203 -0.017679742370118767
v -0.21550071838109192 0.6202109977365895 -0.017861240465528356
v -0.21810020242827904 0.6202439977364692 -0.017864739922589634
v -0.21670305622783845 0.6200569977371516 -0.01863271409955157
v -0.21811572094428372 0.6198879977377683 -0.018888571995250826
v -0.21707455295899256 0.6203669977360203 -0.017679742370118767
v -0.2191171951228212 0.6201299977368852 -0.017644860888374587
v -0.21811572094428372 0.6198879977377683 -0.018888571995250826
v -0.21951842041063596 0.6197299977383449 -0.018583632534511695
v -0.21810020242827904 0.6202439977364692 -0.017864739922589634
v -0.2199689728521837 0.6200409977372099 -0.017053980499709402
v -0.21951842041063596 0.6197299977383449 -0.018583632534511695
v -0.22069784784975313 0.61960799773879 -0.01776607471437252
v -0.2191171951228212 0.6201299977368852 -0.017644860888374587
v -0.22052749515493236 0.6199909977373924 -0.016184443971451985
v -0.22069784784975313 0.61960799773879 -0.01776607471437252
v -0.22147251479335806 0.619538997739042 -0.016560605923950866
v -0.2199689728521837 0.6200409977372099 -0.017053980499709402
v -0.22172866707415298 0.6195339977390603 -0.015150157808053826
v -0.22178816208034086 0.618494997742852 -0.016685156245500862
v -0.22206743344289956 0.6184899977428702 -0.015143062746081569
v -0.22147251479335806 0.619538997739042 -0.016560605923950866
v -0.22142402200009992 0.6195929977388449 -0.013749674943538615
v -0.22206743344289956 0.6184899977428702 -0.015143062746081569
v -0.2217346623341293 0.6185529977426403 -0.013612326570321472
v -0.22172866707415298 0.6195339977390603 -0.015150157808053826
v -0.22083725187324252 0.6186769977421879 -0.012320794028251883
v -0.22142402200009992 0.6195929977388449 -0.013749674943538615
v -0.2217346623341293 0.6185529977426403 -0.013612326570321472
v -0.22060333324649387 0.6197079977384252 -0.012567054193765451
v -0.2195236858697569 0.6188419977415857 -0.011476120011835702
v -0.22060333324649387 0.6197079977384252 -0.012567054193765451
v -0.22083725187324252 0.6186769977421879 -0.012320794028251883
v -0.2193994299305134 0.6198609977378667 -0.011793983905191683
v -0.21798126680742677 0.6190259977409142 -0.011197794170545585
v -0.2193994299305134 0.6198609977378667 -0.011793983905191683
v -0.2195236858697569 0.6188419977415857 -0.011476120011835702
v -0.21798643964609504 0.62002999773725 -0.011539071528099328
v -0.21644958511671766 0.6192009977402755 -0.011530239715740243
v -0.21798643964609504 0.62002999773725 -0.011539071528099328
v -0.21798126680742677 0.6190259977409142 -0.011197794170545585
v -0.21658406574771585 0.6201889977366699 -0.01184306547023152
v -0.2151615714534179 0.6193389977397719 -0.012423573725018662
v -0.21658406574771585 0.6201889977366699 -0.01184306547023152
v -0.21644958511671766 0.6192009977402755 -0.011530239715740243
v -0.21540463830859874 0.6203129977362174 -0.012660623290370716
v -0.21431432407801096 0.6194179977394837 -0.013741541759242372
v -0.21540463830859874 0.6203129977362174 -0.012660623290370716
v -0.2151615714534179 0.6193389977397719 -0.012423573725018662
v -0.21462870027841727 0.6203839977359583 -0.013866712031427465
v -0.21403505271545228 0.6194239977394617 -0.015283635258661684
v -0.21462870027841727 0.6203839977359583 -0.013866712031427465
v -0.21431432407801096 0.6194179977394837 -0.013741541759242372
v -0.21437476460280222 0.62038899773594 -0.015276865764661196
v -0.21403505271545228 0.6194239977394617 -0.015283635258661684
v -0.2146781385902789 0.6203289977361589 -0.01667796857981156
v -0.21437476460280222 0.62038899773594 -0.015276865764661196
v -0.21436749825624943 0.6193559977397098 -0.016815316953028674
v -0.21550071838109192 0.6202109977365895 -0.017861240465528356
v -0.21436749825624943 0.6193559977397098 -0.016815316953028674
v -0.2152664741863702 0.6192259977401843 -0.01810844614964883
v -0.2146781385902789 0.6203289977361589 -0.01667796857981156
v -0.21670305622783845 0.6200569977371516 -0.01863271409955157
v -0.2152664741863702 0.6192259977401843 -0.01810844614964883
v -0.21657880028859486 0.6190559977408047 -0.018950577992907523
v -0.21550071838109192 0.6202109977365895 -0.017861240465528356
v -0.21811572094428372 0.6198879977377683 -0.018888571995250826
v -0.21657880028859486 0.6190559977408047 -0.018950577992907523
v -0.218120893782952 0.6188709977414797 -0.019229849352804564
v -0.21670305622783845 0.6200569977371516 -0.01863271409955157
v -0.21951842041063596 0.6197299977383449 -0.018583632534511695
v -0.218120893782952 0.6188709977414797 -0.019229849352804564
v -0.21965257547366113 0.6186999977421038 -0.018897403807609896
v -0.21811572094428372 0.6198879977377683 -0.018888571995250826
v -0.21951842041063596 0.6197299977383449 -0.018583632534511695
v -0.22094058913696094 0.618568997742582 -0.018004069798331506
v -0.22069784784975313 0.61960799773879 -0.01776607471437252
v -0.21965257547366113 0.6186999977421038 -0.018897403807609896
v -0.22069784784975313 0.61960799773879 -0.01776607471437252
v -0.22178816208034086 0.618494997742852 -0.016685156245500862
v -0.22147251479335806 0.619538997739042 -0.016560605923950866
v -0.22094058913696094 0.618568997742582 -0.018004069798331506
vn -0.11578519271680193 0.9931251556740488 -0.017210642411194084
vn -0.40709866631828784 0.9106777588033806 -0.07026149857173776
vn -0.4057913508376843 0.9126271469890677 0.04944747975129567
vn -0.3602840478673168 0.9189641038928007 0.16031333280984325
vn -0.2765002298777103 0.9289190906549345 0.24628627911263487
vn -0.16589215105749233 0.9411679938872362 0.2944190691505159
vn -0.043574797958881535 0.9540848893565999 0.2963498758769582
vn 0.0718489100886716 0.9656460642235957 0.24973065855406834
vn 0.16130712569492947 0.9738079785707721 0.16024363263174723
vn 0.20892849975524197 0.9770510514800133 0.04147426703562598
vn 0.2061006902673621 0.9746927406892953 -0.0865826578361663
vn 0.1536715540321291 0.9672102505579423 -0.20221121141718856
vn 0.061461171882463264 0.9560485458765235 -0.2866944201289948
vn -0.05371690362539831 0.9432505966906525 -0.3277083961939179
vn -0.1745331315195442 0.9307361448670215 -0.3213540102570948
vn -0.2830780657828307 0.920323524204776 -0.26994703804534564
vn -0.36426432672988496 0.9133552201933415 -0.18191680783550462
vn -0.9378401179685744 0.3034323945443037 -0.16847740038042947
vn -0.9334983214152852 0.3041081995739488 0.18999744159101986
vn -0.7954337819819972 0.3063057143057162 0.5229358003858999
vn -0.5413025082956243 0.30970588189819775 0.7817120996800091
vn -0.20518162641459906 0.3138590881350687 0.9270344756612714
vn 0.16643788631386258 0.31814790716675084 0.9333168186229781
vn 0.5163314897923202 0.321900495427252 0.79358793215422
vn 0.7867054613916652 0.3245152903447972 0.5251516769127299
vn 0.9302192110370404 0.3255393886827145 0.16945874428551688
vn 0.9212151271913149 0.32479788560233536 -0.21417041062853626
vn 0.7620284710388666 0.3223824828699913 -0.5615888962640663
vn 0.48232193394333933 0.3187493969862995 -0.8159438216112815
vn 0.1322850416499694 0.3145428084498076 -0.9399805505242566
vn -0.2347294912951986 0.31033450585171884 -0.9211918933997134
vn -0.5636033045852048 0.30678010167665304 -0.7669662481174926
vn -0.808863105939679 0.30437828590040816 -0.5030847587617725
usemtl material_0_0
f 1//1 2//1 3//1
f 2//1 1//1 4//1
f 2//1 4//1 5//1
f 5//1 4//1 6//1
f 5//1 6//1 7//1
f 7//1 6//1 8//1
f 7//1 8//1 9//1
f 9//1 8//1 10//1
f 9//1 10//1 11//1
f 11//1 10//1 12//1
f 11//1 12//1 13//1
f 13//1 12//1 14//1
f 13//1 14//1 15//1
f 15//1 14//1 16//1
f 17//2 18//2 19//2
f 18//2 17//2 20//2
f 21//3 22//3 23//3
f 22//3 21//3 24//3
f 25//4 26//4 27//4
f 26//4 25//4 28//4
f 29//5 30//5 31//5
f 30//5 29//5 32//5
f 33//6 34//6 35//6
f 34//6 33//6 36//6
f 37//7 38//7 39//7
f 38//7 37//7 40//7
f 41//8 42//8 43//8
f 42//8 41//8 44//8
f 45//9 46//9 47//9
f 46//9 45//9 48//9
f 49//10 50//10 51//10
f 50//10 49//10 52//10
f 53//11 54//11 55//11
f 54//11 53//11 56//11
f 57//12 58//12 59//12
f 58//12 57//12 60//12
f 61//13 62//13 63//13
f 62//13 61//13 64//13
f 65//14 66//14 67//14
f 66//14 65//14 68//14
f 69//15 70//15 71//15
f 70//15 69//15 72//15
f 73//16 74//16 75//16
f 74//16 73//16 76//16
f 77//17 78//17 79//17
f 78//17 77//17 80//17
f 81//18 82//18 83//18
f 82//18 81//18 84//18
f 85//19 86//19 87//19
f 86//19 85//19 88//19
f 89//20 90//20 91//20
f 90//20 89//20 92//20
f 93//21 94//21 95//21
f 94//21 93//21 96//21
f 97//22 98//22 99//22
f 98//22 97//22 100//22
f 101//23 102//23 103//23
f 102//23 101//23 104//23
f 105//24 106//24 107//24
f 106//24 105//24 108//24
f 109//25 110//25 111//25
f 110//25 109//25 112//25
f 113//26 114//26 115//26
f 114//26 113//26 116//26
f 117//27 118//27 119//27
f 118//27 117//27 120//27
f 121//28 122//28 123//28
f 122//28 121//28 124//28
f 125//29 126//29 127//29
f 126//29 125//29 128//29
f 129//30 130//30 131//30
f 130//30 129//30 132//30
f 133//31 134//31 135//31
f 134//31 133//31 136//31
f 137//32 138//32 139//32
f 138//32 137//32 140//32
f 141//33 142//33 143//33
f 142//33 141//33 144//33
