# SSTK version 0.8.0
# 9
mtllib original-9.mtl
o #ID51
v -0.14054486940135227 0.6279729977082628 -0.016568589877876856
v -0.13979789303791934 0.6279979977081714 -0.01846152808829174
v -0.14036091092165912 0.6279689977082773 -0.01758507854712259
v -0.1403258735180269 0.628007997708135 -0.015558246996461054
v -0.1389531530627008 0.6280529977079707 -0.019044255562774958
v -0.1397359386515782 0.6280699977079088 -0.014706794833948527
v -0.13793837697333858 0.628127997707697 -0.019263840214326713
v -0.13886294562063545 0.6281479977076242 -0.014146024741053033
v -0.136916835146439 0.6282099977073978 -0.019079199415136177
v -0.13784140379373588 0.6282299977073248 -0.013961383941862504
v -0.13604478763409966 0.6282879977071131 -0.01851875489021251
v -0.1368285187415806 0.6283049977070512 -0.014181619729357909
v -0.13545485276765096 0.6283489977068906 -0.01766730272769996
v -0.1359824764944701 0.6283599977068505 -0.01476812927826881
v -0.13523491136572222 0.6283849977067593 -0.01665663427831235
v -0.13541854427744235 0.6283879977067482 -0.01564109112767356
v -0.14156589610060916 0.6275589977097736 -0.016548932531819105
v -0.14036091092165912 0.6279689977082773 -0.01758507854712259
v -0.14131068933841762 0.6275539977097917 -0.01795970621568795
v -0.14054486940135227 0.6279729977082628 -0.016568589877876856
v -0.141261576594529 0.6276079977095949 -0.015147504148696938
v -0.14054486940135227 0.6279729977082628 -0.016568589877876856
v -0.14156589610060916 0.6275589977097736 -0.016548932531819105
v -0.1403258735180269 0.628007997708135 -0.015558246996461054
v -0.14044369321141778 0.6276919977092883 -0.0139690222266318
v -0.1403258735180269 0.628007997708135 -0.015558246996461054
v -0.141261576594529 0.6276079977095949 -0.015147504148696938
v -0.1397359386515782 0.6280699977079088 -0.014706794833948527
v -0.13923760447557296 0.627799997708894 -0.013193084196928752
v -0.1397359386515782 0.6280699977079088 -0.014706794833948527
v -0.14044369321141778 0.6276919977092883 -0.0139690222266318
v -0.13886294562063545 0.6281479977076242 -0.014146024741053033
v -0.13782588527773112 0.627913997708478 -0.0129375518692013
v -0.13886294562063545 0.6281479977076242 -0.014146024741053033
v -0.13923760447557296 0.627799997708894 -0.013193084196928752
v -0.13784140379373588 0.6282299977073248 -0.013961383941862504
v -0.13782588527773112 0.627913997708478 -0.0129375518692013
v -0.1368285187415806 0.6283049977070512 -0.014181619729357909
v -0.13784140379373588 0.6282299977073248 -0.013961383941862504
v -0.13642318581137888 0.6280179977080985 -0.013242491329940423
v -0.13642318581137888 0.6280179977080985 -0.013242491329940423
v -0.1359824764944701 0.6283599977068505 -0.01476812927826881
v -0.1368285187415806 0.6283049977070512 -0.014181619729357909
v -0.13524949385451374 0.6280949977078175 -0.01405567831032534
v -0.13524949385451374 0.6280949977078175 -0.01405567831032534
v -0.13541854427744235 0.6283879977067482 -0.01564109112767356
v -0.1359824764944701 0.6283599977068505 -0.01476812927826881
v -0.13446909142865676 0.6281339977076751 -0.015265517940501249
v -0.13541854427744235 0.6283879977067482 -0.01564109112767356
v -0.13421388466646533 0.6281289977076935 -0.0166762916243701
v -0.13523491136572222 0.6283849977067593 -0.01665663427831235
v -0.13446909142865676 0.6281339977076751 -0.015265517940501249
v -0.13523491136572222 0.6283849977067593 -0.01665663427831235
v -0.13451820417254545 0.6280799977078723 -0.01807772000749227
v -0.13545485276765096 0.6283489977068906 -0.01766730272769996
v -0.13421388466646533 0.6281289977076935 -0.0166762916243701
v -0.13545485276765096 0.6283489977068906 -0.01766730272769996
v -0.13533608755565657 0.6279949977081825 -0.01925620192955738
v -0.13604478763409966 0.6282879977071131 -0.01851875489021251
v -0.13451820417254545 0.6280799977078723 -0.01807772000749227
v -0.13604478763409966 0.6282879977071131 -0.01851875489021251
v -0.13654312181010492 0.6278869977085766 -0.02003246552723227
v -0.136916835146439 0.6282099977073978 -0.019079199415136177
v -0.13533608755565657 0.6279949977081825 -0.01925620192955738
v -0.13793837697333858 0.628127997707697 -0.019263840214326713
v -0.13654312181010492 0.6278869977085766 -0.02003246552723227
v -0.1379548410079468 0.6277719977089963 -0.020287997854959727
v -0.136916835146439 0.6282099977073978 -0.019079199415136177
v -0.1389531530627008 0.6280529977079707 -0.019044255562774958
v -0.1379548410079468 0.6277719977089963 -0.020287997854959727
v -0.139357540474299 0.6276689977093722 -0.019983058394220595
v -0.13793837697333858 0.628127997707697 -0.019263840214326713
v -0.13979789303791934 0.6279979977081714 -0.01846152808829174
v -0.139357540474299 0.6276689977093722 -0.019983058394220595
v -0.1405299301592722 0.6275929977096495 -0.019173653488263394
v -0.1389531530627008 0.6280529977079707 -0.019044255562774958
v -0.14036091092165912 0.6279689977082773 -0.01758507854712259
v -0.1405299301592722 0.6275929977096495 -0.019173653488263394
v -0.14131068933841762 0.6275539977097917 -0.01795970621568795
v -0.13979789303791934 0.6279979977081714 -0.01846152808829174
v -0.14156589610060916 0.6275589977097736 -0.016548932531819105
v -0.14162728214400389 0.6265229977135545 -0.018084582105209766
v -0.14190655350656256 0.6265289977135324 -0.016542488605790454
v -0.14131068933841762 0.6275539977097917 -0.01795970621568795
v -0.141261576594529 0.6276079977095949 -0.015147504148696938
v -0.14190655350656256 0.6265289977135324 -0.016542488605790454
v -0.14157410796576533 0.6265809977133427 -0.015010806911423447
v -0.14156589610060916 0.6275589977097736 -0.016548932531819105
v -0.14068044839397684 0.6266719977130106 -0.01372373876503371
v -0.141261576594529 0.6276079977095949 -0.015147504148696938
v -0.14157410796576533 0.6265809977133427 -0.015010806911423447
v -0.14044369321141778 0.6276919977092883 -0.0139690222266318
v -0.13936186041481652 0.6267889977125837 -0.012875220303572795
v -0.14044369321141778 0.6276919977092883 -0.0139690222266318
v -0.14068044839397684 0.6266719977130106 -0.01372373876503371
v -0.13923760447557296 0.627799997708894 -0.013193084196928752
v -0.13782038687108986 0.6269139977121274 -0.012597220030254493
v -0.13923760447557296 0.627799997708894 -0.013193084196928752
v -0.13936186041481652 0.6267889977125837 -0.012875220303572795
v -0.13782588527773112 0.627913997708478 -0.0129375518692013
v -0.1362887051803807 0.6270279977117116 -0.012929665575449143
v -0.13782588527773112 0.627913997708478 -0.0129375518692013
v -0.13782038687108986 0.6269139977121274 -0.012597220030254493
v -0.13642318581137888 0.6280179977080985 -0.013242491329940423
v -0.13500548148072938 0.6271129977114014 -0.013818303177001454
v -0.13642318581137888 0.6280179977080985 -0.013242491329940423
v -0.1362887051803807 0.6270279977117116 -0.012929665575449143
v -0.13524949385451374 0.6280949977078175 -0.01405567831032534
v -0.13415249862307058 0.6271569977112407 -0.015140642050979444
v -0.13524949385451374 0.6280949977078175 -0.01405567831032534
v -0.13500548148072938 0.6271129977114014 -0.013818303177001454
v -0.13446909142865676 0.6281339977076751 -0.015265517940501249
v -0.13387417277911534 0.6271509977112626 -0.01668306111837058
v -0.13446909142865676 0.6281339977076751 -0.015265517940501249
v -0.13415249862307058 0.6271569977112407 -0.015140642050979444
v -0.13421388466646533 0.6281289977076935 -0.0166762916243701
v -0.13387417277911534 0.6271509977112626 -0.01668306111837058
v -0.13451820417254545 0.6280799977078723 -0.01807772000749227
v -0.13421388466646533 0.6281289977076935 -0.0166762916243701
v -0.1342066183199126 0.6270959977114634 -0.01821474281273758
v -0.13533608755565657 0.6279949977081825 -0.01925620192955738
v -0.1342066183199126 0.6270959977114634 -0.01821474281273758
v -0.135100277891701 0.6270019977118062 -0.0195018109591273
v -0.13451820417254545 0.6280799977078723 -0.01807772000749227
v -0.13654312181010492 0.6278869977085766 -0.02003246552723227
v -0.135100277891701 0.6270019977118062 -0.0195018109591273
v -0.13641792035225792 0.6268839977122369 -0.02035000385261642
v -0.13533608755565657 0.6279949977081825 -0.01925620192955738
v -0.1379548410079468 0.6277719977089963 -0.020287997854959727
v -0.13641792035225792 0.6268839977122369 -0.02035000385261642
v -0.13796033941458807 0.6267589977126932 -0.02062832969390653
v -0.13654312181010492 0.6278869977085766 -0.02003246552723227
v -0.139357540474299 0.6276689977093722 -0.019983058394220595
v -0.13796033941458807 0.6267589977126932 -0.02062832969390653
v -0.1394920211052972 0.6266469977131018 -0.020295884148711876
v -0.1379548410079468 0.6277719977089963 -0.020287997854959727
v -0.139357540474299 0.6276689977093722 -0.019983058394220595
v -0.14077394253305647 0.6265639977134049 -0.01941102862158727
v -0.1405299301592722 0.6275929977096495 -0.019173653488263394
v -0.1394920211052972 0.6266469977131018 -0.020295884148711876
v -0.1405299301592722 0.6275929977096495 -0.019173653488263394
v -0.14162728214400389 0.6265229977135545 -0.018084582105209766
v -0.14131068933841762 0.6275539977097917 -0.01795970621568795
v -0.14077394253305647 0.6265639977134049 -0.01941102862158727
vn -0.07751267177408205 0.9968311264440707 -0.017874098455032256
vn -0.37590422352031405 0.9238919853231801 -0.07155136820590124
vn -0.3745321966116169 0.9259080390778155 0.04919269635063229
vn -0.328052298353525 0.9308570048504677 0.1608940999268646
vn -0.2425893603368401 0.9381370183111168 0.24708161298774825
vn -0.12994664217538154 0.9467737292220533 0.2945052855044399
vn -0.006655155895830093 0.9554614018062971 0.2950410254617984
vn 0.10839017073579076 0.9628266395516676 0.24741952580225368
vn 0.1966458066491413 0.9676424823117701 0.1581089565980163
vn 0.24356926025661646 0.9690460550696663 0.04029575331042928
vn 0.2407714918527672 0.9667616619876183 -0.0860288710732528
vn 0.18923728590108246 0.9612214131166544 -0.20060566610247793
vn 0.09821690774726317 0.9534149659303046 -0.28522505110363855
vn -0.017291646269773118 0.9446197380023084 -0.3277110565391658
vn -0.13906081322852473 0.936227444839699 -0.32270768145930073
vn -0.24863302043349106 0.9294629127286927 -0.2725441247273174
vn -0.33212418145881023 0.9251102477554896 -0.1840232100240444
vn -0.936017464173812 0.3079249924886425 -0.17045071219637348
vn -0.9316776888052012 0.3085883056946068 0.1917025896654547
vn -0.7912723343201614 0.31029440208984505 0.5268827389486793
vn -0.5333324900849925 0.31278571395903076 0.7859526053461149
vn -0.19356327616639352 0.3156596078477681 0.9289199191642283
vn 0.17844060644514917 0.3185223834766817 0.9309685203570383
vn 0.5251019217663946 0.3209333100453298 0.7882066509013878
vn 0.7906456711293841 0.3224964806517773 0.520456898321162
vn 0.9315319027081997 0.3229560874213224 0.16717541662040716
vn 0.922689872208243 0.3222164798493826 -0.2117070654761708
vn 0.76725730785753 0.3204216918668358 -0.5555592741941601
vn 0.4925714506175277 0.31784329924612365 -0.8101536577499078
vn 0.1441356363831371 0.3149212062441745 -0.9381095342124679
vn -0.2233730037059223 0.3121044091090032 -0.9234150113756051
vn -0.5535060330463334 0.30979088337153793 -0.7730851321933584
vn -0.8044724267704015 0.30833019426431685 -0.5076972972238045
usemtl material_0_0
f 1//1 2//1 3//1
f 2//1 1//1 4//1
f 2//1 4//1 5//1
f 5//1 4//1 6//1
f 5//1 6//1 7//1
f 7//1 6//1 8//1
f 7//1 8//1 9//1
f 9//1 8//1 10//1
f 9//1 10//1 11//1
f 11//1 10//1 12//1
f 11//1 12//1 13//1
f 13//1 12//1 14//1
f 13//1 14//1 15//1
f 15//1 14//1 16//1
f 17//2 18//2 19//2
f 18//2 17//2 20//2
f 21//3 22//3 23//3
f 22//3 21//3 24//3
f 25//4 26//4 27//4
f 26//4 25//4 28//4
f 29//5 30//5 31//5
f 30//5 29//5 32//5
f 33//6 34//6 35//6
f 34//6 33//6 36//6
f 37//7 38//7 39//7
f 38//7 37//7 40//7
f 41//8 42//8 43//8
f 42//8 41//8 44//8
f 45//9 46//9 47//9
f 46//9 45//9 48//9
f 49//10 50//10 51//10
f 50//10 49//10 52//10
f 53//11 54//11 55//11
f 54//11 53//11 56//11
f 57//12 58//12 59//12
f 58//12 57//12 60//12
f 61//13 62//13 63//13
f 62//13 61//13 64//13
f 65//14 66//14 67//14
f 66//14 65//14 68//14
f 69//15 70//15 71//15
f 70//15 69//15 72//15
f 73//16 74//16 75//16
f 74//16 73//16 76//16
f 77//17 78//17 79//17
f 78//17 77//17 80//17
f 81//18 82//18 83//18
f 82//18 81//18 84//18
f 85//19 86//19 87//19
f 86//19 85//19 88//19
f 89//20 90//20 91//20
f 90//20 89//20 92//20
f 93//21 94//21 95//21
f 94//21 93//21 96//21
f 97//22 98//22 99//22
f 98//22 97//22 100//22
f 101//23 102//23 103//23
f 102//23 101//23 104//23
f 105//24 106//24 107//24
f 106//24 105//24 108//24
f 109//25 110//25 111//25
f 110//25 109//25 112//25
f 113//26 114//26 115//26
f 114//26 113//26 116//26
f 117//27 118//27 119//27
f 118//27 117//27 120//27
f 121//28 122//28 123//28
f 122//28 121//28 124//28
f 125//29 126//29 127//29
f 126//29 125//29 128//29
f 129//30 130//30 131//30
f 130//30 129//30 132//30
f 133//31 134//31 135//31
f 134//31 133//31 136//31
f 137//32 138//32 139//32
f 138//32 137//32 140//32
f 141//33 142//33 143//33
f 142//33 141//33 144//33
